<?xml version="1.0" encoding="iso-8859-1"?>
<!-- Generator: Adobe Illustrator 16.0.0, SVG Export Plug-In . SVG Version: 6.00 Build 0)  -->
<!DOCTYPE svg PUBLIC "-//W3C//DTD SVG 1.1//EN" "http://www.w3.org/Graphics/SVG/1.1/DTD/svg11.dtd">
<svg version="1.1" id="Calque_1" xmlns="http://www.w3.org/2000/svg" xmlns:xlink="http://www.w3.org/1999/xlink" x="0px" y="0px"
	 width="1280px" height="400px" viewBox="0 0 1280 400" style="enable-background:new 0 0 1280 400;" xml:space="preserve">
<style type="text/css">
<![CDATA[
	.st0{display:none;fill:#2D2D2D;}
	.st1{fill:#FFFFFF;}
]]>
</style>
<rect x="2" class="st0" width="1280" height="400"/>
<g>
	<g>
		<path class="st1" d="M614.586,205.908h-1.312l-1.404-5.15c-0.092-0.322-0.227-0.899-0.403-1.732
			c-0.1,0.445-0.184,0.817-0.253,1.116c-0.069,0.299-0.593,2.221-1.571,5.766h-1.312l-2.388-8.108h1.145l1.456,5.15
			c0.172,0.644,0.332,1.308,0.478,1.991c0.092-0.422,0.199-0.882,0.319-1.381c0.121-0.499,0.653-2.419,1.597-5.76h1.053l1.41,5.046
			c0.215,0.825,0.384,1.523,0.506,2.095l0.052-0.201c0.104-0.441,0.188-0.801,0.253-1.079s0.604-2.232,1.617-5.861h1.145
			L614.586,205.908z"/>
		<path class="st1" d="M625.617,201.816c0,0.848-0.162,1.59-0.486,2.227s-0.79,1.126-1.396,1.467
			c-0.606,0.341-1.322,0.512-2.146,0.512c-0.833,0-1.551-0.169-2.155-0.506c-0.604-0.338-1.066-0.826-1.384-1.465
			s-0.478-1.384-0.478-2.235c0-1.297,0.355-2.311,1.064-3.041c0.71-0.731,1.698-1.097,2.964-1.097c0.825,0,1.54,0.164,2.146,0.492
			c0.606,0.328,1.069,0.805,1.39,1.43C625.457,200.226,625.617,200.965,625.617,201.816z M624.495,201.816
			c0-1.009-0.252-1.801-0.756-2.376c-0.504-0.576-1.217-0.863-2.138-0.863c-0.929,0-1.646,0.284-2.152,0.852s-0.76,1.364-0.76,2.388
			c0,1.017,0.256,1.823,0.769,2.419c0.512,0.597,1.223,0.895,2.132,0.895c0.936,0,1.654-0.289,2.155-0.866
			C624.245,203.688,624.495,202.872,624.495,201.816z"/>
		<path class="st1" d="M632.879,205.908l-2.106-3.366h-2.526v3.366h-1.099V197.8h3.815c0.913,0,1.618,0.204,2.115,0.613
			c0.497,0.409,0.745,0.978,0.745,1.706c0,0.603-0.175,1.109-0.526,1.52c-0.351,0.41-0.835,0.669-1.453,0.777l2.302,3.493H632.879z
			 M632.718,200.13c0-0.472-0.16-0.832-0.48-1.079s-0.782-0.371-1.384-0.371h-2.606v2.992h2.653c0.579,0,1.027-0.135,1.343-0.406
			C632.56,200.997,632.718,200.618,632.718,200.13z"/>
		<path class="st1" d="M641.057,205.908l-3.24-3.913l-1.059,0.806v3.107h-1.099V197.8h1.099v4.062l3.907-4.062h1.294l-3.452,3.521
			l3.913,4.586H641.057z"/>
		<path class="st1" d="M646.793,205.908V197.8h6.151v0.897h-5.053v2.601h4.707v0.886h-4.707v2.826h5.289v0.897H646.793z"/>
		<path class="st1" d="M660.086,205.908l-2.434-3.545l-2.486,3.545h-1.214l3.084-4.212l-2.848-3.896h1.214l2.256,3.182l2.192-3.182
			h1.214l-2.773,3.855l3.01,4.252H660.086z"/>
		<path class="st1" d="M668.787,200.24c0,0.767-0.251,1.377-0.751,1.83c-0.501,0.453-1.181,0.679-2.04,0.679h-2.383v3.159h-1.099
			V197.8h3.412c0.909,0,1.613,0.213,2.112,0.639C668.537,198.864,668.787,199.465,668.787,200.24z M667.682,200.251
			c0-1.047-0.629-1.571-1.887-1.571h-2.182v3.2h2.228C667.068,201.88,667.682,201.337,667.682,200.251z"/>
		<path class="st1" d="M670.375,205.908V197.8h6.151v0.897h-5.053v2.601h4.707v0.886h-4.707v2.826h5.289v0.897H670.375z"/>
		<path class="st1" d="M683.967,205.908l-2.106-3.366h-2.526v3.366h-1.099V197.8h3.815c0.913,0,1.617,0.204,2.114,0.613
			s0.745,0.978,0.745,1.706c0,0.603-0.175,1.109-0.526,1.52c-0.351,0.41-0.835,0.669-1.453,0.777l2.302,3.493H683.967z
			 M683.806,200.13c0-0.472-0.16-0.832-0.48-1.079s-0.782-0.371-1.384-0.371h-2.607v2.992h2.653c0.579,0,1.027-0.135,1.344-0.406
			C683.647,200.997,683.806,200.618,683.806,200.13z"/>
		<path class="st1" d="M686.867,205.908V197.8h1.099v8.108H686.867z"/>
		<path class="st1" d="M690.021,205.908V197.8h6.151v0.897h-5.053v2.601h4.707v0.886h-4.707v2.826h5.289v0.897H690.021z"/>
		<path class="st1" d="M703.141,205.908l-4.339-6.905l0.028,0.558l0.029,0.961v5.386h-0.979V197.8h1.277l4.385,6.951
			c-0.046-0.752-0.069-1.296-0.069-1.634V197.8h0.99v8.108H703.141z"/>
		<path class="st1" d="M709.982,198.577c-0.897,0-1.596,0.289-2.095,0.866c-0.499,0.577-0.748,1.369-0.748,2.374
			c0,0.994,0.26,1.792,0.779,2.396c0.521,0.604,1.224,0.906,2.109,0.906c1.136,0,1.989-0.562,2.561-1.686l0.897,0.449
			c-0.333,0.698-0.803,1.229-1.406,1.594c-0.604,0.365-1.306,0.547-2.104,0.547c-0.817,0-1.524-0.17-2.12-0.509
			c-0.597-0.34-1.052-0.825-1.364-1.456c-0.312-0.631-0.469-1.378-0.469-2.241c0-1.293,0.349-2.306,1.047-3.039
			c0.698-0.732,1.665-1.099,2.9-1.099c0.863,0,1.584,0.169,2.164,0.507c0.579,0.337,1.005,0.838,1.277,1.501l-1.042,0.346
			c-0.188-0.472-0.49-0.833-0.906-1.082S710.554,198.577,709.982,198.577z"/>
		<path class="st1" d="M714.902,205.908V197.8h6.151v0.897h-5.053v2.601h4.707v0.886h-4.707v2.826h5.289v0.897H714.902z"/>
	</g>
	<g>
		<path class="st1" d="M589.604,208.378h-0.141v-3.777h0.141c0.228,0,0.413-0.186,0.413-0.413c0-0.227-0.185-0.412-0.413-0.412
			h-0.152c-0.187-3.189-2.77-5.744-5.972-5.885v-7.18c0-2.929-2.25-5.34-5.111-5.598v-0.939c0-0.562-0.458-1.019-1.02-1.019h-10.102
			c-0.562,0-1.019,0.457-1.019,1.019v0.938c-2.862,0.259-5.113,2.67-5.113,5.599v7.18c-3.201,0.141-5.785,2.695-5.971,5.885h-0.152
			c-0.227,0-0.412,0.185-0.412,0.412c0,0.228,0.185,0.413,0.412,0.413h0.141v3.777h-0.141c-0.227,0-0.412,0.186-0.412,0.413
			c0,0.228,0.185,0.412,0.412,0.412h0.141v1.265c0,1.485,1.208,2.694,2.694,2.694h3.289v0.25c0,1.893,1.54,3.432,3.431,3.432h15.503
			c1.892,0,3.431-1.539,3.431-3.432v-0.25h3.289c1.486,0,2.694-1.209,2.694-2.694v-1.265h0.14c0.229,0,0.414-0.185,0.414-0.412
			C590.017,208.564,589.832,208.378,589.604,208.378L589.604,208.378z M588.64,208.378h-5.159v-3.777h5.159V208.378z
			 M588.626,203.776h-5.145v-5.059C586.228,198.855,588.441,201.042,588.626,203.776L588.626,203.776z M582.651,190.508
			c-0.792,2.053-2.163,3.81-3.972,5.084c-0.607,0.427-1.249,0.788-1.917,1.083v-1.508h0.463c0.227,0,0.412-0.185,0.412-0.412v-1.749
			c0-0.228-0.185-0.412-0.412-0.412h-0.463v-6.679h1.098C580.437,185.915,582.544,187.956,582.651,190.508L582.651,190.508z
			 M568.71,193.418v0.924h-0.924v-0.924H568.71z M569.123,195.167c0.229,0,0.413-0.185,0.413-0.412v-1.749
			c0-0.228-0.185-0.412-0.413-0.412h-0.461v-6.679h7.275v6.679h-0.462c-0.228,0-0.413,0.184-0.413,0.412v1.749
			c0,0.228,0.185,0.412,0.413,0.412h0.462v1.831c-1.159,0.402-2.384,0.611-3.638,0.611s-2.479-0.209-3.637-0.611v-1.831H569.123z
			 M575.887,194.343v-0.924h0.924v0.924H575.887z M567.248,183.981h10.102c0.107,0,0.195,0.087,0.195,0.194v0.915h-10.49v-0.915
			C567.055,184.068,567.141,183.981,567.248,183.981L567.248,183.981z M566.739,185.915h1.097v6.679h-0.461
			c-0.227,0-0.412,0.184-0.412,0.412v1.749c0,0.228,0.185,0.412,0.412,0.412h0.461v1.508c-0.668-0.295-1.309-0.656-1.917-1.083
			c-1.809-1.275-3.18-3.031-3.972-5.084C562.054,187.956,564.162,185.915,566.739,185.915L566.739,185.915z M561.116,198.717v5.059
			h-5.145C556.156,201.042,558.37,198.855,561.116,198.717L561.116,198.717z M555.958,204.602h5.158v3.777h-5.158V204.602z
			 M557.827,212.337c-1.03,0-1.869-0.838-1.869-1.869v-1.265h5.158v3.134H557.827z M582.657,213.413
			c0,1.438-1.169,2.607-2.606,2.607h-15.503c-1.437,0-2.606-1.169-2.606-2.607v-20.998c0.864,1.519,2.052,2.83,3.503,3.852
			c0.751,0.529,1.554,0.966,2.391,1.305v2.015c0,0.227,0.185,0.413,0.414,0.413c0.227,0,0.412-0.186,0.412-0.413v-1.718
			c1.165,0.373,2.388,0.565,3.637,0.565c1.249,0,2.473-0.193,3.638-0.565v1.718c0,0.227,0.185,0.413,0.413,0.413
			c0.228,0,0.412-0.186,0.412-0.413v-2.016c0.838-0.338,1.641-0.774,2.393-1.304c1.449-1.022,2.639-2.333,3.502-3.849V213.413z
			 M588.64,210.468c0,1.031-0.838,1.869-1.87,1.869h-3.289v-3.134h5.159V210.468z M588.64,210.468"/>
		<path class="st1" d="M578.947,202.948h-13.296c-0.445,0-0.806,0.361-0.806,0.806v5.982c0,2.244,1.825,4.069,4.069,4.069h6.77
			c2.244,0,4.069-1.825,4.069-4.069v-5.982C579.753,203.31,579.391,202.948,578.947,202.948L578.947,202.948z M572.299,205.709
			c-0.228,0-0.413,0.185-0.413,0.412v1.337h-3.364c-1.573,0-2.852-1.279-2.852-2.853v-0.832h13.258v0.832
			c0,1.573-1.279,2.853-2.853,2.853h-3.364v-1.337C572.711,205.894,572.527,205.709,572.299,205.709L572.299,205.709z
			 M578.928,209.736c0,1.789-1.456,3.245-3.245,3.245h-6.77c-1.789,0-3.244-1.456-3.244-3.245v-2.813
			c0.674,0.829,1.702,1.36,2.852,1.36h3.364v2.257c0,0.228,0.185,0.413,0.413,0.413c0.228,0,0.412-0.185,0.412-0.413v-2.257h3.365
			c1.15,0,2.178-0.531,2.853-1.36V209.736z M578.928,209.736"/>
	</g>
</g>
</svg>
