<?xml version="1.0" encoding="iso-8859-1"?>
<!-- Generator: Adobe Illustrator 16.0.0, SVG Export Plug-In . SVG Version: 6.00 Build 0)  -->
<!DOCTYPE svg PUBLIC "-//W3C//DTD SVG 1.1//EN" "http://www.w3.org/Graphics/SVG/1.1/DTD/svg11.dtd">
<svg version="1.1" id="Calque_1" xmlns="http://www.w3.org/2000/svg" xmlns:xlink="http://www.w3.org/1999/xlink" x="0px" y="0px"
	 width="1280px" height="400px" viewBox="0 0 1280 400" style="enable-background:new 0 0 1280 400;" xml:space="preserve">
<style type="text/css">
<![CDATA[
	.st0{display:none;fill:#2D2D2D;}
	.st1{fill:#FFFFFF;}
]]>
</style>
<rect x="2" class="st0" width="1280" height="400"/>
<g>
	<g>
		<path class="st1" d="M610.659,191.675h-4.896l-2.297-5.742h-14.556l-2.296,5.742h-0.759v-2.871h-3.446v2.871h-0.69
			c-1.519,0-2.755,1.237-2.755,2.756v16.861c0,1.531,1.244,2.775,2.775,2.775h28.901c1.531,0,2.775-1.244,2.775-2.775v-16.861
			C613.415,192.912,612.179,191.675,610.659,191.675L610.659,191.675z M583.555,189.953h1.15v1.722h-1.15V189.953z M612.266,211.292
			c0,0.899-0.729,1.63-1.626,1.63h-28.901c-0.897,0-1.625-0.732-1.625-1.63v-16.861c0-0.886,0.72-1.605,1.605-1.605h5.673
			l2.295-6.074h13.004l2.296,6.074h5.672c0.887,0,1.607,0.719,1.607,1.605V211.292z M612.266,211.292"/>
		<path class="st1" d="M596.188,191.099c-5.699,0-10.333,4.638-10.333,10.339c0,5.695,4.634,10.333,10.333,10.333
			c5.701,0,10.335-4.638,10.335-10.333C606.523,195.737,601.889,191.099,596.188,191.099L596.188,191.099z M596.188,210.622
			c-5.066,0-9.188-4.121-9.188-9.184c0-5.067,4.121-9.188,9.188-9.188c5.067,0,9.188,4.121,9.188,9.188
			C605.377,206.501,601.255,210.622,596.188,210.622L596.188,210.622z M596.188,210.622"/>
		<path class="st1" d="M596.188,194.546c-3.799,0-6.891,3.09-6.891,6.893c0,3.798,3.092,6.888,6.891,6.888
			c3.8,0,6.893-3.09,6.893-6.888C603.081,197.636,599.988,194.546,596.188,194.546L596.188,194.546z M596.188,207.18
			c-3.165,0-5.741-2.577-5.741-5.741c0-3.17,2.577-5.743,5.741-5.743c3.167,0,5.743,2.573,5.743,5.743
			C601.932,204.603,599.355,207.18,596.188,207.18L596.188,207.18z M596.188,207.18"/>
		<path class="st1" d="M608.823,193.971c-1.267,0-2.299,1.033-2.299,2.295c0,1.268,1.032,2.3,2.299,2.3
			c1.264,0,2.296-1.032,2.296-2.3C611.119,195.004,610.087,193.971,608.823,193.971L608.823,193.971z M608.823,197.417
			c-0.634,0-1.149-0.516-1.149-1.15c0-0.63,0.515-1.146,1.149-1.146c0.63,0,1.146,0.516,1.146,1.146
			C609.969,196.901,609.453,197.417,608.823,197.417L608.823,197.417z M608.823,197.417"/>
	</g>
	<g>
		<path class="st1" d="M636.768,200.555c0,0.768-0.25,1.377-0.751,1.83c-0.501,0.453-1.181,0.679-2.04,0.679h-2.382v3.159h-1.099
			v-8.108h3.412c0.909,0,1.613,0.213,2.112,0.639C636.518,199.179,636.768,199.78,636.768,200.555z M635.663,200.566
			c0-1.047-0.629-1.571-1.888-1.571h-2.181v3.2h2.227C635.049,202.195,635.663,201.652,635.663,200.566z"/>
		<path class="st1" d="M645.991,202.131c0,0.848-0.162,1.591-0.486,2.228s-0.789,1.126-1.396,1.468
			c-0.605,0.341-1.321,0.512-2.146,0.512c-0.833,0-1.551-0.169-2.155-0.506c-0.604-0.338-1.066-0.826-1.384-1.465
			s-0.478-1.385-0.478-2.236c0-1.296,0.355-2.31,1.064-3.041c0.71-0.731,1.698-1.097,2.963-1.097c0.825,0,1.54,0.164,2.146,0.492
			s1.069,0.805,1.39,1.43C645.831,200.541,645.991,201.279,645.991,202.131z M644.869,202.131c0-1.008-0.252-1.801-0.757-2.376
			c-0.504-0.576-1.217-0.863-2.138-0.863c-0.928,0-1.646,0.284-2.152,0.852s-0.76,1.364-0.76,2.388c0,1.018,0.256,1.824,0.769,2.42
			c0.512,0.597,1.223,0.895,2.132,0.895c0.936,0,1.654-0.288,2.154-0.865C644.619,204.002,644.869,203.187,644.869,202.131z"/>
		<path class="st1" d="M653.254,206.223l-2.106-3.366h-2.526v3.366h-1.099v-8.108h3.815c0.913,0,1.617,0.204,2.114,0.613
			s0.745,0.978,0.745,1.706c0,0.603-0.175,1.109-0.526,1.52c-0.351,0.41-0.835,0.67-1.453,0.777l2.302,3.492H653.254z
			 M653.093,200.445c0-0.472-0.16-0.832-0.48-1.079s-0.782-0.371-1.384-0.371h-2.607v2.992h2.653c0.579,0,1.027-0.136,1.344-0.405
			C652.935,201.312,653.093,200.933,653.093,200.445z"/>
		<path class="st1" d="M658.997,199.012v7.21h-1.094v-7.21h-2.785v-0.897h6.664v0.897H658.997z"/>
		<path class="st1" d="M664.117,199.012v3.015h4.523v0.91h-4.523v3.285h-1.099v-8.108h5.76v0.897H664.117z"/>
		<path class="st1" d="M677.854,202.131c0,0.848-0.162,1.591-0.486,2.228s-0.789,1.126-1.396,1.468
			c-0.605,0.341-1.321,0.512-2.146,0.512c-0.833,0-1.551-0.169-2.155-0.506c-0.604-0.338-1.065-0.826-1.384-1.465
			s-0.478-1.385-0.478-2.236c0-1.296,0.354-2.31,1.064-3.041c0.709-0.731,1.697-1.097,2.963-1.097c0.825,0,1.54,0.164,2.146,0.492
			s1.069,0.805,1.39,1.43C677.693,200.541,677.854,201.279,677.854,202.131z M676.731,202.131c0-1.008-0.252-1.801-0.757-2.376
			c-0.504-0.576-1.217-0.863-2.138-0.863c-0.928,0-1.646,0.284-2.151,0.852c-0.507,0.568-0.76,1.364-0.76,2.388
			c0,1.018,0.256,1.824,0.768,2.42c0.513,0.597,1.224,0.895,2.133,0.895c0.936,0,1.654-0.288,2.154-0.865
			C676.481,204.002,676.731,203.187,676.731,202.131z"/>
		<path class="st1" d="M679.385,206.223v-8.108h1.099v7.21h4.098v0.897H679.385z"/>
		<path class="st1" d="M686.06,206.223v-8.108h1.099v8.108H686.06z"/>
		<path class="st1" d="M696.849,202.131c0,0.848-0.162,1.591-0.486,2.228s-0.789,1.126-1.396,1.468
			c-0.605,0.341-1.321,0.512-2.146,0.512c-0.833,0-1.551-0.169-2.155-0.506c-0.604-0.338-1.065-0.826-1.384-1.465
			s-0.478-1.385-0.478-2.236c0-1.296,0.354-2.31,1.064-3.041c0.709-0.731,1.697-1.097,2.963-1.097c0.825,0,1.54,0.164,2.146,0.492
			s1.069,0.805,1.39,1.43C696.688,200.541,696.849,201.279,696.849,202.131z M695.727,202.131c0-1.008-0.252-1.801-0.757-2.376
			c-0.504-0.576-1.217-0.863-2.138-0.863c-0.928,0-1.646,0.284-2.151,0.852c-0.507,0.568-0.76,1.364-0.76,2.388
			c0,1.018,0.256,1.824,0.768,2.42c0.513,0.597,1.224,0.895,2.133,0.895c0.936,0,1.654-0.288,2.154-0.865
			C695.477,204.002,695.727,203.187,695.727,202.131z"/>
	</g>
</g>
</svg>
