<?xml version="1.0" encoding="iso-8859-1"?>
<!-- Generator: Adobe Illustrator 16.0.0, SVG Export Plug-In . SVG Version: 6.00 Build 0)  -->
<!DOCTYPE svg PUBLIC "-//W3C//DTD SVG 1.1//EN" "http://www.w3.org/Graphics/SVG/1.1/DTD/svg11.dtd">
<svg version="1.1" id="Calque_1" xmlns="http://www.w3.org/2000/svg" xmlns:xlink="http://www.w3.org/1999/xlink" x="0px" y="0px"
	 width="1280px" height="400px" viewBox="0 0 1280 400" style="enable-background:new 0 0 1280 400;" xml:space="preserve">
<style type="text/css">
<![CDATA[
	.st0{display:none;fill:#2D2D2D;}
	.st1{fill:#FFFFFF;}
]]>
</style>
<rect x="2" class="st0" width="1280" height="400"/>
<g>
	<g>
		<path class="st1" d="M627.451,204.853v-8.108h6.151v0.897h-5.052v2.601h4.707v0.886h-4.707v2.826h5.288v0.897H627.451z"/>
		<path class="st1" d="M642.291,200.715c0,0.836-0.162,1.568-0.488,2.195c-0.326,0.627-0.789,1.107-1.388,1.441
			c-0.598,0.333-1.289,0.5-2.071,0.5h-3.033v-8.108h2.682c1.373,0,2.433,0.344,3.179,1.033
			C641.918,198.466,642.291,199.445,642.291,200.715z M641.186,200.715c0-1.005-0.274-1.771-0.825-2.299
			c-0.55-0.527-1.348-0.791-2.391-0.791h-1.56v6.347h1.807c0.595,0,1.117-0.13,1.568-0.391c0.451-0.261,0.797-0.637,1.039-1.128
			C641.065,201.962,641.186,201.383,641.186,200.715z"/>
		<path class="st1" d="M647.062,204.968c-0.663,0-1.242-0.121-1.737-0.363s-0.879-0.593-1.151-1.053
			c-0.272-0.46-0.408-1.009-0.408-1.646v-5.162h1.099v5.07c0,0.74,0.188,1.302,0.564,1.686c0.376,0.383,0.919,0.575,1.629,0.575
			c0.729,0,1.295-0.199,1.7-0.596c0.404-0.397,0.606-0.977,0.606-1.741v-4.995h1.094v5.058c0,0.656-0.139,1.222-0.417,1.698
			c-0.278,0.476-0.672,0.839-1.18,1.09C648.352,204.842,647.753,204.968,647.062,204.968z"/>
		<path class="st1" d="M655.924,197.521c-0.897,0-1.596,0.289-2.095,0.866c-0.499,0.577-0.748,1.369-0.748,2.374
			c0,0.994,0.26,1.792,0.779,2.396c0.521,0.604,1.224,0.906,2.109,0.906c1.136,0,1.989-0.562,2.561-1.686l0.897,0.449
			c-0.333,0.698-0.803,1.229-1.406,1.594c-0.604,0.365-1.306,0.547-2.104,0.547c-0.817,0-1.524-0.17-2.12-0.509
			c-0.597-0.34-1.052-0.825-1.364-1.456c-0.312-0.631-0.469-1.378-0.469-2.241c0-1.293,0.349-2.306,1.047-3.039
			c0.698-0.732,1.665-1.099,2.9-1.099c0.863,0,1.584,0.169,2.164,0.507c0.579,0.337,1.005,0.838,1.277,1.501l-1.042,0.346
			c-0.188-0.472-0.49-0.833-0.906-1.082S656.495,197.521,655.924,197.521z"/>
		<path class="st1" d="M666.593,204.853l-0.927-2.371h-3.694l-0.933,2.371H659.9l3.309-8.108h1.248l3.258,8.108H666.593z
			 M663.818,197.573l-0.052,0.161c-0.096,0.318-0.237,0.727-0.426,1.226l-1.035,2.665h3.032l-1.042-2.676
			c-0.107-0.265-0.215-0.564-0.322-0.898L663.818,197.573z"/>
		<path class="st1" d="M671.006,197.642v7.21h-1.094v-7.21h-2.785v-0.897h6.664v0.897H671.006z"/>
		<path class="st1" d="M675.149,204.853v-8.108h1.099v8.108H675.149z"/>
		<path class="st1" d="M685.938,200.761c0,0.848-0.162,1.59-0.486,2.227s-0.789,1.126-1.396,1.467
			c-0.605,0.341-1.321,0.512-2.146,0.512c-0.833,0-1.551-0.169-2.155-0.506c-0.604-0.338-1.065-0.826-1.384-1.465
			s-0.478-1.384-0.478-2.235c0-1.297,0.354-2.311,1.064-3.041c0.709-0.731,1.697-1.097,2.963-1.097c0.825,0,1.54,0.164,2.146,0.492
			s1.069,0.805,1.39,1.43C685.777,199.171,685.938,199.91,685.938,200.761z M684.815,200.761c0-1.009-0.252-1.801-0.757-2.376
			c-0.504-0.576-1.217-0.863-2.138-0.863c-0.928,0-1.646,0.284-2.151,0.852c-0.507,0.568-0.76,1.364-0.76,2.388
			c0,1.017,0.256,1.823,0.768,2.419c0.513,0.597,1.224,0.895,2.133,0.895c0.936,0,1.654-0.289,2.154-0.866
			C684.565,202.632,684.815,201.816,684.815,200.761z"/>
		<path class="st1" d="M692.729,204.853l-4.339-6.905l0.028,0.558l0.029,0.961v5.386h-0.979v-8.108h1.277l4.385,6.951
			c-0.046-0.752-0.069-1.296-0.069-1.634v-5.317h0.99v8.108H692.729z"/>
	</g>
	<g>
		<path class="st1" d="M610.7,211.505l-5.062-8.893c0.512-0.24,0.82-0.787,0.787-1.403l-0.376-3.147l2.154-2.257
			c0.479-0.479,0.514-1.3,0.035-1.881l-2.155-2.326l0.444-3.181c0.069-0.684-0.41-1.368-1.094-1.505l-3.112-0.615l-1.504-2.771
			c-0.309-0.65-1.062-0.923-1.746-0.65h-0.035l-2.872,1.334l-2.806-1.369c-0.307-0.171-0.684-0.206-1.025-0.103
			c-0.343,0.103-0.616,0.342-0.787,0.65l-1.54,2.771l-3.112,0.546c-0.719,0.138-1.197,0.787-1.128,1.54l0.376,3.147l-2.155,2.257
			c-0.479,0.479-0.514,1.3-0.035,1.881l2.155,2.326l-0.444,3.182c-0.069,0.616,0.308,1.198,0.889,1.437l-5.096,9.031
			c-0.137,0.205-0.103,0.479,0,0.684c0.137,0.205,0.342,0.341,0.583,0.341h5.471l2.497,4.344c0.137,0.205,0.342,0.342,0.582,0.342
			c0.239,0,0.479-0.137,0.581-0.342l4.892-8.346l4.891,8.448c0.137,0.206,0.341,0.342,0.582,0.342c0.239,0,0.479-0.136,0.581-0.342
			l2.498-4.447h5.473c0.239,0,0.479-0.137,0.582-0.341C610.836,211.984,610.836,211.71,610.7,211.505L610.7,211.505z M590.594,216
			l-2.281-4.188c-0.137-0.206-0.342-0.342-0.582-0.342l-5.106-0.002l4.907-8.651l2.336,0.341l1.506,2.772
			c0.307,0.649,1.06,0.922,1.744,0.649h0.034l1.403-0.649l0.882,1.57L590.594,216z M592.469,205.781L592.469,205.781l-1.594-3.062
			c-0.205-0.341-0.547-0.616-0.958-0.65l-3.229-0.631l0.375-3.281c0.068-0.411-0.069-0.854-0.342-1.128l-2.126-2.284l2.188-2.526
			c0.307-0.309,0.443-0.719,0.375-1.129l-0.284-3.152c0,0,0,0,0.034-0.035l3.188-0.684c0.376-0.068,0.752-0.308,0.958-0.684
			l1.573-2.91l2.969,1.438c0.375,0.206,0.855,0.206,1.231,0l2.862-1.375l0,0l1.75,3.062c0.206,0.341,0.548,0.615,0.924,0.65
			l3.201,0.725l-0.438,3.199c-0.069,0.411,0.068,0.855,0.342,1.129l2.154,2.326l-2.188,2.257c-0.308,0.308-0.445,0.718-0.377,1.129
			l0.23,3.421l-3.079,0.512c-0.376,0.069-0.752,0.309-0.957,0.685l-1.75,2.966l-2.824-1.5c-0.376-0.206-0.855-0.206-1.231,0
			L592.469,205.781z M604.5,211.5c-0.24,0-0.479,0.136-0.581,0.342l-2.419,4.189l-5.199-8.972c-0.033-0.103-0.067-0.17-0.136-0.239
			l-0.752-1.334l0.647-0.24l2.804,1.368c0.206,0.104,0.411,0.138,0.616,0.138c0.479,0,0.958-0.239,1.197-0.685l1.54-2.771
			l2.532-0.452l4.969,8.719L604.5,211.5z M604.235,211.164"/>
		<path class="st1" d="M602.9,194.745c0-3.762-3.079-6.842-6.84-6.842c-3.763,0-6.841,3.08-6.841,6.842
			c0,3.763,3.078,6.842,6.841,6.842C599.822,201.586,602.9,198.507,602.9,194.745L602.9,194.745z M596.06,200.625
			c-3.01,0-5.81-2.87-5.81-5.88c0-3.009,2.8-5.87,5.81-5.87s5.877,2.86,5.877,5.87C601.938,197.755,599.07,200.625,596.06,200.625
			L596.06,200.625z M596.06,200.217"/>
	</g>
</g>
</svg>
