<?xml version="1.0" encoding="iso-8859-1"?>
<!-- Generator: Adobe Illustrator 16.0.0, SVG Export Plug-In . SVG Version: 6.00 Build 0)  -->
<!DOCTYPE svg PUBLIC "-//W3C//DTD SVG 1.1//EN" "http://www.w3.org/Graphics/SVG/1.1/DTD/svg11.dtd">
<svg version="1.1" id="Calque_1" xmlns="http://www.w3.org/2000/svg" xmlns:xlink="http://www.w3.org/1999/xlink" x="0px" y="0px"
	 width="1280px" height="400px" viewBox="0 0 1280 400" style="enable-background:new 0 0 1280 400;" xml:space="preserve">
<style type="text/css">
<![CDATA[
	.st0{display:none;fill:#2D2D2D;}
	.st1{fill:#FFFFFF;}
]]>
</style>
<rect x="2" class="st0" width="1280" height="400"/>
<g>
	<g>
		<path class="st1" d="M645.436,205.847l-0.926-2.371h-3.695l-0.932,2.371h-1.14l3.31-8.108h1.248l3.258,8.108H645.436z
			 M642.662,198.567l-0.053,0.161c-0.096,0.318-0.236,0.727-0.426,1.226l-1.035,2.665h3.033l-1.043-2.676
			c-0.107-0.265-0.215-0.564-0.322-0.898L642.662,198.567z"/>
		<path class="st1" d="M653.82,203.562c0,0.722-0.263,1.283-0.789,1.683c-0.525,0.401-1.256,0.602-2.192,0.602h-3.291v-8.108h2.946
			c1.902,0,2.854,0.656,2.854,1.968c0,0.48-0.135,0.883-0.403,1.208c-0.269,0.326-0.648,0.545-1.14,0.656
			c0.645,0.077,1.142,0.292,1.491,0.647C653.646,202.573,653.82,203.021,653.82,203.562z M652.243,199.839
			c0-0.437-0.149-0.75-0.448-0.938c-0.3-0.188-0.733-0.282-1.301-0.282h-1.848v2.566h1.848c0.587,0,1.025-0.11,1.314-0.331
			C652.099,200.634,652.243,200.296,652.243,199.839z M652.71,203.476c0-0.956-0.672-1.433-2.015-1.433h-2.049v2.923h2.136
			c0.671,0,1.16-0.125,1.467-0.374S652.71,203.971,652.71,203.476z"/>
		<path class="st1" d="M663.044,201.755c0,0.848-0.162,1.59-0.486,2.227s-0.789,1.126-1.396,1.467
			c-0.605,0.341-1.321,0.512-2.146,0.512c-0.833,0-1.551-0.169-2.155-0.506c-0.604-0.338-1.065-0.826-1.384-1.465
			S655,202.607,655,201.755c0-1.297,0.354-2.311,1.064-3.041c0.709-0.731,1.697-1.097,2.963-1.097c0.825,0,1.54,0.164,2.146,0.492
			s1.069,0.805,1.39,1.43C662.884,200.165,663.044,200.904,663.044,201.755z M661.922,201.755c0-1.009-0.252-1.801-0.757-2.376
			c-0.504-0.576-1.217-0.863-2.138-0.863c-0.928,0-1.646,0.284-2.151,0.852c-0.507,0.568-0.76,1.364-0.76,2.388
			c0,1.017,0.256,1.823,0.768,2.419c0.513,0.597,1.224,0.895,2.133,0.895c0.936,0,1.654-0.289,2.154-0.866
			C661.672,203.626,661.922,202.811,661.922,201.755z"/>
		<path class="st1" d="M667.814,205.962c-0.663,0-1.242-0.121-1.737-0.363s-0.879-0.593-1.151-1.053
			c-0.272-0.46-0.408-1.009-0.408-1.646v-5.162h1.099v5.07c0,0.74,0.188,1.302,0.564,1.686c0.376,0.383,0.919,0.575,1.629,0.575
			c0.729,0,1.295-0.199,1.7-0.596c0.404-0.397,0.606-0.977,0.606-1.741v-4.995h1.094v5.058c0,0.656-0.139,1.222-0.417,1.698
			c-0.278,0.476-0.672,0.839-1.18,1.09C669.104,205.836,668.506,205.962,667.814,205.962z"/>
		<path class="st1" d="M676.263,198.636v7.21h-1.094v-7.21h-2.785v-0.897h6.664v0.897H676.263z"/>
		<path class="st1" d="M690.239,205.847v-5.409c0-0.599,0.018-1.174,0.052-1.726c-0.188,0.687-0.356,1.224-0.506,1.611l-2.095,5.524
			h-0.771l-2.123-5.524l-0.322-0.978l-0.19-0.633l0.018,0.639l0.023,1.087v5.409h-0.979v-8.108h1.444l2.158,5.622
			c0.076,0.227,0.15,0.469,0.222,0.728c0.07,0.259,0.117,0.446,0.141,0.561c0.03-0.153,0.095-0.387,0.192-0.699
			s0.164-0.509,0.199-0.59l2.117-5.622h1.41v8.108H690.239z"/>
		<path class="st1" d="M693.162,205.847v-8.108h6.151v0.897h-5.053v2.601h4.707v0.886h-4.707v2.826h5.289v0.897H693.162z"/>
	</g>
	<g>
		<path class="st1" d="M627.023,191.485c0.002-0.002,0.004-0.004,0.005-0.007c0.003-0.004,0.006-0.009,0.009-0.014
			c0.007-0.012,0.014-0.023,0.019-0.036c0.004-0.007,0.006-0.015,0.011-0.024c0.006-0.011,0.011-0.022,0.016-0.035
			c0.004-0.009,0.007-0.018,0.01-0.028c0.005-0.011,0.007-0.021,0.01-0.032c0.005-0.011,0.007-0.022,0.009-0.033
			c0.003-0.009,0.005-0.02,0.007-0.03c0.001-0.012,0.003-0.025,0.004-0.037c0.003-0.009,0.003-0.019,0.004-0.027
			c0-0.014,0-0.026,0.001-0.04c0-0.005,0.001-0.012,0.001-0.017c0-0.003,0-0.007-0.001-0.009c0-0.013,0-0.026-0.001-0.038
			c-0.001-0.011-0.001-0.021-0.003-0.03c-0.001-0.01-0.003-0.021-0.004-0.031c-0.001-0.012-0.003-0.024-0.006-0.035
			c-0.003-0.008-0.005-0.017-0.006-0.025c-0.004-0.013-0.008-0.025-0.011-0.038c-0.002-0.007-0.005-0.015-0.008-0.022
			c-0.004-0.013-0.009-0.025-0.014-0.037c-0.003-0.008-0.008-0.017-0.012-0.025c-0.006-0.011-0.011-0.022-0.016-0.032
			c-0.006-0.01-0.012-0.019-0.019-0.029c-0.006-0.008-0.01-0.016-0.016-0.024c-0.007-0.011-0.015-0.021-0.023-0.031
			c-0.005-0.007-0.01-0.014-0.015-0.02c-0.009-0.01-0.018-0.019-0.026-0.028c-0.006-0.006-0.012-0.013-0.019-0.02
			c-0.008-0.008-0.017-0.016-0.025-0.023c-0.008-0.007-0.016-0.014-0.024-0.021c-0.007-0.007-0.016-0.012-0.024-0.018
			c-0.01-0.008-0.021-0.015-0.032-0.021c-0.002-0.002-0.006-0.004-0.008-0.005l-5.678-3.55c-0.004-0.003-0.009-0.004-0.012-0.006
			c-0.009-0.005-0.016-0.01-0.024-0.014c-0.005-0.002-0.01-0.006-0.015-0.007c-0.008-0.004-0.016-0.008-0.024-0.011
			c-0.006-0.003-0.012-0.007-0.019-0.01c-0.004-0.001-0.009-0.004-0.015-0.005c-0.01-0.004-0.021-0.008-0.032-0.012
			c-0.004-0.002-0.008-0.003-0.012-0.004c0,0-0.003,0-0.004-0.001c-0.004-0.002-0.007-0.002-0.011-0.003
			c-0.013-0.003-0.026-0.007-0.038-0.01c-0.005-0.001-0.009-0.002-0.015-0.004c-0.003,0-0.005,0-0.01-0.001
			c-0.012-0.002-0.025-0.004-0.038-0.006c-0.009-0.001-0.018-0.002-0.028-0.002c-0.01-0.001-0.023-0.002-0.034-0.002
			c-0.012,0-0.022-0.001-0.032,0c-0.011,0-0.02,0-0.031,0.001c-0.002,0-0.008,0-0.011,0c-0.002,0-0.005,0-0.008,0.001
			c-0.004,0-0.01,0-0.015,0.002c-0.009,0-0.019,0.002-0.027,0.004c-0.003,0-0.006,0-0.01,0.001c-0.004,0-0.007,0.001-0.012,0.002
			c-0.005,0.001-0.01,0.002-0.016,0.003c-0.008,0.002-0.017,0.005-0.026,0.007c-0.011,0.002-0.022,0.006-0.033,0.009
			c-0.01,0.002-0.019,0.007-0.029,0.01c-0.008,0.002-0.015,0.004-0.022,0.008c-0.003,0.001-0.006,0.002-0.009,0.004
			c-0.01,0.003-0.021,0.009-0.03,0.013c-0.008,0.003-0.015,0.007-0.021,0.01c0,0-0.001,0-0.002,0.001l-10.167,5.422l-6.042-7.386
			c-0.001,0-0.001-0.001-0.001-0.001c-0.001-0.002-0.003-0.005-0.005-0.006c-0.005-0.006-0.01-0.011-0.016-0.017
			c-0.009-0.01-0.018-0.021-0.029-0.031c-0.006-0.006-0.012-0.01-0.019-0.016c-0.009-0.01-0.019-0.018-0.028-0.026
			c-0.01-0.007-0.02-0.015-0.031-0.022l-0.001-0.002c-0.007-0.005-0.014-0.009-0.021-0.014c-0.01-0.008-0.021-0.013-0.033-0.019
			c-0.007-0.005-0.015-0.009-0.024-0.015c-0.009-0.004-0.021-0.009-0.03-0.014c-0.01-0.004-0.019-0.009-0.029-0.012
			c-0.009-0.004-0.018-0.008-0.027-0.01c-0.012-0.004-0.022-0.009-0.035-0.012c-0.001-0.001-0.002-0.001-0.003-0.001
			c-0.011-0.003-0.021-0.004-0.031-0.007c-0.009-0.002-0.019-0.004-0.028-0.006c-0.002,0-0.006-0.002-0.011-0.003l-19.874-3.549
			c-0.006-0.001-0.013-0.001-0.021-0.002c-0.011-0.001-0.023-0.004-0.035-0.005c-0.012,0-0.022-0.001-0.032-0.002
			c-0.011,0-0.021-0.001-0.032-0.001c-0.012,0-0.023,0.001-0.035,0.001c-0.01,0.001-0.021,0.001-0.029,0.002
			c-0.012,0-0.023,0.002-0.036,0.004c-0.009,0.002-0.019,0.003-0.028,0.005c-0.012,0.003-0.022,0.005-0.034,0.008
			c-0.009,0.002-0.02,0.005-0.031,0.009c-0.01,0.002-0.019,0.006-0.029,0.009c-0.012,0.004-0.021,0.008-0.033,0.013
			c-0.009,0.003-0.019,0.007-0.026,0.012c-0.011,0.004-0.021,0.01-0.032,0.015c-0.009,0.005-0.018,0.01-0.028,0.016
			c-0.008,0.005-0.018,0.011-0.027,0.017c-0.01,0.007-0.02,0.014-0.029,0.022c-0.005,0.003-0.011,0.006-0.016,0.011
			c-0.003,0.001-0.004,0.004-0.007,0.004c-0.01,0.009-0.02,0.018-0.029,0.027c-0.006,0.006-0.014,0.013-0.02,0.019
			c-0.009,0.008-0.016,0.017-0.025,0.026c-0.006,0.009-0.013,0.015-0.019,0.023c-0.007,0.008-0.014,0.018-0.021,0.027
			c-0.006,0.008-0.012,0.017-0.018,0.025c-0.005,0.009-0.012,0.018-0.017,0.027c-0.005,0.01-0.012,0.019-0.017,0.029
			c-0.004,0.009-0.008,0.019-0.013,0.029c-0.004,0.01-0.009,0.019-0.013,0.029c-0.005,0.009-0.008,0.019-0.013,0.029
			c-0.002,0.011-0.008,0.021-0.01,0.033c-0.002,0.009-0.005,0.019-0.008,0.028c-0.002,0.012-0.005,0.024-0.008,0.036
			c0,0.004-0.001,0.006-0.001,0.009c-0.001,0.007-0.002,0.013-0.003,0.021c0,0.011-0.001,0.023-0.003,0.035
			c-0.001,0.011-0.002,0.022-0.002,0.033c0,0.011-0.001,0.021-0.001,0.032c0,0.012,0.001,0.023,0.001,0.035
			c0.001,0.01,0.002,0.02,0.003,0.029c0.001,0.012,0.002,0.023,0.003,0.035c0.002,0.01,0.003,0.02,0.006,0.03
			c0.002,0.01,0.004,0.021,0.007,0.032s0.005,0.021,0.009,0.031c0.003,0.01,0.006,0.02,0.009,0.03
			c0.004,0.009,0.008,0.021,0.013,0.031c0.004,0.01,0.008,0.019,0.013,0.028c0.004,0.011,0.008,0.021,0.014,0.03
			c0.005,0.009,0.011,0.019,0.018,0.028c0.004,0.009,0.01,0.019,0.016,0.027c0.007,0.01,0.015,0.021,0.021,0.03
			c0.004,0.006,0.008,0.011,0.012,0.016l4.246,5.308h-5.146c-0.006,0-0.012,0-0.018,0.001c-0.012,0-0.025,0-0.037,0.001
			s-0.022,0.003-0.033,0.004c-0.01,0.001-0.02,0.003-0.031,0.005c-0.011,0.001-0.023,0.004-0.035,0.007
			c-0.009,0.002-0.018,0.005-0.027,0.007c-0.011,0.002-0.023,0.007-0.035,0.011c-0.009,0.003-0.018,0.006-0.026,0.01
			c-0.011,0.004-0.021,0.009-0.033,0.013c-0.009,0.005-0.018,0.01-0.028,0.014c-0.01,0.005-0.018,0.01-0.029,0.016
			c-0.009,0.004-0.019,0.011-0.029,0.017c-0.008,0.005-0.015,0.011-0.024,0.016c-0.01,0.008-0.019,0.014-0.028,0.022
			c-0.008,0.006-0.016,0.012-0.022,0.019c-0.01,0.008-0.018,0.015-0.027,0.023c-0.007,0.007-0.015,0.017-0.022,0.023
			c-0.008,0.007-0.014,0.015-0.021,0.024c-0.008,0.009-0.016,0.02-0.023,0.029c-0.004,0.004-0.009,0.009-0.012,0.013
			c-0.001,0.003-0.004,0.006-0.005,0.009c-0.008,0.011-0.014,0.021-0.022,0.033c-0.004,0.007-0.01,0.015-0.013,0.023
			c-0.006,0.01-0.013,0.022-0.017,0.034c-0.004,0.008-0.009,0.017-0.013,0.025c-0.004,0.01-0.009,0.021-0.012,0.032
			c-0.004,0.01-0.008,0.02-0.012,0.03c-0.002,0.009-0.005,0.02-0.008,0.03c-0.002,0.012-0.005,0.023-0.008,0.034
			c-0.001,0.009-0.004,0.019-0.005,0.028c-0.003,0.013-0.004,0.025-0.006,0.037c-0.001,0.009-0.001,0.018-0.002,0.028
			c-0.002,0.013-0.002,0.025-0.002,0.04c0,0.003-0.001,0.006-0.001,0.01c0,0.005,0.001,0.012,0.001,0.018
			c0,0.012,0,0.024,0.002,0.036c0.001,0.011,0.002,0.021,0.004,0.033c0,0.01,0.002,0.021,0.004,0.031
			c0.001,0.011,0.005,0.022,0.008,0.034c0.002,0.009,0.004,0.019,0.006,0.028c0.003,0.012,0.007,0.023,0.011,0.035
			c0.003,0.009,0.007,0.017,0.01,0.026c0.004,0.011,0.009,0.022,0.013,0.033c0.004,0.01,0.01,0.019,0.014,0.028
			c0.005,0.01,0.009,0.019,0.015,0.028c0.005,0.009,0.011,0.02,0.018,0.028c0.005,0.009,0.011,0.017,0.016,0.024
			c0.007,0.011,0.014,0.021,0.021,0.03c0.006,0.006,0.012,0.014,0.019,0.021c0.007,0.01,0.016,0.019,0.023,0.026
			s0.015,0.016,0.023,0.022c0.007,0.007,0.016,0.015,0.023,0.022c0.009,0.007,0.019,0.016,0.028,0.022
			c0.005,0.004,0.01,0.008,0.015,0.012l15.29,11.119l-2.777,18.047c0,0.002-0.001,0.005-0.001,0.006l0,0.002
			c-0.001,0.002-0.001,0.005-0.001,0.008c-0.003,0.02-0.004,0.039-0.006,0.057c0,0.009,0,0.015,0,0.022c0,0.015-0.001,0.028,0,0.042
			c0,0.011,0.001,0.022,0.002,0.033c0,0.011,0.002,0.021,0.003,0.031c0.002,0.013,0.004,0.024,0.006,0.037
			c0.002,0.008,0.004,0.017,0.006,0.026c0.003,0.012,0.007,0.025,0.011,0.037c0.002,0.009,0.004,0.016,0.007,0.024
			c0.004,0.011,0.009,0.022,0.014,0.034c0.003,0.008,0.007,0.018,0.011,0.026c0.004,0.01,0.01,0.019,0.015,0.029
			c0.004,0.01,0.009,0.019,0.015,0.029c0.004,0.007,0.009,0.014,0.013,0.023c0.008,0.01,0.015,0.021,0.022,0.031
			c0.005,0.006,0.009,0.013,0.015,0.019c0.008,0.011,0.015,0.021,0.024,0.032c0.006,0.006,0.012,0.012,0.017,0.017
			c0.009,0.01,0.018,0.019,0.028,0.028c0.007,0.007,0.016,0.013,0.022,0.02c0.009,0.007,0.017,0.015,0.026,0.021
			c0.011,0.009,0.021,0.017,0.034,0.024c0.006,0.004,0.012,0.009,0.02,0.013c0.015,0.01,0.032,0.019,0.049,0.027
			c0.002,0.002,0.005,0.003,0.006,0.003c0.001,0,0.001,0.001,0.001,0.001c0.023,0.011,0.046,0.021,0.069,0.029
			c0.007,0.002,0.013,0.003,0.019,0.006c0.016,0.005,0.033,0.011,0.05,0.015c0.011,0.002,0.021,0.004,0.032,0.007
			c0.009,0.001,0.018,0.002,0.025,0.005c0.003,0,0.006,0,0.009,0c0.031,0.004,0.061,0.008,0.092,0.008h0l0,0
			c0.028,0,0.056-0.003,0.083-0.007c0.005,0,0.01-0.001,0.015-0.001c0.056-0.008,0.109-0.023,0.159-0.044
			c0.005-0.002,0.01-0.004,0.015-0.006c0.024-0.011,0.048-0.023,0.071-0.036c0.004-0.003,0.008-0.006,0.012-0.008
			c0.02-0.013,0.038-0.025,0.057-0.04c0.004-0.003,0.01-0.008,0.015-0.012c0.021-0.017,0.039-0.035,0.057-0.053
			c0.004-0.004,0.009-0.01,0.013-0.015c0.019-0.02,0.035-0.04,0.05-0.062c0.001-0.001,0.001-0.002,0.002-0.002
			c0.016-0.024,0.031-0.05,0.044-0.076c0.001-0.002,0.003-0.005,0.004-0.006l4.861-9.723l16.105-7.002
			c0.006-0.002,0.009-0.003,0.013-0.006c0.012-0.006,0.025-0.012,0.038-0.018c0.001-0.001,0.003-0.002,0.004-0.002
			c0.001-0.001,0.003-0.002,0.006-0.003c0.005-0.003,0.009-0.006,0.014-0.008c0.009-0.005,0.02-0.012,0.028-0.019
			c0.007-0.004,0.014-0.008,0.02-0.013c0.002-0.002,0.004-0.004,0.007-0.005c0.007-0.006,0.014-0.011,0.021-0.017
			c0.001-0.001,0.004-0.002,0.004-0.003c0.002,0,0.005-0.003,0.006-0.004c0.006-0.004,0.011-0.01,0.019-0.016
			c0.005-0.004,0.011-0.011,0.017-0.015c0-0.001,0-0.001,0.001-0.002c0.002-0.002,0.005-0.004,0.007-0.007
			c0.001-0.001,0.002-0.004,0.005-0.005c0.005-0.005,0.009-0.01,0.014-0.014c0.005-0.006,0.01-0.012,0.015-0.018
			s0.011-0.012,0.016-0.019c0.002-0.003,0.004-0.007,0.007-0.01c0.003-0.003,0.005-0.005,0.007-0.009
			c0.002-0.002,0.004-0.006,0.006-0.01c0-0.001,0.001-0.002,0.001-0.002c0.006-0.008,0.011-0.015,0.016-0.022
			c0.002-0.003,0.003-0.006,0.005-0.008c0.005-0.008,0.01-0.017,0.015-0.026c0.005-0.007,0.009-0.016,0.014-0.023c0,0,0,0,0-0.001
			l0.001-0.003c0.005-0.01,0.01-0.02,0.014-0.029c0.003-0.009,0.007-0.016,0.009-0.024c0.001-0.001,0.002-0.002,0.002-0.004
			c0.005-0.01,0.007-0.022,0.012-0.032v-0.004c0.001-0.002,0.002-0.004,0.002-0.006l0.003-0.008v0l2.988-9.464h6.312l0,0
			c0.001,0,0.004-0.001,0.004-0.001c0.026,0,0.05-0.001,0.073-0.004c0.007-0.001,0.014-0.003,0.021-0.004
			c0.019-0.002,0.038-0.006,0.057-0.01c0.006-0.001,0.013-0.003,0.021-0.005c0.019-0.005,0.038-0.01,0.056-0.018
			c0.006-0.002,0.011-0.004,0.019-0.007c0.022-0.009,0.047-0.02,0.069-0.031c0.001,0,0.001-0.001,0.001-0.001
			c0.021-0.011,0.042-0.024,0.062-0.039c0.007-0.005,0.016-0.01,0.022-0.016c0.013-0.01,0.026-0.02,0.037-0.031
			c0.009-0.006,0.015-0.012,0.021-0.02c0.017-0.016,0.033-0.032,0.047-0.049c0.001-0.003,0.002-0.004,0.004-0.006
			C626.996,191.529,627.01,191.507,627.023,191.485L627.023,191.485z M620.46,187.959L616.751,200l-5.917-6.916L620.46,187.959z
			 M584.167,182.042l19.083,3.417L598,198.625L584.167,182.042z M616.376,201l-17.875-1.625l5.416-13.334L616.376,201z
			 M600.707,207.835l-1.916-7.667l16.458,1.417L600.707,207.835z M599.874,208.293l-4.333,8.958l2.542-16.291L599.874,208.293z
			 M596.917,198.5l-14.042-10.083l5.543,0.043L596.917,198.5z M621.209,188.292l4.792,2.626l-5.583,0.042L621.209,188.292z
			 M621.161,188.597"/>
	</g>
</g>
</svg>
