<?xml version="1.0" encoding="iso-8859-1"?>
<!-- Generator: Adobe Illustrator 16.0.0, SVG Export Plug-In . SVG Version: 6.00 Build 0)  -->
<!DOCTYPE svg PUBLIC "-//W3C//DTD SVG 1.1//EN" "http://www.w3.org/Graphics/SVG/1.1/DTD/svg11.dtd">
<svg version="1.1" id="Calque_1" xmlns="http://www.w3.org/2000/svg" xmlns:xlink="http://www.w3.org/1999/xlink" x="0px" y="0px"
	 width="1280px" height="400px" viewBox="0 0 1280 400" style="enable-background:new 0 0 1280 400;" xml:space="preserve">
<style type="text/css">
<![CDATA[
	.st0{display:none;fill:#2D2D2D;}
	.st1{fill:#FFFFFF;}
]]>
</style>
<rect x="2" class="st0" width="1280" height="400"/>
<g>
	<g>
		<g>
			<path class="st1" d="M638.319,196.788c0,0.767-0.25,1.377-0.751,1.83c-0.501,0.453-1.181,0.679-2.04,0.679h-2.382v3.159h-1.099
				v-8.108h3.412c0.909,0,1.613,0.213,2.112,0.639C638.07,195.412,638.319,196.013,638.319,196.788z M637.214,196.799
				c0-1.047-0.629-1.571-1.888-1.571h-2.181v3.2h2.227C636.601,198.428,637.214,197.885,637.214,196.799z"/>
			<path class="st1" d="M645.639,202.456l-2.106-3.366h-2.526v3.366h-1.099v-8.108h3.815c0.913,0,1.617,0.204,2.114,0.613
				s0.745,0.978,0.745,1.706c0,0.603-0.175,1.109-0.526,1.52c-0.351,0.41-0.835,0.669-1.453,0.777l2.302,3.493H645.639z
				 M645.478,196.678c0-0.472-0.16-0.832-0.48-1.079s-0.782-0.371-1.384-0.371h-2.607v2.992h2.653c0.579,0,1.027-0.135,1.344-0.406
				C645.319,197.544,645.478,197.166,645.478,196.678z"/>
			<path class="st1" d="M656.054,198.364c0,0.848-0.162,1.59-0.486,2.227s-0.789,1.126-1.396,1.467
				c-0.605,0.341-1.321,0.512-2.146,0.512c-0.833,0-1.551-0.169-2.155-0.506c-0.604-0.338-1.065-0.826-1.384-1.465
				s-0.478-1.384-0.478-2.235c0-1.297,0.354-2.311,1.064-3.041c0.709-0.731,1.697-1.097,2.963-1.097c0.825,0,1.54,0.164,2.146,0.492
				s1.069,0.805,1.39,1.43C655.894,196.774,656.054,197.513,656.054,198.364z M654.932,198.364c0-1.009-0.252-1.801-0.757-2.376
				c-0.504-0.576-1.217-0.863-2.138-0.863c-0.928,0-1.646,0.284-2.151,0.852c-0.507,0.568-0.76,1.364-0.76,2.388
				c0,1.017,0.256,1.823,0.768,2.419c0.513,0.597,1.224,0.895,2.133,0.895c0.936,0,1.654-0.289,2.154-0.866
				C654.682,200.235,654.932,199.419,654.932,198.364z"/>
			<path class="st1" d="M659.248,202.571c-1.374,0-2.188-0.71-2.445-2.129l1.075-0.178c0.069,0.445,0.225,0.792,0.467,1.042
				c0.241,0.25,0.545,0.374,0.909,0.374c0.398,0,0.713-0.137,0.943-0.412c0.23-0.274,0.346-0.676,0.346-1.206v-4.816h-1.56v-0.897
				h2.652v5.691c0,0.787-0.213,1.405-0.639,1.856S659.988,202.571,659.248,202.571z"/>
			<path class="st1" d="M663.478,202.456v-8.108h6.151v0.897h-5.053v2.601h4.707v0.886h-4.707v2.826h5.289v0.897H663.478z"/>
			<path class="st1" d="M674.929,195.125c-0.897,0-1.596,0.289-2.095,0.866c-0.499,0.577-0.748,1.369-0.748,2.374
				c0,0.994,0.26,1.792,0.779,2.396c0.521,0.604,1.224,0.906,2.109,0.906c1.136,0,1.989-0.562,2.561-1.686l0.897,0.449
				c-0.333,0.698-0.803,1.229-1.406,1.594c-0.604,0.365-1.306,0.547-2.104,0.547c-0.817,0-1.524-0.17-2.12-0.509
				c-0.597-0.34-1.052-0.825-1.364-1.456c-0.312-0.631-0.469-1.378-0.469-2.241c0-1.293,0.349-2.306,1.047-3.039
				c0.698-0.732,1.665-1.099,2.9-1.099c0.863,0,1.584,0.169,2.164,0.507c0.579,0.337,1.005,0.838,1.277,1.501l-1.042,0.346
				c-0.188-0.472-0.49-0.833-0.906-1.082S675.5,195.125,674.929,195.125z"/>
			<path class="st1" d="M683.025,195.245v7.21h-1.094v-7.21h-2.785v-0.897h6.664v0.897H683.025z"/>
			<path class="st1" d="M693.399,200.217c0,0.748-0.292,1.327-0.877,1.738c-0.585,0.41-1.409,0.616-2.472,0.616
				c-1.976,0-3.121-0.687-3.436-2.06l1.064-0.213c0.123,0.487,0.384,0.845,0.782,1.073c0.399,0.228,0.942,0.342,1.629,0.342
				c0.71,0,1.258-0.122,1.643-0.366c0.386-0.243,0.579-0.601,0.579-1.073c0-0.265-0.061-0.479-0.182-0.644
				c-0.121-0.165-0.291-0.301-0.51-0.409c-0.218-0.107-0.479-0.198-0.782-0.271s-0.639-0.151-1.007-0.236
				c-0.641-0.142-1.127-0.284-1.459-0.426c-0.332-0.142-0.594-0.3-0.785-0.475c-0.192-0.174-0.339-0.378-0.44-0.613
				c-0.102-0.234-0.152-0.502-0.152-0.806c0-0.694,0.266-1.229,0.797-1.605c0.531-0.375,1.292-0.564,2.281-0.564
				c0.921,0,1.625,0.141,2.112,0.423c0.487,0.282,0.828,0.762,1.024,1.441l-1.082,0.19c-0.119-0.43-0.346-0.742-0.679-0.935
				c-0.334-0.194-0.796-0.291-1.387-0.291c-0.648,0-1.144,0.107-1.485,0.322c-0.341,0.215-0.512,0.535-0.512,0.961
				c0,0.249,0.066,0.456,0.198,0.618c0.133,0.163,0.323,0.301,0.573,0.415c0.249,0.113,0.746,0.252,1.49,0.417
				c0.249,0.058,0.497,0.116,0.745,0.176c0.247,0.06,0.484,0.13,0.71,0.213c0.227,0.083,0.438,0.179,0.637,0.291
				c0.197,0.111,0.369,0.248,0.515,0.409s0.26,0.351,0.343,0.569C693.358,199.665,693.399,199.922,693.399,200.217z"/>
		</g>
	</g>
	<g>
		<path class="st1" d="M610.071,187.073v-0.01l-0.17-0.162c-0.077-0.072-0.155-0.14-0.235-0.211
			c-0.035-0.035-0.069-0.065-0.106-0.099c-0.162-0.146-0.325-0.285-0.49-0.426c-0.031-0.024-0.061-0.05-0.089-0.074
			c-0.178-0.142-0.354-0.283-0.538-0.421c-0.021-0.016-0.044-0.034-0.066-0.05c-0.19-0.143-0.384-0.279-0.58-0.412
			c-0.016-0.011-0.031-0.021-0.047-0.032c-0.204-0.138-0.408-0.267-0.617-0.395c-0.014-0.008-0.026-0.016-0.04-0.024
			c-0.209-0.126-0.423-0.251-0.638-0.367c-0.015-0.009-0.029-0.016-0.045-0.024c-0.211-0.116-0.429-0.226-0.645-0.332
			c-0.021-0.01-0.042-0.021-0.061-0.028c-0.211-0.104-0.426-0.198-0.643-0.29c-0.029-0.014-0.058-0.027-0.087-0.041
			c-0.207-0.084-0.416-0.167-0.625-0.246c-0.008-0.003-0.013-0.006-0.021-0.009c-0.008-0.001-0.017-0.005-0.024-0.007
			c-0.026-0.012-0.055-0.021-0.082-0.03c-0.199-0.07-0.395-0.14-0.596-0.202c-0.056-0.02-0.114-0.038-0.169-0.054
			c-0.188-0.059-0.376-0.111-0.566-0.161c-0.069-0.019-0.141-0.04-0.212-0.058c-0.177-0.046-0.357-0.086-0.538-0.123
			c-0.082-0.019-0.163-0.04-0.248-0.056c-0.169-0.034-0.342-0.063-0.513-0.092c-0.093-0.016-0.185-0.032-0.281-0.045
			c-0.167-0.027-0.335-0.045-0.505-0.067c-0.098-0.01-0.193-0.023-0.291-0.033c-0.183-0.019-0.362-0.03-0.545-0.043
			c-0.086-0.005-0.172-0.014-0.259-0.019c-0.267-0.013-0.537-0.021-0.81-0.021s-0.542,0.008-0.81,0.021
			c-0.087,0.003-0.175,0.014-0.262,0.019c-0.179,0.011-0.362,0.024-0.543,0.043c-0.097,0.008-0.195,0.021-0.29,0.033
			c-0.172,0.019-0.339,0.04-0.509,0.063c-0.092,0.014-0.185,0.033-0.277,0.049c-0.172,0.026-0.344,0.058-0.516,0.089
			c-0.082,0.02-0.166,0.038-0.249,0.056c-0.18,0.04-0.359,0.08-0.537,0.125c-0.071,0.018-0.14,0.036-0.211,0.055
			c-0.188,0.05-0.379,0.103-0.564,0.161c-0.058,0.019-0.114,0.038-0.172,0.057c-0.198,0.062-0.396,0.129-0.595,0.199
			c-0.026,0.012-0.053,0.02-0.082,0.03c-0.008,0.003-0.014,0.005-0.021,0.01c-0.008,0.003-0.016,0.006-0.023,0.009
			c-0.209,0.076-0.416,0.158-0.622,0.246c-0.031,0.013-0.061,0.024-0.09,0.037c-0.214,0.093-0.429,0.188-0.64,0.292
			c-0.022,0.01-0.042,0.018-0.062,0.028c-0.219,0.106-0.433,0.218-0.647,0.331c-0.013,0.008-0.03,0.016-0.042,0.023
			c-0.217,0.119-0.429,0.241-0.641,0.368c-0.013,0.008-0.024,0.016-0.04,0.024c-0.207,0.127-0.413,0.259-0.615,0.394
			c-0.016,0.014-0.031,0.021-0.047,0.036c-0.196,0.133-0.389,0.27-0.58,0.409c-0.023,0.019-0.044,0.034-0.068,0.053
			c-0.18,0.135-0.361,0.275-0.535,0.421c-0.032,0.024-0.061,0.048-0.09,0.074c-0.167,0.138-0.331,0.28-0.492,0.426l-0.105,0.096
			c-0.077,0.074-0.156,0.143-0.233,0.214l-0.169,0.162v0.01c-3.006,2.95-4.877,7.056-4.877,11.595
			c0,8.963,7.292,16.255,16.256,16.255s16.256-7.292,16.256-16.255C614.947,194.129,613.077,190.022,610.071,187.073
			L610.071,187.073z M598.687,210.568l0.002,0.002h-0.007L598.687,210.568z M594.362,204.326c1.125-1.191,2.678-1.865,4.329-1.865
			c1.651,0,3.204,0.674,4.329,1.865l-4.329,5.424L594.362,204.326z M603.7,203.478c-1.32-1.34-3.108-2.102-5.008-2.102
			c-1.899,0-3.688,0.762-5.008,2.102l-5.067-6.351l4.657-3.726l4.883,3.906v0.054l0.167,0.082l0.291,0.215l0.084-0.041l0.09,0.041
			l0.267-0.215l0.178-0.096v-0.045l4.876-3.9l4.657,3.725L603.7,203.478z M588.494,187.441c0,0,0.003-0.003,0.006-0.003
			c0.894-0.813,1.889-1.523,2.96-2.106c0.006-0.001,0.011-0.008,0.019-0.011c0.204-0.11,0.41-0.217,0.622-0.316
			c0.019-0.011,0.034-0.019,0.053-0.027c0.191-0.089,0.383-0.177,0.577-0.261v7.73l-4.334,3.466v-8.376
			C588.428,187.504,588.46,187.472,588.494,187.441L588.494,187.441z M594.27,184.155c0.167-0.053,0.336-0.1,0.508-0.146
			c0.071-0.018,0.143-0.04,0.217-0.056c0.159-0.04,0.318-0.076,0.479-0.111c0.084-0.018,0.167-0.037,0.251-0.053
			c0.153-0.032,0.307-0.059,0.462-0.084c0.09-0.013,0.18-0.033,0.271-0.045c0.153-0.021,0.309-0.039,0.463-0.057
			c0.092-0.011,0.185-0.025,0.277-0.033c0.165-0.016,0.332-0.029,0.498-0.04c0.083-0.005,0.164-0.013,0.246-0.016
			c0.069-0.002,0.138-0.002,0.207-0.005v12.405l-4.334-3.468v-8.145c0.09-0.031,0.183-0.063,0.275-0.092
			C594.148,184.191,594.209,184.172,594.27,184.155L594.27,184.155z M599.687,183.529c0.166,0.011,0.333,0.024,0.497,0.04
			c0.093,0.008,0.186,0.021,0.278,0.033c0.153,0.018,0.309,0.037,0.462,0.057c0.09,0.013,0.18,0.032,0.271,0.045
			c0.156,0.026,0.309,0.053,0.462,0.084c0.084,0.016,0.167,0.035,0.251,0.053c0.162,0.035,0.32,0.071,0.479,0.111
			c0.073,0.019,0.145,0.038,0.216,0.056c0.172,0.046,0.341,0.093,0.508,0.146c0.061,0.018,0.119,0.037,0.18,0.055
			c0.092,0.028,0.185,0.061,0.275,0.092v8.145l-4.334,3.468v-12.405c0.068,0.003,0.137,0,0.207,0.005
			C599.522,183.517,599.604,183.524,599.687,183.529L599.687,183.529z M605.285,185.004c0.209,0.1,0.415,0.206,0.619,0.316
			c0.008,0.003,0.013,0.009,0.021,0.011c1.069,0.583,2.064,1.293,2.958,2.106c0.003,0,0.006,0.003,0.006,0.003
			c0.034,0.031,0.066,0.063,0.097,0.095v8.376l-4.333-3.466v-7.73c0.193,0.084,0.386,0.171,0.577,0.261
			C605.248,184.985,605.267,184.993,605.285,185.004L605.285,185.004z M598.691,213.838c-8.366,0-15.171-6.805-15.171-15.17
			c0-3.84,1.435-7.347,3.792-10.021v8.583l10.844,13.585l0.003,0.109v0.006l0.172,0.081l0.27,0.212l0.011-0.005l0.005,0.002
			l0.082-0.042l0.085,0.04l0.005-0.003l0.01,0.005l0.254-0.211l0.074-0.04l0.106-0.055v-0.106l10.837-13.579v-8.583
			c2.357,2.674,3.791,6.18,3.791,10.021C613.862,207.033,607.058,213.838,598.691,213.838L598.691,213.838z M598.691,213.838"/>
	</g>
</g>
</svg>
