<?xml version="1.0" encoding="iso-8859-1"?>
<!-- Generator: Adobe Illustrator 16.0.0, SVG Export Plug-In . SVG Version: 6.00 Build 0)  -->
<!DOCTYPE svg PUBLIC "-//W3C//DTD SVG 1.1//EN" "http://www.w3.org/Graphics/SVG/1.1/DTD/svg11.dtd">
<svg version="1.1" id="Calque_1" xmlns="http://www.w3.org/2000/svg" xmlns:xlink="http://www.w3.org/1999/xlink" x="0px" y="0px"
	 width="1280px" height="400px" viewBox="0 0 1280 400" style="enable-background:new 0 0 1280 400;" xml:space="preserve">
<style type="text/css">
<![CDATA[
	.st0{display:none;fill:#2D2D2D;}
	.st1{fill:#FFFFFF;}
]]>
</style>
<rect x="2" class="st0" width="1280" height="400"/>
<g>
	<g>
		<g>
			<path class="st1" d="M638.611,205.277v-8.108h1.099v8.108H638.611z"/>
			<path class="st1" d="M647.024,205.277l-4.339-6.905l0.028,0.559l0.029,0.961v5.386h-0.979v-8.108h1.277l4.385,6.952
				c-0.046-0.752-0.069-1.297-0.069-1.635v-5.317h0.99v8.108H647.024z"/>
			<path class="st1" d="M653.452,198.067v7.21h-1.094v-7.21h-2.785v-0.898h6.664v0.898H653.452z"/>
			<path class="st1" d="M657.474,205.277v-8.108h6.151v0.898h-5.053v2.601h4.707v0.887h-4.707v2.825h5.289v0.897H657.474z"/>
			<path class="st1" d="M671.065,205.277l-2.106-3.366h-2.526v3.366h-1.099v-8.108h3.815c0.913,0,1.617,0.205,2.114,0.613
				s0.745,0.978,0.745,1.706c0,0.603-0.175,1.108-0.526,1.52c-0.351,0.41-0.835,0.669-1.453,0.776l2.302,3.493H671.065z
				 M670.904,199.5c0-0.472-0.16-0.832-0.48-1.079s-0.782-0.371-1.384-0.371h-2.607v2.992h2.653c0.579,0,1.027-0.135,1.344-0.405
				S670.904,199.987,670.904,199.5z"/>
			<path class="st1" d="M673.845,205.277v-8.108h6.151v0.898h-5.053v2.601h4.707v0.887h-4.707v2.825h5.289v0.897H673.845z"/>
			<path class="st1" d="M688.059,203.039c0,0.748-0.292,1.327-0.877,1.737c-0.585,0.411-1.409,0.616-2.472,0.616
				c-1.976,0-3.121-0.687-3.436-2.061l1.064-0.213c0.123,0.487,0.384,0.846,0.782,1.073c0.399,0.229,0.942,0.343,1.629,0.343
				c0.71,0,1.258-0.122,1.643-0.365c0.386-0.244,0.579-0.602,0.579-1.073c0-0.265-0.061-0.479-0.182-0.645s-0.291-0.302-0.51-0.409
				c-0.218-0.107-0.479-0.197-0.782-0.271c-0.303-0.072-0.639-0.151-1.007-0.235c-0.641-0.142-1.127-0.284-1.459-0.426
				s-0.594-0.3-0.785-0.475c-0.192-0.175-0.339-0.379-0.44-0.613c-0.102-0.233-0.152-0.502-0.152-0.806
				c0-0.694,0.266-1.229,0.797-1.605s1.292-0.563,2.281-0.563c0.921,0,1.625,0.141,2.112,0.423s0.828,0.763,1.024,1.441
				l-1.082,0.189c-0.119-0.43-0.346-0.741-0.679-0.935c-0.334-0.193-0.796-0.291-1.387-0.291c-0.648,0-1.144,0.107-1.485,0.322
				c-0.341,0.215-0.512,0.535-0.512,0.961c0,0.25,0.066,0.456,0.198,0.619c0.133,0.163,0.323,0.301,0.573,0.414
				c0.249,0.113,0.746,0.252,1.49,0.417c0.249,0.058,0.497,0.116,0.745,0.176c0.247,0.06,0.484,0.131,0.71,0.213
				c0.227,0.082,0.438,0.18,0.637,0.291c0.197,0.11,0.369,0.247,0.515,0.408s0.26,0.351,0.343,0.569
				C688.018,202.486,688.059,202.743,688.059,203.039z"/>
			<path class="st1" d="M692.743,198.067v7.21h-1.094v-7.21h-2.785v-0.898h6.664v0.898H692.743z"/>
			<path class="st1" d="M703.117,203.039c0,0.748-0.292,1.327-0.877,1.737c-0.585,0.411-1.409,0.616-2.472,0.616
				c-1.976,0-3.121-0.687-3.436-2.061l1.064-0.213c0.123,0.487,0.384,0.846,0.782,1.073c0.399,0.229,0.942,0.343,1.629,0.343
				c0.71,0,1.258-0.122,1.643-0.365c0.386-0.244,0.579-0.602,0.579-1.073c0-0.265-0.061-0.479-0.182-0.645s-0.291-0.302-0.51-0.409
				c-0.218-0.107-0.479-0.197-0.782-0.271c-0.303-0.072-0.639-0.151-1.007-0.235c-0.641-0.142-1.127-0.284-1.459-0.426
				s-0.594-0.3-0.785-0.475c-0.192-0.175-0.339-0.379-0.44-0.613c-0.102-0.233-0.152-0.502-0.152-0.806
				c0-0.694,0.266-1.229,0.797-1.605s1.292-0.563,2.281-0.563c0.921,0,1.625,0.141,2.112,0.423s0.828,0.763,1.024,1.441
				l-1.082,0.189c-0.119-0.43-0.346-0.741-0.679-0.935c-0.334-0.193-0.796-0.291-1.387-0.291c-0.648,0-1.144,0.107-1.485,0.322
				c-0.341,0.215-0.512,0.535-0.512,0.961c0,0.25,0.066,0.456,0.198,0.619c0.133,0.163,0.323,0.301,0.573,0.414
				c0.249,0.113,0.746,0.252,1.49,0.417c0.249,0.058,0.497,0.116,0.745,0.176c0.247,0.06,0.484,0.131,0.71,0.213
				c0.227,0.082,0.438,0.18,0.637,0.291c0.197,0.11,0.369,0.247,0.515,0.408s0.26,0.351,0.343,0.569
				C703.076,202.486,703.117,202.743,703.117,203.039z"/>
		</g>
	</g>
	<g>
		<path class="st1" d="M611.904,197.837c-0.398,0-0.773,0.155-1.054,0.437l-2.981,2.981h-2.485l0.604-0.604
			c0.147-0.146,0.147-0.385,0-0.531c-0.146-0.146-0.384-0.146-0.531,0l-1.136,1.135l-4.84,0.001c-0.1,0-0.195,0.039-0.266,0.109
			l-0.864,0.864c-0.086,0.086-0.125,0.208-0.105,0.329c0.02,0.118,0.098,0.222,0.207,0.274l5.274,2.562l-0.769,0.769l-3.345-0.001
			c-0.099,0-0.194,0.039-0.265,0.111l-0.439,0.438c-0.086,0.086-0.125,0.208-0.105,0.328c0.02,0.12,0.097,0.224,0.206,0.275
			l2.173,1.056c-0.06,0.176-0.105,0.358-0.13,0.545c-0.043,0.319,0.055,0.645,0.267,0.887c0.214,0.244,0.521,0.382,0.843,0.382
			c0.05,0,0.101-0.002,0.151-0.011c0.183-0.022,0.363-0.067,0.538-0.125l1.023,2.128c0.05,0.105,0.146,0.18,0.259,0.205
			c0.026,0.006,0.053,0.009,0.079,0.009c0.088,0,0.173-0.031,0.241-0.087l0.479-0.4c0.085-0.072,0.134-0.179,0.134-0.288l0-3.345
			l0.718-0.717l2.404,5.012c0.05,0.104,0.146,0.18,0.26,0.204c0.026,0.006,0.053,0.009,0.079,0.009c0.088,0,0.173-0.031,0.242-0.088
			l0.938-0.788c0.085-0.071,0.134-0.178,0.134-0.287l0-4.79l1.161-1.161c0.146-0.146,0.146-0.384,0-0.531
			c-0.147-0.146-0.385-0.146-0.531,0l-0.63,0.631v-2.27l3.115-3.115c0.282-0.28,0.437-0.655,0.437-1.053
			c0-0.399-0.155-0.772-0.437-1.054S612.302,197.837,611.904,197.837L611.904,197.837z M599.257,202.388l0.381-0.381h7.48
			l-2.827,2.826L599.257,202.388z M599.904,206.915h2.305l-0.326,0.327c-0.138,0.138-0.26,0.292-0.368,0.454L599.904,206.915z
			 M604.317,211.361l-0.789-1.641c0.165-0.109,0.321-0.231,0.461-0.372l0.326-0.326L604.317,211.361z M609.091,211.439l-0.435,0.366
			l-2.309-4.815l2.745-2.744L609.091,211.439z M612.426,199.849l-8.001,8.001l-0.966,0.968c-0.333,0.335-0.775,0.552-1.243,0.614
			c-0.018,0.004-0.034,0.005-0.051,0.005c-0.105,0-0.206-0.048-0.277-0.128c-0.071-0.081-0.102-0.186-0.088-0.292
			c0.062-0.469,0.281-0.909,0.614-1.243l8.969-8.969c0.14-0.14,0.325-0.216,0.522-0.216c0.197,0,0.383,0.076,0.522,0.216
			c0.139,0.141,0.217,0.326,0.217,0.522C612.643,199.524,612.565,199.71,612.426,199.849L612.426,199.849z M612.426,199.849"/>
		<path class="st1" d="M617.449,188.701c0.332-2.318-0.116-4.169-1.302-5.354c-0.961-0.962-2.324-1.437-4.063-1.41
			c-1.598,0.026-3.434,0.475-5.457,1.335c-0.635-0.069-1.278-0.105-1.927-0.105c-4.661,0-9.042,1.814-12.338,5.11
			c-3.887,3.888-5.552,9.167-4.997,14.248c-0.866,2.03-1.317,3.872-1.342,5.475c-0.026,1.734,0.447,3.102,1.41,4.062
			c0.932,0.933,2.275,1.409,3.935,1.409c0.451,0,0.926-0.037,1.421-0.106c3.243,3.034,7.449,4.699,11.912,4.699
			c4.661,0,9.042-1.814,12.338-5.11C623.702,206.289,623.838,195.535,617.449,188.701L617.449,188.701z M615.617,183.878
			c0.917,0.915,1.311,2.338,1.156,4.139c-2.429-2.33-5.417-3.88-8.658-4.52C611.478,182.311,614.171,182.434,615.617,183.878
			L615.617,183.878z M587.962,211.531c-1.447-1.447-1.568-4.15-0.372-7.522c0.624,3.166,2.127,6.191,4.512,8.679
			C590.3,212.841,588.878,212.447,587.962,211.531L587.962,211.531z M616.507,212.421c-3.154,3.155-7.347,4.892-11.807,4.892
			c-4.081,0-7.937-1.455-10.979-4.117c1.81-0.396,3.848-1.22,5.944-2.403c0.181-0.103,0.245-0.331,0.143-0.512
			s-0.332-0.244-0.512-0.143c-2.239,1.266-4.397,2.1-6.256,2.426c-0.049-0.047-0.098-0.094-0.146-0.143
			c-6.51-6.51-6.51-17.104,0-23.614c3.154-3.153,7.347-4.89,11.807-4.89s8.654,1.736,11.807,4.89
			c0.048,0.049,0.096,0.098,0.143,0.146c-0.351,1.999-1.283,4.325-2.707,6.743c-0.106,0.179-0.046,0.409,0.133,0.516
			c0.06,0.034,0.125,0.051,0.189,0.051c0.128,0,0.254-0.066,0.324-0.185c1.342-2.276,2.262-4.486,2.69-6.442
			C623.006,196.188,622.75,206.181,616.507,212.421L616.507,212.421z M616.507,212.421"/>
	</g>
</g>
</svg>
