<?xml version="1.0" encoding="iso-8859-1"?>
<!-- Generator: Adobe Illustrator 16.0.0, SVG Export Plug-In . SVG Version: 6.00 Build 0)  -->
<!DOCTYPE svg PUBLIC "-//W3C//DTD SVG 1.1//EN" "http://www.w3.org/Graphics/SVG/1.1/DTD/svg11.dtd">
<svg version="1.1" id="Calque_1" xmlns="http://www.w3.org/2000/svg" xmlns:xlink="http://www.w3.org/1999/xlink" x="0px" y="0px"
	 width="1280px" height="400px" viewBox="0 0 1280 400" style="enable-background:new 0 0 1280 400;" xml:space="preserve">
<style type="text/css">
<![CDATA[
	.st0{display:none;fill:#2D2D2D;}
	.st1{fill:#FFFFFF;}
]]>
</style>
<rect x="2" class="st0" width="1280" height="400"/>
<g>
	<g>
		<path class="st1" d="M651.21,202.049c0,0.748-0.292,1.327-0.877,1.738c-0.585,0.41-1.409,0.616-2.472,0.616
			c-1.976,0-3.121-0.687-3.436-2.06l1.064-0.213c0.123,0.487,0.384,0.845,0.782,1.073c0.399,0.228,0.942,0.342,1.629,0.342
			c0.71,0,1.258-0.122,1.643-0.366c0.386-0.243,0.579-0.601,0.579-1.073c0-0.265-0.061-0.479-0.182-0.644
			c-0.121-0.165-0.291-0.301-0.51-0.409c-0.218-0.107-0.479-0.198-0.782-0.271s-0.639-0.151-1.007-0.236
			c-0.641-0.142-1.127-0.284-1.459-0.426c-0.332-0.142-0.594-0.3-0.785-0.475c-0.192-0.174-0.339-0.378-0.44-0.613
			c-0.102-0.234-0.152-0.502-0.152-0.806c0-0.694,0.266-1.229,0.797-1.605c0.531-0.375,1.292-0.564,2.281-0.564
			c0.921,0,1.625,0.141,2.112,0.423c0.487,0.282,0.828,0.762,1.024,1.441l-1.082,0.19c-0.119-0.43-0.346-0.742-0.679-0.935
			c-0.334-0.194-0.796-0.291-1.387-0.291c-0.648,0-1.144,0.107-1.485,0.322c-0.341,0.215-0.512,0.535-0.512,0.961
			c0,0.249,0.066,0.456,0.198,0.618c0.133,0.163,0.323,0.301,0.573,0.415c0.249,0.113,0.746,0.252,1.49,0.417
			c0.249,0.058,0.497,0.116,0.745,0.176c0.247,0.06,0.484,0.13,0.71,0.213c0.227,0.083,0.438,0.179,0.637,0.291
			c0.197,0.111,0.369,0.248,0.515,0.409s0.26,0.351,0.343,0.569C651.169,201.496,651.21,201.753,651.21,202.049z"/>
		<path class="st1" d="M658.115,204.287l-3.239-3.913l-1.06,0.806v3.107h-1.099v-8.108h1.099v4.062l3.907-4.062h1.295l-3.452,3.521
			l3.913,4.586H658.115z"/>
		<path class="st1" d="M660.699,204.287v-8.108h1.099v8.108H660.699z"/>
		<path class="st1" d="M663.853,204.287v-8.108h1.099v7.21h4.098v0.897H663.853z"/>
		<path class="st1" d="M670.407,204.287v-8.108h1.099v7.21h4.098v0.897H670.407z"/>
		<path class="st1" d="M683.313,202.049c0,0.748-0.292,1.327-0.877,1.738c-0.585,0.41-1.409,0.616-2.472,0.616
			c-1.976,0-3.121-0.687-3.436-2.06l1.064-0.213c0.123,0.487,0.384,0.845,0.782,1.073c0.399,0.228,0.942,0.342,1.629,0.342
			c0.71,0,1.258-0.122,1.643-0.366c0.386-0.243,0.579-0.601,0.579-1.073c0-0.265-0.061-0.479-0.182-0.644
			c-0.121-0.165-0.291-0.301-0.51-0.409c-0.218-0.107-0.479-0.198-0.782-0.271s-0.639-0.151-1.007-0.236
			c-0.641-0.142-1.127-0.284-1.459-0.426c-0.332-0.142-0.594-0.3-0.785-0.475c-0.192-0.174-0.339-0.378-0.44-0.613
			c-0.102-0.234-0.152-0.502-0.152-0.806c0-0.694,0.266-1.229,0.797-1.605c0.531-0.375,1.292-0.564,2.281-0.564
			c0.921,0,1.625,0.141,2.112,0.423c0.487,0.282,0.828,0.762,1.024,1.441l-1.082,0.19c-0.119-0.43-0.346-0.742-0.679-0.935
			c-0.334-0.194-0.796-0.291-1.387-0.291c-0.648,0-1.144,0.107-1.485,0.322c-0.341,0.215-0.512,0.535-0.512,0.961
			c0,0.249,0.066,0.456,0.198,0.618c0.133,0.163,0.323,0.301,0.573,0.415c0.249,0.113,0.746,0.252,1.49,0.417
			c0.249,0.058,0.497,0.116,0.745,0.176c0.247,0.06,0.484,0.13,0.71,0.213c0.227,0.083,0.438,0.179,0.637,0.291
			c0.197,0.111,0.369,0.248,0.515,0.409s0.26,0.351,0.343,0.569C683.272,201.496,683.313,201.753,683.313,202.049z"/>
	</g>
</g>
<g>
	<path class="st1" d="M611.093,215.707c-0.166,0-0.327-0.078-0.432-0.205l-18.159-21.562c-0.172-0.206-0.177-0.494-0.023-0.704
		l6.811-9.083c0.111-0.143,0.278-0.227,0.455-0.227h22.698c0.177,0,0.348,0.084,0.454,0.227l6.81,9.083
		c0.162,0.21,0.15,0.499-0.021,0.704l-18.16,21.562C611.421,215.629,611.26,215.707,611.093,215.707L611.093,215.707z
		 M593.659,193.551l17.434,20.703l17.434-20.703l-6.367-8.489h-22.132L593.659,193.551z M593.659,193.551"/>
	<path class="st1" d="M629.253,194.138h-36.319c-0.312,0-0.566-0.248-0.566-0.564c0-0.316,0.254-0.564,0.566-0.564h36.319
		c0.315,0,0.564,0.249,0.564,0.564C629.817,193.89,629.568,194.138,629.253,194.138L629.253,194.138z M629.253,194.138"/>
	<path class="st1" d="M611.093,215.707c-0.056,0-0.11-0.011-0.172-0.028c-0.299-0.094-0.459-0.416-0.366-0.716l6.81-21.561
		c0.095-0.3,0.411-0.465,0.71-0.366c0.3,0.095,0.465,0.41,0.372,0.709l-6.811,21.562
		C611.558,215.551,611.337,215.707,611.093,215.707L611.093,215.707z M611.093,215.707"/>
	<path class="st1" d="M611.093,215.707c-0.238,0-0.465-0.156-0.538-0.4l-6.811-21.562c-0.094-0.299,0.072-0.62,0.367-0.715
		c0.305-0.093,0.619,0.072,0.713,0.372l6.812,21.561c0.094,0.301-0.071,0.622-0.372,0.716
		C611.21,215.696,611.147,215.707,611.093,215.707L611.093,215.707z M611.093,215.707"/>
	<path class="st1" d="M604.283,194.138c-0.205,0-0.404-0.111-0.504-0.309l-4.544-9.084c-0.139-0.276-0.022-0.619,0.255-0.758
		c0.281-0.138,0.62-0.027,0.764,0.254l4.539,9.076c0.138,0.284,0.028,0.622-0.255,0.765
		C604.46,194.123,604.371,194.138,604.283,194.138L604.283,194.138z M604.283,194.138"/>
	<path class="st1" d="M604.283,194.138c-0.116,0-0.233-0.033-0.338-0.111c-0.25-0.187-0.3-0.541-0.11-0.792l6.805-9.083
		c0.188-0.248,0.548-0.299,0.799-0.11c0.248,0.188,0.298,0.542,0.11,0.793l-6.806,9.076
		C604.626,194.062,604.46,194.138,604.283,194.138L604.283,194.138z M604.283,194.138"/>
	<path class="st1" d="M617.903,194.138c-0.171,0-0.344-0.076-0.455-0.226l-6.81-9.076c-0.188-0.251-0.138-0.605,0.116-0.793
		c0.249-0.193,0.604-0.138,0.793,0.11l6.811,9.083c0.188,0.25,0.137,0.604-0.117,0.792
		C618.142,194.105,618.025,194.138,617.903,194.138L617.903,194.138z M617.903,194.138"/>
	<path class="st1" d="M617.903,194.138c-0.083,0-0.171-0.015-0.254-0.056c-0.277-0.143-0.394-0.481-0.256-0.765l4.545-9.076
		c0.138-0.282,0.476-0.393,0.759-0.254c0.283,0.139,0.393,0.481,0.255,0.758l-4.539,9.084
		C618.313,194.027,618.108,194.138,617.903,194.138L617.903,194.138z M617.903,194.138"/>
</g>
</svg>
