<?xml version="1.0" encoding="iso-8859-1"?>
<!-- Generator: Adobe Illustrator 16.0.0, SVG Export Plug-In . SVG Version: 6.00 Build 0)  -->
<!DOCTYPE svg PUBLIC "-//W3C//DTD SVG 1.1//EN" "http://www.w3.org/Graphics/SVG/1.1/DTD/svg11.dtd">
<svg version="1.1" id="Calque_1" xmlns="http://www.w3.org/2000/svg" xmlns:xlink="http://www.w3.org/1999/xlink" x="0px" y="0px"
	 width="1280px" height="400px" viewBox="0 0 1280 400" style="enable-background:new 0 0 1280 400;" xml:space="preserve">
<style type="text/css">
<![CDATA[
	.st0{display:none;fill:#2D2D2D;}
	.st1{fill:#FFFFFF;}
]]>
</style>
<rect x="2" class="st0" width="1280" height="400"/>
<g>
	<g>
		<g>
			<path class="st1" d="M644.939,205.277l-0.928-2.371h-3.694l-0.932,2.371h-1.14l3.309-8.108h1.248l3.258,8.108H644.939z
				 M642.164,197.998l-0.051,0.161c-0.096,0.318-0.238,0.727-0.426,1.226l-1.036,2.664h3.032l-1.041-2.676
				c-0.107-0.265-0.215-0.563-0.322-0.897L642.164,197.998z"/>
			<path class="st1" d="M650.642,197.946c-0.897,0-1.596,0.289-2.095,0.866s-0.748,1.368-0.748,2.373
				c0,0.994,0.26,1.793,0.779,2.397c0.521,0.604,1.224,0.906,2.109,0.906c1.136,0,1.989-0.562,2.561-1.687l0.897,0.449
				c-0.333,0.698-0.803,1.229-1.406,1.594c-0.604,0.364-1.306,0.547-2.104,0.547c-0.817,0-1.524-0.17-2.12-0.51
				c-0.597-0.339-1.052-0.824-1.364-1.455c-0.312-0.632-0.469-1.379-0.469-2.242c0-1.292,0.349-2.305,1.047-3.038
				c0.698-0.732,1.665-1.099,2.9-1.099c0.863,0,1.584,0.169,2.164,0.506c0.579,0.338,1.005,0.839,1.277,1.502l-1.042,0.346
				c-0.188-0.472-0.49-0.833-0.906-1.082S651.213,197.946,650.642,197.946z"/>
			<path class="st1" d="M658.738,198.067v7.21h-1.094v-7.21h-2.785v-0.898h6.664v0.898H658.738z"/>
			<path class="st1" d="M662.881,205.277v-8.108h1.099v8.108H662.881z"/>
			<path class="st1" d="M669.567,205.277h-1.14l-3.309-8.108h1.156l2.244,5.709l0.483,1.433l0.483-1.433l2.233-5.709h1.156
				L669.567,205.277z"/>
			<path class="st1" d="M674.016,205.277v-8.108h1.099v8.108H674.016z"/>
			<path class="st1" d="M680.346,198.067v7.21h-1.094v-7.21h-2.785v-0.898h6.664v0.898H680.346z"/>
			<path class="st1" d="M684.488,205.277v-8.108h1.099v8.108H684.488z"/>
			<path class="st1" d="M687.642,205.277v-8.108h6.151v0.898h-5.053v2.601h4.707v0.887h-4.707v2.825h5.289v0.897H687.642z"/>
			<path class="st1" d="M701.854,203.039c0,0.748-0.292,1.327-0.877,1.737c-0.585,0.411-1.409,0.616-2.472,0.616
				c-1.976,0-3.121-0.687-3.436-2.061l1.064-0.213c0.123,0.487,0.384,0.846,0.782,1.073c0.399,0.229,0.942,0.343,1.629,0.343
				c0.71,0,1.258-0.122,1.643-0.365c0.386-0.244,0.579-0.602,0.579-1.073c0-0.265-0.061-0.479-0.182-0.645s-0.291-0.302-0.51-0.409
				c-0.218-0.107-0.479-0.197-0.782-0.271c-0.303-0.072-0.639-0.151-1.007-0.235c-0.641-0.142-1.127-0.284-1.459-0.426
				s-0.594-0.3-0.785-0.475c-0.192-0.175-0.339-0.379-0.44-0.613c-0.102-0.233-0.152-0.502-0.152-0.806
				c0-0.694,0.266-1.229,0.797-1.605s1.292-0.563,2.281-0.563c0.921,0,1.625,0.141,2.112,0.423s0.828,0.763,1.024,1.441
				l-1.082,0.189c-0.119-0.43-0.346-0.741-0.679-0.935c-0.334-0.193-0.796-0.291-1.387-0.291c-0.648,0-1.144,0.107-1.485,0.322
				c-0.341,0.215-0.512,0.535-0.512,0.961c0,0.25,0.066,0.456,0.198,0.619c0.133,0.163,0.323,0.301,0.573,0.414
				c0.249,0.113,0.746,0.252,1.49,0.417c0.249,0.058,0.497,0.116,0.745,0.176c0.247,0.06,0.484,0.131,0.71,0.213
				c0.227,0.082,0.438,0.18,0.637,0.291c0.197,0.11,0.369,0.247,0.515,0.408s0.26,0.351,0.343,0.569
				C701.813,202.486,701.854,202.743,701.854,203.039z"/>
		</g>
	</g>
	<g>
		<path class="st1" d="M614.615,214.923c-5.167,0-9.37-4.203-9.37-9.37c0-3.647,2.095-6.815,5.145-8.363
			c-0.103-0.775-0.157-1.47-0.187-1.995l-11.047,8.653c0.285,0.504,0.446,1.085,0.446,1.705c0,1.751-1.297,3.203-2.981,3.446v1.422
			h0.98c0.277,0,0.502,0.227,0.502,0.503c0,0.277-0.226,0.502-0.502,0.502h-3.141c-0.277,0-0.502-0.225-0.502-0.502
			c0-0.276,0.225-0.503,0.502-0.503h1.157v-1.422c-0.105-0.015-0.21-0.035-0.311-0.06l-3.608-0.443
			c-1.227,3.579-4.624,6.16-8.615,6.16c-5.019,0-9.104-4.083-9.104-9.104c0-5.019,4.085-9.104,9.104-9.104
			c1.646,0,3.192,0.44,4.527,1.208l3.937-6.066l-0.591-2.017h-0.849c-1.016,0-1.842-0.826-1.842-1.841
			c0-1.017,0.827-1.842,1.842-1.842c1.018,0,2.027,0.151,3,0.453l2.387,0.74c0.536,0.167,0.896,0.655,0.896,1.216
			c0,0.703-0.571,1.273-1.274,1.273h-3.115l0.439,1.497h18.228c0.277,0,0.501,0.225,0.502,0.502l0.003,2.616v0.001
			c0,0.02,0.003,1.117,0.178,2.577c1.016-0.378,2.116-0.585,3.262-0.585c5.167,0,9.371,4.205,9.371,9.37
			C623.985,210.72,619.781,214.923,614.615,214.923L614.615,214.923z M610.552,198.241c-2.565,1.431-4.304,4.172-4.304,7.312
			c0,4.613,3.753,8.367,8.367,8.367s8.368-3.754,8.368-8.367s-3.754-8.367-8.368-8.367c-1.102,0-2.155,0.214-3.119,0.603
			c0.053,0.33,0.116,0.667,0.19,1.008c0.898-0.391,1.888-0.607,2.929-0.607c4.062,0,7.364,3.303,7.364,7.365
			c0,4.061-3.303,7.365-7.364,7.365c-4.061,0-7.366-3.305-7.366-7.365c0-2.65,1.406-4.979,3.514-6.276
			C610.682,198.929,610.611,198.582,610.552,198.241L610.552,198.241z M583.083,197.453c-4.466,0-8.1,3.633-8.1,8.1
			c0,4.466,3.633,8.1,8.1,8.1c3.476,0,6.446-2.2,7.593-5.28l-0.752-0.093c-1.085,2.715-3.743,4.639-6.841,4.639
			c-4.061,0-7.366-3.304-7.366-7.365s3.305-7.365,7.366-7.365c1.298,0,2.519,0.337,3.579,0.93l0.4-0.617
			C585.886,197.833,584.528,197.453,583.083,197.453L583.083,197.453z M611.032,200.3c-1.677,1.146-2.777,3.074-2.777,5.253
			c0,3.508,2.853,6.36,6.36,6.36c3.508,0,6.362-2.853,6.362-6.36s-2.854-6.36-6.362-6.36c-0.958,0-1.869,0.213-2.686,0.596
			c0.108,0.381,0.229,0.756,0.368,1.121c1.101,2.88,2.636,4.254,2.65,4.268c0.209,0.184,0.228,0.5,0.045,0.708
			c-0.184,0.209-0.5,0.229-0.708,0.046c-0.071-0.062-1.735-1.554-2.925-4.665C611.238,200.95,611.129,200.627,611.032,200.3
			L611.032,200.3z M583.083,199.192c-3.507,0-6.361,2.853-6.361,6.36s2.854,6.36,6.361,6.36c2.583,0,4.81-1.545,5.806-3.76
			l-5.84-0.718c-1.023-0.017-1.85-0.854-1.85-1.882c0-1.028,0.827-1.867,1.85-1.884l0.714-0.087l2.351-3.622
			C585.212,199.471,584.18,199.192,583.083,199.192L583.083,199.192z M596.621,205.831v2.15c1.127-0.232,1.977-1.234,1.977-2.429
			c0-0.386-0.088-0.75-0.246-1.076L596.621,205.831z M595.49,207.952l0.127,0.014v-1.911h-1.926
			C593.882,206.977,594.585,207.714,595.49,207.952L595.49,207.952z M591.972,207.52l1.401,0.171
			c-0.364-0.465-0.611-1.025-0.7-1.636h-0.5C592.146,206.555,592.078,207.044,591.972,207.52L591.972,207.52z M590.237,207.308
			l0.734,0.089c0.102-0.435,0.168-0.884,0.196-1.342h-0.737C590.402,206.483,590.336,206.901,590.237,207.308L590.237,207.308z
			 M584.634,206.618l4.599,0.565c0.096-0.365,0.161-0.741,0.192-1.129h-4.527C584.842,206.259,584.752,206.45,584.634,206.618
			L584.634,206.618z M583.083,206.433h0.005c0.296-0.002,0.559-0.152,0.717-0.378h-0.723c-0.185,0-0.353-0.101-0.441-0.262
			c-0.088-0.162-0.08-0.357,0.02-0.514l0.394-0.604c-0.472,0.013-0.853,0.402-0.853,0.879c0,0.482,0.391,0.876,0.874,0.879
			C583.079,206.433,583.08,206.433,583.083,206.433L583.083,206.433z M593.691,205.052h1.803l-0.5-1.708
			C594.334,203.684,593.845,204.307,593.691,205.052L593.691,205.052z M592.173,205.052h0.5c0.088-0.611,0.336-1.172,0.7-1.637
			l-1.401,0.171C592.078,204.062,592.146,204.552,592.173,205.052L592.173,205.052z M590.43,205.052h0.737
			c-0.028-0.46-0.094-0.908-0.196-1.343l-0.734,0.09C590.336,204.204,590.402,204.623,590.43,205.052L590.43,205.052z
			 M584.898,205.052h4.527c-0.031-0.387-0.096-0.765-0.192-1.129l-4.599,0.563C584.752,204.657,584.842,204.848,584.898,205.052
			L584.898,205.052z M595.967,203.097l0.47,1.605l1.304-1.021c-0.428-0.372-0.985-0.599-1.593-0.607L595.967,203.097z
			 M586.955,200.51l-1.891,2.912l3.826-0.469C588.455,201.987,587.785,201.147,586.955,200.51L586.955,200.51z M596.128,202.071
			c0.938,0.002,1.788,0.375,2.414,0.982l11.628-9.107l-0.003-1.871h-17.432l2.938,10.022c0.146-0.018,0.296-0.026,0.446-0.026
			H596.128z M587.502,199.665c1.072,0.806,1.917,1.898,2.422,3.162l0.752-0.093c-0.551-1.48-1.525-2.76-2.774-3.687L587.502,199.665
			z M588.451,198.204c1.49,1.093,2.638,2.625,3.247,4.404l2.973-0.363l-2.75-9.386L588.451,198.204z M590.107,186.895
			c-0.463,0-0.838,0.377-0.838,0.839c0,0.461,0.375,0.837,0.838,0.837h5.009c0.149,0,0.27-0.121,0.27-0.27
			c0-0.118-0.077-0.222-0.19-0.257l-2.386-0.739C591.933,187.031,591.024,186.895,590.107,186.895L590.107,186.895z
			 M610.668,191.006c-0.276,0-0.501-0.225-0.501-0.503v-1.827c0-1.431-1.165-2.596-2.595-2.596h-1.18
			c-0.278,0-0.502-0.224-0.502-0.499c0-0.277,0.224-0.503,0.502-0.503h1.18c1.984,0,3.599,1.615,3.599,3.598v1.827
			C611.171,190.781,610.946,191.006,610.668,191.006L610.668,191.006z M610.668,191.006"/>
	</g>
</g>
</svg>
