<?xml version="1.0" encoding="utf-8"?>
<!-- Generator: Adobe Illustrator 16.0.0, SVG Export Plug-In . SVG Version: 6.00 Build 0)  -->
<!DOCTYPE svg PUBLIC "-//W3C//DTD SVG 1.1//EN" "http://www.w3.org/Graphics/SVG/1.1/DTD/svg11.dtd">
<svg version="1.1" id="Capa_1" xmlns="http://www.w3.org/2000/svg" xmlns:xlink="http://www.w3.org/1999/xlink" x="0px" y="0px"
	 width="800px" height="800px" viewBox="0 0 800 800" enable-background="new 0 0 800 800" xml:space="preserve">
<g>
	<circle fill="#AF58A7" cx="233.173" cy="481.955" r="31.765"/>
	<circle fill="#AF58A7" cx="566.824" cy="481.955" r="31.765"/>
	<path fill="#AF58A7" d="M800,468.474c0-46.013-33.354-84.354-77.146-92.189V362.4c0-178.022-144.83-322.854-322.853-322.854
		c-178.022,0-322.853,144.831-322.853,322.854v13.884C33.353,384.121,0,422.463,0,468.474c0,46.41,33.927,85.023,78.278,92.396
		C84.521,632,117.065,684.543,175.306,717.24c51.794,29.078,125.29,43.212,224.695,43.212c99.403,0,172.9-14.136,224.694-43.212
		c58.237-32.697,90.783-85.238,97.024-156.373C766.072,553.499,800,514.884,800,468.474z M33.072,468.474
		c0-27.688,18.669-51.081,44.074-58.299v116.6C51.741,519.557,33.072,496.163,33.072,468.474z M689.78,534.844
		c0,72.624-26.585,122.854-81.275,153.561c-46.72,26.229-114.922,38.979-208.504,38.979s-161.786-12.749-208.504-38.979
		c-54.692-30.705-81.278-80.937-81.278-153.561V362.398c0-130.858,87.195-241.714,206.528-277.574
		c90.912,1.149,139.329,66.776,139.329,114.296c0,36.395-29.609,66.007-66.007,66.007c-27.292,0-49.498-22.206-49.498-49.498
		c0-20.01,16.278-36.292,36.292-36.292c9.132,0,16.536-7.404,16.536-16.536c0-9.132-7.404-16.536-16.536-16.536
		c-38.247,0-69.363,31.117-69.363,69.364c0,45.529,37.04,82.569,82.569,82.569c54.632,0,99.077-44.446,99.077-99.078
		c0-34.322-17.243-71.249-46.129-98.781c-11.554-11.013-24.698-20.271-39.045-27.671C561.93,74.805,689.78,203.942,689.78,362.398
		V534.844L689.78,534.844z M722.854,526.774V410.177c25.406,7.218,44.075,30.612,44.075,58.299
		C766.929,496.163,748.258,519.557,722.854,526.774z"/>
	<path fill="#AF58A7" d="M463.951,527.498c-35.261,35.265-92.643,35.265-127.902,0c-6.459-6.457-16.927-6.457-23.386,0
		c-6.457,6.457-6.457,16.929,0,23.386c24.078,24.078,55.709,36.118,87.338,36.118s63.258-12.04,87.338-36.118
		c6.457-6.457,6.457-16.929,0-23.386C480.878,521.041,470.41,521.041,463.951,527.498z"/>
</g>
</svg>
