<?xml version="1.0" encoding="utf-8"?>
<!-- Generator: Adobe Illustrator 16.0.0, SVG Export Plug-In . SVG Version: 6.00 Build 0)  -->
<!DOCTYPE svg PUBLIC "-//W3C//DTD SVG 1.1//EN" "http://www.w3.org/Graphics/SVG/1.1/DTD/svg11.dtd">
<svg version="1.1" id="Capa_1" xmlns="http://www.w3.org/2000/svg" xmlns:xlink="http://www.w3.org/1999/xlink" x="0px" y="0px"
	 width="567px" height="562px" viewBox="-41.5 -35.63 567 562" enable-background="new -41.5 -35.63 567 562" xml:space="preserve">
<g>
	<g>
		<g>
			<g>
				<path fill="#736C99" d="M486.45,162.24c-1.13-0.16-221.1-0.24-221.1-0.24s218.48-45.65,220.771-46.99
					c3.32-1.91,6.18-4.6,8.35-7.91c3.67-5.59,4.94-12.27,3.58-18.81L479.73,0.18c-2.4-11.54-12.69-19.92-24.462-19.92
					c-1.698,0-447.66,92.14-447.66,92.14C1.07,73.75-4.55,77.58-8.221,83.16c-3.67,5.59-4.939,12.27-3.579,18.81l8.71,41.9
					C-15.82,153.95-24,169.54-24,187c0,21.33,12.21,39.86,30,48.98V487c0,13.78,11.21,25,25,25h452c13.79,0,25-11.22,25-25V187
					C508,174.38,498.61,163.92,486.45,162.24z M443.86,182l-70.001,70h-91.719l70-70H443.86z M454.24,0.37
					c2.7-0.56,5.358,1.23,5.91,3.88l18.318,88.11c0.37,1.77-0.29,3.12-0.72,3.76c-0.42,0.65-1.4,1.79-3.16,2.16l-10.64,2.2
					L345.59,22.86L454.24,0.37z M317.859,28.6l118.371,77.62l-89.051,18.42l-0.851,0.18L227.971,47.21L317.859,28.6z M200.25,52.95
					l118.35,77.6L228.7,149.16L110.35,71.55L200.25,52.95z M8.5,94.14c0.42-0.65,1.4-1.79,3.16-2.15L80.5,77.74l2.13-0.44
					l118.351,77.6l-115.59,23.92c-0.341-2.32-0.841-4.6-1.471-6.82c-0.99-3.49-2.311-6.83-3.939-10c-9.11-17.79-27.65-30-48.98-30
					c-5.43,0-10.689,0.79-15.65,2.27L7.779,97.9C7.42,96.14,8.07,94.79,8.5,94.14z M203.859,182l-70,70H26v-10.23
					c1.65,0.15,3.311,0.23,5,0.23c26.061,0,47.939-18.22,53.59-42.59L168.721,182H203.859z M6.87,212.34C0.18,205.95-4,196.96-4,187
					c0-7.92,2.641-15.23,7.09-21.1c2.061-2.71,4.5-5.12,7.25-7.14c3.03-2.22,6.43-3.97,10.09-5.13C23.77,152.57,27.32,152,31,152
					c10.04,0,19.109,4.25,25.5,11.05c2.48,2.63,4.55,5.65,6.12,8.95c1.479,3.11,2.521,6.47,3.021,10l0.119,0.88
					c0.16,1.35,0.24,2.73,0.24,4.12c0,2.1-0.189,4.16-0.54,6.16c-0.681,3.81-1.979,7.42-3.79,10.7C55.7,214.67,44.189,222,31,222
					c-1.7,0-3.37-0.12-5-0.36c-3.529-0.5-6.891-1.54-10-3.03C12.62,217.01,9.55,214.88,6.87,212.34z M254.28,252h-92.14l70-70
					h91.719L255.1,250.76L254.28,252z M31,492c-2.76,0-5-2.25-5-5V272h462v215c0,2.75-2.24,5-5,5H31z M488,252h-85.86l70-70H483
					c2.76,0,5,2.24,5,5V252z"/>
			</g>
		</g>
	</g>
	<g>
		<g>
			<g>
				<path fill="#736C99" d="M54,177.21c0-0.01-0.01-0.01-0.01-0.01c-1.34-3.15-3.311-5.97-5.76-8.29
					c-4.17-3.99-9.711-6.53-15.83-6.87c-0.471-0.03-0.93-0.04-1.4-0.04c-4.279,0-8.3,1.08-11.82,2.97c-3.08,1.66-5.77,3.94-7.9,6.68
					C7.971,175.88,6,181.22,6,187c0,6.46,2.46,12.37,6.51,16.81c2.25,2.48,5,4.5,8.08,5.91C23.76,211.18,27.279,212,31,212
					c0.3,0,0.6-0.01,0.9-0.02c8.51-0.3,15.959-4.88,20.24-11.65c1.83-2.88,3.08-6.17,3.59-9.69c0,0-0.221-1.56,0.209-1.94v-0.04
					c0-0.01,0-0.01,0-0.02c0.021-0.27,0.041-0.54,0.041-0.82C56,187.55,56,187.28,56,187C56,183.53,55.29,180.21,54,177.21z
					 M35.67,188.77C34.96,190.66,33.13,192,31,192c-2.05,0-3.811-1.24-4.59-3.01C26.15,188.38,26,187.7,26,187
					c0-1.52,0.68-2.88,1.75-3.79c0.87-0.76,2.01-1.21,3.25-1.21c0.77,0,1.51,0.18,2.16,0.49C34.84,183.3,36,185.01,36,187
					C36,187.62,35.88,188.22,35.67,188.77z"/>
			</g>
		</g>
	</g>
</g>
</svg>
