<?xml version="1.0" encoding="utf-8"?>
<!-- Generator: Adobe Illustrator 16.0.0, SVG Export Plug-In . SVG Version: 6.00 Build 0)  -->
<!DOCTYPE svg PUBLIC "-//W3C//DTD SVG 1.1//EN" "http://www.w3.org/Graphics/SVG/1.1/DTD/svg11.dtd">
<svg version="1.1" id="Capa_1" xmlns="http://www.w3.org/2000/svg" xmlns:xlink="http://www.w3.org/1999/xlink" x="0px" y="0px"
	 width="512px" height="512px" viewBox="0 0 512 512" enable-background="new 0 0 512 512" xml:space="preserve">
<path fill="#FFFFFF" stroke="#FFFFFF" stroke-width="3" stroke-miterlimit="10" d="M509.466,251.431
	c-2.403-3.118-37.922-30.762-65.337-87.35c-41.328-85.308-24.922-153.7-25.45-157.581c-0.719-5.48-7.141-8.399-11.772-5.109
	C365.493,30.274,311.904,46.18,256.003,46.18c-95.101,0-149.139-44.563-152.902-45.797c-5.35-1.761-10.654,2.815-9.744,8.341
	c7.944,49.869-1.104,105.041-25.48,155.357c-28.052,57.903-63.805,84.467-65.922,88.227c-1.76,3.106-1.06,6.965,1.528,9.277
	c74.074,66.222,103.928,162.073,91.236,241.717c-1.039,6.514,6.276,11.115,11.698,7.331c85.1-59.387,213.72-59.452,298.965-2.008
	c5.068,3.408,11.809-0.395,11.684-6.349c-0.075-4.625-14.569-71.25,25.697-154.367c26.152-53.981,64.581-84.595,66.705-87.351
	C511.527,257.886,511.544,254.125,509.466,251.431L509.466,251.431z M430.631,170.621c14.054,29.008,32.639,55.606,54.282,77.874
	h-67.689c-12.509-17.084-23.679-35.665-33.189-55.299c-12.87-26.565-22.331-54.438-28.163-82.894l45.075-72.148
	C399.799,82.006,409.99,128.017,430.631,170.621L430.631,170.621z M242.474,248.495h-51.028c3.531-6.459,6.92-13.033,10.123-19.646
	c4.248-8.769,8.228-17.736,11.894-26.791L242.474,248.495z M225.927,193.699c10.002,0.684,20.068,1.037,30.076,1.037
	c10.006,0,20.072-0.354,30.076-1.037l-30.076,48.14L225.927,193.699z M242.491,263.494L214.317,308.7
	c-3.526-8.636-7.324-17.188-11.38-25.562c-3.205-6.615-6.603-13.182-10.138-19.646L242.491,263.494L242.491,263.494z
	 M256.003,270.173l29.929,48.023c-9.502-0.619-19.062-0.943-28.561-0.943c-10.456,0-20.975,0.396-31.42,1.141L256.003,270.173z
	 M269.514,263.494h49.692c-3.533,6.463-6.933,13.029-10.14,19.646c-4.056,8.373-7.854,16.926-11.379,25.561L269.514,263.494z
	 M269.531,248.495l29.011-46.436c3.666,9.055,7.646,18.022,11.896,26.792c3.203,6.612,6.59,13.185,10.121,19.644H269.531z
	 M295.984,177.845c-13.229,1.25-26.66,1.892-39.981,1.892c-13.325,0-26.756-0.642-39.981-1.892l-36.091-57.767
	c24.834,5.231,50.342,7.88,76.072,7.88c25.728,0,51.237-2.648,76.072-7.88L295.984,177.845z M203.546,186.186
	c-4.581,12.221-9.774,24.356-15.475,36.124c-4.298,8.871-8.951,17.658-13.828,26.185h-61.05
	c10.512-15.315,19.998-31.665,28.28-48.76c11.138-22.989,19.835-46.923,25.948-71.373L203.546,186.186z M175.606,263.494
	c4.884,8.54,9.535,17.316,13.832,26.186c5.506,11.364,10.543,23.068,15.007,34.861l-35.999,57.763
	c-6.094-23.987-14.67-47.475-25.607-70.05c-8.286-17.104-17.784-33.439-28.301-48.76H175.606L175.606,263.494z M216.055,334.272
	c13.656-1.335,27.544-2.021,41.315-2.021c12.793,0,25.703,0.594,38.414,1.753l35.87,57.56c-24.305-4.998-49.217-7.532-74.284-7.532
	c-26.193,0-52.159,2.751-77.419,8.172L216.055,334.272z M307.564,324.547c4.461-11.793,9.496-23.5,15.002-34.865
	c4.3-8.875,8.951-17.649,13.832-26.187h61.067c-10.521,15.323-20.017,31.659-28.301,48.76
	c-10.929,22.56-19.504,46.052-25.599,70.063L307.564,324.547z M337.764,248.495c-4.877-8.528-9.531-17.314-13.828-26.184
	c-5.701-11.77-10.896-23.904-15.477-36.125l36.127-57.825c6.113,24.45,14.811,48.384,25.948,71.374
	c8.284,17.097,17.769,33.446,28.28,48.759L337.764,248.495L337.764,248.495z M388.312,30.063l-44.975,71.984
	c-28.293,7.234-57.658,10.912-87.337,10.912c-29.68,0-59.046-3.678-87.337-10.912l-44.972-71.983
	C203.725,71.516,308.141,71.589,388.312,30.063L388.312,30.063z M81.375,170.621c20.64-42.604,30.831-88.615,29.686-132.467
	l45.076,72.149c-5.833,28.456-15.294,56.328-28.164,82.892c-9.511,19.631-20.68,38.211-33.191,55.3H27.093
	C48.735,226.227,67.321,199.63,81.375,170.621z M27.212,263.494h68.932c12.516,17.096,23.684,35.664,33.198,55.3
	c12.662,26.137,22.028,53.54,27.883,81.517l-44.753,71.812C113.84,401.315,86.437,323.441,27.212,263.494L27.212,263.494z
	 M123.549,482.705l45.132-72.418c28.709-7.465,58.539-11.257,88.69-11.257c28.962,0,57.699,3.523,85.458,10.459l44.358,71.177
	c-38.479-19.383-83.53-29.858-129.815-29.858C209.356,450.809,162.869,462.003,123.549,482.705L123.549,482.705z M399.553,472.149
	l-44.757-71.815c5.854-28.01,15.216-55.425,27.868-81.541c9.51-19.631,20.678-38.199,33.198-55.299h68.931
	C425.831,323.177,398.179,401.066,399.553,472.149L399.553,472.149z"/>
</svg>
