<?xml version="1.0" encoding="utf-8"?>
<!-- Generator: Adobe Illustrator 16.0.0, SVG Export Plug-In . SVG Version: 6.00 Build 0)  -->
<!DOCTYPE svg PUBLIC "-//W3C//DTD SVG 1.1//EN" "http://www.w3.org/Graphics/SVG/1.1/DTD/svg11.dtd">
<svg version="1.1" id="Calque_1" xmlns="http://www.w3.org/2000/svg" xmlns:xlink="http://www.w3.org/1999/xlink" x="0px" y="0px"
	 width="30.5px" height="34px" viewBox="0 0 30.5 34" enable-background="new 0 0 30.5 34" xml:space="preserve">
<g id="XMLID_28899_">
	<path id="XMLID_28912_" fill="#AF587C" d="M15.3,34c8.4,0,15.3-6.9,15.3-15.3c0-7.7-5.699-14-13-15.1C17.8,3.3,17.9,2.9,17.9,2.5
		C17.9,1.1,16.8,0,15.4,0s-2.5,1.1-2.5,2.5c0,0.4,0.1,0.8,0.3,1.1C5.7,4.6,0,11,0,18.7C0,27.1,6.9,34,15.3,34z M15.3,1.083
		c0.661,0,1.058,0.529,1.058,1.058c0,0.661-0.528,1.059-1.058,1.059c-0.662,0-1.058-0.53-1.058-1.059
		C14.242,1.612,14.771,1.083,15.3,1.083z M15.3,4.751c7.5,0,13.868,6.349,13.868,13.848c0,7.5-6.368,13.984-13.868,13.984
		S1.417,26.1,1.417,18.6C1.317,11.2,7.8,4.751,15.3,4.751z"/>
	<path id="XMLID_28909_" fill="#AF587C" d="M15.3,30c6.2,0,11.3-5.1,11.3-11.3S21.5,7.4,15.3,7.4C9.1,7.4,4,12.5,4,18.7
		S9,30,15.3,30z M25.3,18.7c0,5.5-4.5,10-10,10s-10-4.5-10-10s4.5-10,10-10S25.3,13.2,25.3,18.7z"/>
	<path id="XMLID_28904_" fill="#AF587C" d="M10.3,24.5c0.1,0,0.1,0,0.2-0.1l4.2-2.9c0.2,0,0.4,0.1,0.5,0.1
		c1.6,0,2.899-1.3,2.899-2.899c0-0.101,0-0.2,0-0.3l3.601-5.7c0.1-0.1,0.1-0.3,0-0.4c-0.101-0.1-0.3-0.1-0.4,0l-5.6,3.6
		c-0.1,0-0.2,0-0.4,0c-1.6,0-2.9,1.3-2.9,2.9c0,0.3,0.1,0.601,0.2,0.9L10,24c-0.1,0.1-0.1,0.3,0.1,0.4
		C10.2,24.4,10.2,24.5,10.3,24.5z M16.5,16.1l3.9-2.5l-2.5,3.9C17.6,16.9,17.1,16.4,16.5,16.1z M15.3,17.5c0.7,0,1.2,0.5,1.2,1.2
		s-0.5,1.2-1.2,1.2c-0.7,0-1.2-0.5-1.2-1.2C14,18,14.6,17.5,15.3,17.5z M14,21.2L11.3,23l1.6-2.7C13.2,20.7,13.5,21,14,21.2z"/>
	<path id="XMLID_28903_" fill="#AF587C" d="M5.7,18.7C5.7,18.9,5.9,19,6,19h2.4c0.2,0,0.3-0.1,0.3-0.3s-0.1-0.3-0.3-0.3H6
		C5.9,18.4,5.7,18.5,5.7,18.7z"/>
	<path id="XMLID_28902_" fill="#AF587C" d="M22.2,19H24.6c0.2,0,0.301-0.1,0.301-0.3S24.8,18.4,24.6,18.4H22.2
		c-0.2,0-0.3,0.1-0.3,0.3S22,19,22.2,19z"/>
	<path id="XMLID_28901_" fill="#BED678" d="M15.3,12.1c0.2,0,0.3-0.1,0.3-0.3V9.4c0-0.2-0.1-0.3-0.3-0.3c-0.2,0-0.3,0.1-0.3,0.3v2.4
		C15,12,15.2,12.1,15.3,12.1z"/>
	<path id="XMLID_28900_" fill="#AF587C" d="M15.3,25.3c-0.2,0-0.3,0.101-0.3,0.3V28c0,0.2,0.1,0.3,0.3,0.3c0.2,0,0.3-0.1,0.3-0.3
		v-2.4C15.7,25.4,15.5,25.3,15.3,25.3z"/>
</g>
</svg>
