<?xml version="1.0" encoding="utf-8"?>
<!-- Generator: Adobe Illustrator 16.0.0, SVG Export Plug-In . SVG Version: 6.00 Build 0)  -->
<!DOCTYPE svg PUBLIC "-//W3C//DTD SVG 1.1//EN" "http://www.w3.org/Graphics/SVG/1.1/DTD/svg11.dtd">
<svg version="1.1" id="Layer_1" xmlns="http://www.w3.org/2000/svg" xmlns:xlink="http://www.w3.org/1999/xlink" x="0px" y="0px"
	 width="499.56px" height="474.782px" viewBox="69.94 2.611 499.56 474.782" enable-background="new 69.94 2.611 499.56 474.782"
	 xml:space="preserve">
<path fill="#FFFFFF" d="M299.206,477.394c-61.202,0-118.655-18.073-157.946-49.748c-69.533-56.052-86.858-178.354-57.923-220.352
	c11.302-16.406,29.057-19.778,47.496-9.022c25.217,14.708,43.25,23.811,60.803,26.814c18.279,3.126,36.221-0.657,58.186-12.267
	c11.196-5.911,21.482-10.873,31.452-15.171c0.11-0.082,0.127-0.208,0.108-0.26c-25.377-19.108-36.732-47.262-34.769-86.111
	c1.48-29.276,14.694-56.528,37.208-76.737C308.474,12.412,342.39,0.853,376.84,2.829c48.222,2.761,91.164,31.556,109.4,73.359
	l-18.332,7.997c-15.25-34.958-51.445-59.055-92.212-61.389c-29.188-1.663-57.799,8.033-78.516,26.628
	c-18.519,16.624-29.384,38.948-30.593,62.863c-1.625,32.156,6.881,54.107,26.769,69.083c5.804,4.371,8.753,11.288,7.889,18.504
	c-0.866,7.226-5.372,13.259-12.053,16.14c-9.483,4.088-19.305,8.828-30.028,14.489c-55.174,29.165-89.097,13.806-138.408-14.956
	c-6.972-4.066-14.335-6.505-20.949,3.094c-10.834,15.726-12.869,52.32-4.949,88.991c9.46,43.799,30.948,81.867,58.955,104.443
	c36.264,29.234,90.05,45.796,147.617,45.31c56.729-0.434,108.137-16.987,141.041-45.418c34.675-29.959,53.22-70.659,50.882-111.666
	c-1.812-31.789-16.702-59.47-40.853-75.944c-1.695-1.155-3.443-2.29-5.191-3.371c-5.678-3.511-9.268-9.568-9.602-16.202
	c-0.334-6.653,2.641-13.06,7.959-17.139c9.555-7.333,16.5-19.143,18.124-30.82l19.809,2.754
	c-2.319,16.686-12.189,33.52-25.759,43.934c-0.128,0.099-0.163,0.158-0.157,0.267c0.004,0.078,0.011,0.113,0.145,0.196
	c1.998,1.235,3.995,2.532,5.938,3.856c29.326,20.005,47.386,53.293,49.555,91.332c1.271,22.293-3.004,45.46-12.363,66.995
	c-10.024,23.064-25.303,43.568-45.41,60.941c-36.442,31.487-92.561,49.815-153.964,50.284
	C300.791,477.391,299.997,477.394,299.206,477.394z"/>
<g>
	<path fill="#FFFFFF" d="M471.466,168.202h-5.52l-2.941-4.67c-12.591-19.988-14.466-44.848-5.017-66.499l12.345-28.279l72.549,4.993
		c8.862,0.61,16.855,5.146,21.93,12.444c5.028,7.233,6.487,16.209,4.002,24.626c-4.604,15.592-13.897,28.865-26.877,38.384
		C524.744,161.809,501.034,168.202,471.466,168.202z M483.022,89.674l-6.704,15.359c-6.064,13.897-5.645,29.631,0.949,43.075
		c39.463-1.302,64.432-16.086,72.364-42.955c1.039-3.518-0.332-6.239-1.242-7.547c-1.593-2.292-4.102-3.716-6.881-3.907
		L483.022,89.674z"/>
	<path fill="#FFFFFF" d="M281.192,403.82c-24.625,0-47.912-6.444-65.57-18.147c-18.925-12.542-29.348-29.634-29.348-48.129
		c0-18.494,10.422-35.587,29.348-48.129c17.659-11.702,40.945-18.147,65.57-18.147s47.911,6.445,65.569,18.147
		c18.925,12.542,29.348,29.635,29.348,48.129c0,18.495-10.423,35.587-29.348,48.129C329.104,397.376,305.817,403.82,281.192,403.82z
		 M281.192,291.268c-40.61,0-74.918,21.192-74.918,46.276s34.308,46.276,74.918,46.276c40.609,0,74.917-21.192,74.917-46.276
		S321.802,291.268,281.192,291.268z"/>
</g>
<circle fill="#FFFFFF" cx="397.655" cy="90.24" r="16.64"/>
</svg>
