<?xml version="1.0" encoding="utf-8"?>
<!-- Generator: Adobe Illustrator 16.0.0, SVG Export Plug-In . SVG Version: 6.00 Build 0)  -->
<!DOCTYPE svg PUBLIC "-//W3C//DTD SVG 1.1//EN" "http://www.w3.org/Graphics/SVG/1.1/DTD/svg11.dtd">
<svg version="1.1" id="Capa_1" xmlns="http://www.w3.org/2000/svg" xmlns:xlink="http://www.w3.org/1999/xlink" x="0px" y="0px"
	 width="531.326px" height="351px" viewBox="-9.663 171 531.326 351" enable-background="new -9.663 171 531.326 351"
	 xml:space="preserve">
<g>
	<path fill="#131E29" d="M465.989,522c-28.077,0-59.832-19.227-97.08-58.779C349.653,442.742,324.006,431,298.539,431h-85.078
		c-25.719,0-52.397,12.043-71.366,32.216C104.843,502.773,73.416,522,46.011,522c-13.061,0-55.674-6.327-55.674-87.743
		c0-48.239,15.579-112.421,39.689-163.509c13.828-29.3,29.591-52.704,46.854-69.561C97.392,181.156,119.437,171,142.401,171
		c29.084,0,43.173,9.606,54.495,17.324c8.235,5.625,14.745,10.072,30.634,12.676h58.078c14.424-2.392,21.072-6.928,29.453-12.646
		C326.427,180.605,340.517,171,369.6,171c22.965,0,45.009,10.156,65.521,30.187c17.263,16.857,33.027,40.261,46.854,69.56
		c24.109,51.089,39.688,115.27,39.688,163.509c0,22.83-3.323,42.145-9.611,55.854C502.776,510.374,485.986,522,465.989,522z
		 M213.461,411h85.078c30.962,0,61.92,14.038,84.936,38.515C415.808,483.849,444.343,502,465.989,502
		c15.393,0,23.657-10.996,27.88-20.222c5.027-10.96,7.794-27.835,7.794-47.522c0-44.816-15.181-107.095-37.775-154.973
		C427.637,202.469,389.253,191,369.6,191c-22.914,0-33.241,7.04-43.228,13.849c-9.368,6.391-19.015,12.971-38.404,16.029
		L287.194,221h-61.244l-0.772-0.122c-20.892-3.285-30.37-9.759-39.536-16.02c-10-6.818-20.327-13.858-43.242-13.858
		c-19.653,0-58.037,11.469-94.288,88.283C25.518,327.161,10.337,389.44,10.337,434.257c0,27.054,5.229,47.163,15.122,58.152
		C32.971,500.754,41.56,502,46.011,502c21.292,0,48.719-17.66,81.519-52.49C150.202,425.398,182.328,411,213.461,411z"/>
	<path fill="#131E29" d="M166,301h-15v-15c0-8.291-6.709-15-15-15s-15,6.709-15,15v15h-15c-8.291,0-15,6.709-15,15s6.709,15,15,15
		h15v15c0,8.291,6.709,15,15,15s15-6.709,15-15v-15h15c8.291,0,15-6.709,15-15S174.291,301,166,301z"/>
	<circle fill="#131E29" cx="376" cy="286" r="15"/>
	<circle fill="#131E29" cx="376" cy="346" r="15"/>
	<circle fill="#131E29" cx="346" cy="316" r="15"/>
	<circle fill="#131E29" cx="406" cy="316" r="15"/>
</g>
</svg>
