<?xml version="1.0" encoding="utf-8"?>
<!-- Generator: Adobe Illustrator 16.0.0, SVG Export Plug-In . SVG Version: 6.00 Build 0)  -->
<!DOCTYPE svg PUBLIC "-//W3C//DTD SVG 1.1//EN" "http://www.w3.org/Graphics/SVG/1.1/DTD/svg11.dtd">
<svg version="1.1" id="Calque_1" xmlns="http://www.w3.org/2000/svg" xmlns:xlink="http://www.w3.org/1999/xlink" x="0px" y="0px"
	 width="520px" height="519.893px" viewBox="0 0 520 519.893" enable-background="new 0 0 520 519.893" xml:space="preserve">
<path fill="#FFFFFF" stroke="#FFFFFF" stroke-width="3" stroke-miterlimit="10" d="M51.25,237.164v121.273
	c0.07,16.061,3.742,31.897,10.74,46.351c30.72,64.143,120.696,107.215,223.873,107.215c109.078,0,191.147-39.03,225.23-107.086
	c1.48-2.956,1.121-6.502-0.926-9.1c-2.046-2.6-5.409-3.776-8.631-3.03c-40.396,9.334-58.202-12.798-63.986-22.745
	c-7.35-13.188-11.118-28.072-10.919-43.171v-71.785l55.456-55.453c13.403-13.427,17.407-33.61,10.135-51.133
	c-7.271-17.528-24.381-28.951-43.354-28.943c-11.435,0.043-22.44,4.296-30.938,11.943C394.177,54.95,324.215,2.098,244.088,0.165
	C163.957-1.769,91.535,47.65,64.115,122.97c-20.66-8.206-44.241-0.758-56.437,17.828c-12.197,18.582-9.646,43.182,6.1,58.87
	L51.25,237.164z M236.382,17.181h2.687c77.703-0.004,145.551,52.582,164.934,127.824l-51.653,51.653
	c-3.23,3.347-3.187,8.666,0.105,11.958c3.293,3.292,8.611,3.335,11.959,0.102l63.345-63.346c11.822-11.271,30.412-11.271,42.233,0
	c11.638,11.673,11.638,30.56,0,42.233l-57.862,57.886l-5.46,5.459c-2.027,2.031-2.894,4.948-2.312,7.761
	c0.585,2.812,2.542,5.14,5.213,6.197v61.963c-0.207,18.102,4.343,35.938,13.188,51.728c13.299,22.612,38.398,35.574,64.533,33.333
	c-35.191,52.996-107.401,83.012-201.429,83.012c-95.237,0-180.979-40.1-208.482-97.486c-5.901-12.166-9.002-25.495-9.068-39.016
	V191.826c-0.012-18.441,2.901-36.765,8.631-54.293C98.748,67.354,162.914,18.918,236.382,17.181z M25.885,145.391
	c8.729-8.455,21.659-10.9,32.872-6.213c-4.94,17.117-7.467,34.836-7.506,52.648v21.175l-25.365-25.417
	c-5.608-5.588-8.76-13.181-8.76-21.097C17.125,158.572,20.277,150.979,25.885,145.391z"/>
<path fill="#FFFFFF" stroke="#FFFFFF" stroke-width="3" stroke-miterlimit="10" d="M136.564,238.996
	c19.453,0,34.125-23.835,34.125-55.453s-14.672-55.457-34.125-55.457s-34.125,23.838-34.125,55.457S117.111,238.996,136.564,238.996
	z M136.564,145.153c6.951,0,17.062,14.954,17.062,38.39s-10.111,38.39-17.062,38.39c-6.952,0-17.063-14.954-17.063-38.39
	S129.613,145.153,136.564,145.153z"/>
<path fill="#FFFFFF" stroke="#FFFFFF" stroke-width="3" stroke-miterlimit="10" d="M159.887,380.398
	c0.164,1.104,0.543,2.168,1.121,3.118c8.674,23.396,24.381,26.107,43.807,26.107c19.426,0,35.133-2.714,43.811-26.107
	c0.578-0.95,0.957-2.016,1.117-3.118c4.85-18.284,6.959-37.186,6.26-56.085c0-47.838-22.487-85.317-51.188-85.317
	c-28.701,0-51.188,37.479-51.188,85.317C152.928,343.216,155.041,362.114,159.887,380.398z M204.815,392.564
	c-11.618,0-21.003,0-26.967-12.348c6.452-8.355,16.411-13.252,26.967-13.252c10.557,0,20.519,4.896,26.971,13.252
	C225.822,392.564,216.438,392.564,204.815,392.564z M204.815,256.059c16.141,0,34.125,28.038,34.125,68.255
	c0.168,12.337-0.531,24.674-2.097,36.911c-18.683-15.095-45.373-15.095-64.056,0c-1.562-12.237-2.265-24.574-2.098-36.911
	C170.689,284.097,188.674,256.059,204.815,256.059z"/>
<path fill="#FFFFFF" stroke="#FFFFFF" stroke-width="3" stroke-miterlimit="10" d="M273.07,238.996
	c19.449,0,34.125-23.835,34.125-55.453s-14.676-55.457-34.125-55.457c-19.453,0-34.13,23.838-34.13,55.457
	S253.617,238.996,273.07,238.996z M273.07,145.153c6.951,0,17.062,14.954,17.062,38.39s-10.11,38.39-17.062,38.39
	c-6.956,0-17.067-14.954-17.067-38.39S266.114,145.153,273.07,145.153z"/>
</svg>
