<?xml version="1.0" encoding="utf-8"?>
<!-- Generator: Adobe Illustrator 16.0.0, SVG Export Plug-In . SVG Version: 6.00 Build 0)  -->
<!DOCTYPE svg PUBLIC "-//W3C//DTD SVG 1.1//EN" "http://www.w3.org/Graphics/SVG/1.1/DTD/svg11.dtd">
<svg version="1.1" id="Capa_1" xmlns="http://www.w3.org/2000/svg" xmlns:xlink="http://www.w3.org/1999/xlink" x="0px" y="0px"
	 width="480px" height="480px" viewBox="80 0 480 480" enable-background="new 80 0 480 480" xml:space="preserve">
<g>
	<g>
		<path fill="#DFC962" d="M320,0C187.471,0,80,107.471,80,240c0,132.529,107.471,240,240,240c132.529,0,240-107.471,240-240
			C560,107.471,452.529,0,320,0z M320,459.396c-121.392,0-219.397-98.562-219.397-219.396c0-121.392,98.562-219.397,219.397-219.397
			c121.393,0,219.396,98.562,219.396,219.397C539.396,361.393,441.393,459.396,320,459.396z"/>
	</g>
</g>
<g>
	<g>
		<path fill="#DFC962" d="M278.237,182.088c-5.012-25.058-27.842-43.434-53.457-43.434c-26.172,0-49.002,18.376-53.458,44.547
			c-0.557,5.569,2.785,11.137,8.353,12.251c0.557,0,1.114,0,1.67,0c5.012,0,8.91-3.341,10.023-8.353
			c3.341-16.148,17.262-27.842,33.411-27.842c16.148,0,30.069,11.693,33.411,27.285c1.113,5.568,6.682,8.91,12.25,7.796
			S279.351,187.657,278.237,182.088z"/>
	</g>
</g>
<g>
	<g>
		<path fill="#DFC962" d="M465.894,182.088c-5.012-25.058-27.843-43.434-53.457-43.434c-26.172,0-49.003,18.376-53.458,44.547
			c-0.557,5.569,2.785,11.137,8.354,12.251c0.557,0,1.113,0,1.67,0c5.012,0,8.91-3.341,10.023-8.353
			c3.342-16.148,17.263-27.842,33.411-27.842s30.069,11.693,33.41,27.285c1.114,5.568,6.683,8.91,12.251,7.796
			S467.007,187.657,465.894,182.088z"/>
	</g>
</g>
<g>
	<g>
		<path fill="#DFC962" d="M463.666,261.16c-6.125-1.67-12.808,2.228-14.479,8.353c-12.25,45.661-66.82,79.072-129.744,79.072
			s-117.494-33.411-129.745-79.072c-1.67-6.125-7.796-10.022-14.478-8.353c-6.125,1.67-10.023,7.796-8.353,14.479
			c15.035,55.684,79.072,96.334,152.019,96.334c73.503,0,137.541-40.65,152.019-96.334
			C473.689,269.513,469.791,262.83,463.666,261.16z"/>
	</g>
</g>
</svg>
