<?xml version="1.0" encoding="utf-8"?>
<!-- Generator: Adobe Illustrator 16.0.0, SVG Export Plug-In . SVG Version: 6.00 Build 0)  -->
<!DOCTYPE svg PUBLIC "-//W3C//DTD SVG 1.1//EN" "http://www.w3.org/Graphics/SVG/1.1/DTD/svg11.dtd">
<svg version="1.1" id="Calque_1" xmlns="http://www.w3.org/2000/svg" xmlns:xlink="http://www.w3.org/1999/xlink" x="0px" y="0px"
	 width="512px" height="512px" viewBox="0 0 512 512" enable-background="new 0 0 512 512" xml:space="preserve">
<path fill="#F5BE6A" stroke="#F5BE6A" stroke-width="5" stroke-miterlimit="10" d="M400.375,363.98l-57.734-174.208
	c-1.039-2.965-0.363-6.258,1.754-8.574c2.117-2.32,5.336-3.285,8.383-2.52l75.005,18.773c7.483,1.848,15.28-1.559,19.02-8.305
	c3.734-6.75,2.48-15.168-3.062-20.531L277.051,7.738c-5.625-5.195-13.293-7.574-20.871-6.477
	c-7.656,1.082-14.414,5.559-18.398,12.188l-70.836,123.73c-8.52,14.914-14.746,31.023-18.465,47.789L108.536,364.62
	C65.621,373.785,0,393.934,0,431.582c0,52.648,131.898,81.066,256,81.066c124.102,0,256-28.418,256-81.066
	C512,393.336,444.254,373.086,400.375,363.98z M247.465,427.18c-12.219-0.194-23.617-0.785-34.133-1.729v0.022V365.74
	c10.957,0.973,22.402,1.543,34.133,1.707l17.07,0.051c11.75-0.188,23.176-0.793,34.133-1.75v59.734
	c-10.516,0.909-21.914,1.5-34.133,1.694L247.465,427.18L247.465,427.18z M247.465,393.18h-8.531c-4.715,0-8.535,3.82-8.535,8.535
	c0,4.711,3.82,8.531,8.535,8.531h8.531h17.07h8.531c4.715,0,8.535-3.82,8.535-8.531c0-4.715-3.82-8.535-8.535-8.535h-8.531H247.465z
	 M119.578,393.641l10.367-46.668c21.172,8.812,43.512,14.504,66.32,16.898V423.6C146.492,416.836,120.422,402.566,119.578,393.641z
	 M315.734,363.902c21.113-2.324,41.848-7.353,61.688-14.941l14.922,45.074c-1.457,8.949-27.457,22.93-76.609,29.574V363.902
	L315.734,363.902z M165.129,188.664c3.34-15.094,8.953-29.59,16.641-43L252.477,22.16c1.32-2.18,3.559-3.648,6.082-3.992
	c2.461-0.387,4.969,0.348,6.828,2.004l166.521,160.727l-75-18.773c-9.096-2.27-18.703,0.609-25.049,7.512
	c-6.344,6.898-8.404,16.715-5.383,25.59l45.578,137.488c-20.824,7.969-42.646,13.021-64.854,14.992h-0.097
	c-16.971,1.887-34.028,2.824-51.104,2.809c-51.141,0-97.945-8.021-122.25-20.676L165.129,188.664z M256,495.582
	c-140.801,0-238.934-33.734-238.934-64c0-13.492,23.203-33.793,87.383-48.582l-1.852,8.328c-0.02,0.312-0.02,0.633,0,0.949
	c-0.086,0.297-0.152,0.598-0.199,0.897c0,0.354,0.129,0.668,0.148,1.021c0.016,0.352,0.059,0.582,0.125,0.854
	c2.219,24.832,47.199,40.566,101.906,46.547c0.078,0,0.145,0.043,0.223,0.043h0.066c16.984,1.828,34.051,2.742,51.133,2.742
	s34.147-0.918,51.133-2.75h0.066c0.077,0,0.145-0.043,0.223-0.043c55.195-6.031,100.539-21.979,102-47.195
	c0.055-0.28,0.098-0.562,0.117-0.854c0-0.137,0.062-0.266,0.062-0.402c-0.055-0.453-0.145-0.896-0.271-1.34
	c-0.012-0.449-0.066-0.896-0.164-1.336l-2.562-7.684c64.841,14.84,88.328,35.203,88.328,48.805
	C494.934,461.848,396.801,495.582,256,495.582z"/>
</svg>
