<?xml version="1.0" encoding="utf-8"?>
<!-- Generator: Adobe Illustrator 16.0.0, SVG Export Plug-In . SVG Version: 6.00 Build 0)  -->
<!DOCTYPE svg PUBLIC "-//W3C//DTD SVG 1.1//EN" "http://www.w3.org/Graphics/SVG/1.1/DTD/svg11.dtd">
<svg version="1.1" id="Calque_1" xmlns="http://www.w3.org/2000/svg" xmlns:xlink="http://www.w3.org/1999/xlink" x="0px" y="0px"
	 width="512.003px" height="486.648px" viewBox="0 0 512.003 486.648" enable-background="new 0 0 512.003 486.648"
	 xml:space="preserve">
<path fill="#131E29" d="M433.964,486.648H308.059c-8.315,0-15.06-6.742-15.06-15.056V344.258h-74v127.336
	c0,8.312-6.742,15.056-15.059,15.056H78.027c-8.316,0-15.055-6.742-15.055-15.056V261.871H26.281
	c-10.926,0-20.535-6.582-24.484-16.773c-3.945-10.188-1.273-21.527,6.801-28.887L238.316,6.891c10.078-9.188,25.285-9.188,35.367,0
	l52.234,47.598v-8.375c0-8.312,6.742-15.055,15.059-15.055h104.117c8.312,0,15.055,6.742,15.055,15.055v130.684l43.254,39.41
	c8.078,7.363,10.746,18.703,6.801,28.892c-3.949,10.19-13.559,16.772-24.484,16.772h-36.699v209.723
	C449.023,479.906,442.281,486.648,433.964,486.648z M323.113,459.538h98.796V246.816c0-8.316,3.739-12.058,12.056-12.058h44.792
	l-40.801-40.181c-3.133-2.855-4.918-6.895-4.918-11.129V58.17h-80.006v30.408c0,5.961-0.517,8.361-5.97,10.771
	c-5.453,2.406-11.816,1.371-16.227-2.645L256,28.515L33.245,234.759h44.782c8.316,0,12.058,3.741,12.058,12.057v212.723h101.804
	v-130.34c0-8.316,3.736-12.057,12.053-12.057h104.117c8.315,0,12.052,3.739,12.052,12.057v130.339H323.113z M483.117,238.469h0.012
	H483.117z"/>
</svg>
