<?xml version="1.0" encoding="utf-8"?>
<!-- Generator: Adobe Illustrator 16.0.0, SVG Export Plug-In . SVG Version: 6.00 Build 0)  -->
<!DOCTYPE svg PUBLIC "-//W3C//DTD SVG 1.1//EN" "http://www.w3.org/Graphics/SVG/1.1/DTD/svg11.dtd">
<svg version="1.1" id="Calque_1" xmlns="http://www.w3.org/2000/svg" xmlns:xlink="http://www.w3.org/1999/xlink" x="0px" y="0px"
	 width="455.836px" height="498.004px" viewBox="0 0 455.836 498.004" enable-background="new 0 0 455.836 498.004"
	 xml:space="preserve">
<path fill="#F5736A" stroke="#F5736A" stroke-width="3" stroke-miterlimit="10" d="M455.885,109.863
	c-0.547-2.053-1.885-3.802-3.725-4.864L272.139,1.069c-3.826-2.205-8.713-0.897-10.924,2.928L1.391,454.03
	c-2.206,3.82-0.898,8.713,2.928,10.922l55.392,31.979c3.826,2.206,8.713,0.896,10.922-2.928l95.936-166.169l117.706,67.954
	c3.821,2.209,8.713,0.896,10.919-2.924l159.893-276.942C456.147,114.087,456.432,111.909,455.885,109.863z M60.753,479.084
	L19.18,455.1l91.938-159.244l41.574,23.983L60.753,479.084z M285.344,377.976l-166.165-95.935L271.077,18.956l56.816,32.779
	c-8.463,12.175-13.796,26.251-15.527,40.98c-0.939,15.743,1.17,31.518,6.206,46.465c4.729,17.098,7.104,27.181,0.796,35.976
	c-2.019,2.62-4.445,4.896-7.193,6.738c-6.633,4.673-12.168,10.731-16.229,17.757c-7.464,10.708-10.988,23.668-9.979,36.679
	c2.365,11.93,9.24,22.488,19.188,29.482c6.59,5.73,10.312,9.209,10.274,14.078c0,3.049-1.25,4.621-5.021,8.725
	c-4.729,4.626-8.339,10.273-10.557,16.509c-3.562,13.139-1.764,27.161,5.005,38.974L285.344,377.976z M315.238,326.194
	c-3.432-9.497-0.676-20.127,6.937-26.763c5.582-4.959,8.921-11.966,9.244-19.422c0.102-12.472-8.33-19.804-15.767-26.279
	c-6.948-4.547-11.897-11.582-13.839-19.658c-0.352-9.462,2.464-18.769,7.995-26.455c2.979-5.161,7.075-9.587,11.991-12.957
	c4.035-2.807,7.597-6.246,10.535-10.184c11.027-15.423,6.445-31.979,1.602-49.568c-4.475-13.042-6.409-26.818-5.699-40.59
	c1.569-12.46,6.241-24.328,13.59-34.512l95.354,55.053L315.238,326.194z"/>
<path fill="#F5736A" stroke="#F5736A" stroke-width="3" stroke-miterlimit="10" d="M302.988,76.581
	c5.427-9.4,3.865-21.274-3.81-28.949c-7.672-7.674-19.547-9.244-28.945-3.817c-9.398,5.422-13.986,16.485-11.186,26.97
	c2.804,10.485,12.302,17.781,23.152,17.789C290.782,88.601,298.717,84.021,302.988,76.581z M289.135,68.586
	c-1.812,3.131-5.496,4.661-8.994,3.724c-3.494-0.937-5.922-4.103-5.926-7.721c0-3.619,2.432-6.789,5.926-7.725
	c0.672-0.176,1.365-0.271,2.061-0.271c1.406-0.004,2.783,0.363,3.998,1.069c3.825,2.209,5.133,7.097,2.928,10.922L289.135,68.586
	L289.135,68.586z"/>
<path fill="#F5736A" stroke="#F5736A" stroke-width="3" stroke-miterlimit="10" d="M385.336,300.852
	c-1.504-2.518-4.226-4.062-7.156-4.062c-2.936,0-5.652,1.546-7.154,4.062l-20.404,40.812c-3.717,7.429-3.322,16.251,1.037,23.32
	c4.361,7.068,12.066,11.379,20.373,11.395h12.215c8.312,0,16.033-4.306,20.4-11.379c4.371-7.069,4.768-15.899,1.051-23.336
	L385.336,300.852z M391.083,356.6c-1.438,2.373-4.021,3.813-6.797,3.79h-12.254c-2.771-0.004-5.345-1.437-6.8-3.794
	c-1.453-2.354-1.586-5.297-0.349-7.775l13.253-26.518l13.258,26.518c1.269,2.476,1.135,5.435-0.353,7.779H391.083z"/>
<path fill="#F5736A" stroke="#F5736A" stroke-width="3" stroke-miterlimit="10" d="M345.362,412.776
	c-1.503-2.519-4.224-4.063-7.154-4.063c-2.937,0-5.652,1.546-7.156,4.063l-20.403,40.812c-3.716,7.429-3.321,16.251,1.038,23.32
	c4.361,7.068,12.066,11.379,20.373,11.395h12.215c8.311,0,16.031-4.306,20.4-11.379c4.371-7.068,4.766-15.898,1.05-23.336
	L345.362,412.776z M351.108,468.524c-1.438,2.372-4.021,3.812-6.796,3.79h-12.254c-2.771-0.005-5.345-1.438-6.8-3.795
	c-1.452-2.354-1.586-5.298-0.348-7.775l13.252-26.519l13.258,26.519c1.269,2.475,1.136,5.434-0.353,7.78H351.108z"/>
</svg>
