<?xml version="1.0" encoding="utf-8"?>
<!-- Generator: Adobe Illustrator 16.0.0, SVG Export Plug-In . SVG Version: 6.00 Build 0)  -->
<!DOCTYPE svg PUBLIC "-//W3C//DTD SVG 1.1//EN" "http://www.w3.org/Graphics/SVG/1.1/DTD/svg11.dtd">
<svg version="1.1" id="Line_stroke_cutting_expand" xmlns="http://www.w3.org/2000/svg" xmlns:xlink="http://www.w3.org/1999/xlink"
	 x="0px" y="0px" width="479.275px" height="295.658px" viewBox="15.943 109.008 479.275 295.658"
	 enable-background="new 15.943 109.008 479.275 295.658" xml:space="preserve">
<path fill="#F58A6A" d="M490.522,187.045l-14.566-50.549c-5.812-20.166-26.87-31.803-47.036-25.992
	c-4.645,1.338-8.992,3.551-12.808,6.519l-33.099,25.743l-108.982-29.97c-11.802-3.244-24.26-3.244-36.062,0l-109.604,30.141
	l-33.318-25.913c-16.566-12.885-40.44-9.9-53.325,6.666c-2.968,3.816-5.18,8.163-6.519,12.808l-14.566,50.549
	C3.011,247.769,36.486,311.574,96.467,331.581l12.159,4.083l4.768,6.98c0.795,1.165,1.884,2.099,3.157,2.707l110.127,52.634
	c18.534,8.907,40.112,8.907,58.645,0l110.128-52.634c1.272-0.608,2.361-1.542,3.156-2.707l5.018-7.347l11.069-3.716
	C474.675,311.574,508.149,247.769,490.522,187.045z M430.697,264.133H81.303c-1.095-3.131-1.89-6.359-2.375-9.64l130.506-32.626
	c30.577-7.616,62.556-7.616,93.133,0l130.506,32.626C432.587,257.773,431.791,261.002,430.697,264.133z M90.078,280.133h331.845
	l-1.861,2.726l-103.346,34.448c-39.425,13.051-82.006,13.051-121.432,0L91.938,282.858L90.078,280.133z M306.447,206.343
	c-33.125-8.251-67.769-8.251-100.894,0l-126.44,31.61c0.439-2.552,1.07-5.067,1.888-7.524l10.297-30.89l151.527-39.685
	c8.638-2.257,17.711-2.257,26.35,0l151.527,39.686l10.297,30.89c0.818,2.457,1.449,4.972,1.888,7.524L306.447,206.343z M200,154.53
	v-14.7l16-4.4v14.91L200,154.53z M184,158.721l-16,4.19V148.63l16-4.4V158.721z M152,167.102l-16,4.19V157.43l16-4.4V167.102z
	 M120,175.482l-22.663,5.936l4.901-14.704L120,161.83V175.482z M360,167.101V153.03l16,4.4v13.862L360,167.101z M344,162.911
	l-16-4.19V144.23l16,4.4V162.911z M312,154.53l-16-4.19v-14.91l16,4.4V154.53z M392,175.482V161.83l17.761,4.884l4.901,14.704
	L392,175.482z M242.212,128.222c9.024-2.48,18.551-2.48,27.575,0l0,0L280,131.03v15.119l-6.771-1.774
	c-11.297-2.951-23.161-2.951-34.457,0L232,146.149v-15.12L242.212,128.222z M36.012,191.476l14.566-50.549
	c3.365-11.675,15.557-18.413,27.232-15.048c2.689,0.775,5.206,2.056,7.415,3.774l23.887,18.578l-15.232,4.189
	c-2.573,0.708-4.624,2.652-5.468,5.184L65.822,225.37c-2.4,7.224-3.566,14.8-3.447,22.411c-0.021,0.271-0.027,0.542-0.021,0.812
	c0.311,12.566,4.105,24.8,10.962,35.336l0.072,0.109c0.062,0.096,0.125,0.191,0.188,0.287c0.053,0.082,0.107,0.163,0.161,0.244
	c0.042,0.062,0.084,0.127,0.127,0.189c0.104,0.154,0.208,0.309,0.312,0.463l6.068,8.885l0.006,0.01l13.069,19.137
	C46.273,292.889,21.717,240.709,36.012,191.476L36.012,191.476z M278.424,383.55c-14.174,6.811-30.674,6.811-44.847,0
	l-108.185-51.706l-18.541-27.148l83.374,27.791c42.71,14.139,88.84,14.139,131.551,0l83.373-27.791l-11.709,17.145l-0.168,0.057
	l0.043,0.127l-6.707,9.82L278.424,383.55z M419.04,312.725l12.708-18.607l0.007-0.01l6.067-8.885
	c0.105-0.154,0.209-0.309,0.312-0.463c0.043-0.063,0.085-0.127,0.127-0.189c0.054-0.082,0.107-0.163,0.161-0.244
	c0.063-0.096,0.126-0.191,0.188-0.287l0.072-0.109c6.856-10.537,10.651-22.77,10.962-35.336c0.006-0.271-0.001-0.542-0.021-0.812
	c0.119-7.611-1.046-15.188-3.446-22.411l-22.588-67.766c-0.845-2.532-2.896-4.476-5.469-5.184l-15.853-4.359l23.667-18.408
	c9.591-7.459,23.413-5.732,30.872,3.859c1.719,2.209,2.999,4.726,3.774,7.415l14.565,50.549
	C489.304,240.229,465.365,291.959,419.04,312.725z"/>
</svg>
