<?xml version="1.0" encoding="utf-8"?>
<!-- Generator: Adobe Illustrator 16.0.0, SVG Export Plug-In . SVG Version: 6.00 Build 0)  -->
<!DOCTYPE svg PUBLIC "-//W3C//DTD SVG 1.1//EN" "http://www.w3.org/Graphics/SVG/1.1/DTD/svg11.dtd">
<svg version="1.1" id="Capa_1" xmlns="http://www.w3.org/2000/svg" xmlns:xlink="http://www.w3.org/1999/xlink" x="0px" y="0px"
	 width="410.529px" height="485px" viewBox="114.737 -2.501 410.529 485" enable-background="new 114.737 -2.501 410.529 485"
	 xml:space="preserve">
<g>
	<path fill="#BED678" stroke="#BED678" stroke-width="5" stroke-miterlimit="10" d="M478.73,218.227
		c-25.834-42.094-60.015-78.846-94.544-101.854c2.146-3.449,3.395-7.517,3.395-11.872c0-9.159-5.499-17.053-13.366-20.568
		l16.206-63.562c1.788-6.333,0.633-12.195-3.181-16.1c-3.837-3.928-9.72-5.217-16.138-3.53c-0.127,0.033-0.254,0.069-0.377,0.109
		c-0.307,0.097-30.688,9.797-40.779,12.695c-6.494,1.861-17.896,1.873-24.397,0.02c-10.196-2.904-40.899-12.644-41.209-12.742
		c-0.124-0.04-0.25-0.076-0.374-0.108c-6.42-1.675-12.302-0.382-16.137,3.55c-3.835,3.933-4.98,9.847-3.145,16.226
		c0.021,0.08,0.047,0.158,0.072,0.237l20.566,63.412c-7.62,3.614-12.904,11.381-12.904,20.359c0,4.354,1.246,8.422,3.396,11.872
		c-34.53,23.008-68.709,59.76-94.543,101.854c-28.396,46.27-44.035,93.896-44.035,134.11c0,38.865,11.521,69.553,34.243,91.209
		c25.379,24.189,64.39,36.454,115.951,36.454h105.143c51.562,0,90.57-12.265,115.95-36.454
		c22.724-21.657,34.242-52.345,34.242-91.209C522.766,312.124,507.127,264.496,478.73,218.227z M335.062,112.021
		c-0.002,0-0.004,0-0.008,0H304.95c-0.006,0-0.012,0-0.018,0h-29.994c-4.146,0-7.521-3.374-7.521-7.52
		c0-4.141,3.366-7.512,7.506-7.52c0.007,0,0.011,0.001,0.015,0.001c0.006,0,0.016-0.002,0.021-0.002h37.507
		c0.009,0,0.017,0.002,0.023,0.002c0.013,0,0.024-0.002,0.04-0.002h14.938c0.014,0,0.025,0.002,0.038,0.002
		c0.009,0,0.017-0.002,0.024-0.002h37.527c4.146,0,7.521,3.374,7.521,7.52s-3.374,7.52-7.521,7.52L335.062,112.021L335.062,112.021z
		 M258.834,15.001c0.301,0.019,0.694,0.071,1.181,0.188c2.981,0.946,31.353,9.935,41.426,12.804
		c9.158,2.606,23.496,2.596,32.646-0.029c9.963-2.862,38.02-11.807,40.99-12.755c0.474-0.116,0.859-0.169,1.158-0.188
		c-0.029,0.332-0.104,0.772-0.264,1.32c-0.021,0.074-0.041,0.148-0.061,0.223l-16.68,65.418h-20.646l10.906-27.266
		c1.539-3.846-0.332-8.211-4.18-9.749c-3.847-1.538-8.211,0.332-9.75,4.179l-13.135,32.835h-4.863l-13.135-32.835
		c-1.539-3.848-5.902-5.717-9.748-4.179c-3.847,1.539-5.718,5.904-4.18,9.749l10.906,27.266h-21.021l-21.318-65.744
		C258.929,15.727,258.86,15.314,258.834,15.001z M478.173,432.688C455.678,454.128,420.148,465,372.571,465H267.429
		c-47.576,0-83.106-10.872-105.601-32.312c-19.636-18.717-29.593-45.751-29.593-80.352c0-37.479,14.851-82.322,41.819-126.264
		c25.827-42.082,60.179-78.466,94.386-100.011c2.059,0.622,4.24,0.96,6.498,0.96h16.026l-7.247,10.87
		c-2.298,3.446-1.365,8.104,2.08,10.401c1.279,0.852,2.725,1.261,4.153,1.261c2.423,0,4.802-1.173,6.248-3.34l12.793-19.191h22.013
		l12.793,19.191c1.445,2.168,3.824,3.34,6.248,3.34c1.432,0,2.875-0.409,4.153-1.261c3.444-2.297,4.378-6.955,2.079-10.401
		l-7.248-10.87h16.027c2.26,0,4.44-0.339,6.5-0.96c34.204,21.545,68.561,57.93,94.387,100.011
		c26.967,43.942,41.816,88.785,41.816,126.264C507.766,386.938,497.809,413.972,478.173,432.688z"/>
</g>
<text transform="matrix(1 0 0 1 264.0537 364.2031)" fill="#BED678" font-family="'Asap-Regular'" font-size="200.7181">€</text>
</svg>
