<?xml version="1.0" encoding="utf-8"?>
<!-- Generator: Adobe Illustrator 16.0.0, SVG Export Plug-In . SVG Version: 6.00 Build 0)  -->
<!DOCTYPE svg PUBLIC "-//W3C//DTD SVG 1.1//EN" "http://www.w3.org/Graphics/SVG/1.1/DTD/svg11.dtd">
<svg version="1.1" id="Capa_1" xmlns="http://www.w3.org/2000/svg" xmlns:xlink="http://www.w3.org/1999/xlink" x="0px" y="0px"
	 width="410.528px" height="485px" viewBox="-2.5 -2.5 410.528 485" enable-background="new -2.5 -2.5 410.528 485"
	 xml:space="preserve">
<g>
	<path fill="#FFFFFF" stroke="#FFFFFF" stroke-width="5" stroke-miterlimit="10" d="M361.493,218.229
		c-25.834-42.094-60.014-78.846-94.543-101.854c2.146-3.449,3.395-7.517,3.395-11.872c0-9.159-5.5-17.053-13.367-20.568
		l16.207-63.562c1.787-6.333,0.633-12.195-3.182-16.1c-3.836-3.928-9.719-5.217-16.137-3.53c-0.127,0.033-0.254,0.069-0.377,0.109
		c-0.307,0.097-30.688,9.797-40.779,12.695c-6.494,1.861-17.896,1.873-24.398,0.02c-10.196-2.904-40.899-12.644-41.209-12.742
		c-0.124-0.04-0.25-0.076-0.374-0.108c-6.42-1.675-12.302-0.382-16.137,3.55c-3.835,3.933-4.98,9.847-3.145,16.226
		c0.022,0.08,0.047,0.158,0.073,0.237l20.566,63.412c-7.62,3.614-12.904,11.381-12.904,20.359c0,4.354,1.246,8.422,3.396,11.872
		c-34.53,23.008-68.709,59.76-94.543,101.854C15.639,264.496,0,312.123,0,352.336c0,38.865,11.521,69.553,34.243,91.209
		C59.622,467.734,98.633,480,150.194,480h105.143c51.561,0,90.57-12.266,115.949-36.455c22.723-21.656,34.242-52.344,34.242-91.209
		C405.528,312.125,389.89,264.498,361.493,218.229z M217.825,112.022c-0.002,0-0.004,0-0.008,0h-30.104c-0.006,0-0.012,0-0.018,0
		h-29.994c-4.146,0-7.52-3.374-7.52-7.52c0-4.141,3.366-7.512,7.506-7.52c0.006,0,0.01,0.001,0.014,0.001
		c0.006,0,0.016-0.002,0.022-0.002h37.507c0.008,0,0.016,0.002,0.023,0.002c0.013,0,0.025-0.002,0.04-0.002h14.938
		c0.015,0,0.025,0.002,0.037,0.002c0.01,0,0.019-0.002,0.025-0.002h37.527c4.146,0,7.521,3.374,7.521,7.52s-3.375,7.52-7.521,7.52
		L217.825,112.022L217.825,112.022z M141.597,15.002c0.301,0.019,0.694,0.071,1.181,0.188c2.981,0.946,31.352,9.935,41.426,12.804
		c9.158,2.606,23.497,2.596,32.645-0.029c9.963-2.862,38.021-11.807,40.99-12.755c0.475-0.116,0.861-0.169,1.16-0.188
		c-0.031,0.332-0.105,0.772-0.264,1.32c-0.021,0.074-0.041,0.148-0.062,0.223l-16.68,65.418h-20.646l10.905-27.266
		c1.539-3.846-0.332-8.211-4.178-9.749c-3.849-1.538-8.211,0.332-9.75,4.179L205.19,81.982h-4.863l-13.135-32.835
		c-1.539-3.848-5.902-5.717-9.748-4.179c-3.847,1.539-5.718,5.904-4.18,9.749l10.906,27.266h-21.021l-21.318-65.744
		C141.692,15.729,141.624,15.315,141.597,15.002z M360.937,432.689c-22.496,21.438-58.024,32.312-105.602,32.312H150.192
		c-47.576,0-83.106-10.873-105.601-32.312c-19.636-18.718-29.593-45.752-29.593-80.353c0-37.479,14.851-82.321,41.819-126.265
		c25.827-42.082,60.179-78.466,94.386-100.011c2.059,0.622,4.24,0.96,6.498,0.96h16.027l-7.247,10.87
		c-2.298,3.446-1.366,8.104,2.08,10.401c1.279,0.852,2.724,1.261,4.153,1.261c2.423,0,4.802-1.173,6.248-3.34l12.793-19.191h22.012
		l12.793,19.191c1.445,2.168,3.824,3.34,6.248,3.34c1.433,0,2.875-0.409,4.154-1.261c3.445-2.297,4.377-6.955,2.08-10.401
		l-7.248-10.87h16.027c2.26,0,4.438-0.339,6.5-0.96c34.203,21.545,68.559,57.93,94.385,100.011
		c26.967,43.941,41.818,88.784,41.818,126.265C390.528,386.939,380.571,413.973,360.937,432.689z"/>
</g>
<text transform="matrix(1 0 0 1 146.8164 364.2051)" fill="#FFFFFF" font-family="'Asap-Regular'" font-size="200.7181">€</text>
</svg>
