<?xml version="1.0" encoding="iso-8859-1"?>
<!-- Generator: Adobe Illustrator 16.0.0, SVG Export Plug-In . SVG Version: 6.00 Build 0)  -->
<!DOCTYPE svg PUBLIC "-//W3C//DTD SVG 1.1//EN" "http://www.w3.org/Graphics/SVG/1.1/DTD/svg11.dtd">
<svg version="1.1" id="Calque_1" xmlns="http://www.w3.org/2000/svg" xmlns:xlink="http://www.w3.org/1999/xlink" x="0px" y="0px"
	 width="29.5px" height="24.2px" viewBox="0 0 29.5 24.2" enable-background="new 0 0 29.5 24.2" xml:space="preserve">
<g id="XMLID_28120_">
	<path id="XMLID_28151_" fill="#6058AF" d="M0.4,22C0.2,22,0,22.2,0,22.4v1.4c0,0.2,0.2,0.4,0.4,0.4h28.8c0.2,0,0.4-0.2,0.4-0.4
		v-1.4c0-0.2-0.2-0.4-0.4-0.4H28v-0.8h1.2c0.2,0,0.4-0.2,0.4-0.4v-1.4c0-0.2-0.2-0.4-0.4-0.4H26v-14h3.2c0.2,0,0.4-0.2,0.4-0.4V3.3
		c0-0.2-0.2-0.4-0.4-0.4H28V2.1h1.2c0.2,0,0.4-0.2,0.4-0.4V0.4c0-0.2-0.2-0.4-0.4-0.4H0.4C0.2,0,0,0.2,0,0.4v1.4
		c0,0.2,0.2,0.4,0.4,0.4h1v0.8h-1C0.2,2.9,0,3.1,0,3.3v1.4c0,0.2,0.2,0.4,0.4,0.4h2.8v14H0.4c-0.2,0-0.4,0.2-0.4,0.4v1.4
		c0,0.2,0.2,0.4,0.4,0.4h1V22H0.4z M0.8,4.3V3.7h1c0.2,0,0.4-0.2,0.4-0.4V1.7c0-0.2-0.2-0.4-0.4-0.4h-1V0.8h28v0.6h-1.2
		c-0.2,0-0.4,0.2-0.4,0.4v1.6c0,0.2,0.2,0.4,0.4,0.4h1.2v0.6h-3.1c0,0,0,0-0.1,0h-2.3c0,0,0,0-0.1,0H6.2c0,0,0,0-0.1,0H3.6
		c0,0,0,0-0.1,0H0.8z M25.2,5.1v13.8h-1.5V5.1H25.2z M23,5.1v14H6.6v-14H23z M5.7,5.1v13.8H3.9V5.1H5.7z M1.8,20.4h-1v-0.6h5.4h17.1
		h5.4v0.6h-1.2c-0.2,0-0.4,0.2-0.4,0.4v1.6c0,0.2,0.2,0.4,0.4,0.4h1.2v0.6h-28v-0.6h1c0.2,0,0.4-0.2,0.4-0.4v-1.6
		C2.1,20.6,2,20.4,1.8,20.4z"/>
	<path id="XMLID_28148_" fill="#6058AF" d="M6.4,3.7c0.2,0,0.4-0.2,0.4-0.4V1.7c0-0.2-0.2-0.4-0.4-0.4H3.6c-0.2,0-0.4,0.2-0.4,0.4
		v1.6c0,0.2,0.2,0.4,0.4,0.4H6.4z M3.9,2.1h2v0.8h-2V2.1z"/>
	<path id="XMLID_28145_" fill="#6058AF" d="M8.3,3.7h2.8c0.2,0,0.4-0.2,0.4-0.4V1.7c0-0.2-0.2-0.4-0.4-0.4H8.3C8.1,1.4,8,1.5,8,1.7
		v1.6C8,3.5,8.1,3.7,8.3,3.7z M8.7,2.1h2v0.8h-2V2.1z"/>
	<path id="XMLID_28142_" fill="#6058AF" d="M13.3,3.7h2.8c0.2,0,0.4-0.2,0.4-0.4V1.7c0-0.2-0.2-0.4-0.4-0.4h-2.8
		c-0.2,0-0.4,0.2-0.4,0.4v1.6C12.9,3.5,13.1,3.7,13.3,3.7z M13.7,2.1h2v0.8h-2V2.1z"/>
	<path id="XMLID_28139_" fill="#6058AF" d="M18,3.7h2.8c0.2,0,0.4-0.2,0.4-0.4V1.7c0-0.2-0.2-0.4-0.4-0.4H18c-0.2,0-0.4,0.2-0.4,0.4
		v1.6C17.7,3.5,17.8,3.7,18,3.7z M18.4,2.1h2v0.8h-2V2.1z"/>
	<path id="XMLID_28136_" fill="#6058AF" d="M22.8,3.7h2.8c0.2,0,0.4-0.2,0.4-0.4V1.7c0-0.2-0.2-0.4-0.4-0.4h-2.8
		c-0.2,0-0.4,0.2-0.4,0.4v1.6C22.4,3.5,22.6,3.7,22.8,3.7z M23.2,2.1h2v0.8h-2V2.1z"/>
	<path id="XMLID_28133_" fill="#6058AF" d="M13.3,22.8h2.8c0.2,0,0.4-0.2,0.4-0.4v-1.6c0-0.2-0.2-0.4-0.4-0.4h-2.8
		c-0.2,0-0.4,0.2-0.4,0.4v1.6C12.9,22.6,13.1,22.8,13.3,22.8z M13.7,21.2h2V22h-2V21.2z"/>
	<path id="XMLID_28130_" fill="#6058AF" d="M22.8,22.8h2.8c0.2,0,0.4-0.2,0.4-0.4v-1.6c0-0.2-0.2-0.4-0.4-0.4h-2.8
		c-0.2,0-0.4,0.2-0.4,0.4v1.6C22.4,22.6,22.6,22.8,22.8,22.8z M23.2,21.2h2V22h-2V21.2z"/>
	<path id="XMLID_28127_" fill="#6058AF" d="M18,22.8h2.8c0.2,0,0.4-0.2,0.4-0.4v-1.6c0-0.2-0.2-0.4-0.4-0.4H18
		c-0.2,0-0.4,0.2-0.4,0.4v1.6C17.7,22.6,17.8,22.8,18,22.8z M18.4,21.2h2V22h-2V21.2z"/>
	<path id="XMLID_28124_" fill="#6058AF" d="M8.3,22.8h2.8c0.2,0,0.4-0.2,0.4-0.4v-1.6c0-0.2-0.2-0.4-0.4-0.4H8.3
		c-0.2,0-0.4,0.2-0.4,0.4v1.6C8,22.6,8.1,22.8,8.3,22.8z M8.7,21.2h2V22h-2V21.2z"/>
	<path id="XMLID_28121_" fill="#6058AF" d="M3.6,22.8h2.8c0.2,0,0.4-0.2,0.4-0.4v-1.6c0-0.2-0.2-0.4-0.4-0.4H3.6
		c-0.2,0-0.4,0.2-0.4,0.4v1.6C3.2,22.6,3.4,22.8,3.6,22.8z M3.9,21.2h2V22h-2V21.2z"/>
</g>
</svg>
