<?xml version="1.0" encoding="utf-8"?>
<!-- Generator: Adobe Illustrator 16.0.0, SVG Export Plug-In . SVG Version: 6.00 Build 0)  -->
<!DOCTYPE svg PUBLIC "-//W3C//DTD SVG 1.1//EN" "http://www.w3.org/Graphics/SVG/1.1/DTD/svg11.dtd">
<svg version="1.1" id="OBJECTS" xmlns="http://www.w3.org/2000/svg" xmlns:xlink="http://www.w3.org/1999/xlink" x="0px" y="0px"
	 width="190.805px" height="391.195px" viewBox="0 0 190.805 391.195" enable-background="new 0 0 190.805 391.195"
	 xml:space="preserve">
<rect x="0" y="91.402" fill="#1A1A1A" width="2.014" height="39.716"/>
<rect x="188.792" y="91.402" fill="#1A1A1A" width="2.013" height="39.716"/>
<path fill="#1A1A1A" d="M165.924,0H24.849C12.231,0,1.996,10.228,1.996,22.853v345.488c0,12.625,10.235,22.854,22.854,22.854
	h141.074c12.624,0,22.854-10.229,22.854-22.854V22.853C188.776,10.228,178.548,0,165.924,0z M181.996,366.197
	c0,9.996-8.104,18.102-18.103,18.102H26.879c-9.998,0-18.103-8.104-18.103-18.102V24.674c0-9.998,8.104-18.102,18.103-18.102
	h137.016c9.998,0,18.103,8.104,18.103,18.102L181.996,366.197L181.996,366.197z"/>
<path fill="#1A1A1A" d="M130.494,21.132H59.265c-6.766,0-12.25-5.484-12.25-12.25V5.571h95.729v3.311
	C142.744,15.648,137.26,21.132,130.494,21.132z"/>
<path fill="#292929" d="M104.803,14.792H84.956c-0.681,0-1.231-0.552-1.231-1.233v-0.413c0-0.681,0.552-1.233,1.231-1.233h19.848
	c0.682,0,1.232,0.552,1.232,1.233v0.413C106.036,14.239,105.484,14.792,104.803,14.792z"/>
</svg>
