<?xml version="1.0" encoding="utf-8"?>
<!-- Generator: Adobe Illustrator 16.0.0, SVG Export Plug-In . SVG Version: 6.00 Build 0)  -->
<!DOCTYPE svg PUBLIC "-//W3C//DTD SVG 1.1//EN" "http://www.w3.org/Graphics/SVG/1.1/DTD/svg11.dtd">
<svg version="1.1" id="Capa_1" xmlns="http://www.w3.org/2000/svg" xmlns:xlink="http://www.w3.org/1999/xlink" x="0px" y="0px"
	 width="537.544px" height="767.999px" viewBox="243.228 0.001 537.544 767.999"
	 enable-background="new 243.228 0.001 537.544 767.999" xml:space="preserve">
<g>
	<g>
		<path fill="#FFFFFF" d="M512,294.292c-113.012,0.134-204.591,91.714-204.725,204.725c0,113.066,91.66,204.727,204.725,204.727
			s204.725-91.659,204.725-204.727C716.725,385.951,625.065,294.292,512,294.292z M512,678.151
			c-98.934,0-179.134-80.201-179.134-179.136c0-98.933,80.201-179.134,179.134-179.134c98.891,0.105,179.028,80.246,179.135,179.134
			C691.135,597.95,610.934,678.151,512,678.151z"/>
	</g>
</g>
<g display="none">
	<g display="inline">
		<rect x="204.913" y="76.772" fill="#FFFFFF" width="76.772" height="25.59"/>
	</g>
</g>
<g display="none">
	<g display="inline">
		
			<rect x="236.891" y="-8.861" transform="matrix(0.3714 -0.9285 0.9285 0.3714 133.1944 247.9167)" fill="#FFFFFF" width="25.593" height="68.905"/>
	</g>
</g>
<g display="none">
	<g display="inline">
		
			<rect x="215.24" y="140.748" transform="matrix(0.9286 -0.3711 0.3711 0.9286 -39.1499 103.6235)" fill="#FFFFFF" width="68.903" height="25.591"/>
	</g>
</g>
<g display="none">
	<g display="inline">
		<rect x="742.315" y="76.772" fill="#FFFFFF" width="76.771" height="25.59"/>
	</g>
</g>
<g display="none">
	<g display="inline">
		
			<rect x="739.839" y="12.771" transform="matrix(0.9286 -0.3711 0.3711 0.9286 45.801 289.162)" fill="#FFFFFF" width="68.903" height="25.591"/>
	</g>
</g>
<g display="none">
	<g display="inline">
		
			<rect x="761.448" y="119.141" transform="matrix(0.3714 -0.9285 0.9285 0.3714 344.1021 815.4279)" fill="#FFFFFF" width="25.591" height="68.907"/>
	</g>
</g>
<g>
	<g>
		<path fill="#FFFFFF" d="M760.44,396.865c-27.281-66.212-79.865-118.796-146.078-146.077v-71.654
			c-0.041-4.731-2.709-9.044-6.922-11.196l55.364-70.464c0.219-0.281,0.319-0.602,0.513-0.896c0.258-0.311,0.495-0.635,0.717-0.973
			c0.115-0.217,0.153-0.46,0.256-0.691c0.219-0.499,0.407-1.012,0.562-1.536c0.193-0.585,0.345-1.183,0.448-1.791
			c0.078-0.529,0.126-1.063,0.142-1.6c0.045-0.609,0.045-1.22,0-1.83c-0.061-0.539-0.158-1.075-0.295-1.6
			c-0.143-0.606-0.33-1.201-0.562-1.778c-0.115-0.269-0.141-0.55-0.269-0.806c-0.128-0.256-0.32-0.448-0.462-0.704
			c-0.141-0.256-0.229-0.55-0.396-0.806L612.277,5.694c-0.306-0.394-0.629-0.769-0.974-1.126c-0.315-0.401-0.653-0.785-1.011-1.151
			c-0.529-0.475-1.099-0.902-1.702-1.28c-0.294-0.192-0.562-0.435-0.883-0.601c-0.604-0.304-1.233-0.557-1.881-0.755
			c-0.409-0.141-0.793-0.32-1.279-0.422c-0.541-0.107-1.088-0.176-1.638-0.205c-0.445-0.077-0.894-0.128-1.344-0.153H422.433
			c-0.446,0-0.855,0.128-1.278,0.167c-0.571,0.034-1.142,0.105-1.702,0.217c-0.396,0.103-0.769,0.269-1.164,0.396
			c-0.66,0.207-1.302,0.469-1.919,0.781c-0.309,0.167-0.563,0.384-0.857,0.576c-0.611,0.375-1.19,0.803-1.728,1.28
			c-0.354,0.355-0.686,0.736-0.985,1.139c-0.355,0.358-0.688,0.739-0.998,1.139L360.62,82.468c-0.167,0.256-0.243,0.55-0.397,0.806
			c-0.152,0.256-0.345,0.448-0.459,0.704c-0.115,0.256-0.154,0.538-0.27,0.806c-0.232,0.578-0.421,1.172-0.562,1.778
			c-0.137,0.525-0.235,1.061-0.295,1.6c-0.065,0.608-0.088,1.219-0.063,1.83c0.014,0.536,0.062,1.07,0.141,1.6
			c0.104,0.608,0.255,1.206,0.448,1.791c0.154,0.523,0.344,1.037,0.562,1.536c0.104,0.23,0.142,0.474,0.256,0.691
			c0.222,0.337,0.459,0.662,0.718,0.973c0.192,0.294,0.294,0.614,0.512,0.896l55.365,70.464c-4.219,2.146-6.893,6.463-6.936,11.196
			v71.654c-137.21,56.528-202.613,213.587-146.08,350.798c56.533,137.209,213.592,202.61,350.802,146.077
			C751.573,691.136,816.973,534.074,760.44,396.865z M542.223,209.536l30.619-107.174h53.574L542.223,209.536z M588.771,243.111
			H548.39l40.203-51.181L588.771,243.111z M512,222.114l-13.281-46.498l-20.934-73.253h68.43l-3.545,12.412L512,222.114z
			 M603.153,38.232l25.692,38.54h-44.963L603.153,38.232z M580.864,25.591l-19.271,38.526l-25.692-38.526H580.864z M539.279,76.772
			h-54.56L512,35.827L539.279,76.772z M488.099,25.591l-25.692,38.526l-19.271-38.526H488.099z M420.846,38.232l19.271,38.54
			h-44.963L420.846,38.232z M397.584,102.362h53.574l30.619,107.174L397.584,102.362z M475.61,243.111h-40.382V191.93
			L475.61,243.111z M512.09,742.218c-134.266,0.049-243.151-108.756-243.201-243.021c-0.039-104.408,66.593-197.182,165.544-230.495
			h155.132c99,33.14,165.685,125.916,165.546,230.314C755.16,633.283,646.355,742.168,512.09,742.218z"/>
	</g>
</g>
</svg>
