<?xml version="1.0" encoding="utf-8"?>
<!-- Generator: Adobe Illustrator 16.0.0, SVG Export Plug-In . SVG Version: 6.00 Build 0)  -->
<!DOCTYPE svg PUBLIC "-//W3C//DTD SVG 1.1//EN" "http://www.w3.org/Graphics/SVG/1.1/DTD/svg11.dtd">
<svg version="1.1" id="Calque_1" xmlns="http://www.w3.org/2000/svg" xmlns:xlink="http://www.w3.org/1999/xlink" x="0px" y="0px"
	 width="36px" height="44.2px" viewBox="-2.384 0 36 44.2" enable-background="new -2.384 0 36 44.2" xml:space="preserve">
<g id="XMLID_28750_">
	<path id="XMLID_28754_" fill="#AF587C" d="M2.616,22.4L2.616,22.4l8.5-0.1c1.1,0,2.1-0.6,2.7-1.6h0.1l0,0h2.799
		c0.102,0,0.2,0,0.2,0c0.602,1,1.602,1.6,2.7,1.6l0,0l8.4-0.1c1.198,0,2.198-0.6,2.8-1.7c0.6-1,0.5-2.2-0.102-3.2l-4.299-6.7
		c-0.399-0.7-1.1-1.2-1.899-1.4l-0.101-8.3c0-0.4-0.398-0.8-0.8-0.8l0,0c-0.5,0-0.8,0.4-0.8,0.8l0.1,8.3
		c-0.8,0.2-1.399,0.7-1.899,1.4l-4.101,6.8c-0.3,0.5-0.5,1.1-0.5,1.7h-2.3c0-0.6-0.2-1.2-0.5-1.7l-4.2-6.7
		c-0.5-0.7-1.1-1.2-1.899-1.4L7.416,1c0-0.5-0.399-0.8-0.8-0.8c-0.5,0-0.8,0.4-0.8,0.8l0.1,8.3c-0.8,0.2-1.5,0.7-1.899,1.4
		l-4.101,6.8c-0.6,1-0.6,2.2,0,3.2C0.416,21.8,1.416,22.4,2.616,22.4z M0.716,19c0-0.3,0.102-0.5,0.302-0.8l1.198-1.9l3-4.9
		c0.301-0.6,0.9-0.9,1.601-0.9l0,0c0.6,0,1.2,0.3,1.6,0.9l3.102,4.8l1.198,1.9c0.2,0.2,0.2,0.5,0.302,0.8c0.1,0.4,0,0.8-0.2,1.2
		c-0.3,0.6-0.9,1-1.602,1l-8.399,0.1l0,0c-0.7,0-1.3-0.4-1.602-0.9C0.817,19.8,0.716,19.4,0.716,19z M18.116,18l1.2-1.9l3-4.9
		c0.3-0.6,0.898-0.9,1.6-0.9l0,0c0.602,0,1.2,0.3,1.602,0.9l3.1,4.8l1.2,1.9c0.2,0.2,0.2,0.5,0.3,0.8c0.1,0.4,0,0.8-0.2,1.2
		c-0.3,0.6-0.898,1-1.6,1L19.916,21l0,0c-0.7,0-1.3-0.4-1.6-0.9c-0.2-0.4-0.3-0.8-0.2-1.1C17.916,18.5,17.916,18.2,18.116,18z"/>
	<path id="XMLID_28751_" fill="#AF587C" d="M15.716,44.2c0.2,0,0.4-0.1,0.602-0.199l12.5-11.701l0.1,4.602
		c0,0.398,0.3,0.602,0.7,0.602l0,0c0.4,0,0.6-0.301,0.6-0.701L30.116,31c0.2-0.201,0.2-0.602,0.1-0.9
		c-0.198-0.301-0.5-0.5-0.898-0.4C20.516,31.6,1.616,30.1,1.416,30c-0.399,0-0.7,0.199-0.8,0.5c-0.1,0.299-0.1,0.6,0.1,0.799
		L0.817,37.1c0,0.4,0.3,0.6,0.7,0.6l0,0c0.399,0,0.6-0.3,0.6-0.699l-0.1-4.701L15.216,44C15.416,44.2,15.616,44.2,15.716,44.2z
		 M26.916,31.799l-11.2,10.5l-12-10.399C8.517,32.299,19.516,32.799,26.916,31.799z"/>
</g>
</svg>
