<?xml version="1.0" encoding="utf-8"?>
<!-- Generator: Adobe Illustrator 16.0.0, SVG Export Plug-In . SVG Version: 6.00 Build 0)  -->
<!DOCTYPE svg PUBLIC "-//W3C//DTD SVG 1.1//EN" "http://www.w3.org/Graphics/SVG/1.1/DTD/svg11.dtd">
<svg version="1.1" id="Calque_1" xmlns="http://www.w3.org/2000/svg" xmlns:xlink="http://www.w3.org/1999/xlink" x="0px" y="0px"
	 width="34.5px" height="44.2px" viewBox="-1.299 0 34.5 44.2" enable-background="new -1.299 0 34.5 44.2" xml:space="preserve">
<g id="XMLID_28750_">
	<path id="XMLID_28754_" fill="#FFFFFF" d="M3.2,22.4L3.2,22.4l8.5-0.1c1.1,0,2.1-0.6,2.7-1.6h0.1l0,0h2.8c0.101,0,0.2,0,0.2,0
		c0.601,1,1.601,1.6,2.7,1.6l0,0l8.4-0.1c1.199,0,2.199-0.6,2.8-1.7c0.6-1,0.5-2.2-0.101-3.2L27,10.6C26.6,9.9,25.9,9.4,25.1,9.2
		L25,0.9c0-0.4-0.399-0.8-0.8-0.8l0,0c-0.5,0-0.8,0.4-0.8,0.8l0.1,8.3C22.7,9.4,22.1,9.9,21.6,10.6L17.5,17.4
		c-0.3,0.5-0.5,1.1-0.5,1.7h-2.3c0-0.6-0.2-1.2-0.5-1.7L10,10.7C9.5,10,8.9,9.5,8.1,9.3L8,1C8,0.5,7.6,0.2,7.2,0.2
		C6.7,0.2,6.4,0.6,6.4,1l0.1,8.3C5.7,9.5,5,10,4.6,10.7L0.5,17.5c-0.6,1-0.6,2.2,0,3.2C1,21.8,2,22.4,3.2,22.4z M1.3,19
		c0-0.3,0.101-0.5,0.301-0.8L2.8,16.3l3-4.9C6.1,10.8,6.7,10.5,7.4,10.5l0,0c0.6,0,1.2,0.3,1.6,0.9l3.101,4.8l1.199,1.9
		c0.2,0.2,0.2,0.5,0.301,0.8c0.1,0.4,0,0.8-0.2,1.2c-0.3,0.6-0.9,1-1.601,1L3.4,21.2l0,0c-0.7,0-1.3-0.4-1.601-0.9
		C1.4,19.8,1.3,19.4,1.3,19z M18.7,18l1.2-1.9l3-4.9c0.3-0.6,0.899-0.9,1.6-0.9l0,0c0.601,0,1.2,0.3,1.601,0.9l3.1,4.8l1.2,1.9
		c0.2,0.2,0.2,0.5,0.3,0.8c0.1,0.4,0,0.8-0.2,1.2c-0.3,0.6-0.899,1-1.6,1L20.5,21l0,0c-0.7,0-1.3-0.4-1.6-0.9
		c-0.2-0.4-0.3-0.8-0.2-1.1C18.5,18.5,18.5,18.2,18.7,18z"/>
	<path id="XMLID_28751_" fill="#FFFFFF" d="M16.3,44.2c0.2,0,0.4-0.1,0.601-0.199l12.5-11.701l0.1,4.601
		c0,0.399,0.3,0.601,0.7,0.601l0,0c0.4,0,0.6-0.301,0.6-0.701L30.7,31c0.2-0.201,0.2-0.601,0.1-0.9c-0.199-0.301-0.5-0.5-0.899-0.4
		C21.1,31.6,2.2,30.1,2,30C1.6,30,1.3,30.2,1.2,30.5c-0.1,0.299-0.1,0.6,0.1,0.799L1.4,37.1c0,0.4,0.3,0.6,0.7,0.6l0,0
		C2.5,37.7,2.7,37.4,2.7,37l-0.1-4.701L15.8,44C16,44.2,16.2,44.2,16.3,44.2z M27.5,31.799l-11.2,10.5L4.3,31.9
		C9.1,32.299,20.1,32.799,27.5,31.799z"/>
</g>
</svg>
