<?xml version="1.0" encoding="iso-8859-1"?>
<!-- Generator: Adobe Illustrator 16.0.0, SVG Export Plug-In . SVG Version: 6.00 Build 0)  -->
<!DOCTYPE svg PUBLIC "-//W3C//DTD SVG 1.1//EN" "http://www.w3.org/Graphics/SVG/1.1/DTD/svg11.dtd">
<svg version="1.1" id="Calque_1" xmlns="http://www.w3.org/2000/svg" xmlns:xlink="http://www.w3.org/1999/xlink" x="0px" y="0px"
	 width="38.4px" height="31.8px" viewBox="0 0 38.4 31.8" enable-background="new 0 0 38.4 31.8" xml:space="preserve">
<g id="XMLID_28809_">
	<path id="XMLID_28819_" fill="#587CAF" d="M17.5,0c-0.5,0-0.8,0.4-0.8,0.8V31c0,0.5,0.4,0.8,0.8,0.8h3.4c0.5,0,0.8-0.4,0.8-0.8V0.8
		c0-0.5-0.4-0.8-0.8-0.8H17.5z M20.1,30.2h-1.7V1.6h1.7V30.2z"/>
	<path id="XMLID_28816_" fill="#587CAF" d="M35.3,18.4l2.9-2.5c0.2-0.2,0.3-0.4,0.3-0.6s-0.1-0.5-0.3-0.6l-2.9-2.5
		C35.1,12,34.9,12,34.7,12H23.3c-0.5,0-0.8,0.4-0.8,0.8v5.1c0,0.5,0.4,0.8,0.8,0.8h11.4C34.9,18.6,35.1,18.6,35.3,18.4z M24.1,13.6
		h10.3l1.9,1.7L34.4,17H24.1V13.6z"/>
	<path id="XMLID_28813_" fill="#587CAF" d="M23.3,3.7c-0.5,0-0.8,0.4-0.8,0.8v5.1c0,0.5,0.4,0.8,0.8,0.8h11.4c0.2,0,0.4-0.1,0.5-0.2
		l2.9-2.5c0.2-0.2,0.3-0.4,0.3-0.6c0-0.2-0.1-0.5-0.3-0.6l-2.9-2.5c-0.1-0.1-0.3-0.2-0.5-0.2H23.3z M24.1,8.8V5.3h10.3L36.4,7
		l-1.9,1.7H24.1z"/>
	<path id="XMLID_28810_" fill="#587CAF" d="M3.1,10.2c0.1,0.1,0.3,0.2,0.5,0.2h11.4c0.5,0,0.8-0.4,0.8-0.8V4.5
		c0-0.4-0.4-0.8-0.8-0.8H3.7c-0.2,0-0.4,0.1-0.5,0.2L0.3,6.4C0.1,6.6,0,6.8,0,7c0,0.2,0.1,0.5,0.3,0.6L3.1,10.2z M14.3,5.3v3.4H4
		L2,7L4,5.3H14.3z"/>
</g>
</svg>
