<?xml version="1.0" encoding="utf-8"?>
<!-- Generator: Adobe Illustrator 16.0.0, SVG Export Plug-In . SVG Version: 6.00 Build 0)  -->
<!DOCTYPE svg PUBLIC "-//W3C//DTD SVG 1.1//EN" "http://www.w3.org/Graphics/SVG/1.1/DTD/svg11.dtd">
<svg version="1.1" id="Capa_1" xmlns="http://www.w3.org/2000/svg" xmlns:xlink="http://www.w3.org/1999/xlink" x="0px" y="0px"
	 width="46.471px" height="46.471px" viewBox="0 0 46.471 46.471" enable-background="new 0 0 46.471 46.471" xml:space="preserve">
<g>
	<path fill="#FFFFFF" d="M3.445,6.322c0-3.423,2.777-6.201,6.201-6.201c3.423,0,6.2,2.777,6.2,6.201c0,3.426-2.777,6.203-6.2,6.203
		C6.222,12.524,3.445,9.748,3.445,6.322z M31.562,6.322c0-3.423,2.779-6.201,6.203-6.201c3.423,0,6.2,2.777,6.2,6.201
		c0,3.426-2.776,6.203-6.2,6.203C34.343,12.524,31.562,9.748,31.562,6.322z M46.223,31.719c-3.844,8.888-12.844,14.63-22.93,14.63
		c-10.301,0-19.354-5.771-23.063-14.703c-0.636-1.53,0.089-3.286,1.62-3.922C2.226,27.569,2.616,27.495,3,27.495
		c1.176,0,2.292,0.696,2.771,1.852c2.776,6.685,9.654,11.004,17.522,11.004c7.69,0,14.528-4.322,17.421-11.013
		c0.658-1.521,2.425-2.222,3.943-1.562C46.181,28.433,46.881,30.199,46.223,31.719z"/>
</g>
</svg>
