<?xml version="1.0" encoding="iso-8859-1"?>
<!-- Generator: Adobe Illustrator 16.0.0, SVG Export Plug-In . SVG Version: 6.00 Build 0)  -->
<!DOCTYPE svg PUBLIC "-//W3C//DTD SVG 1.1//EN" "http://www.w3.org/Graphics/SVG/1.1/DTD/svg11.dtd">
<svg version="1.1" id="Calque_1" xmlns="http://www.w3.org/2000/svg" xmlns:xlink="http://www.w3.org/1999/xlink" x="0px" y="0px"
	 width="36px" height="34px" viewBox="0 0 36 34" enable-background="new 0 0 36 34" xml:space="preserve">
<g id="XMLID_27490_">
	<path id="XMLID_27498_" fill="#FFFFFF" d="M10.2,26.2h4c0.6,0,1.2-0.4,1.4-1l0.9-3.4h2.8l1,3.4c0.2,0.6,0.7,1,1.3,1h4.2
		c0.4,0,0.9-0.2,1.1-0.6c0.3-0.4,0.3-0.8,0.2-1.2L21.8,7.2c-0.2-0.6-0.7-1-1.3-1h-5.1c-0.6,0-1.2,0.4-1.3,1L8.8,24.4
		c-0.1,0.4,0,0.9,0.2,1.2C9.3,26,9.7,26.2,10.2,26.2z M10.1,24.8l5.3-17.2c0,0,0.1-0.1,0.1-0.1h5.1c0,0,0.1,0,0.1,0.1l5.3,17.2
		c0,0,0,0.1,0,0.1c0,0-0.1,0-0.1,0h-4.2c0,0-0.1,0-0.1-0.1L20.4,21c-0.1-0.3-0.3-0.5-0.6-0.5H16c-0.3,0-0.6,0.2-0.6,0.5l-1.1,3.9
		c0,0-0.1,0.1-0.1,0.1h-4C10.1,24.9,10.1,24.9,10.1,24.8C10.1,24.9,10,24.8,10.1,24.8z"/>
	<path id="XMLID_27497_" fill="#FFFFFF" d="M17,17.4h1.8c0.2,0,0.4-0.1,0.5-0.3s0.2-0.4,0.1-0.6l-0.8-2.8c0-0.1-0.1-0.3-0.1-0.4
		c-0.1-0.3-0.4-0.5-0.6-0.5c-0.3,0-0.6,0.2-0.6,0.5c0,0.2-0.1,0.3-0.1,0.4l-0.8,2.7c-0.1,0.2,0,0.4,0.1,0.6
		C16.6,17.3,16.8,17.4,17,17.4z"/>
	<path id="XMLID_27494_" fill="#FFFFFF" d="M6.6,30c1.5,1.3,3.4,2.3,5.7,3c2.2,0.7,4.6,1,7,1c4.4,0,8.4-1.2,11.3-3.4
		c1.7-1.3,3-2.9,3.9-4.7c1-2,1.5-4.3,1.5-6.8c0-0.7,0-1.4-0.1-2.1c-0.3-2.7-0.9-5-2-7.1c-1.5-2.8-3.7-5-6.6-6.4
		c-0.9-0.4-1.9-0.8-2.9-1.1c2.4-0.1,5-0.1,7.7,0.2c0.3,0,0.6-0.1,0.9-0.3s0.4-0.5,0.4-0.8c0-0.3-0.1-0.6-0.3-0.9s-0.5-0.4-0.8-0.4
		C30.4,0.1,28.5,0,26.8,0c-4.2,0-8,0.6-11.3,1.7c-0.2,0.1-0.3,0.1-0.5,0.2l0,0c-2.4,0.3-4.8,1-7,1.9c-3.4,1.4-6,3.3-7.7,5.4
		C0.1,9.5,0,9.8,0,10.1c0,0.3,0.2,0.6,0.4,0.8c0.5,0.4,1.3,0.3,1.7-0.2c1.2-1.5,3.2-3,5.6-4.2C6.9,7.4,6.1,8.3,5.4,9.3
		c-1.9,3-3,6.5-3,10.1c0,2.7,0.6,5.4,1.7,7.6C4.7,28.1,5.5,29.1,6.6,30z M3.1,19.4c0-3.5,1-6.9,2.9-9.7c1-1.5,2.2-2.8,3.6-3.9
		l1.6-1.3L9.1,5.2C8.9,5.3,8.8,5.3,8.6,5.4c-3.1,1.3-5.6,3-7,4.9c-0.2,0.2-0.5,0.3-0.8,0.1c-0.1-0.1-0.2-0.2-0.2-0.4
		c0-0.1,0-0.3,0.1-0.4c1.6-2.1,4.2-3.9,7.4-5.2c2.1-0.9,4.5-1.5,6.9-1.8l0.2,0c0.2-0.1,0.3-0.1,0.5-0.2c3.2-1.1,6.9-1.7,11-1.7
		c1.8,0,3.6,0.1,5.5,0.3c0.1,0,0.3,0.1,0.4,0.2c0.1,0.1,0.1,0.3,0.1,0.4c0,0.1-0.1,0.3-0.2,0.4C32.5,2,32.3,2,32.2,2
		c-3.6-0.4-7-0.4-10,0l-2.3,0.3l2.3,0.4C24,2.9,25.6,3.4,27,4.1c2.8,1.3,4.9,3.4,6.3,6.1c1,2,1.7,4.3,1.9,6.8c0.1,0.7,0.1,1.4,0.1,2
		c0,2.4-0.5,4.7-1.4,6.6c-0.9,1.8-2.1,3.3-3.7,4.5c-2.8,2.1-6.7,3.3-11,3.3c-2.3,0-4.7-0.4-6.8-1c-2.2-0.7-4.1-1.7-5.5-2.8
		c-1-0.9-1.8-1.8-2.3-2.8C3.7,24.6,3.1,22,3.1,19.4z"/>
	<path id="XMLID_27491_" fill="#FFFFFF" d="M7.7,28.7c0.9,0.7,2,1.4,3.2,1.9c2.5,1.1,5.4,1.7,8.4,1.7c0,0,0,0,0,0c3,0,5.7-0.6,8-1.7
		c2.6-1.2,4.5-3.1,5.6-5.5c0.9-1.8,1.3-3.8,1.3-6.1c0-0.6,0-1.3-0.1-1.9c-0.2-2.4-0.8-4.6-1.8-6.4c-0.9-1.7-2.1-3.1-3.5-4.2
		c-2.6-2-6.2-3.1-10.3-3.1c0,0,0,0,0,0c-1,0-2,0.1-3.1,0.2l-0.1,0c-1.2,0.5-2.2,1-3.2,1.6h0c-3.2,2-5.5,4.7-6.8,8
		c-0.8,2-1.2,4-1.2,6.2c0,2.4,0.5,4.9,1.5,6.8C6.1,27.1,6.8,27.9,7.7,28.7z M4.8,19.4c0-2.1,0.4-4.1,1.1-6c1.3-3.2,3.5-5.8,6.6-7.7
		c0.9-0.6,2-1.1,3.1-1.5c1-0.1,2-0.2,3-0.2c3.9,0,7.3,1,9.9,2.9c1.4,1.1,2.5,2.4,3.4,4c0.9,1.8,1.5,3.8,1.7,6.2
		c0.1,0.6,0.1,1.3,0.1,1.9c0,2.2-0.4,4.1-1.2,5.8c-1.1,2.2-2.9,4-5.3,5.2c-2.2,1.1-4.9,1.6-7.8,1.6c0,0,0,0,0,0
		c-2.9,0-5.8-0.6-8.1-1.6c-1.2-0.5-2.2-1.1-3-1.8c-0.8-0.7-1.5-1.5-1.8-2.3C5.3,24.1,4.8,21.7,4.8,19.4z"/>
</g>
</svg>
