<?xml version="1.0" encoding="utf-8"?>
<!-- Generator: Adobe Illustrator 16.0.0, SVG Export Plug-In . SVG Version: 6.00 Build 0)  -->
<!DOCTYPE svg PUBLIC "-//W3C//DTD SVG 1.1//EN" "http://www.w3.org/Graphics/SVG/1.1/DTD/svg11.dtd">
<svg version="1.1" id="Calque_1" xmlns="http://www.w3.org/2000/svg" xmlns:xlink="http://www.w3.org/1999/xlink" x="0px" y="0px"
	 width="532px" height="532px" viewBox="-10 -10 532 532" enable-background="new -10 -10 532 532" xml:space="preserve">
<path fill="#FFFFFF" d="M197.652,193.859c-11.988,0-23.207-3.312-32.812-9.07c11.586-12.504,19.289-28.648,21.152-46.516h11.66
	c4.668,0,8.457-3.785,8.457-8.457s-3.789-8.461-8.457-8.461h-37.629v-20.539c0-4.676-3.789-8.461-8.461-8.461
	c-4.668,0-8.457,3.785-8.457,8.461v20.539h-37.629c-4.668,0-8.457,3.789-8.457,8.461s3.789,8.457,8.457,8.457h11.66
	c1.859,17.867,9.562,34.012,21.148,46.516c-9.602,5.75-20.82,9.07-32.809,9.07c-4.672,0-8.461,3.785-8.461,8.457
	s3.789,8.461,8.461,8.461c17.113,0,32.996-5.355,46.086-14.453c13.09,9.102,28.973,14.453,46.086,14.453
	c4.672,0,8.461-3.789,8.461-8.461S202.32,193.859,197.652,193.859z M168.945,138.273c-1.84,13.867-8.125,26.34-17.383,35.941
	c-9.254-9.602-15.539-22.074-17.379-35.941H168.945z"/>
<path fill="#FFFFFF" d="M456.84,198.87H313.13v-50.5l45.76-32.69c6.561-4.68,10.471-12.29,10.471-20.34
	c0-8.07-3.91-15.67-10.471-20.35l-47.27-33.76C305.15,11.73,278.53-10,247.96-10H55.17C19.23-10-10,19.23-10,55.16v192.81
	c0,35.93,29.23,65.16,65.17,65.16h143.7v50.5l-45.76,32.69c-6.56,4.68-10.47,12.29-10.47,20.34c0,8.07,3.91,15.67,10.47,20.35
	l47.27,33.76c6.47,29.5,33.09,51.23,63.66,51.23h192.8c35.93,0,65.16-29.23,65.16-65.17v-192.8
	C522,228.1,492.77,198.87,456.84,198.87z M55.17,293.13c-24.91,0-45.17-20.26-45.17-45.16V55.16C10,30.26,30.26,10,55.17,10h192.79
	c22.21,0,41.42,16.55,44.68,38.49l0.62,4.2l54.01,38.58c1.311,0.93,2.091,2.45,2.091,4.07c0,1.61-0.78,3.13-2.091,4.06l-54.14,38.67
	v60.8h-29.09c-35.94,0-65.17,29.23-65.17,65.16v29.1H55.17z M502,456.83c0,24.91-20.26,45.17-45.16,45.17h-192.8
	c-22.21,0-41.41-16.55-44.68-38.49l-0.62-4.2l-54.01-38.579c-1.31-0.931-2.09-2.45-2.09-4.07c0-1.61,0.78-3.12,2.09-4.061
	l54.14-38.67V264.03c0-24.9,20.26-45.16,45.17-45.16h192.8c24.9,0,45.16,20.26,45.16,45.16V456.83z"/>
<path fill="#FFFFFF" d="M315.684,410.969c0-0.324,0.164-0.965,0.324-1.609l31.012-101.062c1.445-4.82,7.387-7.074,13.332-7.074
	c6.109,0,12.055,2.254,13.5,7.074l31.008,101.062c0.16,0.645,0.324,1.125,0.324,1.609c0,4.977-7.551,8.672-13.176,8.672
	c-3.535,0-6.266-1.121-7.07-4.176l-6.105-21.371h-36.797l-6.105,21.371c-0.801,3.055-3.531,4.176-7.066,4.176
	C323.238,419.641,315.684,416.105,315.684,410.969z M374.336,377.703l-13.984-49.324l-13.977,49.324H374.336z"/>
</svg>
