<?xml version="1.0" encoding="utf-8"?>
<!-- Generator: Adobe Illustrator 16.0.0, SVG Export Plug-In . SVG Version: 6.00 Build 0)  -->
<!DOCTYPE svg PUBLIC "-//W3C//DTD SVG 1.1//EN" "http://www.w3.org/Graphics/SVG/1.1/DTD/svg11.dtd">
<svg version="1.1" id="Capa_1" xmlns="http://www.w3.org/2000/svg" xmlns:xlink="http://www.w3.org/1999/xlink" x="0px" y="0px"
	 width="512px" height="343.661px" viewBox="-0.001 84.168 512 343.661" enable-background="new -0.001 84.168 512 343.661"
	 xml:space="preserve">
<path fill="#FFFFFF" d="M231.948,188.379c-4.142,0-7.5,3.358-7.5,7.5s3.358,7.5,7.5,7.5h0.08c4.142,0,7.46-3.358,7.46-7.5
	S236.09,188.379,231.948,188.379L231.948,188.379z"/>
<path fill="#FFFFFF" d="M280.045,188.379c-4.143,0-7.5,3.358-7.5,7.5s3.357,7.5,7.5,7.5h0.08c4.143,0,7.461-3.358,7.461-7.5
	S284.188,188.379,280.045,188.379L280.045,188.379z"/>
<path fill="#FFFFFF" d="M509.57,174.319l-96.2-88.179v0.01c-1.01-0.93-2.271-1.6-3.72-1.86c-4.07-0.74-7.98,1.96-8.722,6.03
	l-17.01,93.27l-61.09,46.04c3.08-7.99,4.8-16.67,4.8-25.74V100.51c0-6.39-3.84-12.05-9.79-14.42c-5.938-2.36-12.62-0.88-17.01,3.77
	l-40.21,42.57c-1.53-0.1-3.07-0.16-4.62-0.16c-1.56,0-3.1,0.06-4.63,0.16l-40.21-42.57c-4.39-4.65-11.07-6.13-17.01-3.77
	c-5.94,2.37-9.78,8.03-9.78,14.42v103.39c0,9.061,1.71,17.74,4.8,25.73l-61.1-46.04l-17-93.27c-0.75-4.07-4.65-6.77-8.73-6.03
	c-1.44,0.26-2.71,0.93-3.72,1.86v-0.01L2.43,174.319c-1.92,1.761-2.78,4.391-2.3,6.94c0.49,2.56,2.28,4.681,4.72,5.601
	c0.15,0.06,15.18,5.859,28.94,18.84c17.84,16.83,25.36,37.49,22.37,61.398c-0.3,2.45,0.62,4.9,2.47,6.541s4.39,2.26,6.8,1.659
	c0.7-0.18,70.17-16.89,127.88,23.47c-0.62,5.16-0.93,10.37-0.93,15.632c0,0.608,0.01,1.22,0.02,1.818c0,0,1.9,25.78,5,34.03
	c8.53,29.89,27.25,56.21,54.13,76.11c1.33,0.979,2.9,1.47,4.47,1.47c1.561,0,3.13-0.49,4.46-1.47
	c37.59-27.83,59.149-68.642,59.149-111.96c0-5.262-0.311-10.471-0.93-15.621c57.539-40.239,127.181-23.649,127.891-23.479
	c2.39,0.601,4.938-0.021,6.79-1.659c1.85-1.641,2.77-4.091,2.47-6.551c-2.99-23.9,4.54-44.561,22.37-61.39
	c13.76-12.979,28.8-18.78,28.93-18.83c2.45-0.92,4.24-3.04,4.73-5.601C512.36,178.71,511.49,176.08,509.57,174.319z M43.67,194.399
	c-8.16-7.609-16.57-13.02-22.94-16.52l72.44-66.39L65.88,226.12C61.19,214.479,53.76,203.81,43.67,194.399z M109.47,256.83
	c-14.89-0.58-27.43,0.569-35.91,1.771l29.98-125.919l22.89,125.541C120.87,257.521,115.21,257.05,109.47,256.83z M311.73,100.16
	c0.129-0.14,0.25-0.26,0.568-0.13c0.33,0.13,0.33,0.29,0.33,0.48v59.6c-8.72-11.25-20.71-19.84-34.529-24.34L311.73,100.16z
	 M199.37,100.51c0-0.19,0-0.35,0.32-0.48c0.33-0.13,0.44-0.01,0.57,0.13l33.63,35.61c-13.82,4.5-25.8,13.09-34.52,24.34V100.51
	L199.37,100.51z M256,147.27c31.221,0,56.63,25.4,56.63,56.629c0,31.221-25.409,56.631-56.63,56.631
	c-31.23,0-56.63-25.41-56.63-56.631C199.37,172.67,224.77,147.27,256,147.27z M196.27,282.729c-16.16-10.25-34.42-17.609-54.1-21.84
	l-10.13-55.531l72.28,54.471C200.91,267.29,198.22,274.931,196.27,282.729z M255.99,410.87c-21.81-17.45-37.03-39.73-44.17-64.74
	c0,0-5.53-24.42-4.43-30.11c0-0.538-0.01-1.078-0.01-1.618c0-17.17,3.75-33.801,11.12-49.512c10.91,6.74,23.76,10.642,37.5,10.642
	s26.58-3.9,37.5-10.642c7.37,15.711,11.109,32.342,11.109,49.512C304.609,351.19,286.96,386.05,255.99,410.87z M315.721,282.729
	c-1.951-7.801-4.641-15.439-8.051-22.899l72.28-54.47l-5.341,29.26L370.2,260.81c-4.7,1-9.33,2.181-13.86,3.529
	C341.77,268.7,328.12,274.86,315.721,282.729z M402.53,256.83c-5.58,0.21-11.08,0.66-16.49,1.33l3.33-20.851l19.08-104.629
	l29.979,125.92C429.95,257.399,417.41,256.25,402.53,256.83z M468.32,194.399c-10.08,9.41-17.521,20.08-22.2,31.721l-27.29-114.63
	l72.43,66.39C484.9,181.38,476.48,186.79,468.32,194.399z"/>
</svg>
