<?xml version="1.0" encoding="utf-8"?>
<!-- Generator: Adobe Illustrator 16.0.0, SVG Export Plug-In . SVG Version: 6.00 Build 0)  -->
<!DOCTYPE svg PUBLIC "-//W3C//DTD SVG 1.1//EN" "http://www.w3.org/Graphics/SVG/1.1/DTD/svg11.dtd">
<svg version="1.1" id="Calque_1" xmlns="http://www.w3.org/2000/svg" xmlns:xlink="http://www.w3.org/1999/xlink" x="0px" y="0px"
	 width="511.917px" height="511.975px" viewBox="0.037 0.027 511.917 511.975" enable-background="new 0.037 0.027 511.917 511.975"
	 xml:space="preserve">
<g id="Page-1">
	<g id="_x30_02---Virus">
		<path id="Shape" fill="#FFFFFF" d="M230.4,247.467c23.562,0,42.666-19.103,42.666-42.667c0-23.564-19.103-42.667-42.666-42.667
			c-23.564,0-42.667,19.103-42.667,42.667C187.762,228.354,206.848,247.438,230.4,247.467z M230.4,179.2
			c14.139,0,25.6,11.461,25.6,25.6c0,14.14-11.461,25.601-25.6,25.601c-14.14,0-25.601-11.461-25.601-25.601
			C204.8,190.662,216.262,179.2,230.4,179.2z"/>
		<path id="Shape_1_" fill="#FFFFFF" d="M324.268,256c14.14,0,25.602-11.461,25.602-25.6c0-14.14-11.463-25.601-25.602-25.601
			c-14.138,0-25.602,11.462-25.602,25.601C298.666,244.54,310.129,256,324.268,256z M324.268,221.867
			c4.713,0,8.532,3.82,8.532,8.533s-3.819,8.533-8.532,8.533s-8.533-3.82-8.533-8.533S319.555,221.867,324.268,221.867z"/>
		<path id="Shape_2_" fill="#FFFFFF" d="M162.133,298.666c14.139,0,25.6-11.461,25.6-25.6c0-14.141-11.461-25.602-25.6-25.602
			c-14.139,0-25.6,11.461-25.6,25.602C136.533,287.205,147.995,298.666,162.133,298.666z M162.133,264.533
			c4.713,0,8.533,3.82,8.533,8.533s-3.82,8.533-8.533,8.533c-4.713,0-8.533-3.82-8.533-8.533S157.42,264.533,162.133,264.533z"/>
		<path id="Shape_3_" fill="#FFFFFF" d="M213.333,315.733c0,28.275,22.923,51.198,51.2,51.198s51.199-22.923,51.199-51.198
			c0-28.276-22.922-51.2-51.199-51.2C236.268,264.562,213.361,287.469,213.333,315.733z M298.666,315.733
			c0,18.852-15.281,34.134-34.133,34.134S230.4,334.585,230.4,315.733c0-18.854,15.281-34.134,34.133-34.134
			S298.666,296.882,298.666,315.733z"/>
		<path id="Shape_4_" fill="#FFFFFF" d="M34.133,290.133c6.336,0.014,12.547-1.76,17.92-5.119c2.526-1.824,5.554-2.822,8.67-2.859
			c10.94,0.572,27.179,1.783,44.817,4.27c1.23,6.242,2.861,12.396,4.881,18.434c-14.737,11.546-28.382,20.762-37.197,26.451
			c-2.262,1.25-4.854,1.771-7.424,1.493c-8.88-0.45-17.592,2.535-24.329,8.337c-10.825,9.278-14.701,24.331-9.703,37.686
			c3.496,9.421,10.965,16.822,20.417,20.232s19.927,2.482,28.633-2.535c5.578-3.15,10.138-7.831,13.141-13.49
			c1.268-2.788,3.351-5.126,5.974-6.707c8.354-4.269,29.354-13.483,41.165-18.492c4.175,4.658,8.636,9.053,13.354,13.158
			c-7.296,18.143-14.958,33.639-19.148,41.711c-1.29,2.199-3.252,3.926-5.598,4.924c-10.257,5.218-17.208,15.238-18.502,26.674
			c-1.294,11.438,3.244,22.756,12.077,30.133c6.15,5.067,13.867,7.85,21.836,7.868c9.218-0.024,18.034-3.771,24.45-10.391
			s9.89-15.545,9.632-24.759c-0.3-3.1,0.349-6.214,1.86-8.937c5.973-9.216,15.172-22.707,26.154-36.753
			c5.945,2.034,12.014,3.689,18.167,4.958c1.187,10.453,3.994,35.84,4.446,45.628c-0.02,2.519-0.828,4.965-2.312,6.997
			c-6.33,9.644-7.381,21.823-2.793,32.407c4.588,10.583,14.196,18.145,25.562,20.115c1.891,0.299,3.803,0.442,5.717,0.436
			c9.061,0.021,17.753-3.569,24.158-9.975c6.404-6.406,9.994-15.102,9.975-24.158c0.023-6.436-1.797-12.738-5.248-18.168
			c-1.74-2.442-2.688-5.363-2.703-8.362c0.57-10.948,1.758-27.171,4.268-44.815c6.234-1.289,12.383-2.973,18.406-5.035
			c12.082,15.42,21.641,29.771,26.527,37.419c1.253,2.218,1.766,4.774,1.46,7.305c-0.502,9.401,2.89,18.596,9.376,25.419
			c6.486,6.824,15.496,10.677,24.911,10.651c3.991,0.007,7.951-0.704,11.688-2.101c9.434-3.493,16.844-10.973,20.254-20.436
			c3.41-9.464,2.473-19.949-2.562-28.657c-3.137-5.51-7.77-10.02-13.361-13.005c-2.842-1.29-5.225-3.415-6.826-6.093
			c-4.984-9.771-12.066-24.456-18.773-41.037c4.727-4.134,9.189-8.562,13.363-13.252c20.48,8.884,35.626,15.778,41.719,18.961
			c2.225,1.298,3.969,3.279,4.978,5.648c5.171,10.175,15.065,17.104,26.396,18.487c11.328,1.384,22.604-2.963,30.069-11.594
			c6.645-7.717,9.495-17.998,7.773-28.035c-1.72-10.037-7.832-18.782-16.667-23.848c-5.604-3.252-12.025-4.822-18.5-4.522
			c-2.925,0.285-5.863-0.355-8.403-1.834c-13.073-8.457-25.438-17.229-36.625-26.173c1.987-6.013,3.594-12.146,4.804-18.363
			c19.371-2.748,36.557-3.848,45.609-4.267c2.548,0.015,5.021,0.853,7.05,2.39c12.193,7.988,28.116,7.351,39.634-1.589
			c11.516-8.938,16.084-24.206,11.37-38.001s-17.669-23.074-32.247-23.096c-6.337-0.016-12.549,1.76-17.92,5.119
			c-2.543,1.793-5.562,2.787-8.67,2.859c-10.94-0.572-27.181-1.775-44.811-4.269c-1.229-6.245-2.858-12.405-4.882-18.438
			c14.721-11.531,28.365-20.754,37.188-26.456c2.251-1.253,4.838-1.772,7.396-1.484c8.881,0.467,17.6-2.524,24.32-8.346
			c10.824-9.278,14.7-24.331,9.702-37.683c-3.509-9.414-10.979-16.808-20.43-20.217s-19.921-2.488-28.63,2.519
			c-5.57,3.156-10.128,7.836-13.133,13.491c-1.27,2.788-3.351,5.126-5.974,6.707c-8.354,4.267-29.354,13.483-41.165,18.492
			c-4.164-4.654-8.613-9.045-13.32-13.15c7.296-18.142,14.959-33.638,19.148-41.711c1.293-2.196,3.254-3.921,5.598-4.923
			c13.012-6.573,20.412-20.683,18.424-35.124c-1.989-14.44-12.93-26.024-27.232-28.835c-14.301-2.811-28.812,3.772-36.117,16.386
			c-3.189,5.467-4.771,11.723-4.565,18.048c0.302,3.098-0.349,6.213-1.858,8.934c-5.975,9.216-15.164,22.699-26.154,36.745
			c-5.947-2.03-12.014-3.686-18.168-4.958c-1.186-10.496-4.002-35.951-4.445-45.679c0.018-2.479,0.818-4.889,2.287-6.887
			c8.062-12.174,7.486-28.129-1.43-39.692c-8.92-11.562-24.205-16.171-38.029-11.466s-23.123,17.682-23.136,32.284
			c-0.021,6.422,1.794,12.716,5.231,18.142c1.752,2.457,2.702,5.396,2.721,8.414c-0.485,9.335-2.994,32.137-4.564,44.86
			c-6.126,1.272-12.166,2.931-18.082,4.966c-12.075-15.36-21.632-29.764-26.53-37.418c-1.243-2.214-1.748-4.767-1.442-7.288
			c0.811-14.553-7.708-28.016-21.208-33.513s-29-1.815-38.586,9.165c-9.586,10.979-11.142,26.835-3.874,39.469
			c3.144,5.508,7.783,10.014,13.38,12.996c2.843,1.285,5.225,3.408,6.827,6.084c4.983,9.771,12.075,24.465,18.773,41.045
			c-4.724,4.131-9.184,8.555-13.355,13.244c-9.643-4.182-33.007-14.404-41.728-18.961c-2.224-1.298-3.969-3.279-4.975-5.649
			c-6.581-13.029-20.71-20.44-35.17-18.447c-14.46,1.992-26.059,12.949-28.871,27.272c-2.812,14.323,3.784,28.852,16.417,36.163
			c5.609,3.242,12.028,4.812,18.5,4.523c2.919-0.275,5.851,0.366,8.389,1.834c12.639,8.104,24.86,16.842,36.616,26.18
			c-1.984,6.014-3.586,12.146-4.795,18.364c-19.337,2.739-36.54,3.84-45.603,4.267c-2.544-0.025-5.013-0.863-7.048-2.389
			c-12.194-7.996-28.121-7.361-39.642,1.577s-16.09,24.209-11.374,38.007C6.591,280.838,19.551,290.117,34.133,290.133
			L34.133,290.133z M166.741,428.886c-3.445,5.628-5.056,12.188-4.608,18.773c0.104,3.156-0.689,6.275-2.287,9.002
			c-3.669,6.285-10.92,9.552-18.059,8.136c-7.139-1.416-12.594-7.203-13.586-14.412c-0.993-7.21,2.696-14.256,9.186-17.549
			c5.583-2.599,10.171-6.941,13.073-12.373c4.753-9.156,11.349-22.673,17.92-38.398c7.06,4.905,14.519,9.215,22.297,12.877
			C180.685,407.979,172.374,420.258,166.741,428.886z M361.088,419.746c3.158,5.799,8.039,10.475,13.969,13.381
			c2.782,1.482,5.084,3.727,6.642,6.468c3.638,6.317,2.858,14.249-1.937,19.741c-4.795,5.491-12.548,7.331-19.299,4.579
			c-6.751-2.753-11.008-9.489-10.596-16.769c0.535-6.135-0.932-12.273-4.182-17.504c-4.582-7.168-13.271-20.238-24.305-34.651
			c7.771-3.686,15.214-8.02,22.254-12.954C349.969,397.244,356.43,410.599,361.088,419.746z M450.355,246.861
			c6.599,0.178,13.088-1.711,18.56-5.402c7.221-4.234,16.429-2.773,21.981,3.49c5.613,6.473,5.56,16.105-0.131,22.514
			c-5.688,6.407-15.244,7.604-22.339,2.797c-5.052-3.51-11.097-5.305-17.246-5.121c-8.488,0.385-24.141,1.375-42.138,3.721
			c0.352-4.266,0.547-8.531,0.547-12.857s-0.188-8.609-0.547-12.868C425.327,245.248,440.105,246.323,450.355,246.861
			L450.355,246.861z M345.259,83.115c3.445-5.628,5.056-12.189,4.608-18.773c-0.104-3.157,0.689-6.278,2.287-9.002
			c3.668-6.285,10.92-9.552,18.059-8.136s12.594,7.203,13.586,14.413c0.993,7.209-2.695,14.255-9.186,17.548
			c-5.577,2.604-10.161,6.946-13.064,12.374c-4.753,9.156-11.35,22.673-17.877,38.4c-7.061-4.907-14.52-9.214-22.298-12.876
			C331.314,104.021,339.627,91.742,345.259,83.115L345.259,83.115z M150.912,92.254c-3.156-5.796-8.034-10.469-13.96-13.372
			c-2.783-1.488-5.087-3.734-6.647-6.477c-3.639-6.323-2.855-14.26,1.949-19.75c4.804-5.49,12.567-7.32,19.317-4.552
			c6.75,2.767,10.995,9.52,10.563,16.802c-0.535,6.13,0.933,12.268,4.181,17.494c5.547,8.67,13.944,21.137,24.32,34.671
			c-7.775,3.673-15.228,7.992-22.281,12.911C162.04,114.765,155.58,101.402,150.912,92.254L150.912,92.254z M82.987,166.69
			c-5.505-3.443-11.965-5.04-18.441-4.557c-3.223,0.164-6.424-0.619-9.207-2.253c-6.27-3.674-9.525-10.917-8.111-18.045
			s7.188-12.58,14.386-13.582c7.198-1.002,14.241,2.663,17.55,9.134c2.598,5.607,6.946,10.218,12.391,13.141
			c8.806,4.591,30.566,14.157,42.752,19.448c6.809,2.914,14.719,1.104,19.584-4.48c19.571-22.118,45.8-37.275,74.735-43.188
			c7.31-1.409,12.862-7.394,13.722-14.788c1.478-12.954,4.028-36.147,4.531-45.943c0.189-6.563-1.695-13.019-5.385-18.449
			c-1.693-2.693-2.582-5.813-2.561-8.994c0.026-7.298,4.69-13.771,11.605-16.105c6.914-2.335,14.548-0.016,18.994,5.771
			c4.445,5.787,4.721,13.761,0.684,19.84c-3.494,4.991-5.29,10.976-5.119,17.066c0.451,9.873,3.039,33.579,4.541,46.831
			c0.866,7.382,6.413,13.353,13.713,14.763c28.926,5.905,55.146,21.057,74.709,43.17c4.883,5.585,12.809,7.388,19.627,4.463
			c11.944-5.205,33.278-14.609,42.104-19.08c5.721-3.143,10.334-7.973,13.209-13.833c1.507-2.822,3.786-5.157,6.571-6.732
			c7.596-4.421,17.307-2.351,22.438,4.784c5.133,7.134,4.008,17-2.6,22.796c-3.396,2.947-7.796,4.475-12.288,4.267
			c-6.154-0.542-12.319,0.915-17.578,4.156c-9.165,5.896-23.288,15.428-38.521,27.366c-5.676,4.521-7.891,12.125-5.528,18.987
			c9.387,28.131,9.387,58.549,0,86.682c-2.347,6.854-0.134,14.44,5.528,18.961c11.699,9.182,24.49,18.261,38.009,26.999
			c5.505,3.431,11.953,5.034,18.424,4.583c3.225-0.178,6.429,0.604,9.207,2.252c6.271,3.675,9.524,10.917,8.11,18.046
			s-7.188,12.579-14.387,13.582c-7.197,1.003-14.24-2.663-17.551-9.134c-2.596-5.605-6.943-10.216-12.39-13.133
			c-8.714-4.55-30.518-14.142-42.744-19.447c-6.819-2.938-14.755-1.124-19.626,4.479c-20.885,23.669-49.375,39.31-80.555,44.222
			c-3.73,0.609-6.625,3.585-7.136,7.331c-3.184,20.562-4.625,39.814-5.272,52.358c-0.202,6.55,1.674,12.996,5.359,18.415
			c1.711,2.698,2.61,5.832,2.594,9.028c0.021,5.016-2.162,9.787-5.974,13.047c-6.511,5.455-16.034,5.31-22.375-0.341
			c-6.34-5.651-7.573-15.098-2.901-22.188c3.494-5.019,5.289-11.021,5.121-17.136c-0.461-9.941-3.039-33.578-4.541-46.779
			c-0.875-7.373-6.416-13.335-13.705-14.746c-28.931-5.903-55.155-21.061-74.717-43.179c-3.266-3.713-7.966-5.847-12.911-5.862
			c-2.316,0.004-4.607,0.479-6.733,1.399c-11.946,5.206-33.28,14.609-42.104,19.081c-5.721,3.143-10.333,7.973-13.209,13.832
			c-1.504,2.824-3.784,5.16-6.571,6.733c-7.604,4.504-17.389,2.457-22.551-4.719c-5.162-7.174-3.993-17.102,2.694-22.88
			c3.386-2.948,7.778-4.477,12.263-4.267c6.151,0.522,12.309-0.938,17.57-4.165c9.156-5.889,23.271-15.419,38.528-27.375
			c5.672-4.521,7.886-12.119,5.529-18.979c-9.38-28.123-9.38-58.531,0-86.656c2.364-6.861,0.153-14.468-5.521-18.996
			C109.329,184.533,96.538,175.454,82.987,166.69L82.987,166.69z M17.28,253.039c1.034-5.65,4.826-10.411,10.103-12.682
			c5.277-2.271,11.34-1.752,16.154,1.384c5.046,3.521,11.096,5.317,17.246,5.12c10.24-0.461,25.25-1.502,42.129-3.713
			c-0.35,4.268-0.538,8.533-0.538,12.852s0.196,8.609,0.546,12.868c-16.281-2.116-31.061-3.191-41.31-3.729
			c-6.596-0.152-13.078,1.732-18.56,5.402c-7.202,4.232-16.391,2.789-21.948-3.447c-3.304-3.881-4.695-9.039-3.789-14.055H17.28
			L17.28,253.039z"/>
	</g>
</g>
</svg>
