<?xml version="1.0" encoding="utf-8"?>
<!-- Generator: Adobe Illustrator 16.0.0, SVG Export Plug-In . SVG Version: 6.00 Build 0)  -->
<!DOCTYPE svg PUBLIC "-//W3C//DTD SVG 1.1//EN" "http://www.w3.org/Graphics/SVG/1.1/DTD/svg11.dtd">
<svg version="1.1" id="Calque_1" xmlns="http://www.w3.org/2000/svg" xmlns:xlink="http://www.w3.org/1999/xlink" x="0px" y="0px"
	 width="127.024px" height="127.396px" viewBox="-92.462 -92.734 127.024 127.396"
	 enable-background="new -92.462 -92.734 127.024 127.396" xml:space="preserve">
<g id="XMLID_27390_">
	<path id="XMLID_27394_" fill="#FFFFFF" stroke="#FFFFFF" stroke-width="0.9245" stroke-miterlimit="10" d="M13.021-76.37
		C1.19-86.724-13.602-92.271-28.766-92.271c-5.547,0-10.711,0.74-15.9,1.849c-1.481,0.368-3.33,1.109-5.179,1.466l0,0
		c-5.547,2.231-10.722,4.821-15.529,8.147c-1.112,0.74-2.589,1.849-3.698,2.958C-83.495-65.645-92-47.895-92-29.037
		c0,23.297,12.56,44.376,32.899,55.47c1.123,0.372,2.232,1.108,3.34,1.849c8.505,4.07,17.381,5.919,26.626,5.919
		c6.287,0,12.203-0.74,18.107-2.589h0.383c0.368,0,0.368,0,0.74,0c1.109-0.383,1.849-0.741,2.958-1.109
		c9.985-3.697,18.858-9.985,25.886-18.121c0.74-0.74,1.466-1.849,2.217-2.589c0.383-0.369,0.383-0.74,0.383-1.109
		C29.661-2.411,34.1-15.354,34.1-29.037c0-16.641-6.287-32.173-17.75-43.993C15.241-74.153,14.133-75.262,13.021-76.37z
		 M-28.766-87.465c14.052,0,27.735,5.179,38.46,14.424c-0.74,0-1.849,0-2.232,0c-1.838-0.74-3.315-1.112-4.795-1.481
		c-6.656-1.849-12.561-3.698-19.956-1.48c-1.86,0.372-3.341,1.112-4.821,1.849l0,0c-1.849,0.74-3.326,1.48-5.175,1.849
		c-0.383,0-1.109,0-1.481,0c-1.849,0-3.698-0.726-5.916-2.217c-2.231-1.48-3.698-3.698-5.178-6.287
		c-1.109-1.849-2.217-3.698-3.698-4.807C-38.751-87.096-33.941-87.465-28.766-87.465z M-56.501,22.366L-56.501,22.366
		C-75.731,12.012-87.561-7.59-87.561-29.037c0-17.381,7.764-34.022,21.447-45.116c0.74-0.737,1.849-1.477,2.589-2.217
		c3.326,0,4.435,0.368,5.175,5.178c0.383,1.109,0,2.575,0,3.698c0,1.849-0.369,3.698,0.383,5.547
		c0.357,1.477,1.466,2.586,2.206,3.326c1.109,1.108,1.849,2.231,2.218,3.33c0.383,4.807-4.807,6.916-11.462,8.014
		c-0.741,0.011-1.109,0.383-1.849,0.383c-1.849,0.368-3.33,0.74-4.438,1.108c-2.958,1.849-5.175,2.698-5.915,5.287
		c-1.48,4.438,1.477,8.873,4.438,12.203c4.066,4.807,6.284,12.202,5.175,17.009c-0.368,1.124-0.74,2.59-1.109,3.698
		c-1.48,4.07-2.958,8.508,1.849,12.575c1.48,1.48,3.33,2.217,4.438,2.958c0.74,0.372,1.477,0.74,2.217,1.109
		c1.48,1.112,2.589,2.221,2.958,4.81C-56.129,16.819-56.129,19.777-56.501,22.366z M15.61,9.052
		C8.954,16.448,0.818,22.377-8.427,25.693c-0.368,0-0.74,0.371-0.74,0.371c-5.698-5.847-12.571-12.422-21.448-15.011
		c-3.698-1.109-4.807-2.217-6.655-4.807c-0.74-0.741-1.109-1.466-1.849-2.589c-2.589-2.958-5.179-4.066-8.136-5.547
		c-0.74-0.369-1.466-0.726-2.217-1.109c-4.807-2.217-7.656-8.289-6.919-13.463c1.48-8.136,10.628-10.726,17.273-10.726
		c0.368,0,0.74,0,1.109,0c1.849,0,3.329,0.383,4.807,0.74c4.07,0.74,7.768,1.481,12.574-2.958c3.33-2.958,3.698-6.287,4.438-9.628
		c0.368-1.849,0.74-3.698,1.466-5.547c0.741-1.466,1.849-3.698,3.33-4.424c1.108-0.74,2.217-0.74,3.326-0.74
		c0.729,0,1.849,0.368,2.961,0c1.849-0.74,3.315-2.232,4.066-3.698c1.48-1.849,2.958-3.698,6.287-4.081
		c4.066-0.368,12.203,2.232,14.42,6.287c1.112,1.849,0.729,3.698-0.736,5.547c-1.112,1.48-2.232,2.589-3.33,3.698l0,0
		c-2.217,1.849-4.438,3.698-4.807,8.136c-0.74,4.438,1.109,5.916,2.589,7.764c1.109,1.124,1.849,1.849,2.586,3.698
		c0.751,2.232,0.014,4.821-0.726,7.779c-0.74,2.589-1.849,5.164-1.108,7.764c0,0.74,0.368,1.48,0.368,2.589
		c0,1.849,1.849,7.396,3.33,11.834C16.35,8.315,15.982,8.683,15.61,9.052z M20.048,2.396c-1.108-3.326-1.849-6.287-1.849-7.024
		c0-1.124-0.368-1.849-0.368-2.972c-0.373-1.466,0.368-3.315,1.108-5.536c1.108-3.315,2.217-6.656,0.74-10.711
		c-1.123-2.589-2.232-4.081-3.698-5.178c-1.48-1.466-1.48-1.849-1.48-3.698c0.368-2.589,1.48-3.698,3.33-5.164l0,0
		c0.368-0.383,0.368-0.383,0.726-0.74c0.383-0.394,0.751-0.762,1.123-1.13c0.368-0.372,0.736-0.74,1.108-1.112
		c0.368-0.369,0.74-0.726,1.109-1.466c3.329-4.807,1.849-8.504,0.74-10.726c-1.109-1.849-2.958-3.698-4.807-4.807
		c-4.438-2.968-10.357-4.449-14.056-4.077c-5.547,0.368-8.122,3.698-9.971,5.916c-0.74,1.108-1.48,1.849-2.232,2.217
		c0,0-0.368,0-0.74,0c-1.466-0.369-3.698-0.726-6.656,1.48c-2.217,1.48-4.066,4.438-4.807,6.656
		c-1.108,2.232-1.48,4.438-1.849,6.656c-0.369,2.961-0.741,4.81-2.958,6.659c-2.958,2.575-4.438,2.575-8.504,1.849
		c-1.481-0.383-3.33-0.74-5.547-0.74c-8.876-0.383-18.97,2.958-21.187,14.792c-1.112,6.656,0.108,11.202,5.283,14.532
		c0.74,0.368,1.48,1.109,2.589,1.466c0.74,0.383,1.48,0.74,2.231,1.109c1.466,0.751,2.947,2.492,4.056,3.232
		c0.74,0.369,1.48,1.109,2.217,1.849c0.74,0.74,1.481,1.466,1.849,2.217c1.48,1.849,2.589,3.33,4.438,4.438
		c1.108,0.74,2.589,1.48,4.807,2.217c2.231,0.74,4.438,1.849,6.67,3.33c4.066,2.958,8.122,6.655,11.094,10.354
		c-4.821,1.108-9.628,1.849-14.423,1.849c-8.136,0-15.901-1.466-22.928-4.807c0-0.368,0-1.108,0.383-1.48l0,0
		c0-0.368,0-1.108,0-1.466v-0.383c0-0.368,0-0.726,0-1.108c0-0.369,0-0.369,0-0.74c0-0.369,0-0.727,0-1.109c0-0.368,0-0.368,0-0.74
		c0-0.368,0-0.726,0-1.108c0-0.369,0-0.369,0-0.74c0-0.369,0-0.726-0.383-1.109V14.97c0-0.382-0.368-1.108-0.368-1.48
		c-1.481-5.547-4.807-7.396-7.779-8.862c-1.108-0.751-2.585-1.123-3.698-2.231C-66.854,0.547-66.486-0.562-65.005-5
		c0.368-1.466,1.108-2.958,1.108-4.438c1.481-6.656-1.108-15.16-6.287-21.076c-2.586-2.961-4.066-5.919-3.326-7.768v-0.369
		c0.369-0.383,0.369-0.74,0.74-1.108c0.369-0.372,1.109-0.74,1.477-1.112c0.383,0,0.383-0.369,0.74-0.369l0,0
		c1.109-0.368,3.33-0.74,5.547-1.108c5.915-1.109,15.9-2.958,15.16-12.203c-0.369-2.961-1.849-4.81-3.326-6.287
		c-0.74-0.741-1.108-1.109-1.48-1.849c-0.369-1.109-0.369-2.221,0-3.698c0-1.48,0.383-2.958,0-4.807c0-0.372-0.369-1.112-0.369-1.48
		v-0.368c0-0.372,0-0.74-0.372-0.74v-0.372c0-0.369,0-0.369-0.369-0.726v-0.383c0-0.368-0.368-0.368-0.368-0.74v-0.368
		c1.108-1.109,0.737-1.481,0.737-1.481l0,0c0-0.368-0.369-0.368-0.369-0.726c0,0,0,0-0.368-0.383l-0.372-0.369c0,0,0,0-0.368-0.383
		l-0.372-0.357l0,0c2.589-1.48,5.547-2.958,8.519-4.066h0.369c2.206,0.737,3.318,2.958,5.167,5.547
		c1.477,2.585,3.326,5.547,6.284,7.764c2.961,2.217,5.919,2.958,8.876,2.958c3.33,0,5.916-1.108,8.505-2.589l-1.109-2.217
		l0.368,2.589c1.481-0.74,2.59-1.109,4.438-1.849c5.919-1.849,10.726-0.372,17.013,1.477c1.478,0.372,2.958,1.112,4.807,1.481
		c0.369,0,0.741,0,1.109,0.368h0.369c0.383,0,0.383,0,0.74,0h0.372c0.368,0,0.368,0,0.726,0h0.383c0.368,0,0.368,0,0.74,0h0.368
		c0.369,0,0.369,0,0.741,0h0.368c0.383,0,0.383,0,0.74,0h0.369c0.383,0,0.383,0,0.74,0h0.372l0,0
		c9.981,10.726,15.528,24.777,15.528,39.941C29.661-17.943,26.335-6.849,20.048,2.396z"/>
</g>
</svg>
