<?xml version="1.0" standalone="no"?>
<!DOCTYPE svg PUBLIC "-//W3C//DTD SVG 1.1//EN" "http://www.w3.org/Graphics/SVG/1.1/DTD/svg11.dtd" >
<svg xmlns="http://www.w3.org/2000/svg" xmlns:xlink="http://www.w3.org/1999/xlink" version="1.1">
<metadata></metadata>
<defs>
<font id="assistantextralight" horiz-adv-x="966" >
<font-face units-per-em="2048" ascent="1638" descent="-410" />
<missing-glyph horiz-adv-x="409" />
<glyph unicode="&#xfb01;" horiz-adv-x="970" d="M70 922v49l135 8v242q0 141 59.5 211.5t165.5 70.5q63 0 135 -33l-20 -53q-57 29 -119 29q-160 -1 -160 -234v-233h234v-57h-234v-922h-61v922h-135zM679 1303q0 31 18.5 50t47.5 19t47.5 -19.5t18.5 -49.5q0 -33 -18.5 -53.5t-47.5 -20.5t-47.5 20.5t-18.5 53.5zM713 0 v979h61v-979h-61z" />
<glyph unicode="&#xfb02;" horiz-adv-x="987" d="M70 922v49l135 8v242q0 141 59.5 211.5t165.5 70.5q63 0 135 -33l-20 -53q-57 29 -119 29q-160 -1 -160 -234v-233h234v-57h-234v-922h-61v922h-135zM713 106v1373h61v-1385q0 -31 11.5 -46t29.5 -15q16 0 37 4l12 -53q-33 -8 -53 -9q-98 0 -98 131z" />
<glyph horiz-adv-x="0" />
<glyph horiz-adv-x="682" />
<glyph unicode=" "  horiz-adv-x="409" />
<glyph unicode="&#x09;" horiz-adv-x="409" />
<glyph unicode="&#xa0;" horiz-adv-x="409" />
<glyph unicode="!" horiz-adv-x="507" d="M180 53q0 39 22.5 60.5t51.5 21.5q31 0 52.5 -21.5t21.5 -60.5q0 -35 -22.5 -56.5t-51.5 -21.5t-51.5 21.5t-22.5 56.5zM221 1245v127h66v-127l-8 -893h-50z" />
<glyph unicode="&#x22;" horiz-adv-x="688" d="M172 1298v123h78v-123l-12 -286h-54zM434 1298v123h78v-123l-12 -286h-54z" />
<glyph unicode="#" d="M74 446v58h180l45 364h-184v58h188l53 405h58l-54 -405h320l53 405h58l-54 -405h168v-58h-172l-45 -364h176v-58h-184l-53 -446h-58l54 446h-320l-53 -446h-57l53 446h-172zM311 504h320l45 364h-320z" />
<glyph unicode="$" d="M127 135l37 45q156 -147 336 -147q133 0 205.5 73.5t72.5 192.5q0 100 -41 168t-99 107.5t-161 91.5q-98 49 -157.5 89t-99.5 105.5t-40 163.5q0 127 81 213t206 96v203h61v-201q92 -6 154.5 -42t124.5 -101l-41 -41q-68 68 -124 97.5t-146 29.5q-109 0 -179.5 -71.5 t-70.5 -178.5q0 -84 36.5 -140.5t89 -91t146.5 -81.5q106 -51 171 -95.5t110 -121t45 -195.5q0 -141 -89 -229t-227 -99v-200h-61v202q-100 6 -187 51.5t-153 106.5z" />
<glyph unicode="%" horiz-adv-x="1634" d="M86 954q0 201 75 311.5t208 110.5t207.5 -110.5t74.5 -311.5q0 -205 -74.5 -315.5t-207.5 -110.5t-208 111t-75 315zM147 954q0 -174 59.5 -273t162.5 -99q102 0 161.5 99t59.5 273t-59.5 271.5t-161.5 97.5t-162 -97.5t-60 -271.5zM401 -25l758 1401h66l-758 -1401h-66z M983 401q0 201 75 311.5t208 110.5t207.5 -110.5t74.5 -311.5q0 -205 -74.5 -315.5t-207.5 -110.5t-208 111t-75 315zM1044 401q0 -174 59.5 -273t162.5 -99q102 0 161.5 99t59.5 273t-59.5 271.5t-161.5 97.5t-162 -97.5t-60 -271.5z" />
<glyph unicode="&#x26;" horiz-adv-x="1150" d="M78 340q0 117 72.5 208t207.5 193q-92 188 -92 340q0 129 75 212t191 83q100 0 156.5 -66.5t56.5 -170.5q0 -80 -43 -149.5t-103 -122t-169 -136.5q70 -133 172.5 -263t214.5 -232q145 180 223 464h62q-86 -305 -242 -501q143 -119 266 -166l-24 -58q-129 49 -281 177 q-80 -84 -168 -130.5t-194 -46.5q-102 0 -190.5 45.5t-139.5 128t-51 191.5zM143 344q0 -92 43 -162.5t117 -109.5t160 -39q163 -1 315 157q-117 109 -220 239t-175 265q-115 -90 -177.5 -171t-62.5 -179zM328 1085q0 -133 80 -307q92 70 147 119t92 108.5t37 129.5 q0 76 -38 130t-118 54q-92 0 -146 -67.5t-54 -166.5z" />
<glyph unicode="'" horiz-adv-x="425" d="M172 1298v123h78v-123l-12 -286h-54z" />
<glyph unicode="(" horiz-adv-x="552" d="M184 569q0 260 70 486.5t201 439.5l37 -25q-123 -193 -186.5 -424t-63.5 -477t63.5 -477t186.5 -424l-37 -24q-131 213 -201 439t-70 486z" />
<glyph unicode=")" horiz-adv-x="552" d="M61 -332q123 193 186.5 424.5t63.5 476.5q0 246 -63.5 477.5t-186.5 423.5l37 25q131 -213 201 -439.5t70 -486.5t-70 -486t-201 -439z" />
<glyph unicode="*" horiz-adv-x="790" d="M152 1257l16 50l188 -54l13 205h53l12 -201l189 50l16 -50l-180 -69l110 -176l-45 -33l-127 168l-131 -168l-45 33l111 176z" />
<glyph unicode="+" d="M70 647v58h381v417h65v-417h381v-58h-381v-418h-65v418h-381z" />
<glyph unicode="," horiz-adv-x="425" d="M98 -258q66 39 106 102.5t42 145.5q-8 -2 -25 -2q-33 0 -53.5 19.5t-20.5 53.5q0 35 21.5 54.5t52.5 19.5q41 0 65.5 -34.5t24.5 -92.5q0 -100 -52 -182t-136 -133z" />
<glyph unicode="-" horiz-adv-x="602" d="M82 479v62h442v-62h-442z" />
<glyph unicode="." horiz-adv-x="425" d="M139 53q0 39 22.5 60.5t51.5 21.5q31 0 52.5 -21.5t21.5 -60.5q0 -35 -22.5 -56.5t-51.5 -21.5t-51.5 21.5t-22.5 56.5z" />
<glyph unicode="/" horiz-adv-x="737" d="M16 -328l656 1782h61l-655 -1782h-62z" />
<glyph unicode="0" d="M102 659q0 326 98.5 501t282.5 175t282.5 -175t98.5 -501q0 -328 -98 -506t-283 -178q-184 0 -282.5 178.5t-98.5 505.5zM168 659q0 -299 84 -462.5t231 -163.5q148 0 232 163.5t84 462.5t-84 459t-232 160q-147 0 -231 -160t-84 -459z" />
<glyph unicode="1" horiz-adv-x="888" d="M113 0v57h311v1131h-234v45q147 23 242 78h53v-1254h291v-57h-663z" />
<glyph unicode="2" d="M82 1143q80 90 168 141t196 51q170 0 265.5 -97t95.5 -263q0 -127 -71.5 -259t-190.5 -269.5t-365 -397.5q147 8 221 8h471v-57h-786v41q246 254 381 409.5t204.5 283.5t69.5 241q0 135 -74.5 219t-224.5 84q-88 0 -168.5 -47t-146.5 -129z" />
<glyph unicode="3" d="M61 160l41 45q72 -78 159 -125t214 -47q139 0 229.5 85t90.5 222q0 147 -116 233t-355 86v62q219 0 320 83t101 216q0 117 -75.5 187.5t-202.5 70.5q-88 0 -168 -41t-139 -107l-41 46q160 160 348 159q150 0 247 -84t97 -227q0 -125 -69.5 -208t-184.5 -120v-8 q129 -27 216 -118t87 -226q0 -111 -51 -194.5t-139 -129t-199 -45.5q-141 0 -236.5 51.5t-173.5 133.5z" />
<glyph unicode="4" d="M33 401v33l626 877h41v-852h201v-58h-201v-401h-61v401h-606zM119 459h520v516q0 102 8 217h-8q-10 -16 -26.5 -40t-28.5 -42q-37 -51 -52 -74z" />
<glyph unicode="5" d="M53 152l41 45q72 -76 157 -120t212 -44q90 0 168 47t125 133t47 193q0 166 -91 261t-245 95q-72 0 -128 -22.5t-122 -67.5l-53 33l49 606h586v-58h-529l-45 -503q57 35 115.5 54t130.5 19q176 0 286.5 -104.5t110.5 -308.5q0 -133 -58 -231.5t-152.5 -151t-198.5 -52.5 q-140 0 -233 48.5t-173 128.5z" />
<glyph unicode="6" d="M111 590q0 389 133 567t342 178q154 0 262 -123l-41 -45q-43 55 -101.5 83t-123.5 28q-178 0 -291 -162t-115 -516q72 88 160 137t180 49q172 0 266.5 -104t94.5 -301q0 -115 -47.5 -207t-127 -145.5t-174.5 -53.5q-197 0 -307 162t-110 453zM178 522q12 -225 100.5 -357 t253.5 -132q78 0 141.5 47t100.5 126t37 175q0 158 -73.5 253t-225.5 95q-78 0 -166 -50t-168 -157z" />
<glyph unicode="7" d="M90 1253v58h791v-37q-156 -207 -243 -400.5t-126 -397.5t-49 -476h-70q15 401 107 686t295 567h-705z" />
<glyph unicode="8" d="M82 336q0 123 79 221t187 156v8q-82 53 -135 128t-53 171q0 90 44 161.5t119.5 112.5t168.5 41q162 0 255 -95t93 -245q0 -98 -58.5 -189t-130.5 -151v-8q109 -68 169.5 -140.5t60.5 -191.5q0 -94 -49.5 -171.5t-137.5 -123t-202 -45.5q-117 0 -210.5 47.5t-146.5 130.5 t-53 183zM147 336q0 -84 44.5 -152.5t123 -109.5t177.5 -41q96 0 169.5 38t113.5 102.5t40 141.5q0 98 -56.5 165t-135 107t-226.5 97q-250 -143 -250 -348zM225 1020q0 -92 50.5 -155.5t124 -103.5t190.5 -85q184 145 184 319q0 119 -75.5 201t-206.5 82q-117 0 -192 -74 t-75 -184z" />
<glyph unicode="9" d="M90 930q0 115 47 207t127 145t174 53q197 0 307.5 -161.5t110.5 -452.5q0 -389 -133 -567.5t-342 -178.5q-156 0 -262 123l41 45q43 -55 101 -82.5t124 -27.5q178 0 290.5 161.5t115.5 516.5q-72 -88 -160 -137.5t-180 -49.5q-172 0 -266.5 104.5t-94.5 301.5zM156 930 q0 -158 73.5 -253t225.5 -95q77 0 165.5 50t167.5 156q-12 225 -100 357.5t-254 132.5q-78 0 -141.5 -47t-100 -126t-36.5 -175z" />
<glyph unicode=":" horiz-adv-x="425" d="M139 53q0 39 22.5 60.5t51.5 21.5q31 0 52.5 -21.5t21.5 -60.5q0 -35 -22.5 -56.5t-51.5 -21.5t-51.5 21.5t-22.5 56.5zM139 852q0 39 22.5 60.5t51.5 21.5q31 0 52.5 -21.5t21.5 -60.5q0 -35 -22.5 -56.5t-51.5 -21.5t-51.5 21.5t-22.5 56.5z" />
<glyph unicode=";" horiz-adv-x="425" d="M98 -258q66 39 106 102.5t42 145.5q-8 -2 -25 -2q-33 0 -53.5 19.5t-20.5 53.5q0 35 21.5 54.5t52.5 19.5q41 0 65.5 -34.5t24.5 -92.5q0 -100 -52 -182t-136 -133zM139 852q0 39 22.5 60.5t51.5 21.5q31 0 52.5 -21.5t21.5 -60.5q0 -35 -22.5 -56.5t-51.5 -21.5 t-51.5 21.5t-22.5 56.5z" />
<glyph unicode="&#x3c;" d="M70 643v74l827 332v-66l-762 -299v-8l762 -299v-66z" />
<glyph unicode="=" d="M70 442v58h827v-58h-827zM70 852v58h827v-58h-827z" />
<glyph unicode="&#x3e;" d="M70 311v66l761 299v8l-761 299v66l827 -332v-74z" />
<glyph unicode="?" horiz-adv-x="806" d="M74 1241q141 156 319 156q143 0 225 -88t82 -219q0 -86 -36.5 -157t-114.5 -175q-80 -104 -120 -181t-40 -174q0 -14 4 -51h-57q-4 42 -4 62q0 104 41 184t121 184q72 94 106.5 159t34.5 144q0 106 -62.5 180t-183.5 74q-78 0 -150.5 -35.5t-123.5 -99.5zM299 53 q0 39 22.5 60.5t51.5 21.5q31 0 52 -21.5t21 -60.5q0 -35 -22.5 -56.5t-50.5 -21.5q-29 0 -51.5 21.5t-22.5 56.5z" />
<glyph unicode="@" horiz-adv-x="1642" d="M106 414q0 256 110 454.5t293 308t396 109.5q193 0 335 -79t219 -223t77 -337q0 -164 -55.5 -283.5t-139.5 -182t-170 -62.5q-84 0 -135 39t-57 116h-4q-63 -68 -123.5 -105.5t-126.5 -37.5q-98 0 -163.5 71.5t-65.5 203.5q0 100 46 206.5t131 177t199 70.5 q111 0 172 -98h5l16 82h53l-69 -377q-18 -76 -19 -135q0 -156 146 -156q68 0 137 56.5t115.5 163t46.5 247.5q0 178 -71 310t-201 204t-302 72q-190 0 -359 -101.5t-271.5 -287t-102.5 -422.5q0 -197 77 -344.5t217 -227t324 -79.5t349 102l28 -49q-172 -111 -381 -111 q-196 0 -349.5 85t-240 244t-86.5 376zM557 410q0 -115 47 -168.5t125 -53.5q109 1 234 144l65 364q-39 61 -74.5 84t-85.5 23q-92 0 -162.5 -59.5t-109.5 -150.5t-39 -183z" />
<glyph unicode="A" horiz-adv-x="1064" d="M20 0l484 1352h57l483 -1352h-69l-168 483h-551l-170 -483h-66zM276 541h510l-94 270q-109 309 -155 471h-9q-47 -162 -155 -471z" />
<glyph unicode="B" horiz-adv-x="1175" d="M205 0v1352h352q207 0 322.5 -83t115.5 -245q0 -109 -55 -186.5t-158 -108.5v-8q139 -23 219 -107t80 -221q0 -190 -133 -291.5t-366 -101.5h-377zM270 57h287q219 0 339 82t120 250q0 152 -119 227.5t-340 75.5h-287v-635zM270 750h246q414 0 414 270q0 147 -99.5 210.5 t-302.5 63.5h-258v-544z" />
<glyph unicode="C" horiz-adv-x="1150" d="M115 680q0 211 70.5 368.5t199.5 242.5t299 85q109 0 197 -45t147 -114l-41 -46q-57 68 -134 106t-169 38q-154 0 -266.5 -78t-173 -220.5t-60.5 -336.5q0 -193 59.5 -338t171 -225t261.5 -80q106 0 190 42t162 130l41 -41q-82 -94 -176 -143.5t-221 -49.5 q-164 0 -291 87.5t-196.5 247t-69.5 370.5z" />
<glyph unicode="D" horiz-adv-x="1228" d="M205 0v1352h303q303 0 454.5 -179.5t151.5 -492.5t-151.5 -496.5t-454.5 -183.5h-303zM270 57h230q276 0 410 170t134 453t-134 448.5t-410 165.5h-230v-1237z" />
<glyph unicode="E" horiz-adv-x="1044" d="M205 0v1352h725v-58h-660v-544h553v-58h-553v-635h680v-57h-745z" />
<glyph unicode="F" horiz-adv-x="962" d="M205 0v1352h721v-58h-656v-569h553v-57h-553v-668h-65z" />
<glyph unicode="G" horiz-adv-x="1228" d="M115 680q0 211 72.5 368.5t206.5 242.5t311 85q209 0 360 -159l-41 -46q-129 143 -319 144q-160 0 -278 -78t-180.5 -221.5t-62.5 -335.5q0 -195 60.5 -340t174 -224t269.5 -79q98 0 185.5 29.5t138.5 80.5v447h-336v57h401v-524q-63 -70 -164.5 -111t-228.5 -41 q-170 0 -299 87.5t-199.5 247t-70.5 370.5z" />
<glyph unicode="H" horiz-adv-x="1298" d="M205 0v1352h65v-602h758v602h66v-1352h-66v692h-758v-692h-65z" />
<glyph unicode="I" horiz-adv-x="475" d="M205 0v1352h65v-1352h-65z" />
<glyph unicode="J" horiz-adv-x="933" d="M90 168l53 33q51 -88 116 -126t155 -38q129 0 191.5 80t62.5 248v987h65v-996q0 -172 -77.5 -276.5t-245.5 -104.5q-107 0 -189 50.5t-131 142.5z" />
<glyph unicode="K" horiz-adv-x="1126" d="M205 0v1352h65v-779h4l689 779h81l-434 -496l492 -856h-78l-463 807l-291 -328v-479h-65z" />
<glyph unicode="L" horiz-adv-x="942" d="M205 0v1352h65v-1295h635v-57h-700z" />
<glyph unicode="M" horiz-adv-x="1429" d="M205 0v1352h106l291 -820l111 -307h8q37 102 53 154l53 153l291 820h107v-1352h-66v942q0 131 8 352h-8l-104 -299l-305 -843h-70l-307 843l-107 299h-8q8 -221 8 -352v-942h-61z" />
<glyph unicode="N" horiz-adv-x="1294" d="M205 0v1352h69l598 -992l156 -266h8q-8 262 -8 381v877h62v-1352h-70l-598 991l-156 266h-8q8 -254 8 -368v-889h-61z" />
<glyph unicode="O" horiz-adv-x="1327" d="M115 680q0 209 69.5 366.5t194.5 243.5t285 86t284.5 -86t194 -243.5t69.5 -366.5t-70.5 -369.5t-194.5 -248t-283 -87.5q-160 0 -284 87.5t-194.5 248t-70.5 369.5zM184 680q0 -193 59.5 -338t169 -225t251.5 -80q141 0 250.5 80t169 225t59.5 338t-59.5 336t-168 221 t-251.5 78t-252 -78t-168.5 -221.5t-59.5 -335.5z" />
<glyph unicode="P" horiz-adv-x="1110" d="M205 0v1352h323q240 0 362 -86t122 -283q0 -190 -123 -287.5t-352 -97.5h-267v-598h-65zM270 655h242q221 0 325.5 78t104.5 250t-104.5 241.5t-333.5 69.5h-234v-639z" />
<glyph unicode="Q" horiz-adv-x="1327" d="M115 680q0 209 69.5 366.5t194.5 243.5t285 86t284.5 -86t194 -243.5t69.5 -366.5q0 -203 -65.5 -358.5t-182 -245.5t-266.5 -99q45 -106 137.5 -164.5t221.5 -58.5q69 1 135 17l16 -62q-82 -20 -155 -20q-158 0 -269.5 78.5t-160.5 209.5q-150 10 -264.5 100.5t-179 246 t-64.5 356.5zM184 680q0 -193 60.5 -339t169 -227t250.5 -81q141 0 249.5 81t169 227t60.5 339t-59.5 336t-168 221t-251.5 78t-252 -78t-168.5 -221.5t-59.5 -335.5z" />
<glyph unicode="R" horiz-adv-x="1093" d="M205 0v1352h373q434 0 434 -348q0 -160 -96.5 -252.5t-268.5 -108.5l385 -643h-78l-381 639h-303v-639h-65zM270 696h283q190 0 289.5 77t99.5 231q0 156 -97 223t-292 67h-283v-598z" />
<glyph unicode="S" horiz-adv-x="1056" d="M98 180l45 45q76 -88 180.5 -138t225.5 -50q162 0 259 81t97 210q0 84 -31.5 139t-83 88t-135.5 72l-209 94q-121 55 -197.5 127t-76.5 205q0 94 49 167.5t136 114.5t196 41q115 0 209 -45t160 -114l-41 -46q-61 68 -144.5 106t-183.5 38q-141 0 -228 -70.5t-87 -187.5 q0 -78 35.5 -131.5t84 -83t117.5 -60.5l209 -94q90 -41 150.5 -83t98.5 -108.5t38 -164.5q0 -102 -52.5 -183t-148.5 -127.5t-221 -46.5q-275 0 -451 205z" />
<glyph unicode="T" horiz-adv-x="1064" d="M61 1294v58h943v-58h-439v-1294h-65v1294h-439z" />
<glyph unicode="U" horiz-adv-x="1290" d="M201 504v848h65v-832q0 -260 105.5 -371.5t271.5 -111.5q170 0 277.5 111.5t107.5 371.5v832h62v-848q0 -287 -128 -408t-319 -121q-190 0 -316 121t-126 408z" />
<glyph unicode="V" horiz-adv-x="987" d="M12 1352h70l262 -811l37 -117q57 -182 111 -340h8q53 158 110 340l37 117l262 811h66l-447 -1352h-65z" />
<glyph unicode="W" horiz-adv-x="1564" d="M61 1352h70l180 -820l99 -442h8q33 147 106 442l221 820h74l221 -820l111 -442h8q33 147 47 221l47 221l181 820h65l-311 -1352h-66l-262 971l-37 151l-37 152h-8q-20 -86 -39 -152q-8 -29 -18 -66.5t-21 -84.5l-258 -971h-65z" />
<glyph unicode="X" horiz-adv-x="962" d="M37 0l409 700l-380 652h69l238 -418l110 -180h9q72 129 102 180l237 418h66l-381 -656l410 -696h-70l-250 434q-70 117 -86 144l-41 69h-8l-119 -213l-250 -434h-65z" />
<glyph unicode="Y" horiz-adv-x="892" d="M8 1352h70l217 -439l37 -73q45 -94 110 -217h9l28 51q92 170 123 239l217 439h66l-406 -795v-557h-65v557z" />
<glyph unicode="Z" horiz-adv-x="1101" d="M106 0v37l803 1257h-733v58h815v-37l-803 -1258h811v-57h-893z" />
<glyph unicode="[" horiz-adv-x="552" d="M205 -311v1761h311v-45h-262v-1671h262v-45h-311z" />
<glyph unicode="\" horiz-adv-x="737" d="M4 1454h62l655 -1782h-62z" />
<glyph unicode="]" horiz-adv-x="552" d="M37 -266h262v1671h-262v45h311v-1761h-311v45z" />
<glyph unicode="^" d="M139 598l307 774h74l307 -774h-65l-168 438l-107 271h-8l-106 -271l-168 -438h-66z" />
<glyph unicode="_" horiz-adv-x="1024" d="M25 -168h974v-65h-974v65z" />
<glyph unicode="`" horiz-adv-x="1089" d="M332 1483l49 41l270 -316l-36 -32z" />
<glyph unicode="a" horiz-adv-x="995" d="M123 240q0 162 152.5 247.5t490.5 122.5v20q0 130 -49 220q-53 96 -193 96q-94 0 -177 -36t-142 -83l-33 50q66 49 159 88t197 39q160 0 229.5 -101.5t69.5 -267.5v-635h-53l-8 131h-4q-195 -156 -356 -156q-123 0 -203 65.5t-80 199.5zM188 242q0 -106 62.5 -157.5 t159.5 -51.5q86 0 170 41t186 127v356q-315 -37 -446.5 -111.5t-131.5 -203.5z" />
<glyph unicode="b" horiz-adv-x="1101" d="M197 0v1479h61v-439l-4 -196q190 160 348 160q195 0 294 -133.5t99 -366.5q0 -160 -58 -281t-157.5 -184.5t-218.5 -63.5q-69 0 -148 33t-151 90h-4l-8 -98h-53zM258 168q80 -70 162 -102.5t145 -32.5q105 0 188 60.5t130 168t47 242.5q0 201 -80 321.5t-252 120.5 q-150 0 -340 -172v-606z" />
<glyph unicode="c" horiz-adv-x="913" d="M111 487q0 158 59 276t159.5 179.5t219.5 61.5q92 0 159.5 -34t127.5 -89l-41 -45q-118 110 -244 110h-2q-104 0 -189.5 -58.5t-134.5 -162.5t-49 -238q0 -133 46 -236.5t131 -160.5t196 -57q147 0 274 119l37 -46q-145 -131 -311 -131q-125 0 -225.5 61.5t-156.5 177.5 t-56 273z" />
<glyph unicode="d" horiz-adv-x="1105" d="M111 487q0 154 59 272t159.5 181.5t219.5 63.5q84 0 151.5 -30t151.5 -93l-4 184v414h61v-1479h-53l-8 131h-4q-156 -156 -328 -156q-188 0 -296.5 133.5t-108.5 378.5zM176 487q0 -207 90 -330.5t254 -123.5q84 0 163 43t165 129v606q-82 72 -153.5 103.5t-149.5 31.5 q-102 0 -187.5 -61.5t-133.5 -167t-48 -230.5z" />
<glyph unicode="e" horiz-adv-x="978" d="M111 487q0 154 59 272t155.5 181.5t206.5 63.5q172 0 270.5 -118t98.5 -333q0 -41 -4 -66h-721q0 -137 50 -240.5t138.5 -158.5t196.5 -55q145 0 270 90l29 -53q-76 -45 -140.5 -70t-162.5 -25q-123 0 -225.5 62.5t-161.5 178.5t-59 271zM178 545h662q0 197 -82 299 t-226 102q-86 0 -162.5 -45t-129 -136t-62.5 -220z" />
<glyph unicode="f" horiz-adv-x="516" d="M70 922v49l135 8v242q0 141 59.5 211.5t165.5 70.5q63 0 135 -33l-20 -53q-57 29 -119 29q-160 -1 -160 -234v-233h234v-57h-234v-922h-61v922h-135z" />
<glyph unicode="g" horiz-adv-x="983" d="M111 -205q0 63 39.5 128t107.5 114v8q-39 23 -62.5 62.5t-23.5 93.5q0 59 33 105t74 75v8q-51 45 -87 117t-36 153q0 96 44 175t121.5 124.5t170.5 45.5q70 0 126 -25h328v-57h-237q53 -45 85.5 -114t32.5 -149q0 -96 -45 -176t-121.5 -126t-168.5 -46q-43 0 -89.5 12.5 t-78.5 32.5q-41 -33 -63.5 -68.5t-22.5 -82.5q0 -135 192 -135h217q162 0 239 -53.5t77 -168.5q0 -84 -56.5 -158.5t-160 -121.5t-234.5 -47q-186 0 -293.5 74.5t-107.5 199.5zM176 -201q0 -100 90 -160.5t250 -60.5q113 0 200 38t134 99.5t47 128.5q0 84 -59.5 122 t-178.5 38h-225q-47 0 -119 16q-70 -47 -104.5 -104t-34.5 -117zM221 659q0 -84 37 -150.5t99.5 -103t134.5 -36.5q71 0 133.5 36.5t99.5 103t37 150.5q0 127 -79 207t-191 80q-115 0 -193 -79t-78 -208z" />
<glyph unicode="h" horiz-adv-x="1069" d="M197 0v1479h61v-660q90 90 170 137.5t174 47.5q152 0 223.5 -91.5t71.5 -281.5v-631h-61v623q0 166 -56.5 244.5t-181.5 78.5q-88 0 -163 -46t-177 -150v-750h-61z" />
<glyph unicode="i" horiz-adv-x="454" d="M163 1303q0 31 18.5 50t47.5 19t47.5 -19.5t18.5 -49.5q0 -33 -18.5 -53.5t-47.5 -20.5t-47.5 20.5t-18.5 53.5zM197 0v979h61v-979h-61z" />
<glyph unicode="j" horiz-adv-x="454" d="M-61 -455l16 54q61 -20 106 -21q80 0 108 56.5t28 164.5v1180h61v-1188q0 -139 -49 -204.5t-152 -65.5q-29 0 -62.5 7t-55.5 17zM164 1303q0 31 18.5 50t46.5 19q29 0 47.5 -19.5t18.5 -49.5q0 -33 -18.5 -53.5t-47.5 -20.5t-47 20.5t-18 53.5z" />
<glyph unicode="k" horiz-adv-x="925" d="M197 0v1479h61v-1123h4l508 623h74l-316 -385l373 -594h-70l-339 545l-234 -275v-270h-61z" />
<glyph unicode="l" horiz-adv-x="471" d="M197 106v1373h61v-1385q0 -31 11.5 -46t29.5 -15q16 0 37 4l12 -53q-33 -8 -53 -9q-98 0 -98 131z" />
<glyph unicode="m" horiz-adv-x="1650" d="M197 0v979h53l8 -156h4q72 82 154 131.5t157 49.5q215 0 271 -205q184 205 336 205q145 0 217.5 -92.5t72.5 -280.5v-631h-61v623q0 164 -57.5 243.5t-175.5 79.5q-72 0 -148 -48t-164 -148v-750h-61v623q0 164 -57.5 243.5t-176.5 79.5q-139 0 -311 -196v-750h-61z" />
<glyph unicode="n" horiz-adv-x="1077" d="M197 0v979h53l8 -156h4q88 88 167 134.5t173 46.5q152 0 223.5 -91.5t71.5 -281.5v-631h-61v623q0 166 -56.5 244.5t-181.5 78.5q-88 0 -163 -46t-177 -150v-750h-61z" />
<glyph unicode="o" horiz-adv-x="1089" d="M111 487q0 158 58 276t157.5 179.5t218.5 61.5t218 -61.5t157.5 -179.5t58.5 -276q0 -156 -58.5 -272.5t-157.5 -178t-218 -61.5t-218.5 61.5t-157.5 178.5t-58 272zM176 487q0 -133 48 -236.5t132 -160.5t189 -57q104 0 188 57t132 160.5t48 236.5t-48 237.5t-132 163 t-188 58.5t-188.5 -58.5t-132.5 -162.5t-48 -238z" />
<glyph unicode="p" horiz-adv-x="1105" d="M197 -455v1434h53l8 -127h4q190 152 340 152q195 0 294 -133.5t99 -366.5q0 -160 -58 -281t-157.5 -184.5t-218.5 -63.5q-135 0 -303 123v-553h-61zM258 168q84 -70 164 -102.5t143 -32.5q105 0 188 60.5t130 168t47 242.5q0 201 -80 321.5t-252 120.5q-143 0 -340 -172 v-606z" />
<glyph unicode="q" horiz-adv-x="1105" d="M111 487q0 154 59 272t159.5 181.5t219.5 63.5q84 0 149.5 -29t145.5 -86h4l8 90h53v-1434h-61v389l4 201q-168 -160 -336 -160q-188 0 -296.5 133.5t-108.5 378.5zM176 487q0 -207 90 -330.5t254 -123.5q84 0 163 43t165 129v606q-82 72 -153.5 103.5t-149.5 31.5 q-102 0 -187.5 -61.5t-133.5 -167t-48 -230.5z" />
<glyph unicode="r" horiz-adv-x="626" d="M197 0v979h53l8 -184h4q53 96 124 152.5t155 56.5q53 0 94 -21l-17 -57q-27 10 -43 13t-43 3q-74 0 -146.5 -63.5t-127.5 -198.5v-680h-61z" />
<glyph unicode="s" horiz-adv-x="819" d="M70 111l41 49q72 -61 145.5 -94t173.5 -33q117 0 183.5 60.5t66.5 148.5t-66.5 138t-179.5 91q-104 37 -166.5 66.5t-107.5 82t-45 130.5q0 106 82 180t225 74q72 0 144.5 -27t125.5 -72l-37 -49q-57 43 -112.5 66.5t-124.5 23.5q-115 0 -176.5 -56t-61.5 -136 q0 -55 33 -93t79 -62t126 -54q18 -8 120.5 -45t154.5 -100.5t52 -153.5q0 -74 -37.5 -135.5t-110.5 -98.5t-171 -37q-104 0 -194.5 37t-161.5 99z" />
<glyph unicode="t" horiz-adv-x="618" d="M61 922v49l156 8l8 287h54v-287h290v-57h-290v-672q0 -106 35.5 -161.5t136.5 -55.5q53 0 127 33l20 -54q-102 -37 -152 -37q-127 0 -178 73t-51 210v664h-156z" />
<glyph unicode="u" horiz-adv-x="1073" d="M180 348v631h62v-623q0 -166 56 -244.5t181 -78.5q90 0 166 49t170 164v733h62v-979h-54l-8 168h-4q-80 -94 -160 -143.5t-176 -49.5q-151 0 -223 91.5t-72 281.5z" />
<glyph unicode="v" horiz-adv-x="864" d="M25 979h69l234 -635q39 -113 102 -278h8q63 166 103 278l233 635h66l-369 -979h-74z" />
<glyph unicode="w" horiz-adv-x="1376" d="M49 979h70l188 -660l23 -79q43 -162 47 -179h8l25 86l49 172l188 660h86l189 -660l49 -172l24 -86h9l24 86l49 172l185 660h65l-287 -979h-86l-184 639q-8 29 -39 139q-20 80 -39 140h-8q-49 -188 -82 -283l-180 -635h-78z" />
<glyph unicode="x" horiz-adv-x="802" d="M29 0l336 512l-308 467h70l168 -262q33 -53 106 -160h9q37 53 53 80l53 80l164 262h65l-307 -471l336 -508h-69l-185 283q-51 86 -119 180h-8l-74 -111q-39 -61 -45 -69l-180 -283h-65z" />
<glyph unicode="y" horiz-adv-x="868" d="M25 979h69l250 -643l29 -72q59 -152 82 -203h8q20 53 34.5 97.5t26.5 77.5q6 18 33 100l221 643h66l-393 -1118q-43 -133 -122 -224.5t-194 -91.5q-53 1 -94 21l16 57q41 -16 82 -16q88 0 153.5 74.5t108.5 203.5l29 90z" />
<glyph unicode="z" horiz-adv-x="811" d="M53 0v33l602 889h-536v57h618v-33l-602 -889h623v-57h-705z" />
<glyph unicode="{" horiz-adv-x="552" d="M74 545v49q176 0 176 164q0 72 -8 215t-9 219q0 147 52.5 202.5t169.5 55.5h61v-45h-65q-94 0 -129 -52.5t-35 -168.5q0 -96 6 -189q0 -31 3 -95t3 -118q0 -92 -21.5 -141t-76.5 -68v-8q55 -18 76.5 -68.5t21.5 -140.5q0 -53 -3 -117.5t-3 -95.5q-6 -92 -6 -188 q0 -117 34.5 -169t129.5 -52h65v-45h-61q-117 0 -169.5 55t-52.5 203q0 78 9 221q8 139 8 209q0 168 -176 168z" />
<glyph unicode="|" horiz-adv-x="450" d="M197 -512v2048h57v-2048h-57z" />
<glyph unicode="}" horiz-adv-x="552" d="M37 -266h65q94 0 129 52t35 169q0 96 -6 188q0 31 -3 95.5t-3 117.5q0 90 21.5 140.5t76.5 68.5v8q-55 18 -76.5 67.5t-21.5 141.5q0 53 3 118t3 95q6 92 6 189q0 117 -34.5 169t-129.5 52h-65v45h61q117 0 169 -55.5t52 -202.5q0 -76 -8 -219t-8 -215q0 -164 176 -164 v-49q-176 0 -176 -168q0 -70 8 -209q8 -143 8 -221q0 -147 -52 -202.5t-169 -55.5h-61v45z" />
<glyph unicode="~" d="M86 635q39 80 95.5 122t117.5 42q55 0 102.5 -27t110.5 -78q53 -43 88 -63.5t72 -20.5q49 0 89 30t75 101l45 -28q-39 -78 -95.5 -119t-117.5 -41q-56 0 -103 26.5t-110 77.5q-53 43 -88 63.5t-72 20.5q-49 0 -89 -29.5t-75 -101.5z" />
<glyph unicode="&#xa1;" horiz-adv-x="507" d="M180 926q0 35 22.5 56.5t51.5 21.5t51.5 -21.5t22.5 -56.5q0 -37 -21.5 -59.5t-52.5 -22.5q-29 0 -51.5 22.5t-22.5 59.5zM221 -266l8 893h50l8 -893v-127h-66v127z" />
<glyph unicode="&#xa2;" d="M127 639q0 137 52 237.5t140.5 158t196.5 69.5v231h57v-229q88 -2 154 -35t125 -88l-37 -41q-111 104 -242 107v-820q143 2 267 115l37 -41q-144 -129 -304 -131v-225h-57v227q-174 16 -281.5 139t-107.5 326zM193 639q0 -170 88 -280.5t235 -127.5v813 q-141 -16 -232 -127.5t-91 -277.5z" />
<glyph unicode="&#xa3;" d="M111 606v53l135 5h53l-18 61q-27 96 -39.5 152.5t-12.5 117.5q0 158 90.5 249t245.5 91q176 0 287 -143l-45 -41q-49 59 -107.5 93t-138.5 34q-127 0 -196.5 -80t-69.5 -199q0 -59 12 -113.5t37 -144.5q18 -59 23 -77h342v-58h-330q18 -74 18 -160q0 -129 -39 -217 t-116 -163v-9h614v-57h-737v37q111 63 164 171.5t53 237.5q0 74 -21 160h-204z" />
<glyph unicode="&#xa4;" d="M66 287l135 139q-78 104 -78 246q0 147 78 252l-135 141l40 45l136 -141q47 47 109.5 71.5t131.5 24.5q68 0 130.5 -24.5t111.5 -71.5l135 141l41 -45l-137 -141q80 -106 80 -252q0 -137 -78 -246l135 -139l-41 -45l-135 139q-47 -47 -110.5 -72.5t-131.5 -25.5 q-70 0 -132 25.5t-111 72.5l-134 -139zM188 672q0 -96 40 -172t107.5 -118t147.5 -42t147.5 42t107.5 117.5t40 172.5q0 96 -40 173t-107.5 120t-147.5 43t-147.5 -43t-107.5 -120t-40 -173z" />
<glyph unicode="&#xa5;" d="M66 1311h69l205 -414q90 -180 139 -283h8l64 127q61 121 80 156l205 414h65l-364 -701h323v-57h-348v-152h348v-57h-348v-344h-61v344h-345v57h345v152h-345v57h320z" />
<glyph unicode="&#xa6;" horiz-adv-x="450" d="M197 455h57v-967h-57v967zM197 561v975h57v-975h-57z" />
<glyph unicode="&#xa7;" d="M106 729q0 94 48.5 156.5t136.5 111.5q-70 66 -70 166q0 57 30 109.5t89 86.5t147 34q147 0 275 -107l-37 -45q-57 47 -110.5 70.5t-127.5 23.5q-102 0 -153 -49t-51 -119q0 -61 34.5 -105t86 -72.5t137.5 -65.5q102 -43 166.5 -81t108.5 -101.5t44 -159.5 q0 -97 -46 -156t-132 -104q72 -72 72 -175q0 -70 -39 -126t-103.5 -87.5t-136.5 -31.5q-182 0 -319 123l45 45q57 -55 119.5 -83t154.5 -28q96 0 156.5 54.5t60.5 129.5q0 66 -35.5 111t-88 74.5t-142.5 66.5q-106 45 -168.5 82t-107 98.5t-44.5 153.5zM168 733 q0 -74 39 -125t94 -82.5t152 -72.5q12 -6 72.5 -33t107.5 -60q86 41 126 87.5t40 130.5q0 78 -39 131t-96.5 86.5t-153.5 74.5q-123 53 -172 88q-86 -47 -128 -97t-42 -128z" />
<glyph unicode="&#xa8;" horiz-adv-x="1089" d="M303 1298q0 29 18.5 47.5t47.5 18.5q27 0 46 -18.5t19 -47.5q0 -27 -19.5 -46t-45.5 -19q-29 0 -47.5 19.5t-18.5 45.5zM656 1298q0 29 19.5 47.5t45.5 18.5q29 0 47.5 -18.5t18.5 -47.5q0 -27 -18.5 -46t-47.5 -19q-26 0 -45.5 19.5t-19.5 45.5z" />
<glyph unicode="&#xa9;" horiz-adv-x="1515" d="M106 659q0 199 88.5 353.5t238 238.5t325.5 84t325.5 -84t237.5 -238.5t88 -353.5q0 -201 -88 -356.5t-237.5 -241.5t-325.5 -86t-325.5 86t-238 242t-88.5 356zM168 659q0 -182 81 -326.5t216 -224t293 -79.5q157 0 292.5 79.5t216.5 224t81 326.5q0 180 -81 322.5 t-216.5 221.5t-292.5 79q-158 0 -293 -79t-216 -221t-81 -323zM414 659q0 115 50 202t133 133t181 46q76 0 132.5 -27.5t109.5 -82.5l-37 -45q-51 49 -99 71.5t-110 22.5q-127 0 -209 -88t-82 -232q0 -158 79 -251t208 -93t246 107l33 -45q-66 -61 -128.5 -92t-154.5 -31 q-96 0 -176 48t-128 140.5t-48 216.5z" />
<glyph unicode="&#xaa;" horiz-adv-x="684" d="M90 1008q0 106 101.5 162.5t324.5 78.5q0 94 -32.5 147.5t-114.5 53.5q-59 0 -122 -24.5t-104 -53.5l-24 45q49 33 115.5 59.5t138.5 26.5q111 0 155.5 -64.5t44.5 -185.5v-413h-45l-12 82h-8q-115 -98 -221 -99q-88 0 -142.5 48.5t-54.5 136.5zM152 1012 q0 -68 38.5 -101.5t108.5 -33.5q104 0 217 106v221q-197 -20 -280.5 -67t-83.5 -125z" />
<glyph unicode="&#xab;" horiz-adv-x="794" d="M86 487v58l283 336l41 -37l-254 -328l254 -332l-41 -32zM360 487v58l283 336l41 -37l-254 -328l254 -332l-41 -32z" />
<glyph unicode="&#xac;" d="M70 647v58h827v-476h-66v418h-761z" />
<glyph unicode="&#xad;" horiz-adv-x="602" d="M82 479v62h442v-62h-442z" />
<glyph unicode="&#xae;" horiz-adv-x="802" d="M33 1061q0 117 50 207t134 140t184 50t184.5 -50t134.5 -140t50 -207q0 -115 -50 -205t-134 -139t-185 -49q-100 0 -184 49t-134 139t-50 205zM90 1061q0 -96 42 -174t112.5 -122t156.5 -44t157 44t113 122t42 174t-42 175t-113 124t-157 45t-156.5 -45t-112.5 -124 t-42 -175zM266 856v426h135q68 0 112 -29.5t44 -101.5q0 -39 -23.5 -71.5t-58.5 -43.5l103 -180h-70l-82 160h-102v-160h-58zM324 1069h61q111 0 111 78q0 82 -103 82h-69v-160z" />
<glyph unicode="&#xaf;" horiz-adv-x="1089" d="M299 1245v58h492v-58h-492z" />
<glyph unicode="&#xb0;" horiz-adv-x="622" d="M86 1163q0 109 66.5 173.5t158.5 64.5t159 -64.5t67 -173.5q0 -106 -68 -169.5t-158 -63.5t-157.5 63.5t-67.5 169.5zM143 1163q0 -78 47.5 -129t120.5 -51q74 0 121 51t47 129q0 80 -47 132.5t-121 52.5t-121 -52.5t-47 -132.5z" />
<glyph unicode="&#xb1;" d="M70 0v57h827v-57h-827zM70 639v57h381v426h65v-426h381v-57h-381v-430h-65v430h-381z" />
<glyph unicode="&#xb4;" horiz-adv-x="1089" d="M439 1208l270 316l49 -41l-283 -307z" />
<glyph unicode="&#xb6;" horiz-adv-x="1019" d="M86 930q0 217 125 319.5t346 102.5h90v-840h-53q-240 0 -374 100.5t-134 317.5zM758 -164v1516h65v-1516h-65z" />
<glyph unicode="&#xb7;" horiz-adv-x="425" d="M139 659q0 39 22.5 60.5t51.5 21.5q31 0 52.5 -21.5t21.5 -60.5q0 -35 -22.5 -56.5t-51.5 -21.5t-51.5 21.5t-22.5 56.5z" />
<glyph unicode="&#xb8;" horiz-adv-x="1089" d="M381 -389q129 8 181.5 34.5t52.5 75.5q0 45 -38 70t-122 37l82 176h57l-61 -139q70 -16 106.5 -49t36.5 -90q0 -150 -283 -168z" />
<glyph unicode="&#xba;" horiz-adv-x="733" d="M70 1163q0 158 84 249t211 91t210.5 -91t83.5 -249q0 -156 -83.5 -248t-210.5 -92t-211 92.5t-84 247.5zM131 1163q0 -127 64.5 -206.5t169.5 -79.5q104 0 168.5 79.5t64.5 206.5q0 129 -64.5 208t-168.5 79t-169 -79t-65 -208z" />
<glyph unicode="&#xbb;" horiz-adv-x="794" d="M111 184l254 332l-254 328l41 37l282 -336v-58l-282 -335zM385 184l254 332l-254 328l41 37l282 -336v-58l-282 -335z" />
<glyph unicode="&#xbc;" horiz-adv-x="1552" d="M156 1229v45q106 23 172 78h53v-799h-57v676h-168zM360 -25l758 1401h66l-758 -1401h-66zM913 242v32l373 525h45v-504h119v-53h-119v-242h-57v242h-361zM995 295h279v192l8 209h-8l-119 -172z" />
<glyph unicode="&#xbd;" horiz-adv-x="1593" d="M156 1229v45q106 23 172 78h53v-799h-57v676h-168zM311 -25l758 1401h66l-758 -1401h-66zM958 676q35 61 100.5 104t137.5 43q111 0 176.5 -63.5t65.5 -186.5q0 -78 -39 -150.5t-102.5 -143t-190.5 -193.5l-33 -33h414v-53h-512v41q160 150 240.5 235.5t120.5 155.5 t40 137q0 92 -50 146.5t-134 54.5q-55 0 -105.5 -37t-87.5 -94z" />
<glyph unicode="&#xbe;" horiz-adv-x="1593" d="M86 680l49 37q39 -59 99.5 -97t130.5 -38q84 0 140 48t56 132q0 82 -79 127t-216 45v49q121 0 191.5 53.5t70.5 126.5q0 72 -49 116t-131 44q-47 0 -97 -29.5t-91 -81.5l-41 37q43 57 103.5 92t129.5 35q102 0 170 -56t68 -153q0 -74 -44 -126t-116 -78 q80 -14 136.5 -66.5t56.5 -134.5q0 -109 -74 -171.5t-189 -62.5q-86 0 -157.5 44t-116.5 108zM463 -25l758 1401h65l-758 -1401h-65zM954 242v32l373 525h45v-504h119v-53h-119v-242h-57v242h-361zM1036 295h279v192l8 209h-8l-119 -172z" />
<glyph unicode="&#xbf;" horiz-adv-x="806" d="M106 -111q0 86 37 157t115 175q80 104 120 181t40 173q0 14 -4 52h57q4 -41 4 -62q0 -104 -41 -184t-121 -184q-72 -94 -106.5 -159t-34.5 -144q0 -106 62.5 -180t183.5 -74q78 0 150.5 35.5t123.5 99.5l41 -37q-141 -156 -319 -156q-144 0 -226 88t-82 219zM360 926 q0 35 23 56.5t51 21.5q29 0 51.5 -21.5t22.5 -56.5q0 -37 -21.5 -59.5t-52.5 -22.5q-28 0 -51 22.5t-23 59.5z" />
<glyph unicode="&#xc0;" horiz-adv-x="1064" d="M20 0l484 1352h57l483 -1352h-69l-168 483h-551l-170 -483h-66zM276 541h510l-94 270q-109 309 -155 471h-9q-47 -162 -155 -471zM319 1683l45 50l242 -246l-29 -33z" />
<glyph unicode="&#xc1;" horiz-adv-x="1064" d="M20 0l484 1352h57l483 -1352h-69l-168 483h-551l-170 -483h-66zM276 541h510l-94 270q-109 309 -155 471h-9q-47 -162 -155 -471zM458 1487l242 246l45 -50l-258 -229z" />
<glyph unicode="&#xc2;" horiz-adv-x="1064" d="M20 0l484 1352h57l483 -1352h-69l-168 483h-551l-170 -483h-66zM266 1487l237 233h58l237 -233l-28 -33l-234 205h-8l-234 -205zM276 541h510l-94 270q-109 309 -155 471h-9q-47 -162 -155 -471z" />
<glyph unicode="&#xc3;" horiz-adv-x="1064" d="M20 0l484 1352h57l483 -1352h-69l-168 483h-551l-170 -483h-66zM204 1487q4 92 48 154.5t120 62.5q57 0 96 -23.5t89 -70.5q43 -39 70.5 -56.5t64.5 -17.5q47 0 77.5 44t41.5 120l49 -4q-4 -92 -48 -154.5t-120 -62.5q-58 0 -96.5 23.5t-88.5 70.5q-43 39 -70.5 56.5 t-64.5 17.5q-47 0 -79.5 -45.5t-39.5 -118.5zM276 541h510l-94 270q-109 309 -155 471h-9q-47 -162 -155 -471z" />
<glyph unicode="&#xc4;" horiz-adv-x="1064" d="M20 0l484 1352h57l483 -1352h-69l-168 483h-551l-170 -483h-66zM270 1556q0 31 18.5 48.5t46.5 17.5q29 0 47.5 -17.5t18.5 -48.5t-18.5 -48t-47.5 -17q-28 0 -46.5 17.5t-18.5 47.5zM276 541h510l-94 270q-109 309 -155 471h-9q-47 -162 -155 -471zM663 1556 q0 31 18.5 48.5t47.5 17.5t47 -17.5t18 -48.5t-18.5 -48t-46.5 -17q-29 0 -47.5 17.5t-18.5 47.5z" />
<glyph unicode="&#xc5;" horiz-adv-x="1064" d="M20 0l484 1352h57l483 -1352h-69l-168 483h-551l-170 -483h-66zM276 541h510l-94 270q-109 309 -155 471h-9q-47 -162 -155 -471zM360 1606q0 78 49 125t123 47q72 0 122 -48.5t50 -123.5q0 -76 -50 -124t-122 -48q-74 0 -123 48t-49 124zM409 1606q0 -61 35 -94t88 -33 q51 0 85 33.5t34 93.5q0 57 -35 92t-84 35q-53 0 -88 -35t-35 -92z" />
<glyph unicode="&#xc6;" horiz-adv-x="1646" d="M53 0l762 1352h717v-58h-619v-544h512v-58h-512v-635h639v-57h-704v463h-465l-260 -463h-70zM416 520h432v770h-8q-162 -293 -267 -487z" />
<glyph unicode="&#xc7;" horiz-adv-x="1150" d="M115 680q0 211 70.5 368.5t199.5 242.5t299 85q109 0 197 -45t147 -114l-41 -46q-57 68 -134 106t-169 38q-154 0 -266.5 -78t-173 -220.5t-60.5 -336.5q0 -193 59.5 -338t171 -225t261.5 -80q106 0 190 42t162 130l41 -41q-82 -94 -176 -143.5t-221 -49.5 q-164 0 -291 87.5t-196.5 247t-69.5 370.5z" />
<glyph unicode="&#xc8;" horiz-adv-x="1044" d="M205 0v1352h725v-58h-660v-544h553v-58h-553v-635h680v-57h-745zM365 1683l45 50l242 -246l-29 -33z" />
<glyph unicode="&#xc9;" horiz-adv-x="1044" d="M205 0v1352h725v-58h-660v-544h553v-58h-553v-635h680v-57h-745zM504 1487l242 246l45 -50l-258 -229z" />
<glyph unicode="&#xca;" horiz-adv-x="1044" d="M205 0v1352h725v-58h-660v-544h553v-58h-553v-635h680v-57h-745zM312 1487l237 233h58l237 -233l-28 -33l-234 205h-8l-234 -205z" />
<glyph unicode="&#xcb;" horiz-adv-x="1044" d="M205 0v1352h725v-58h-660v-544h553v-58h-553v-635h680v-57h-745zM316 1556q0 31 18.5 48.5t46.5 17.5q29 0 47.5 -17.5t18.5 -48.5t-18.5 -48t-47.5 -17q-28 0 -46.5 17.5t-18.5 47.5zM709 1556q0 31 18.5 48.5t47.5 17.5t47 -17.5t18 -48.5t-18.5 -48t-46.5 -17 q-29 0 -47.5 17.5t-18.5 47.5z" />
<glyph unicode="&#xcc;" horiz-adv-x="475" d="M25 1683l45 50l242 -246l-29 -33zM205 0v1352h65v-1352h-65z" />
<glyph unicode="&#xcd;" horiz-adv-x="475" d="M164 1487l242 246l45 -50l-258 -229zM205 0v1352h65v-1352h-65z" />
<glyph unicode="&#xce;" horiz-adv-x="475" d="M-28 1487l237 233h58l237 -233l-28 -33l-234 205h-8l-234 -205zM205 0v1352h65v-1352h-65z" />
<glyph unicode="&#xcf;" horiz-adv-x="475" d="M-24 1556q0 31 18.5 48.5t46.5 17.5q29 0 47.5 -17.5t18.5 -48.5t-18.5 -48t-47.5 -17q-28 0 -46.5 17.5t-18.5 47.5zM205 0v1352h65v-1352h-65zM369 1556q0 31 18.5 48.5t47.5 17.5t47 -17.5t18 -48.5t-18.5 -48t-46.5 -17q-29 0 -47.5 17.5t-18.5 47.5z" />
<glyph unicode="&#xd0;" horiz-adv-x="1269" d="M78 688v53l168 4v607h303q303 0 454.5 -179.5t151.5 -492.5t-151.5 -496.5t-454.5 -183.5h-303v688h-168zM311 57h230q276 0 410 170t134 453t-134 448.5t-410 165.5h-230v-549h344v-57h-344v-631z" />
<glyph unicode="&#xd1;" horiz-adv-x="1294" d="M205 0v1352h69l598 -992l156 -266h8q-8 262 -8 381v877h62v-1352h-70l-598 991l-156 266h-8q8 -254 8 -368v-889h-61zM331 1487q4 92 48 154.5t120 62.5q57 0 96 -23.5t89 -70.5q43 -39 70.5 -56.5t64.5 -17.5q47 0 77.5 44t41.5 120l49 -4q-4 -92 -48 -154.5t-120 -62.5 q-58 0 -96.5 23.5t-88.5 70.5q-43 39 -70.5 56.5t-64.5 17.5q-47 0 -79.5 -45.5t-39.5 -118.5z" />
<glyph unicode="&#xd2;" horiz-adv-x="1327" d="M115 680q0 209 69.5 366.5t194.5 243.5t285 86t284.5 -86t194 -243.5t69.5 -366.5t-70.5 -369.5t-194.5 -248t-283 -87.5q-160 0 -284 87.5t-194.5 248t-70.5 369.5zM184 680q0 -193 59.5 -338t169 -225t251.5 -80q141 0 250.5 80t169 225t59.5 338t-59.5 336t-168 221 t-251.5 78t-252 -78t-168.5 -221.5t-59.5 -335.5zM451 1683l45 50l242 -246l-29 -33z" />
<glyph unicode="&#xd3;" horiz-adv-x="1327" d="M115 680q0 209 69.5 366.5t194.5 243.5t285 86t284.5 -86t194 -243.5t69.5 -366.5t-70.5 -369.5t-194.5 -248t-283 -87.5q-160 0 -284 87.5t-194.5 248t-70.5 369.5zM184 680q0 -193 59.5 -338t169 -225t251.5 -80q141 0 250.5 80t169 225t59.5 338t-59.5 336t-168 221 t-251.5 78t-252 -78t-168.5 -221.5t-59.5 -335.5zM590 1487l242 246l45 -50l-258 -229z" />
<glyph unicode="&#xd4;" horiz-adv-x="1327" d="M115 680q0 209 69.5 366.5t194.5 243.5t285 86t284.5 -86t194 -243.5t69.5 -366.5t-70.5 -369.5t-194.5 -248t-283 -87.5q-160 0 -284 87.5t-194.5 248t-70.5 369.5zM184 680q0 -193 59.5 -338t169 -225t251.5 -80q141 0 250.5 80t169 225t59.5 338t-59.5 336t-168 221 t-251.5 78t-252 -78t-168.5 -221.5t-59.5 -335.5zM398 1487l237 233h58l237 -233l-28 -33l-234 205h-8l-234 -205z" />
<glyph unicode="&#xd5;" horiz-adv-x="1327" d="M115 680q0 209 69.5 366.5t194.5 243.5t285 86t284.5 -86t194 -243.5t69.5 -366.5t-70.5 -369.5t-194.5 -248t-283 -87.5q-160 0 -284 87.5t-194.5 248t-70.5 369.5zM184 680q0 -193 59.5 -338t169 -225t251.5 -80q141 0 250.5 80t169 225t59.5 338t-59.5 336t-168 221 t-251.5 78t-252 -78t-168.5 -221.5t-59.5 -335.5zM336 1487q4 92 48 154.5t120 62.5q57 0 96 -23.5t89 -70.5q43 -39 70.5 -56.5t64.5 -17.5q47 0 77.5 44t41.5 120l49 -4q-4 -92 -48 -154.5t-120 -62.5q-58 0 -96.5 23.5t-88.5 70.5q-43 39 -70.5 56.5t-64.5 17.5 q-47 0 -79.5 -45.5t-39.5 -118.5z" />
<glyph unicode="&#xd6;" horiz-adv-x="1327" d="M115 680q0 209 69.5 366.5t194.5 243.5t285 86t284.5 -86t194 -243.5t69.5 -366.5t-70.5 -369.5t-194.5 -248t-283 -87.5q-160 0 -284 87.5t-194.5 248t-70.5 369.5zM184 680q0 -193 59.5 -338t169 -225t251.5 -80q141 0 250.5 80t169 225t59.5 338t-59.5 336t-168 221 t-251.5 78t-252 -78t-168.5 -221.5t-59.5 -335.5zM402 1556q0 31 18.5 48.5t46.5 17.5q29 0 47.5 -17.5t18.5 -48.5t-18.5 -48t-47.5 -17q-28 0 -46.5 17.5t-18.5 47.5zM795 1556q0 31 18.5 48.5t47.5 17.5t47 -17.5t18 -48.5t-18.5 -48t-46.5 -17q-29 0 -47.5 17.5 t-18.5 47.5z" />
<glyph unicode="&#xd7;" d="M106 328l336 348l-336 348l41 45l336 -352l336 352l41 -45l-336 -348l336 -348l-41 -45l-336 352l-336 -352z" />
<glyph unicode="&#xd8;" horiz-adv-x="1327" d="M119 -8l143 194q-139 195 -139 494q0 209 69.5 366.5t194.5 243.5t285 86q104 0 196.5 -39t163.5 -110l123 166l45 -33l-131 -176q74 -92 113 -220t39 -284q0 -209 -71 -369.5t-195 -248t-283 -87.5q-111 0 -205 43t-168 123l-135 -182zM193 680q-1 -262 110 -438 l690 932q-125 141 -321 141q-143 0 -252 -78t-168 -221.5t-59 -335.5zM338 195q63 -76 148 -117t186 -41q141 0 250.5 80t169 225t59.5 338q0 137 -32 250.5t-89 197.5z" />
<glyph unicode="&#xd9;" horiz-adv-x="1290" d="M201 504v848h65v-832q0 -260 105.5 -371.5t271.5 -111.5q170 0 277.5 111.5t107.5 371.5v832h62v-848q0 -287 -128 -408t-319 -121q-190 0 -316 121t-126 408zM430 1683l45 50l242 -246l-29 -33z" />
<glyph unicode="&#xda;" horiz-adv-x="1290" d="M201 504v848h65v-832q0 -260 105.5 -371.5t271.5 -111.5q170 0 277.5 111.5t107.5 371.5v832h62v-848q0 -287 -128 -408t-319 -121q-190 0 -316 121t-126 408zM569 1487l242 246l45 -50l-258 -229z" />
<glyph unicode="&#xdb;" horiz-adv-x="1290" d="M201 504v848h65v-832q0 -260 105.5 -371.5t271.5 -111.5q170 0 277.5 111.5t107.5 371.5v832h62v-848q0 -287 -128 -408t-319 -121q-190 0 -316 121t-126 408zM377 1487l237 233h58l237 -233l-28 -33l-234 205h-8l-234 -205z" />
<glyph unicode="&#xdc;" horiz-adv-x="1290" d="M201 504v848h65v-832q0 -260 105.5 -371.5t271.5 -111.5q170 0 277.5 111.5t107.5 371.5v832h62v-848q0 -287 -128 -408t-319 -121q-190 0 -316 121t-126 408zM381 1556q0 31 18.5 48.5t46.5 17.5q29 0 47.5 -17.5t18.5 -48.5t-18.5 -48t-47.5 -17q-28 0 -46.5 17.5 t-18.5 47.5zM774 1556q0 31 18.5 48.5t47.5 17.5t47 -17.5t18 -48.5t-18.5 -48t-46.5 -17q-29 0 -47.5 17.5t-18.5 47.5z" />
<glyph unicode="&#xdd;" horiz-adv-x="892" d="M8 1352h70l217 -439l37 -73q45 -94 110 -217h9l28 51q92 170 123 239l217 439h66l-406 -795v-557h-65v557zM372 1487l242 246l45 -50l-258 -229z" />
<glyph unicode="&#xde;" horiz-adv-x="1138" d="M205 0v1352h65v-246h287q236 0 355.5 -86t119.5 -283q0 -190 -123 -287.5t-352 -97.5h-287v-352h-65zM270 410h262q221 0 326 77.5t105 249.5q0 174 -102.5 243t-328.5 69h-262v-639z" />
<glyph unicode="&#xdf;" horiz-adv-x="1085" d="M197 0v1102q0 184 91 290.5t240 106.5q121 0 194 -74.5t73 -191.5q0 -76 -29 -131t-84 -125q-49 -61 -72.5 -104.5t-23.5 -98.5q0 -76 47 -118t145 -91q80 -41 128 -74.5t83 -91t35 -145.5q0 -119 -82 -199t-205 -80q-153 1 -274 107l37 49q59 -51 115.5 -74.5 t121.5 -23.5q104 0 162.5 63.5t58.5 153.5q0 72 -29.5 119t-73.5 76.5t-118 66.5t-115.5 65.5t-71.5 75.5t-30 117t26.5 120t82.5 120q49 61 74.5 109t25.5 110q0 96 -53 154.5t-152 58.5q-125 0 -195.5 -92.5t-70.5 -276.5v-1073h-61z" />
<glyph unicode="&#xe0;" horiz-adv-x="995" d="M123 240q0 162 152.5 247.5t490.5 122.5q4 143 -49 239.5t-193 96.5q-94 0 -177 -36t-142 -83l-33 50q66 49 159 88t197 39q160 0 229.5 -101.5t69.5 -267.5v-635h-53l-8 131h-4q-195 -156 -356 -156q-123 0 -203 65.5t-80 199.5zM188 242q0 -106 62.5 -157.5 t159.5 -51.5q86 0 170 41t186 127v356q-315 -37 -446.5 -111.5t-131.5 -203.5zM319 1483l49 41l270 -316l-36 -32z" />
<glyph unicode="&#xe1;" horiz-adv-x="995" d="M123 240q0 162 152.5 247.5t490.5 122.5q4 143 -49 239.5t-193 96.5q-94 0 -177 -36t-142 -83l-33 50q66 49 159 88t197 39q160 0 229.5 -101.5t69.5 -267.5v-635h-53l-8 131h-4q-195 -156 -356 -156q-123 0 -203 65.5t-80 199.5zM188 242q0 -106 62.5 -157.5 t159.5 -51.5q86 0 170 41t186 127v356q-315 -37 -446.5 -111.5t-131.5 -203.5zM426 1208l270 316l49 -41l-283 -307z" />
<glyph unicode="&#xe2;" horiz-adv-x="995" d="M123 240q0 162 152.5 247.5t490.5 122.5q4 143 -49 239.5t-193 96.5q-94 0 -177 -36t-142 -83l-33 50q66 49 159 88t197 39q160 0 229.5 -101.5t69.5 -267.5v-635h-53l-8 131h-4q-195 -156 -356 -156q-123 0 -203 65.5t-80 199.5zM188 242q0 -106 62.5 -157.5 t159.5 -51.5q86 0 170 41t186 127v356q-315 -37 -446.5 -111.5t-131.5 -203.5zM262 1208l241 299h58l241 -299l-37 -32l-229 266h-8l-229 -266z" />
<glyph unicode="&#xe3;" horiz-adv-x="995" d="M123 240q0 162 152.5 247.5t490.5 122.5q4 143 -49 239.5t-193 96.5q-94 0 -177 -36t-142 -83l-33 50q66 49 159 88t197 39q160 0 229.5 -101.5t69.5 -267.5v-635h-53l-8 131h-4q-195 -156 -356 -156q-123 0 -203 65.5t-80 199.5zM188 242q0 -106 62.5 -157.5 t159.5 -51.5q86 0 170 41t186 127v356q-315 -37 -446.5 -111.5t-131.5 -203.5zM204 1196q18 250 172 250q55 0 94 -28.5t87 -84.5q41 -47 69.5 -69.5t67.5 -22.5q53 0 80.5 56.5t31.5 144.5l54 -4q-18 -250 -170 -250q-56 0 -94.5 28.5t-88.5 83.5q-41 47 -69.5 70t-65.5 23 q-55 0 -82.5 -55.5t-31.5 -145.5z" />
<glyph unicode="&#xe4;" horiz-adv-x="995" d="M123 240q0 162 152.5 247.5t490.5 122.5q4 143 -49 239.5t-193 96.5q-94 0 -177 -36t-142 -83l-33 50q66 49 159 88t197 39q160 0 229.5 -101.5t69.5 -267.5v-635h-53l-8 131h-4q-195 -156 -356 -156q-123 0 -203 65.5t-80 199.5zM188 242q0 -106 62.5 -157.5 t159.5 -51.5q86 0 170 41t186 127v356q-315 -37 -446.5 -111.5t-131.5 -203.5zM290 1298q0 29 18.5 47.5t47.5 18.5q27 0 46 -18.5t19 -47.5q0 -27 -19.5 -46t-45.5 -19q-29 0 -47.5 19.5t-18.5 45.5zM643 1298q0 29 19.5 47.5t45.5 18.5q29 0 47.5 -18.5t18.5 -47.5 q0 -27 -18.5 -46t-47.5 -19q-26 0 -45.5 19.5t-19.5 45.5z" />
<glyph unicode="&#xe5;" horiz-adv-x="995" d="M123 240q0 162 152.5 247.5t490.5 122.5q4 143 -49 239.5t-193 96.5q-94 0 -177 -36t-142 -83l-33 50q66 49 159 88t197 39q160 0 229.5 -101.5t69.5 -267.5v-635h-53l-8 131h-4q-195 -156 -356 -156q-123 0 -203 65.5t-80 199.5zM188 242q0 -106 62.5 -157.5 t159.5 -51.5q86 0 170 41t186 127v356q-315 -37 -446.5 -111.5t-131.5 -203.5zM344 1311q0 86 53 139t135 53t135 -53t53 -139q0 -84 -53 -138.5t-135 -54.5t-135 54.5t-53 138.5zM393 1311q0 -66 40 -107t99 -41t99 41t40 107t-40 106.5t-99 40.5t-99 -41t-40 -106z" />
<glyph unicode="&#xe6;" horiz-adv-x="1605" d="M139 238q0 162 151.5 248.5t479.5 123.5q4 143 -49 239.5t-193 96.5q-86 0 -167.5 -36t-139.5 -83l-33 50q66 47 156 87t188 40q119 0 192 -69t95 -190q53 119 146.5 189t201.5 70q170 0 265.5 -117t95.5 -334q0 -41 -4 -66h-693q-2 -129 45.5 -232t132.5 -162.5 t187 -59.5q78 0 139.5 23.5t122.5 66.5l29 -53q-78 -47 -137.5 -71t-157.5 -24q-123 0 -206 57.5t-146 151.5q-94 -94 -210 -151.5t-208 -57.5q-123 0 -203 65.5t-80 197.5zM205 242q0 -106 62.5 -157.5t158.5 -51.5q86 0 194.5 55t194.5 150q-20 45 -32.5 115.5 t-12.5 146.5v57q-303 -37 -434 -111.5t-131 -203.5zM831 541h635q0 199 -78.5 302t-220.5 103q-86 0 -158.5 -52t-119.5 -144.5t-58 -208.5z" />
<glyph unicode="&#xe7;" horiz-adv-x="913" d="M111 487q0 158 59 276t159.5 179.5t219.5 61.5q92 0 159.5 -34t127.5 -89l-41 -45q-119 111 -246 110q-104 0 -189.5 -58.5t-134.5 -162.5t-49 -238q0 -133 46 -236.5t131 -160.5t196 -57q147 0 274 119l37 -46q-129 -119 -278 -129l-50 -112q70 -17 107 -49.5t37 -89.5 q0 -150 -283 -168l-12 53q129 8 181 34.5t52 75.5q0 45 -37.5 70t-121.5 37l69 147q-119 6 -213 68.5t-147 176.5t-53 267z" />
<glyph unicode="&#xe8;" horiz-adv-x="978" d="M111 487q0 154 59 272t155.5 181.5t206.5 63.5q172 0 270.5 -118t98.5 -333q0 -41 -4 -66h-721q0 -137 50 -240.5t138.5 -158.5t196.5 -55q145 0 270 90l29 -53q-76 -45 -140.5 -70t-162.5 -25q-123 0 -225.5 62.5t-161.5 178.5t-59 271zM178 545h662q0 197 -82 299 t-226 102q-86 0 -162.5 -45t-129 -136t-62.5 -220zM319 1483l49 41l270 -316l-36 -32z" />
<glyph unicode="&#xe9;" horiz-adv-x="978" d="M111 487q0 154 59 272t155.5 181.5t206.5 63.5q172 0 270.5 -118t98.5 -333q0 -41 -4 -66h-721q0 -137 50 -240.5t138.5 -158.5t196.5 -55q145 0 270 90l29 -53q-76 -45 -140.5 -70t-162.5 -25q-123 0 -225.5 62.5t-161.5 178.5t-59 271zM178 545h662q0 197 -82 299 t-226 102q-86 0 -162.5 -45t-129 -136t-62.5 -220zM426 1208l270 316l49 -41l-283 -307z" />
<glyph unicode="&#xea;" horiz-adv-x="978" d="M111 487q0 154 59 272t155.5 181.5t206.5 63.5q172 0 270.5 -118t98.5 -333q0 -41 -4 -66h-721q0 -137 50 -240.5t138.5 -158.5t196.5 -55q145 0 270 90l29 -53q-76 -45 -140.5 -70t-162.5 -25q-123 0 -225.5 62.5t-161.5 178.5t-59 271zM178 545h662q0 197 -82 299 t-226 102q-86 0 -162.5 -45t-129 -136t-62.5 -220zM262 1208l241 299h58l241 -299l-37 -32l-229 266h-8l-229 -266z" />
<glyph unicode="&#xeb;" horiz-adv-x="978" d="M111 487q0 154 59 272t155.5 181.5t206.5 63.5q172 0 270.5 -118t98.5 -333q0 -41 -4 -66h-721q0 -137 50 -240.5t138.5 -158.5t196.5 -55q145 0 270 90l29 -53q-76 -45 -140.5 -70t-162.5 -25q-123 0 -225.5 62.5t-161.5 178.5t-59 271zM178 545h662q0 197 -82 299 t-226 102q-86 0 -162.5 -45t-129 -136t-62.5 -220zM290 1298q0 29 18.5 47.5t47.5 18.5q27 0 46 -18.5t19 -47.5q0 -27 -19.5 -46t-45.5 -19q-29 0 -47.5 19.5t-18.5 45.5zM643 1298q0 29 19.5 47.5t45.5 18.5q29 0 47.5 -18.5t18.5 -47.5q0 -27 -18.5 -46t-47.5 -19 q-26 0 -45.5 19.5t-19.5 45.5z" />
<glyph unicode="&#xec;" horiz-adv-x="454" d="M16 1483l49 41l270 -316l-36 -32zM197 0v979h61v-979h-61z" />
<glyph unicode="&#xed;" horiz-adv-x="454" d="M123 1208l270 316l49 -41l-283 -307zM197 0v979h61v-979h-61z" />
<glyph unicode="&#xee;" horiz-adv-x="454" d="M-41 1208l241 299h58l241 -299l-37 -32l-229 266h-8l-229 -266zM197 0v979h61v-979h-61z" />
<glyph unicode="&#xef;" horiz-adv-x="454" d="M-13 1298q0 29 18.5 47.5t47.5 18.5q27 0 46 -18.5t19 -47.5q0 -27 -19.5 -46t-45.5 -19q-29 0 -47.5 19.5t-18.5 45.5zM197 0v979h61v-979h-61zM340 1298q0 29 19.5 47.5t45.5 18.5q29 0 47.5 -18.5t18.5 -47.5q0 -27 -18.5 -46t-47.5 -19q-26 0 -45.5 19.5t-19.5 45.5z " />
<glyph unicode="&#xf0;" horiz-adv-x="1089" d="M127 446q0 133 53 236.5t149.5 161t223.5 57.5q90 0 170 -41t143 -121q-27 152 -89 267.5t-156 210.5l-289 -152l-25 45l273 143q-94 84 -261 181l33 45q168 -92 283 -197l291 152l24 -45l-276 -146q131 -133 203.5 -311t72.5 -420q0 -162 -51 -284t-143 -187.5 t-211 -65.5q-109 0 -205 57.5t-154.5 165t-58.5 248.5zM193 446q0 -119 47 -213t128 -147t177 -53q170 0 255 134t85 345q0 72 -6 133q-76 113 -157 156t-173 43q-113 0 -194 -54.5t-121.5 -145.5t-40.5 -198z" />
<glyph unicode="&#xf1;" horiz-adv-x="1077" d="M197 0v979h53l8 -156h4q88 88 167 134.5t173 46.5q152 0 223.5 -91.5t71.5 -281.5v-631h-61v623q0 166 -56.5 244.5t-181.5 78.5q-88 0 -163 -46t-177 -150v-750h-61zM241 1196q18 250 172 250q55 0 94 -28.5t87 -84.5q41 -47 69.5 -69.5t67.5 -22.5q53 0 80.5 56.5 t31.5 144.5l54 -4q-18 -250 -170 -250q-56 0 -94.5 28.5t-88.5 83.5q-41 47 -69.5 70t-65.5 23q-55 0 -82.5 -55.5t-31.5 -145.5z" />
<glyph unicode="&#xf2;" horiz-adv-x="1089" d="M111 487q0 158 58 276t157.5 179.5t218.5 61.5t218 -61.5t157.5 -179.5t58.5 -276q0 -156 -58.5 -272.5t-157.5 -178t-218 -61.5t-218.5 61.5t-157.5 178.5t-58 272zM176 487q0 -133 48 -236.5t132 -160.5t189 -57q104 0 188 57t132 160.5t48 236.5t-48 237.5t-132 163 t-188 58.5t-188.5 -58.5t-132.5 -162.5t-48 -238zM332 1483l49 41l270 -316l-36 -32z" />
<glyph unicode="&#xf3;" horiz-adv-x="1089" d="M111 487q0 158 58 276t157.5 179.5t218.5 61.5t218 -61.5t157.5 -179.5t58.5 -276q0 -156 -58.5 -272.5t-157.5 -178t-218 -61.5t-218.5 61.5t-157.5 178.5t-58 272zM176 487q0 -133 48 -236.5t132 -160.5t189 -57q104 0 188 57t132 160.5t48 236.5t-48 237.5t-132 163 t-188 58.5t-188.5 -58.5t-132.5 -162.5t-48 -238zM439 1208l270 316l49 -41l-283 -307z" />
<glyph unicode="&#xf4;" horiz-adv-x="1089" d="M111 487q0 158 58 276t157.5 179.5t218.5 61.5t218 -61.5t157.5 -179.5t58.5 -276q0 -156 -58.5 -272.5t-157.5 -178t-218 -61.5t-218.5 61.5t-157.5 178.5t-58 272zM176 487q0 -133 48 -236.5t132 -160.5t189 -57q104 0 188 57t132 160.5t48 236.5t-48 237.5t-132 163 t-188 58.5t-188.5 -58.5t-132.5 -162.5t-48 -238zM275 1208l241 299h58l241 -299l-37 -32l-229 266h-8l-229 -266z" />
<glyph unicode="&#xf5;" horiz-adv-x="1089" d="M111 487q0 158 58 276t157.5 179.5t218.5 61.5t218 -61.5t157.5 -179.5t58.5 -276q0 -156 -58.5 -272.5t-157.5 -178t-218 -61.5t-218.5 61.5t-157.5 178.5t-58 272zM176 487q0 -133 48 -236.5t132 -160.5t189 -57q104 0 188 57t132 160.5t48 236.5t-48 237.5t-132 163 t-188 58.5t-188.5 -58.5t-132.5 -162.5t-48 -238zM217 1196q18 250 172 250q55 0 94 -28.5t87 -84.5q41 -47 69.5 -69.5t67.5 -22.5q53 0 80.5 56.5t31.5 144.5l54 -4q-18 -250 -170 -250q-56 0 -94.5 28.5t-88.5 83.5q-41 47 -69.5 70t-65.5 23q-55 0 -82.5 -55.5 t-31.5 -145.5z" />
<glyph unicode="&#xf6;" horiz-adv-x="1089" d="M111 487q0 158 58 276t157.5 179.5t218.5 61.5t218 -61.5t157.5 -179.5t58.5 -276q0 -156 -58.5 -272.5t-157.5 -178t-218 -61.5t-218.5 61.5t-157.5 178.5t-58 272zM176 487q0 -133 48 -236.5t132 -160.5t189 -57q104 0 188 57t132 160.5t48 236.5t-48 237.5t-132 163 t-188 58.5t-188.5 -58.5t-132.5 -162.5t-48 -238zM303 1298q0 29 18.5 47.5t47.5 18.5q27 0 46 -18.5t19 -47.5q0 -27 -19.5 -46t-45.5 -19q-29 0 -47.5 19.5t-18.5 45.5zM656 1298q0 29 19.5 47.5t45.5 18.5q29 0 47.5 -18.5t18.5 -47.5q0 -27 -18.5 -46t-47.5 -19 q-26 0 -45.5 19.5t-19.5 45.5z" />
<glyph unicode="&#xf7;" d="M70 647v58h827v-58h-827zM418 307q0 31 18.5 50.5t46.5 19.5q29 0 47.5 -19.5t18.5 -50.5q0 -33 -18.5 -53.5t-47.5 -20.5q-28 0 -46.5 20.5t-18.5 53.5zM418 1044q0 31 18.5 50.5t46.5 19.5q29 0 47.5 -19.5t18.5 -50.5q0 -33 -18.5 -53t-47.5 -20q-28 0 -46.5 20.5 t-18.5 52.5z" />
<glyph unicode="&#xf8;" horiz-adv-x="1089" d="M94 -8l123 147q-106 139 -106 348q0 158 58 276t157.5 179.5t218.5 61.5q82 0 156.5 -31t134.5 -90l114 137l45 -37l-121 -145q104 -137 105 -351q0 -156 -58.5 -272.5t-157.5 -178t-218 -61.5q-82 0 -157 31t-132 88l-117 -139zM176 487q0 -176 82 -297l537 644 q-102 113 -250 112q-104 0 -188.5 -58.5t-132.5 -162.5t-48 -238zM295 143q104 -111 250 -110q104 0 188 57t132 160.5t48 236.5q0 174 -82 299z" />
<glyph unicode="&#xf9;" horiz-adv-x="1073" d="M180 348v631h62v-623q0 -166 56 -244.5t181 -78.5q90 0 166 49t170 164v733h62v-979h-54l-8 168h-4q-80 -94 -160 -143.5t-176 -49.5q-151 0 -223 91.5t-72 281.5zM324 1483l49 41l270 -316l-36 -32z" />
<glyph unicode="&#xfa;" horiz-adv-x="1073" d="M180 348v631h62v-623q0 -166 56 -244.5t181 -78.5q90 0 166 49t170 164v733h62v-979h-54l-8 168h-4q-80 -94 -160 -143.5t-176 -49.5q-151 0 -223 91.5t-72 281.5zM431 1208l270 316l49 -41l-283 -307z" />
<glyph unicode="&#xfb;" horiz-adv-x="1073" d="M180 348v631h62v-623q0 -166 56 -244.5t181 -78.5q90 0 166 49t170 164v733h62v-979h-54l-8 168h-4q-80 -94 -160 -143.5t-176 -49.5q-151 0 -223 91.5t-72 281.5zM267 1208l241 299h58l241 -299l-37 -32l-229 266h-8l-229 -266z" />
<glyph unicode="&#xfc;" horiz-adv-x="1073" d="M180 348v631h62v-623q0 -166 56 -244.5t181 -78.5q90 0 166 49t170 164v733h62v-979h-54l-8 168h-4q-80 -94 -160 -143.5t-176 -49.5q-151 0 -223 91.5t-72 281.5zM295 1298q0 29 18.5 47.5t47.5 18.5q27 0 46 -18.5t19 -47.5q0 -27 -19.5 -46t-45.5 -19 q-29 0 -47.5 19.5t-18.5 45.5zM648 1298q0 29 19.5 47.5t45.5 18.5q29 0 47.5 -18.5t18.5 -47.5q0 -27 -18.5 -46t-47.5 -19q-26 0 -45.5 19.5t-19.5 45.5z" />
<glyph unicode="&#xfd;" horiz-adv-x="868" d="M25 979h69l250 -643l29 -72q59 -152 82 -203h8q20 53 34.5 97.5t26.5 77.5q6 18 33 100l221 643h66l-393 -1118q-43 -133 -122 -224.5t-194 -91.5q-53 1 -94 21l16 57q41 -16 82 -16q88 0 153.5 74.5t108.5 203.5l29 90zM353 1208l270 316l49 -41l-283 -307z" />
<glyph unicode="&#xfe;" horiz-adv-x="1105" d="M197 -455v1934h61v-627q92 70 176 111t168 41q195 0 294 -133.5t99 -366.5q0 -160 -58 -281t-157.5 -184.5t-218.5 -63.5q-135 0 -303 123v-553h-61zM258 168q84 -70 164 -102.5t143 -32.5q105 0 188 60.5t130 168t47 242.5q0 201 -80 321.5t-252 120.5q-143 0 -340 -172 v-606z" />
<glyph unicode="&#xff;" horiz-adv-x="868" d="M25 979h69l250 -643l29 -72q59 -152 82 -203h8q20 53 34.5 97.5t26.5 77.5q6 18 33 100l221 643h66l-393 -1118q-43 -133 -122 -224.5t-194 -91.5q-53 1 -94 21l16 57q41 -16 82 -16q88 0 153.5 74.5t108.5 203.5l29 90zM217 1298q0 29 18.5 47.5t47.5 18.5 q27 0 46 -18.5t19 -47.5q0 -27 -19.5 -46t-45.5 -19q-29 0 -47.5 19.5t-18.5 45.5zM570 1298q0 29 19.5 47.5t45.5 18.5q29 0 47.5 -18.5t18.5 -47.5q0 -27 -18.5 -46t-47.5 -19q-26 0 -45.5 19.5t-19.5 45.5z" />
<glyph unicode="&#x152;" horiz-adv-x="1695" d="M115 680q0 311 160.5 491.5t474.5 180.5h831v-58h-618v-544h512v-58h-512v-635h639v-57h-852q-314 0 -474.5 184.5t-160.5 495.5zM184 680q0 -283 143.5 -453t430.5 -170h139v1237h-139q-287 0 -430.5 -166.5t-143.5 -447.5z" />
<glyph unicode="&#x153;" horiz-adv-x="1744" d="M111 487q0 158 58 276t155.5 179.5t212.5 61.5q125 0 231 -80t158 -228q53 143 151.5 225.5t220.5 82.5q172 0 270.5 -118t98.5 -333q0 -41 -4 -66h-705q-2 -129 46.5 -232t133.5 -162.5t189 -59.5q145 0 270 90l29 -53q-76 -45 -140.5 -70t-162.5 -25q-133 0 -238.5 82 t-158.5 222q-55 -150 -155.5 -227t-233.5 -77q-115 0 -212.5 61.5t-155.5 178.5t-58 272zM176 487q0 -133 47 -236.5t129 -160.5t185 -57q104 0 186 57t128 160.5t46 236.5t-46 237.5t-129 163t-185 58.5t-184.5 -58.5t-129.5 -162.5t-47 -238zM958 541h648q0 199 -83 302 t-225 103q-86 0 -159.5 -52t-121.5 -144.5t-59 -208.5z" />
<glyph unicode="&#x178;" horiz-adv-x="892" d="M8 1352h70l217 -439l37 -73q45 -94 110 -217h9l28 51q92 170 123 239l217 439h66l-406 -795v-557h-65v557zM184 1556q0 31 18.5 48.5t46.5 17.5q29 0 47.5 -17.5t18.5 -48.5t-18.5 -48t-47.5 -17q-28 0 -46.5 17.5t-18.5 47.5zM577 1556q0 31 18.5 48.5t47.5 17.5 t47 -17.5t18 -48.5t-18.5 -48t-46.5 -17q-29 0 -47.5 17.5t-18.5 47.5z" />
<glyph unicode="&#x2c6;" horiz-adv-x="1089" d="M275 1208l241 299h58l241 -299l-37 -32l-229 266h-8l-229 -266z" />
<glyph unicode="&#x2dc;" horiz-adv-x="1089" d="M217 1196q18 250 172 250q55 0 94 -28.5t87 -84.5q41 -47 69.5 -69.5t67.5 -22.5q53 0 80.5 56.5t31.5 144.5l54 -4q-18 -250 -170 -250q-56 0 -94.5 28.5t-88.5 83.5q-41 47 -69.5 70t-65.5 23q-55 0 -82.5 -55.5t-31.5 -145.5z" />
<glyph unicode="&#x2000;" horiz-adv-x="889" />
<glyph unicode="&#x2001;" horiz-adv-x="1778" />
<glyph unicode="&#x2002;" horiz-adv-x="889" />
<glyph unicode="&#x2003;" horiz-adv-x="1778" />
<glyph unicode="&#x2004;" horiz-adv-x="592" />
<glyph unicode="&#x2005;" horiz-adv-x="444" />
<glyph unicode="&#x2006;" horiz-adv-x="296" />
<glyph unicode="&#x2007;" horiz-adv-x="296" />
<glyph unicode="&#x2008;" horiz-adv-x="222" />
<glyph unicode="&#x2009;" horiz-adv-x="355" />
<glyph unicode="&#x200a;" horiz-adv-x="98" />
<glyph unicode="&#x2010;" horiz-adv-x="602" d="M82 479v62h442v-62h-442z" />
<glyph unicode="&#x2011;" horiz-adv-x="602" d="M82 479v62h442v-62h-442z" />
<glyph unicode="&#x2012;" horiz-adv-x="602" d="M82 479v62h442v-62h-442z" />
<glyph unicode="&#x2013;" horiz-adv-x="983" d="M82 483v58h819v-58h-819z" />
<glyph unicode="&#x2014;" horiz-adv-x="1638" d="M82 483v58h1474v-58h-1474z" />
<glyph unicode="&#x2018;" horiz-adv-x="425" d="M119 1143q0 190 160 303l32 -37q-69 -59 -100 -114.5t-31 -137.5q4 2 17 2q27 0 48 -17.5t21 -47.5q0 -33 -19.5 -51.5t-49.5 -18.5q-35 0 -56.5 30.5t-21.5 88.5z" />
<glyph unicode="&#x2019;" horiz-adv-x="425" d="M115 1049q70 59 100.5 114.5t30.5 136.5q-4 -2 -17 -2q-27 0 -48 17.5t-21 48.5q0 33 19.5 51.5t49.5 18.5q35 0 56.5 -31t21.5 -88q0 -190 -160 -303z" />
<glyph unicode="&#x201a;" horiz-adv-x="425" d="M115 -221q70 59 100.5 114.5t30.5 136.5q-4 -2 -17 -2q-27 0 -48 17.5t-21 48.5q0 33 19.5 51.5t49.5 18.5q35 0 56.5 -31t21.5 -88q0 -190 -160 -303z" />
<glyph unicode="&#x201c;" horiz-adv-x="688" d="M119 1143q0 190 160 303l32 -37q-69 -59 -100 -114.5t-31 -137.5q4 2 17 2q27 0 48 -17.5t21 -47.5q0 -33 -19.5 -51.5t-49.5 -18.5q-35 0 -56.5 30.5t-21.5 88.5zM381 1143q0 190 160 303l32 -37q-69 -59 -100 -114.5t-31 -137.5q4 2 17 2q27 0 48 -17.5t21 -47.5 q0 -33 -19.5 -51.5t-49.5 -18.5q-35 0 -56.5 30.5t-21.5 88.5z" />
<glyph unicode="&#x201d;" horiz-adv-x="688" d="M115 1049q70 59 100.5 114.5t30.5 136.5q-4 -2 -17 -2q-27 0 -48 17.5t-21 48.5q0 33 19.5 51.5t49.5 18.5q35 0 56.5 -31t21.5 -88q0 -190 -160 -303zM377 1049q70 59 100.5 114.5t30.5 136.5q-4 -2 -17 -2q-27 0 -48 17.5t-21 48.5q0 33 19.5 51.5t49.5 18.5 q35 0 56.5 -31t21.5 -88q0 -190 -160 -303z" />
<glyph unicode="&#x201e;" horiz-adv-x="688" d="M115 -221q70 59 100.5 114.5t30.5 136.5q-4 -2 -17 -2q-27 0 -48 17.5t-21 48.5q0 33 19.5 51.5t49.5 18.5q35 0 56.5 -31t21.5 -88q0 -190 -160 -303zM377 -221q70 59 100.5 114.5t30.5 136.5q-4 -2 -17 -2q-27 0 -48 17.5t-21 48.5q0 33 19.5 51.5t49.5 18.5 q35 0 56.5 -31t21.5 -88q0 -190 -160 -303z" />
<glyph unicode="&#x2022;" horiz-adv-x="557" d="M82 541q0 96 59.5 156.5t137.5 60.5t137 -60.5t59 -156.5t-59.5 -156.5t-136.5 -60.5q-78 0 -137.5 60t-59.5 157z" />
<glyph unicode="&#x2026;" horiz-adv-x="2048" d="M266 53q0 39 22.5 60.5t51.5 21.5q31 0 52.5 -21.5t21.5 -60.5q0 -35 -22.5 -56.5t-51.5 -21.5t-51.5 21.5t-22.5 56.5zM950 53q0 39 22.5 60.5t51.5 21.5q31 0 52.5 -21.5t21.5 -60.5q0 -35 -22.5 -56.5t-51.5 -21.5t-51.5 21.5t-22.5 56.5zM1634 53q0 39 22.5 60.5 t51.5 21.5q31 0 52.5 -21.5t21.5 -60.5q0 -35 -22.5 -56.5t-51.5 -21.5t-51.5 21.5t-22.5 56.5z" />
<glyph unicode="&#x202f;" horiz-adv-x="355" />
<glyph unicode="&#x2039;" horiz-adv-x="520" d="M86 487v58l283 336l41 -37l-254 -328l254 -332l-41 -32z" />
<glyph unicode="&#x203a;" horiz-adv-x="520" d="M111 184l254 332l-254 328l41 37l282 -336v-58l-282 -335z" />
<glyph unicode="&#x205f;" horiz-adv-x="444" />
<glyph unicode="&#x20ac;" d="M49 512v49l129 8q-2 29 -2 90q0 49 2 74h-129v49l133 9q27 254 152 399t321 145q86 0 161 -46t122 -113l-45 -41q-102 143 -238 143q-170 0 -275.5 -129t-127.5 -358h588v-58h-592q-2 -25 -2 -74q0 -61 2 -90h510v-57h-504q25 -223 122 -351t251 -128q86 0 153.5 42 t132.5 130l45 -37q-68 -94 -147.5 -143.5t-187.5 -49.5q-178 0 -294 144.5t-145 392.5h-135z" />
<glyph unicode="&#x2122;" horiz-adv-x="1228" d="M4 1327v57h512v-57h-225v-569h-62v569h-225zM627 758v626h90l110 -266l66 -180h8l66 180l106 266h90v-626h-61v348l8 197h-8l-176 -447h-62l-176 447h-8l8 -197v-348h-61z" />
<glyph unicode="&#x25fc;" horiz-adv-x="983" d="M0 0v983h983v-983h-983z" />
</font>
</defs>
</svg>
