<?xml version="1.0" encoding="utf-8"?>
<!-- Generator: Adobe Illustrator 16.0.0, SVG Export Plug-In . SVG Version: 6.00 Build 0)  -->
<!DOCTYPE svg PUBLIC "-//W3C//DTD SVG 1.1//EN" "http://www.w3.org/Graphics/SVG/1.1/DTD/svg11.dtd" [
	<!ENTITY ns_extend "http://ns.adobe.com/Extensibility/1.0/">
	<!ENTITY ns_ai "http://ns.adobe.com/AdobeIllustrator/10.0/">
	<!ENTITY ns_graphs "http://ns.adobe.com/Graphs/1.0/">
	<!ENTITY ns_vars "http://ns.adobe.com/Variables/1.0/">
	<!ENTITY ns_imrep "http://ns.adobe.com/ImageReplacement/1.0/">
	<!ENTITY ns_sfw "http://ns.adobe.com/SaveForWeb/1.0/">
	<!ENTITY ns_custom "http://ns.adobe.com/GenericCustomNamespace/1.0/">
	<!ENTITY ns_adobe_xpath "http://ns.adobe.com/XPath/1.0/">
]>
<svg version="1.1" xmlns:x="&ns_extend;" xmlns:i="&ns_ai;" xmlns:graph="&ns_graphs;"
	 xmlns="http://www.w3.org/2000/svg" xmlns:xlink="http://www.w3.org/1999/xlink" x="0px" y="0px" width="100px" height="100px"
	 viewBox="0 0 100 100" enable-background="new 0 0 100 100" xml:space="preserve">
<g id="Layer_2">
</g>
<g id="Layer_1">
	
		<rect x="-100.333" display="none" fill-rule="evenodd" clip-rule="evenodd" fill="none" stroke="#102228" stroke-miterlimit="10" width="100" height="100"/>
	<g>
		<g>
			<g>
				
					<path fill-rule="evenodd" clip-rule="evenodd" fill="none" stroke="#F4AEAE" stroke-width="0.521" stroke-miterlimit="22.9256" d="
					M54.719,32.677c-21.526-1.123-45.613,23.99-33.773,31.228c11.84,7.237,44.028,7.872,56.49,0
					C89.898,56.032,76.244,33.8,54.719,32.677z"/>
				<path fill-rule="evenodd" clip-rule="evenodd" fill="#FFD5D6" d="M54.719,32.677c-21.526-1.123-45.613,23.99-33.773,31.228
					c11.84,7.237,44.028,7.872,56.49,0C89.898,56.032,76.244,33.8,54.719,32.677z"/>
			</g>
			<path fill-rule="evenodd" clip-rule="evenodd" fill="#FFADAF" d="M50.269,67.305c14.891,0,27.034-4.097,27.034-9.12
				c0-5.024-12.144-9.12-27.034-9.12c-14.892,0-27.035,4.096-27.035,9.12C23.233,63.208,35.377,67.305,50.269,67.305z"/>
			<path fill-rule="evenodd" clip-rule="evenodd" fill="#FFE3E3" d="M18.272,60.88c3.006-10.042,20.434-23.723,36.446-22.888
				c14.38,0.75,25.248,10.922,27.162,19.938c2.398-9.761-9.83-24.35-27.162-25.254C35.591,31.68,14.442,51.396,18.272,60.88z"/>
			<path fill-rule="evenodd" clip-rule="evenodd" fill="#FFF1F1" d="M61.6,35.078c4.713,1.083,7.942,3.907,7.212,6.31
				c-0.729,2.402-5.143,3.475-9.855,2.393c-4.714-1.082-7.943-3.907-7.214-6.309C52.474,35.069,56.885,33.998,61.6,35.078z"/>
			<path fill-rule="evenodd" clip-rule="evenodd" fill="#FFF1F1" d="M43.523,36.084c3.062-0.537,5.838,0.296,6.198,1.857
				c0.361,1.562-1.828,3.262-4.891,3.796c-3.062,0.534-5.838-0.299-6.199-1.859C38.271,38.316,40.461,36.617,43.523,36.084z"/>
		</g>
		<g>
			<path fill-rule="evenodd" clip-rule="evenodd" stroke="#F4AEAE" stroke-width="0.216" stroke-miterlimit="22.9256" d="
				M56.984,62.068c2.151,0,3.905-1.754,3.905-3.905s-1.754-3.905-3.905-3.905c-2.149,0-3.905,1.754-3.905,3.905
				S54.835,62.068,56.984,62.068z"/>
			<path fill-rule="evenodd" clip-rule="evenodd" fill="#FFFFFF" d="M56.104,58.835c0.96,0,1.744-0.784,1.744-1.745
				c0-0.96-0.784-1.745-1.744-1.745c-0.962,0-1.746,0.785-1.746,1.745C54.358,58.051,55.143,58.835,56.104,58.835z"/>
			<circle fill-rule="evenodd" clip-rule="evenodd" fill="#FFFFFF" cx="58.169" cy="60.229" r="0.752"/>
		</g>
		<g>
			<path fill-rule="evenodd" clip-rule="evenodd" stroke="#F4AEAE" stroke-width="0.216" stroke-miterlimit="22.9256" d="
				M71.849,55.221c1.991,0,3.615-1.624,3.615-3.616c0-1.991-1.624-3.617-3.615-3.617c-1.992,0-3.617,1.626-3.617,3.617
				C68.231,53.597,69.856,55.221,71.849,55.221z"/>
			<path fill-rule="evenodd" clip-rule="evenodd" fill="#FFFFFF" d="M71.031,52.228c0.891,0,1.617-0.726,1.617-1.615
				c0-0.891-0.727-1.617-1.617-1.617c-0.889,0-1.614,0.726-1.614,1.617C69.417,51.502,70.143,52.228,71.031,52.228z"/>
			<circle fill-rule="evenodd" clip-rule="evenodd" fill="#FFFFFF" cx="72.944" cy="53.518" r="0.696"/>
		</g>
		<g>
			<path fill-rule="evenodd" clip-rule="evenodd" fill="#FF6B6D" d="M52.91,66.986c2.302,0,4.177-0.978,4.177-2.177
				s-1.875-2.178-4.177-2.178c-2.301,0-4.178,0.979-4.178,2.178S50.609,66.986,52.91,66.986z"/>
			
				<ellipse transform="matrix(-0.2049 -0.9788 0.9788 -0.2049 -1.0219 127.226)" fill-rule="evenodd" clip-rule="evenodd" fill="#FFFFFF" cx="51.167" cy="64.028" rx="0.703" ry="1.347"/>
		</g>
		<g>
			
				<ellipse transform="matrix(-0.6612 -0.7502 0.7502 -0.6612 87.944 147.3597)" fill-rule="evenodd" clip-rule="evenodd" fill="#FF6B6D" cx="77.245" cy="53.823" rx="1.391" ry="2.67"/>
			
				<ellipse transform="matrix(-0.8012 -0.5984 0.5984 -0.8012 104.6053 143.1224)" fill-rule="evenodd" clip-rule="evenodd" fill="#FFFFFF" cx="76.079" cy="54.184" rx="0.449" ry="0.861"/>
		</g>
	</g>
	
		<rect display="none" fill-rule="evenodd" clip-rule="evenodd" fill="none" stroke="#102228" stroke-miterlimit="10" width="100" height="100"/>
	<line display="none" fill="none" stroke="#102228" stroke-miterlimit="10" x1="-301" y1="66.415" x2="100" y2="66.415"/>
</g>
</svg>
