<?xml version="1.0" encoding="utf-8"?>
<!-- Generator: Adobe Illustrator 16.0.0, SVG Export Plug-In . SVG Version: 6.00 Build 0)  -->
<!DOCTYPE svg PUBLIC "-//W3C//DTD SVG 1.1//EN" "http://www.w3.org/Graphics/SVG/1.1/DTD/svg11.dtd" [
	<!ENTITY ns_extend "http://ns.adobe.com/Extensibility/1.0/">
	<!ENTITY ns_ai "http://ns.adobe.com/AdobeIllustrator/10.0/">
	<!ENTITY ns_graphs "http://ns.adobe.com/Graphs/1.0/">
	<!ENTITY ns_vars "http://ns.adobe.com/Variables/1.0/">
	<!ENTITY ns_imrep "http://ns.adobe.com/ImageReplacement/1.0/">
	<!ENTITY ns_sfw "http://ns.adobe.com/SaveForWeb/1.0/">
	<!ENTITY ns_custom "http://ns.adobe.com/GenericCustomNamespace/1.0/">
	<!ENTITY ns_adobe_xpath "http://ns.adobe.com/XPath/1.0/">
]>
<svg version="1.1" xmlns:x="&ns_extend;" xmlns:i="&ns_ai;" xmlns:graph="&ns_graphs;"
	 xmlns="http://www.w3.org/2000/svg" xmlns:xlink="http://www.w3.org/1999/xlink" x="0px" y="0px" width="100px" height="100px"
	 viewBox="0 0 100 100" enable-background="new 0 0 100 100" xml:space="preserve">
<g id="Layer_2">
</g>
<g id="Layer_1">
	
		<rect x="-100.333" display="none" fill-rule="evenodd" clip-rule="evenodd" fill="none" stroke="#102228" stroke-miterlimit="10" width="100" height="100"/>
	<g>
		<g>
			<g>
				
					<path fill-rule="evenodd" clip-rule="evenodd" fill="none" stroke="#F4AEAE" stroke-width="0.5666" stroke-miterlimit="22.9256" d="
					M55.131,35.109c-23.408-1.05-49.601,22.409-36.724,29.169c12.875,6.762,47.876,7.354,61.427,0
					C93.387,56.924,78.54,36.158,55.131,35.109z"/>
				<path fill-rule="evenodd" clip-rule="evenodd" fill="#FFD5D6" d="M55.131,35.109c-23.408-1.05-49.601,22.409-36.724,29.169
					c12.875,6.762,47.876,7.354,61.427,0C93.387,56.924,78.54,36.158,55.131,35.109z"/>
			</g>
			<path fill-rule="evenodd" clip-rule="evenodd" fill="#FFADAF" d="M50.294,67.455c16.192,0,29.398-3.828,29.398-8.52
				c0-4.692-13.206-8.521-29.398-8.521c-16.193,0-29.399,3.828-29.399,8.521C20.895,63.626,34.101,67.455,50.294,67.455z"/>
			<path fill-rule="evenodd" clip-rule="evenodd" fill="#FFE3E3" d="M15.5,61.453c3.269-9.381,22.221-22.159,39.632-21.379
				c15.637,0.7,27.455,10.202,29.537,18.624c2.609-9.116-10.689-22.744-29.537-23.589C34.331,34.177,11.335,52.593,15.5,61.453z"/>
			<path fill-rule="evenodd" clip-rule="evenodd" fill="#FFF1F1" d="M62.613,37.352c5.127,1.01,8.638,3.648,7.844,5.893
				c-0.794,2.245-5.591,3.247-10.717,2.236c-5.127-1.01-8.638-3.648-7.844-5.895C52.689,37.343,57.487,36.343,62.613,37.352z"/>
			<path fill-rule="evenodd" clip-rule="evenodd" fill="#FFF1F1" d="M42.959,38.291c3.331-0.499,6.348,0.277,6.739,1.736
				c0.394,1.459-1.988,3.045-5.319,3.544c-3.331,0.5-6.348-0.277-6.741-1.735C37.247,40.376,39.627,38.79,42.959,38.291z"/>
		</g>
		<g>
			<path fill-rule="evenodd" clip-rule="evenodd" stroke="#F4AEAE" stroke-width="0.216" stroke-miterlimit="22.9256" d="
				M56.985,62.069c2.151,0,3.905-1.754,3.905-3.905s-1.754-3.905-3.905-3.905s-3.905,1.754-3.905,3.905S54.834,62.069,56.985,62.069
				z"/>
			<path fill-rule="evenodd" clip-rule="evenodd" fill="#FFFFFF" d="M56.104,58.835c0.961,0,1.746-0.784,1.746-1.744
				s-0.784-1.745-1.746-1.745c-0.96,0-1.745,0.785-1.745,1.745S55.144,58.835,56.104,58.835z"/>
			<circle fill-rule="evenodd" clip-rule="evenodd" fill="#FFFFFF" cx="58.17" cy="60.229" r="0.752"/>
		</g>
		<g>
			<path fill-rule="evenodd" clip-rule="evenodd" stroke="#F4AEAE" stroke-width="0.216" stroke-miterlimit="22.9256" d="
				M71.849,55.221c1.991,0,3.616-1.624,3.616-3.616c0-1.991-1.625-3.617-3.616-3.617c-1.993,0-3.617,1.626-3.617,3.617
				C68.232,53.597,69.856,55.221,71.849,55.221z"/>
			<path fill-rule="evenodd" clip-rule="evenodd" fill="#FFFFFF" d="M71.033,52.228c0.89,0,1.617-0.726,1.617-1.615
				c0-0.891-0.727-1.616-1.617-1.616s-1.615,0.726-1.615,1.616C69.418,51.502,70.143,52.228,71.033,52.228z"/>
			<circle fill-rule="evenodd" clip-rule="evenodd" fill="#FFFFFF" cx="72.946" cy="53.518" r="0.696"/>
		</g>
		<g>
			<path fill-rule="evenodd" clip-rule="evenodd" fill="#FF6B6D" d="M52.911,66.987c2.302,0,4.177-0.978,4.177-2.177
				s-1.875-2.179-4.177-2.179c-2.301,0-4.177,0.979-4.177,2.179S50.61,66.987,52.911,66.987z"/>
			
				<ellipse transform="matrix(-0.2049 -0.9788 0.9788 -0.2049 -1.0183 127.2295)" fill-rule="evenodd" clip-rule="evenodd" fill="#FFFFFF" cx="51.166" cy="64.028" rx="0.703" ry="1.349"/>
		</g>
		<g>
			
				<ellipse transform="matrix(-0.661 -0.7504 0.7504 -0.661 87.9227 147.3636)" fill-rule="evenodd" clip-rule="evenodd" fill="#FF6B6D" cx="77.246" cy="53.823" rx="1.391" ry="2.67"/>
			
				<ellipse transform="matrix(-0.8016 -0.5978 0.5978 -0.8016 104.675 143.1019)" fill-rule="evenodd" clip-rule="evenodd" fill="#FFFFFF" cx="76.08" cy="54.184" rx="0.449" ry="0.861"/>
		</g>
	</g>
	
		<rect display="none" fill-rule="evenodd" clip-rule="evenodd" fill="none" stroke="#102228" stroke-miterlimit="10" width="100" height="100"/>
	
		<rect x="100.333" display="none" fill-rule="evenodd" clip-rule="evenodd" fill="none" stroke="#102228" stroke-miterlimit="10" width="100" height="100"/>
	<line display="none" fill="none" stroke="#102228" stroke-miterlimit="10" x1="-200.667" y1="66.415" x2="200.333" y2="66.415"/>
</g>
</svg>
