<?xml version="1.0" encoding="utf-8"?>
<!-- Generator: Adobe Illustrator 16.0.0, SVG Export Plug-In . SVG Version: 6.00 Build 0)  -->
<!DOCTYPE svg PUBLIC "-//W3C//DTD SVG 1.1//EN" "http://www.w3.org/Graphics/SVG/1.1/DTD/svg11.dtd" [
	<!ENTITY ns_extend "http://ns.adobe.com/Extensibility/1.0/">
	<!ENTITY ns_ai "http://ns.adobe.com/AdobeIllustrator/10.0/">
	<!ENTITY ns_graphs "http://ns.adobe.com/Graphs/1.0/">
	<!ENTITY ns_vars "http://ns.adobe.com/Variables/1.0/">
	<!ENTITY ns_imrep "http://ns.adobe.com/ImageReplacement/1.0/">
	<!ENTITY ns_sfw "http://ns.adobe.com/SaveForWeb/1.0/">
	<!ENTITY ns_custom "http://ns.adobe.com/GenericCustomNamespace/1.0/">
	<!ENTITY ns_adobe_xpath "http://ns.adobe.com/XPath/1.0/">
]>
<svg version="1.1" xmlns:x="&ns_extend;" xmlns:i="&ns_ai;" xmlns:graph="&ns_graphs;"
	 xmlns="http://www.w3.org/2000/svg" xmlns:xlink="http://www.w3.org/1999/xlink" x="0px" y="0px" width="100px" height="100px"
	 viewBox="0 0 100 100" enable-background="new 0 0 100 100" xml:space="preserve">
<g id="Layer_2">
</g>
<g id="Layer_1">
	
		<rect x="-100.333" display="none" fill-rule="evenodd" clip-rule="evenodd" fill="none" stroke="#102228" stroke-miterlimit="10" width="100" height="100"/>
	<g>
		<g>
			<g>
				
					<path fill-rule="evenodd" clip-rule="evenodd" fill="none" stroke="#F4AEAE" stroke-width="0.5445" stroke-miterlimit="22.9256" d="
					M51.017,29.099C28.52,27.982,10.823,56.636,23.198,63.84c12.375,7.205,39.7,7.971,52.725,0.134
					C88.947,56.136,73.514,30.217,51.017,29.099z"/>
				<path fill-rule="evenodd" clip-rule="evenodd" fill="#FFD5D6" d="M51.017,29.099C28.52,27.982,10.823,56.636,23.198,63.84
					c12.375,7.205,39.7,7.971,52.725,0.134C88.947,56.136,73.514,30.217,51.017,29.099z"/>
			</g>
			<path fill-rule="evenodd" clip-rule="evenodd" fill="#FFADAF" d="M47.528,49.201c15.605,0,28.256,4.064,28.256,9.078
				c0,5.015-12.651,9.079-28.256,9.079c-15.604,0-21.94-4.197-21.94-9.211S31.924,49.201,47.528,49.201z"/>
			<path fill-rule="evenodd" clip-rule="evenodd" fill="#FFE3E3" d="M20.404,60.831c3.143-9.997,15.895-23.44,31.776-22.652
				c15.882,0.79,26.388,10.873,28.389,19.849c2.507-9.716-10.499-27.98-29.552-28.928C31.965,28.154,14.149,50.307,20.404,60.831z"
				/>
			<path fill-rule="evenodd" clip-rule="evenodd" fill="#FFF1F1" d="M60.169,32.094c4.927,1.074,8.301,3.886,7.539,6.279
				c-0.763,2.393-5.374,3.458-10.301,2.382c-4.926-1.076-8.302-3.89-7.538-6.28C50.631,32.083,55.242,31.016,60.169,32.094z"/>
			<path fill-rule="evenodd" clip-rule="evenodd" fill="#FFF1F1" d="M41.827,31.785c3.201-0.534,6.102,0.296,6.478,1.85
				c0.377,1.554-1.91,3.245-5.112,3.778c-3.201,0.531-6.101-0.297-6.478-1.852C36.337,34.008,38.626,32.315,41.827,31.785z"/>
		</g>
		<g>
			<path fill-rule="evenodd" clip-rule="evenodd" stroke="#F4AEAE" stroke-width="0.216" stroke-miterlimit="22.9256" d="
				M36.124,59.927c2.151,0,3.905-1.753,3.905-3.904s-1.754-3.906-3.905-3.906c-2.15,0-3.906,1.755-3.906,3.906
				S33.974,59.927,36.124,59.927z"/>
			<path fill-rule="evenodd" clip-rule="evenodd" fill="#FFFFFF" d="M35.244,56.695c0.96,0,1.745-0.784,1.745-1.744
				c0-0.962-0.785-1.746-1.745-1.746c-0.962,0-1.746,0.784-1.746,1.746C33.498,55.911,34.282,56.695,35.244,56.695z"/>
			<circle fill-rule="evenodd" clip-rule="evenodd" fill="#FFFFFF" cx="37.308" cy="58.089" r="0.751"/>
		</g>
		<g>
			<path fill-rule="evenodd" clip-rule="evenodd" fill="#FF6B6D" d="M32.05,64.846c2.301,0,4.177-0.979,4.177-2.177
				c0-1.2-1.876-2.178-4.177-2.178c-2.302,0-4.179,0.978-4.179,2.178C27.872,63.867,29.749,64.846,32.05,64.846z"/>
			
				<ellipse transform="matrix(-0.2051 -0.9787 0.9787 -0.2051 -24.0517 104.2397)" fill-rule="evenodd" clip-rule="evenodd" fill="#FFFFFF" cx="30.306" cy="61.887" rx="0.702" ry="1.348"/>
		</g>
		<g>
			<path fill-rule="evenodd" clip-rule="evenodd" stroke="#F4AEAE" stroke-width="0.216" stroke-miterlimit="22.9256" d="
				M65.062,59.927c2.151,0,3.905-1.753,3.905-3.904s-1.754-3.906-3.905-3.906s-3.905,1.755-3.905,3.906S62.91,59.927,65.062,59.927z
				"/>
			<path fill-rule="evenodd" clip-rule="evenodd" fill="#FFFFFF" d="M64.18,56.695c0.961,0,1.746-0.784,1.746-1.744
				c0-0.962-0.784-1.746-1.746-1.746c-0.96,0-1.745,0.784-1.745,1.746C62.436,55.911,63.22,56.695,64.18,56.695z"/>
			<circle fill-rule="evenodd" clip-rule="evenodd" fill="#FFFFFF" cx="66.246" cy="58.089" r="0.751"/>
		</g>
		<g>
			<path fill-rule="evenodd" clip-rule="evenodd" fill="#FF6B6D" d="M68.472,64.846c2.301,0,4.178-0.979,4.178-2.177
				c0-1.2-1.876-2.178-4.178-2.178c-2.302,0-4.178,0.978-4.178,2.178C64.293,63.867,66.17,64.846,68.472,64.846z"/>
			
				<ellipse transform="matrix(-0.2051 -0.9787 0.9787 -0.2051 19.839 139.8875)" fill-rule="evenodd" clip-rule="evenodd" fill="#FFFFFF" cx="66.728" cy="61.887" rx="0.702" ry="1.349"/>
		</g>
	</g>
	
		<rect display="none" fill-rule="evenodd" clip-rule="evenodd" fill="none" stroke="#102228" stroke-miterlimit="10" width="100" height="100"/>
	
		<rect x="100.333" display="none" fill-rule="evenodd" clip-rule="evenodd" fill="none" stroke="#102228" stroke-miterlimit="10" width="100" height="100"/>
	<line display="none" fill="none" stroke="#102228" stroke-miterlimit="10" x1="-100.333" y1="66.415" x2="300.667" y2="66.415"/>
</g>
</svg>
