<?xml version="1.0" encoding="utf-8"?>
<!-- Generator: Adobe Illustrator 16.0.0, SVG Export Plug-In . SVG Version: 6.00 Build 0)  -->
<!DOCTYPE svg PUBLIC "-//W3C//DTD SVG 1.1//EN" "http://www.w3.org/Graphics/SVG/1.1/DTD/svg11.dtd" [
	<!ENTITY ns_extend "http://ns.adobe.com/Extensibility/1.0/">
	<!ENTITY ns_ai "http://ns.adobe.com/AdobeIllustrator/10.0/">
	<!ENTITY ns_graphs "http://ns.adobe.com/Graphs/1.0/">
	<!ENTITY ns_vars "http://ns.adobe.com/Variables/1.0/">
	<!ENTITY ns_imrep "http://ns.adobe.com/ImageReplacement/1.0/">
	<!ENTITY ns_sfw "http://ns.adobe.com/SaveForWeb/1.0/">
	<!ENTITY ns_custom "http://ns.adobe.com/GenericCustomNamespace/1.0/">
	<!ENTITY ns_adobe_xpath "http://ns.adobe.com/XPath/1.0/">
]>
<svg version="1.1" xmlns:x="&ns_extend;" xmlns:i="&ns_ai;" xmlns:graph="&ns_graphs;"
	 xmlns="http://www.w3.org/2000/svg" xmlns:xlink="http://www.w3.org/1999/xlink" x="0px" y="0px" width="100px" height="100px"
	 viewBox="0 0 100 100" enable-background="new 0 0 100 100" xml:space="preserve">
<g id="Layer_2">
</g>
<g id="Layer_1">
	
		<rect x="-100.333" display="none" fill-rule="evenodd" clip-rule="evenodd" fill="none" stroke="#102228" stroke-miterlimit="10" width="100" height="100"/>
	<g>
		<g>
			<g>
				
					<path fill-rule="evenodd" clip-rule="evenodd" fill="none" stroke="#F4AEAE" stroke-width="0.521" stroke-miterlimit="22.9256" d="
					M54.718,32.677c-21.525-1.123-45.613,23.99-33.772,31.228c11.84,7.237,44.028,7.872,56.491,0
					C89.898,56.032,76.245,33.8,54.718,32.677z"/>
				<path fill-rule="evenodd" clip-rule="evenodd" fill="#FFD5D6" d="M54.718,32.677c-21.525-1.123-45.613,23.99-33.772,31.228
					c11.84,7.237,44.028,7.872,56.491,0C89.898,56.032,76.245,33.8,54.718,32.677z"/>
			</g>
			<path fill-rule="evenodd" clip-rule="evenodd" fill="#FFADAF" d="M50.269,67.305c14.89,0,27.035-4.097,27.035-9.12
				c0-5.024-12.145-9.12-27.035-9.12c-14.891,0-27.036,4.096-27.036,9.12C23.233,63.208,35.378,67.305,50.269,67.305z"/>
			<path fill-rule="evenodd" clip-rule="evenodd" fill="#FFE3E3" d="M18.272,60.88c3.007-10.042,20.434-23.723,36.446-22.888
				c14.381,0.75,25.249,10.922,27.163,19.938c2.398-9.761-9.829-24.35-27.163-25.254C35.591,31.68,14.442,51.396,18.272,60.88z"/>
			<path fill-rule="evenodd" clip-rule="evenodd" fill="#FFF1F1" d="M61.6,35.078c4.714,1.083,7.943,3.907,7.213,6.31
				c-0.731,2.402-5.143,3.475-9.856,2.393c-4.714-1.082-7.943-3.907-7.213-6.309C52.474,35.069,56.886,33.998,61.6,35.078z"/>
			<path fill-rule="evenodd" clip-rule="evenodd" fill="#FFF1F1" d="M43.524,36.084c3.062-0.537,5.838,0.296,6.2,1.857
				c0.36,1.562-1.83,3.262-4.893,3.796c-3.062,0.534-5.838-0.299-6.198-1.859C38.271,38.316,40.462,36.617,43.524,36.084z"/>
		</g>
		<g>
			<path fill-rule="evenodd" clip-rule="evenodd" stroke="#F4AEAE" stroke-width="0.216" stroke-miterlimit="22.9256" d="
				M56.984,62.068c2.152,0,3.906-1.754,3.906-3.905s-1.754-3.905-3.906-3.905c-2.15,0-3.905,1.754-3.905,3.905
				S54.834,62.068,56.984,62.068z"/>
			<path fill-rule="evenodd" clip-rule="evenodd" fill="#FFFFFF" d="M56.104,58.835c0.96,0,1.745-0.784,1.745-1.745
				c0-0.96-0.785-1.745-1.745-1.745c-0.961,0-1.746,0.785-1.746,1.745C54.358,58.051,55.143,58.835,56.104,58.835z"/>
			<circle fill-rule="evenodd" clip-rule="evenodd" fill="#FFFFFF" cx="58.169" cy="60.229" r="0.752"/>
		</g>
		<g>
			<path fill-rule="evenodd" clip-rule="evenodd" stroke="#F4AEAE" stroke-width="0.216" stroke-miterlimit="22.9256" d="
				M71.848,55.221c1.991,0,3.616-1.624,3.616-3.616c0-1.991-1.625-3.617-3.616-3.617s-3.617,1.626-3.617,3.617
				C68.231,53.597,69.857,55.221,71.848,55.221z"/>
			<path fill-rule="evenodd" clip-rule="evenodd" fill="#FFFFFF" d="M71.034,52.228c0.889,0,1.615-0.726,1.615-1.615
				c0-0.891-0.726-1.617-1.615-1.617c-0.891,0-1.617,0.726-1.617,1.617C69.417,51.502,70.143,52.228,71.034,52.228z"/>
			<circle fill-rule="evenodd" clip-rule="evenodd" fill="#FFFFFF" cx="72.945" cy="53.518" r="0.696"/>
		</g>
		<g>
			<path fill-rule="evenodd" clip-rule="evenodd" fill="#FF6B6D" d="M52.911,66.986c2.301,0,4.178-0.978,4.178-2.177
				s-1.877-2.178-4.178-2.178c-2.302,0-4.179,0.979-4.179,2.178S50.609,66.986,52.911,66.986z"/>
			
				<ellipse transform="matrix(-0.2049 -0.9788 0.9788 -0.2049 -1.0219 127.226)" fill-rule="evenodd" clip-rule="evenodd" fill="#FFFFFF" cx="51.167" cy="64.028" rx="0.703" ry="1.349"/>
		</g>
		<g>
			
				<ellipse transform="matrix(-0.6611 -0.7503 0.7503 -0.6611 87.9321 147.3613)" fill-rule="evenodd" clip-rule="evenodd" fill="#FF6B6D" cx="77.245" cy="53.823" rx="1.391" ry="2.67"/>
			
				<ellipse transform="matrix(-0.801 -0.5987 0.5987 -0.801 104.5785 143.1324)" fill-rule="evenodd" clip-rule="evenodd" fill="#FFFFFF" cx="76.08" cy="54.184" rx="0.449" ry="0.86"/>
		</g>
	</g>
	
		<rect display="none" fill-rule="evenodd" clip-rule="evenodd" fill="none" stroke="#102228" stroke-miterlimit="10" width="100" height="100"/>
	
		<rect x="100.333" display="none" fill-rule="evenodd" clip-rule="evenodd" fill="none" stroke="#102228" stroke-miterlimit="10" width="100" height="100"/>
	<line display="none" fill="none" stroke="#102228" stroke-miterlimit="10" x1="-100.333" y1="66.415" x2="300.667" y2="66.415"/>
</g>
</svg>
