<?xml version="1.0" encoding="utf-8"?>
<!-- Generator: Adobe Illustrator 16.0.0, SVG Export Plug-In . SVG Version: 6.00 Build 0)  -->
<!DOCTYPE svg PUBLIC "-//W3C//DTD SVG 1.1//EN" "http://www.w3.org/Graphics/SVG/1.1/DTD/svg11.dtd" [
	<!ENTITY ns_extend "http://ns.adobe.com/Extensibility/1.0/">
	<!ENTITY ns_ai "http://ns.adobe.com/AdobeIllustrator/10.0/">
	<!ENTITY ns_graphs "http://ns.adobe.com/Graphs/1.0/">
	<!ENTITY ns_vars "http://ns.adobe.com/Variables/1.0/">
	<!ENTITY ns_imrep "http://ns.adobe.com/ImageReplacement/1.0/">
	<!ENTITY ns_sfw "http://ns.adobe.com/SaveForWeb/1.0/">
	<!ENTITY ns_custom "http://ns.adobe.com/GenericCustomNamespace/1.0/">
	<!ENTITY ns_adobe_xpath "http://ns.adobe.com/XPath/1.0/">
]>
<svg version="1.1" xmlns:x="&ns_extend;" xmlns:i="&ns_ai;" xmlns:graph="&ns_graphs;"
	 xmlns="http://www.w3.org/2000/svg" xmlns:xlink="http://www.w3.org/1999/xlink" x="0px" y="0px" width="100px" height="100px"
	 viewBox="0 0 100 100" enable-background="new 0 0 100 100" xml:space="preserve">
<g id="Layer_2">
</g>
<g id="Layer_1">
	
		<rect x="-100.333" display="none" fill-rule="evenodd" clip-rule="evenodd" fill="none" stroke="#102228" stroke-miterlimit="10" width="100" height="100"/>
	<g>
		<g>
			<g>
				
					<path fill-rule="evenodd" clip-rule="evenodd" fill="none" stroke="#F4AEAE" stroke-width="0.5919" stroke-miterlimit="22.9256" d="
					M51.105,31.664C26.65,30.617,7.412,57.457,20.865,64.204c13.451,6.748,43.156,7.464,57.315,0.123
					C92.338,56.988,75.562,32.71,51.105,31.664z"/>
				<path fill-rule="evenodd" clip-rule="evenodd" fill="#FFD5D6" d="M51.105,31.664C26.65,30.617,7.412,57.457,20.865,64.204
					c13.451,6.748,43.156,7.464,57.315,0.123C92.338,56.988,75.562,32.71,51.105,31.664z"/>
			</g>
			<path fill-rule="evenodd" clip-rule="evenodd" fill="#FFADAF" d="M47.313,50.49c16.963,0,30.716,3.808,30.716,8.504
				s-13.752,8.503-30.716,8.503c-16.963,0-23.851-3.93-23.851-8.627C23.463,54.174,30.351,50.49,47.313,50.49z"/>
			<path fill-rule="evenodd" clip-rule="evenodd" fill="#FFE3E3" d="M17.828,61.383c3.415-9.363,17.279-21.956,34.542-21.217
				c17.264,0.739,28.686,10.184,30.859,18.59c2.727-9.099-11.412-26.207-32.124-27.093C30.395,30.775,11.029,51.528,17.828,61.383z"
				/>
			<path fill-rule="evenodd" clip-rule="evenodd" fill="#FFF1F1" d="M61.056,34.465c5.355,1.009,9.024,3.643,8.195,5.883
				c-0.829,2.24-5.842,3.239-11.197,2.232c-5.356-1.009-9.026-3.643-8.195-5.884C50.688,34.457,55.699,33.458,61.056,34.465z"/>
			<path fill-rule="evenodd" clip-rule="evenodd" fill="#FFF1F1" d="M41.117,34.176c3.479-0.497,6.632,0.277,7.041,1.734
				c0.411,1.455-2.077,3.039-5.557,3.538c-3.479,0.499-6.633-0.277-7.042-1.734C35.148,36.26,37.637,34.675,41.117,34.176z"/>
		</g>
		<g>
			<path fill-rule="evenodd" clip-rule="evenodd" stroke="#F4AEAE" stroke-width="0.216" stroke-miterlimit="22.9256" d="
				M36.125,59.927c2.151,0,3.905-1.752,3.905-3.903s-1.754-3.906-3.905-3.906c-2.15,0-3.905,1.755-3.905,3.906
				S33.975,59.927,36.125,59.927z"/>
			<path fill-rule="evenodd" clip-rule="evenodd" fill="#FFFFFF" d="M35.244,56.696c0.96,0,1.745-0.784,1.745-1.744
				c0-0.962-0.784-1.746-1.745-1.746c-0.961,0-1.746,0.784-1.746,1.746C33.499,55.912,34.283,56.696,35.244,56.696z"/>
			<circle fill-rule="evenodd" clip-rule="evenodd" fill="#FFFFFF" cx="37.309" cy="58.089" r="0.752"/>
		</g>
		<g>
			<path fill-rule="evenodd" clip-rule="evenodd" fill="#FF6B6D" d="M32.051,64.847c2.301,0,4.177-0.979,4.177-2.178
				c0-1.199-1.876-2.178-4.177-2.178c-2.302,0-4.179,0.979-4.179,2.178C27.873,63.868,29.749,64.847,32.051,64.847z"/>
			
				<ellipse transform="matrix(-0.2041 -0.979 0.979 -0.2041 -24.0956 104.1856)" fill-rule="evenodd" clip-rule="evenodd" fill="#FFFFFF" cx="30.306" cy="61.888" rx="0.702" ry="1.348"/>
		</g>
		<g>
			<path fill-rule="evenodd" clip-rule="evenodd" stroke="#F4AEAE" stroke-width="0.216" stroke-miterlimit="22.9256" d="
				M65.062,59.927c2.151,0,3.905-1.752,3.905-3.903s-1.754-3.906-3.905-3.906c-2.151,0-3.905,1.755-3.905,3.906
				S62.911,59.927,65.062,59.927z"/>
			<path fill-rule="evenodd" clip-rule="evenodd" fill="#FFFFFF" d="M64.181,56.696c0.961,0,1.745-0.784,1.745-1.744
				c0-0.962-0.783-1.746-1.745-1.746c-0.96,0-1.745,0.784-1.745,1.746C62.436,55.912,63.22,56.696,64.181,56.696z"/>
			<circle fill-rule="evenodd" clip-rule="evenodd" fill="#FFFFFF" cx="66.247" cy="58.089" r="0.752"/>
		</g>
		<g>
			<path fill-rule="evenodd" clip-rule="evenodd" fill="#FF6B6D" d="M68.473,64.847c2.301,0,4.178-0.979,4.178-2.178
				c0-1.199-1.877-2.178-4.178-2.178c-2.302,0-4.179,0.979-4.179,2.178C64.294,63.868,66.17,64.847,68.473,64.847z"/>
			
				<ellipse transform="matrix(-0.2051 -0.9787 0.9787 -0.2051 19.8386 139.8892)" fill-rule="evenodd" clip-rule="evenodd" fill="#FFFFFF" cx="66.728" cy="61.888" rx="0.702" ry="1.35"/>
		</g>
	</g>
	
		<rect display="none" fill-rule="evenodd" clip-rule="evenodd" fill="none" stroke="#102228" stroke-miterlimit="10" width="100" height="100"/>
	
		<rect x="100.333" display="none" fill-rule="evenodd" clip-rule="evenodd" fill="none" stroke="#102228" stroke-miterlimit="10" width="100" height="100"/>
	<line display="none" fill="none" stroke="#102228" stroke-miterlimit="10" x1="-200.667" y1="66.415" x2="200.333" y2="66.415"/>
</g>
</svg>
