<?xml version="1.0" encoding="utf-8"?>
<!-- Generator: Adobe Illustrator 16.0.0, SVG Export Plug-In . SVG Version: 6.00 Build 0)  -->
<!DOCTYPE svg PUBLIC "-//W3C//DTD SVG 1.1//EN" "http://www.w3.org/Graphics/SVG/1.1/DTD/svg11.dtd" [
	<!ENTITY ns_extend "http://ns.adobe.com/Extensibility/1.0/">
	<!ENTITY ns_ai "http://ns.adobe.com/AdobeIllustrator/10.0/">
	<!ENTITY ns_graphs "http://ns.adobe.com/Graphs/1.0/">
	<!ENTITY ns_vars "http://ns.adobe.com/Variables/1.0/">
	<!ENTITY ns_imrep "http://ns.adobe.com/ImageReplacement/1.0/">
	<!ENTITY ns_sfw "http://ns.adobe.com/SaveForWeb/1.0/">
	<!ENTITY ns_custom "http://ns.adobe.com/GenericCustomNamespace/1.0/">
	<!ENTITY ns_adobe_xpath "http://ns.adobe.com/XPath/1.0/">
]>
<svg version="1.1" xmlns:x="&ns_extend;" xmlns:i="&ns_ai;" xmlns:graph="&ns_graphs;"
	 xmlns="http://www.w3.org/2000/svg" xmlns:xlink="http://www.w3.org/1999/xlink" x="0px" y="0px" width="400.667px" height="100px"
	 viewBox="0 0 400.667 100" enable-background="new 0 0 400.667 100" xml:space="preserve">
<g id="Layer_2">
</g>
<g id="Layer_1">
	<g>
		<g>
			<g>
				
					<path fill-rule="evenodd" clip-rule="evenodd" fill="none" stroke="#F4AEAE" stroke-width="0.4799" stroke-miterlimit="22.9256" d="
					M54.347,30.465c-19.83-1.189-42.019,25.429-31.111,33.101c10.906,7.671,40.558,8.344,52.038,0S74.176,31.656,54.347,30.465z"/>
				<path fill-rule="evenodd" clip-rule="evenodd" fill="#FFD5D6" d="M54.347,30.465c-19.83-1.189-42.019,25.429-31.111,33.101
					c10.906,7.671,40.558,8.344,52.038,0S74.176,31.656,54.347,30.465z"/>
			</g>
			<path fill-rule="evenodd" clip-rule="evenodd" fill="#FFADAF" d="M50.248,67.169c13.717,0,24.905-4.343,24.905-9.667
				c0-5.326-11.188-9.667-24.905-9.667s-24.906,4.341-24.906,9.667C25.342,62.827,36.531,67.169,50.248,67.169z"/>
			<path fill-rule="evenodd" clip-rule="evenodd" fill="#FFE3E3" d="M20.774,60.359c2.769-10.645,18.822-25.145,33.573-24.26
				c13.247,0.796,23.258,11.577,25.021,21.134c2.209-10.345-9.054-25.809-25.021-26.768C36.726,29.407,17.245,50.306,20.774,60.359z
				"/>
			
				<ellipse transform="matrix(0.2552 -0.9669 0.9669 0.2552 7.9157 85.5213)" fill-rule="evenodd" clip-rule="evenodd" fill="#FFF1F1" cx="59.468" cy="37.623" rx="4.769" ry="8.13"/>
			
				<ellipse transform="matrix(-0.1968 -0.9805 0.9805 -0.1968 17.0719 88.1302)" fill-rule="evenodd" clip-rule="evenodd" fill="#FFF1F1" cx="44.636" cy="37.072" rx="3.056" ry="5.209"/>
		</g>
		<g>
			<path fill-rule="evenodd" clip-rule="evenodd" stroke="#F4AEAE" stroke-width="0.216" stroke-miterlimit="22.9256" d="
				M56.984,62.069c2.151,0,3.906-1.754,3.906-3.905s-1.754-3.905-3.906-3.905s-3.905,1.754-3.905,3.905S54.833,62.069,56.984,62.069
				z"/>
			<path fill-rule="evenodd" clip-rule="evenodd" fill="#FFFFFF" d="M56.103,58.836c0.961,0,1.745-0.784,1.745-1.745
				c0-0.96-0.783-1.745-1.745-1.745c-0.96,0-1.745,0.785-1.745,1.745C54.358,58.052,55.143,58.836,56.103,58.836z"/>
			<circle fill-rule="evenodd" clip-rule="evenodd" fill="#FFFFFF" cx="58.169" cy="60.229" r="0.752"/>
		</g>
		<g>
			<path fill-rule="evenodd" clip-rule="evenodd" stroke="#F4AEAE" stroke-width="0.216" stroke-miterlimit="22.9256" d="
				M71.847,55.221c1.993,0,3.616-1.624,3.616-3.616c0-1.991-1.623-3.617-3.616-3.617c-1.992,0-3.616,1.626-3.616,3.617
				C68.231,53.598,69.855,55.221,71.847,55.221z"/>
			<path fill-rule="evenodd" clip-rule="evenodd" fill="#FFFFFF" d="M71.032,52.229c0.89,0,1.616-0.726,1.616-1.615
				c0-0.891-0.727-1.617-1.616-1.617c-0.891,0-1.617,0.726-1.617,1.617C69.416,51.503,70.141,52.229,71.032,52.229z"/>
			<circle fill-rule="evenodd" clip-rule="evenodd" fill="#FFFFFF" cx="72.943" cy="53.518" r="0.696"/>
		</g>
		<g>
			<path fill-rule="evenodd" clip-rule="evenodd" fill="#FF6B6D" d="M52.91,66.987c2.302,0,4.178-0.978,4.178-2.177
				s-1.875-2.178-4.178-2.178c-2.301,0-4.177,0.979-4.177,2.178S50.609,66.987,52.91,66.987z"/>
			
				<ellipse transform="matrix(-0.2049 -0.9788 0.9788 -0.2049 -1.0236 127.2256)" fill-rule="evenodd" clip-rule="evenodd" fill="#FFFFFF" cx="51.166" cy="64.029" rx="0.703" ry="1.349"/>
		</g>
		<g>
			
				<ellipse transform="matrix(-0.6607 -0.7506 0.7506 -0.6607 87.8817 147.3673)" fill-rule="evenodd" clip-rule="evenodd" fill="#FF6B6D" cx="77.245" cy="53.823" rx="1.39" ry="2.67"/>
			
				<ellipse transform="matrix(-0.801 -0.5987 0.5987 -0.801 104.5756 143.1324)" fill-rule="evenodd" clip-rule="evenodd" fill="#FFFFFF" cx="76.078" cy="54.184" rx="0.449" ry="0.861"/>
		</g>
	</g>
	
		<rect display="none" fill-rule="evenodd" clip-rule="evenodd" fill="none" stroke="#102228" stroke-miterlimit="10" width="100" height="100"/>
	<g>
		<g>
			<g>
				
					<path fill-rule="evenodd" clip-rule="evenodd" fill="none" stroke="#F4AEAE" stroke-width="0.521" stroke-miterlimit="22.9256" d="
					M155.052,32.677c-21.525-1.123-45.613,23.99-33.772,31.228c11.84,7.237,44.028,7.872,56.491,0
					C190.232,56.032,176.578,33.8,155.052,32.677z"/>
				<path fill-rule="evenodd" clip-rule="evenodd" fill="#FFD5D6" d="M155.052,32.677c-21.525-1.123-45.613,23.99-33.772,31.228
					c11.84,7.237,44.028,7.872,56.491,0C190.232,56.032,176.578,33.8,155.052,32.677z"/>
			</g>
			<path fill-rule="evenodd" clip-rule="evenodd" fill="#FFADAF" d="M150.603,67.305c14.89,0,27.035-4.097,27.035-9.12
				c0-5.024-12.145-9.12-27.035-9.12c-14.891,0-27.036,4.096-27.036,9.12C123.567,63.208,135.712,67.305,150.603,67.305z"/>
			<path fill-rule="evenodd" clip-rule="evenodd" fill="#FFE3E3" d="M118.606,60.88c3.007-10.042,20.434-23.723,36.446-22.888
				c14.381,0.75,25.249,10.922,27.163,19.938c2.398-9.761-9.829-24.35-27.163-25.254C135.924,31.68,114.776,51.396,118.606,60.88z"
				/>
			<path fill-rule="evenodd" clip-rule="evenodd" fill="#FFF1F1" d="M161.933,35.078c4.714,1.083,7.943,3.907,7.213,6.31
				c-0.731,2.402-5.143,3.475-9.856,2.393c-4.714-1.082-7.943-3.907-7.213-6.309C152.807,35.069,157.22,33.998,161.933,35.078z"/>
			<path fill-rule="evenodd" clip-rule="evenodd" fill="#FFF1F1" d="M143.857,36.084c3.062-0.537,5.838,0.296,6.2,1.857
				c0.36,1.562-1.83,3.262-4.893,3.796c-3.062,0.534-5.838-0.299-6.198-1.859C138.605,38.316,140.795,36.617,143.857,36.084z"/>
		</g>
		<g>
			<path fill-rule="evenodd" clip-rule="evenodd" stroke="#F4AEAE" stroke-width="0.216" stroke-miterlimit="22.9256" d="
				M157.318,62.068c2.152,0,3.906-1.754,3.906-3.905s-1.754-3.905-3.906-3.905c-2.15,0-3.905,1.754-3.905,3.905
				S155.168,62.068,157.318,62.068z"/>
			<path fill-rule="evenodd" clip-rule="evenodd" fill="#FFFFFF" d="M156.438,58.835c0.96,0,1.745-0.784,1.745-1.745
				c0-0.96-0.785-1.745-1.745-1.745c-0.961,0-1.746,0.785-1.746,1.745C154.692,58.051,155.476,58.835,156.438,58.835z"/>
			<circle fill-rule="evenodd" clip-rule="evenodd" fill="#FFFFFF" cx="158.502" cy="60.229" r="0.752"/>
		</g>
		<g>
			<path fill-rule="evenodd" clip-rule="evenodd" stroke="#F4AEAE" stroke-width="0.216" stroke-miterlimit="22.9256" d="
				M172.182,55.221c1.991,0,3.616-1.624,3.616-3.616c0-1.991-1.625-3.617-3.616-3.617s-3.617,1.626-3.617,3.617
				C168.564,53.597,170.19,55.221,172.182,55.221z"/>
			<path fill-rule="evenodd" clip-rule="evenodd" fill="#FFFFFF" d="M171.367,52.228c0.889,0,1.615-0.726,1.615-1.615
				c0-0.891-0.726-1.617-1.615-1.617c-0.891,0-1.617,0.726-1.617,1.617C169.75,51.502,170.476,52.228,171.367,52.228z"/>
			<circle fill-rule="evenodd" clip-rule="evenodd" fill="#FFFFFF" cx="173.278" cy="53.518" r="0.696"/>
		</g>
		<g>
			<path fill-rule="evenodd" clip-rule="evenodd" fill="#FF6B6D" d="M153.245,66.986c2.301,0,4.178-0.978,4.178-2.177
				s-1.877-2.178-4.178-2.178c-2.302,0-4.179,0.979-4.179,2.178S150.942,66.986,153.245,66.986z"/>
			
				<ellipse transform="matrix(-0.2049 -0.9788 0.9788 -0.2049 119.8654 225.4316)" fill-rule="evenodd" clip-rule="evenodd" fill="#FFFFFF" cx="151.5" cy="64.028" rx="0.703" ry="1.349"/>
		</g>
		<g>
			
				<ellipse transform="matrix(-0.6611 -0.7503 0.7503 -0.6611 254.5983 222.6393)" fill-rule="evenodd" clip-rule="evenodd" fill="#FF6B6D" cx="177.579" cy="53.823" rx="1.391" ry="2.67"/>
			
				<ellipse transform="matrix(-0.801 -0.5987 0.5987 -0.801 285.2769 203.2015)" fill-rule="evenodd" clip-rule="evenodd" fill="#FFFFFF" cx="176.413" cy="54.184" rx="0.449" ry="0.86"/>
		</g>
	</g>
	
		<rect x="100.333" display="none" fill-rule="evenodd" clip-rule="evenodd" fill="none" stroke="#102228" stroke-miterlimit="10" width="100" height="100"/>
	<g>
		<g>
			<g>
				
					<path fill-rule="evenodd" clip-rule="evenodd" fill="none" stroke="#F4AEAE" stroke-width="0.5666" stroke-miterlimit="22.9256" d="
					M255.798,35.109c-23.408-1.05-49.601,22.409-36.724,29.169c12.875,6.762,47.876,7.354,61.427,0
					C294.054,56.924,279.206,36.158,255.798,35.109z"/>
				<path fill-rule="evenodd" clip-rule="evenodd" fill="#FFD5D6" d="M255.798,35.109c-23.408-1.05-49.601,22.409-36.724,29.169
					c12.875,6.762,47.876,7.354,61.427,0C294.054,56.924,279.206,36.158,255.798,35.109z"/>
			</g>
			<path fill-rule="evenodd" clip-rule="evenodd" fill="#FFADAF" d="M250.96,67.455c16.192,0,29.398-3.828,29.398-8.52
				c0-4.692-13.206-8.521-29.398-8.521c-16.193,0-29.399,3.828-29.399,8.521C221.561,63.626,234.767,67.455,250.96,67.455z"/>
			<path fill-rule="evenodd" clip-rule="evenodd" fill="#FFE3E3" d="M216.166,61.453c3.269-9.381,22.221-22.159,39.632-21.379
				c15.637,0.7,27.455,10.202,29.537,18.624c2.609-9.116-10.689-22.744-29.537-23.589C234.998,34.177,212.002,52.593,216.166,61.453
				z"/>
			<path fill-rule="evenodd" clip-rule="evenodd" fill="#FFF1F1" d="M263.279,37.352c5.127,1.01,8.638,3.648,7.844,5.893
				c-0.794,2.245-5.591,3.247-10.717,2.236c-5.127-1.01-8.638-3.648-7.844-5.895C253.356,37.343,258.153,36.343,263.279,37.352z"/>
			<path fill-rule="evenodd" clip-rule="evenodd" fill="#FFF1F1" d="M243.626,38.291c3.331-0.499,6.348,0.277,6.739,1.736
				c0.394,1.459-1.988,3.045-5.319,3.544c-3.331,0.5-6.348-0.277-6.741-1.735C237.913,40.376,240.294,38.79,243.626,38.291z"/>
		</g>
		<g>
			<path fill-rule="evenodd" clip-rule="evenodd" stroke="#F4AEAE" stroke-width="0.216" stroke-miterlimit="22.9256" d="
				M257.652,62.069c2.151,0,3.905-1.754,3.905-3.905s-1.754-3.905-3.905-3.905s-3.905,1.754-3.905,3.905
				S255.5,62.069,257.652,62.069z"/>
			<path fill-rule="evenodd" clip-rule="evenodd" fill="#FFFFFF" d="M256.771,58.835c0.961,0,1.746-0.784,1.746-1.744
				s-0.784-1.745-1.746-1.745c-0.96,0-1.745,0.785-1.745,1.745S255.81,58.835,256.771,58.835z"/>
			<circle fill-rule="evenodd" clip-rule="evenodd" fill="#FFFFFF" cx="258.836" cy="60.229" r="0.752"/>
		</g>
		<g>
			<path fill-rule="evenodd" clip-rule="evenodd" stroke="#F4AEAE" stroke-width="0.216" stroke-miterlimit="22.9256" d="
				M272.516,55.221c1.991,0,3.616-1.624,3.616-3.616c0-1.991-1.625-3.617-3.616-3.617c-1.993,0-3.617,1.626-3.617,3.617
				C268.898,53.598,270.523,55.221,272.516,55.221z"/>
			<path fill-rule="evenodd" clip-rule="evenodd" fill="#FFFFFF" d="M271.699,52.228c0.89,0,1.617-0.726,1.617-1.615
				c0-0.891-0.727-1.616-1.617-1.616s-1.615,0.726-1.615,1.616C270.084,51.502,270.81,52.228,271.699,52.228z"/>
			<circle fill-rule="evenodd" clip-rule="evenodd" fill="#FFFFFF" cx="273.612" cy="53.518" r="0.696"/>
		</g>
		<g>
			<path fill-rule="evenodd" clip-rule="evenodd" fill="#FF6B6D" d="M253.577,66.987c2.302,0,4.177-0.978,4.177-2.177
				s-1.875-2.179-4.177-2.179c-2.301,0-4.177,0.979-4.177,2.179S251.276,66.987,253.577,66.987z"/>
			
				<ellipse transform="matrix(-0.2049 -0.9788 0.9788 -0.2049 240.7698 323.6374)" fill-rule="evenodd" clip-rule="evenodd" fill="#FFFFFF" cx="251.833" cy="64.028" rx="0.703" ry="1.349"/>
		</g>
		<g>
			
				<ellipse transform="matrix(-0.661 -0.7504 0.7504 -0.661 421.2369 297.9347)" fill-rule="evenodd" clip-rule="evenodd" fill="#FF6B6D" cx="277.913" cy="53.823" rx="1.391" ry="2.67"/>
			
				<ellipse transform="matrix(-0.8016 -0.5978 0.5978 -0.8016 466.2013 263.0651)" fill-rule="evenodd" clip-rule="evenodd" fill="#FFFFFF" cx="276.746" cy="54.184" rx="0.449" ry="0.861"/>
		</g>
	</g>
	
		<rect x="200.667" display="none" fill-rule="evenodd" clip-rule="evenodd" fill="none" stroke="#102228" stroke-miterlimit="10" width="100" height="100"/>
	<g>
		<g>
			<g>
				
					<path fill-rule="evenodd" clip-rule="evenodd" fill="none" stroke="#F4AEAE" stroke-width="0.521" stroke-miterlimit="22.9256" d="
					M355.719,32.677c-21.526-1.123-45.613,23.99-33.773,31.228c11.84,7.237,44.028,7.872,56.49,0
					C390.898,56.032,377.244,33.8,355.719,32.677z"/>
				<path fill-rule="evenodd" clip-rule="evenodd" fill="#FFD5D6" d="M355.719,32.677c-21.526-1.123-45.613,23.99-33.773,31.228
					c11.84,7.237,44.028,7.872,56.49,0C390.898,56.032,377.244,33.8,355.719,32.677z"/>
			</g>
			<path fill-rule="evenodd" clip-rule="evenodd" fill="#FFADAF" d="M351.269,67.305c14.891,0,27.034-4.097,27.034-9.12
				c0-5.024-12.144-9.12-27.034-9.12c-14.892,0-27.035,4.096-27.035,9.12C324.233,63.208,336.377,67.305,351.269,67.305z"/>
			<path fill-rule="evenodd" clip-rule="evenodd" fill="#FFE3E3" d="M319.272,60.88c3.006-10.042,20.434-23.723,36.446-22.888
				c14.38,0.75,25.248,10.922,27.162,19.938c2.398-9.761-9.83-24.35-27.162-25.254C336.591,31.68,315.442,51.396,319.272,60.88z"/>
			<path fill-rule="evenodd" clip-rule="evenodd" fill="#FFF1F1" d="M362.6,35.078c4.713,1.083,7.942,3.907,7.212,6.31
				c-0.729,2.402-5.143,3.475-9.855,2.393c-4.714-1.082-7.943-3.907-7.214-6.309C353.474,35.069,357.885,33.998,362.6,35.078z"/>
			<path fill-rule="evenodd" clip-rule="evenodd" fill="#FFF1F1" d="M344.523,36.084c3.062-0.537,5.838,0.296,6.198,1.857
				c0.361,1.562-1.828,3.262-4.891,3.796c-3.062,0.534-5.838-0.299-6.199-1.859C339.271,38.316,341.461,36.617,344.523,36.084z"/>
		</g>
		<g>
			<path fill-rule="evenodd" clip-rule="evenodd" stroke="#F4AEAE" stroke-width="0.216" stroke-miterlimit="22.9256" d="
				M357.984,62.068c2.151,0,3.905-1.754,3.905-3.905s-1.754-3.905-3.905-3.905c-2.149,0-3.905,1.754-3.905,3.905
				S355.835,62.068,357.984,62.068z"/>
			<path fill-rule="evenodd" clip-rule="evenodd" fill="#FFFFFF" d="M357.104,58.835c0.96,0,1.744-0.784,1.744-1.745
				c0-0.96-0.784-1.745-1.744-1.745c-0.962,0-1.746,0.785-1.746,1.745C355.358,58.051,356.143,58.835,357.104,58.835z"/>
			<circle fill-rule="evenodd" clip-rule="evenodd" fill="#FFFFFF" cx="359.169" cy="60.229" r="0.752"/>
		</g>
		<g>
			<path fill-rule="evenodd" clip-rule="evenodd" stroke="#F4AEAE" stroke-width="0.216" stroke-miterlimit="22.9256" d="
				M372.849,55.221c1.991,0,3.615-1.624,3.615-3.616c0-1.991-1.624-3.617-3.615-3.617c-1.992,0-3.617,1.626-3.617,3.617
				C369.231,53.597,370.856,55.221,372.849,55.221z"/>
			<path fill-rule="evenodd" clip-rule="evenodd" fill="#FFFFFF" d="M372.031,52.228c0.891,0,1.617-0.726,1.617-1.615
				c0-0.891-0.727-1.617-1.617-1.617c-0.889,0-1.614,0.726-1.614,1.617C370.417,51.502,371.143,52.228,372.031,52.228z"/>
			<circle fill-rule="evenodd" clip-rule="evenodd" fill="#FFFFFF" cx="373.944" cy="53.518" r="0.696"/>
		</g>
		<g>
			<path fill-rule="evenodd" clip-rule="evenodd" fill="#FF6B6D" d="M353.91,66.986c2.302,0,4.177-0.978,4.177-2.177
				s-1.875-2.178-4.177-2.178c-2.301,0-4.178,0.979-4.178,2.178S351.609,66.986,353.91,66.986z"/>
			
				<ellipse transform="matrix(-0.2049 -0.9788 0.9788 -0.2049 361.6396 421.8424)" fill-rule="evenodd" clip-rule="evenodd" fill="#FFFFFF" cx="352.167" cy="64.028" rx="0.703" ry="1.347"/>
		</g>
		<g>
			
				<ellipse transform="matrix(-0.6612 -0.7502 0.7502 -0.6612 587.9716 373.1672)" fill-rule="evenodd" clip-rule="evenodd" fill="#FF6B6D" cx="378.245" cy="53.823" rx="1.391" ry="2.67"/>
			
				<ellipse transform="matrix(-0.8012 -0.5984 0.5984 -0.8012 646.7582 323.2509)" fill-rule="evenodd" clip-rule="evenodd" fill="#FFFFFF" cx="377.079" cy="54.184" rx="0.449" ry="0.861"/>
		</g>
	</g>
	
		<rect x="301" display="none" fill-rule="evenodd" clip-rule="evenodd" fill="none" stroke="#102228" stroke-miterlimit="10" width="100" height="100"/>
	<line display="none" fill="none" stroke="#102228" stroke-miterlimit="10" x1="0" y1="66.415" x2="401" y2="66.415"/>
</g>
</svg>
