<?xml version="1.0" encoding="utf-8"?>
<!-- Generator: Adobe Illustrator 16.0.0, SVG Export Plug-In . SVG Version: 6.00 Build 0)  -->
<!DOCTYPE svg PUBLIC "-//W3C//DTD SVG 1.1//EN" "http://www.w3.org/Graphics/SVG/1.1/DTD/svg11.dtd" [
	<!ENTITY ns_extend "http://ns.adobe.com/Extensibility/1.0/">
	<!ENTITY ns_ai "http://ns.adobe.com/AdobeIllustrator/10.0/">
	<!ENTITY ns_graphs "http://ns.adobe.com/Graphs/1.0/">
	<!ENTITY ns_vars "http://ns.adobe.com/Variables/1.0/">
	<!ENTITY ns_imrep "http://ns.adobe.com/ImageReplacement/1.0/">
	<!ENTITY ns_sfw "http://ns.adobe.com/SaveForWeb/1.0/">
	<!ENTITY ns_custom "http://ns.adobe.com/GenericCustomNamespace/1.0/">
	<!ENTITY ns_adobe_xpath "http://ns.adobe.com/XPath/1.0/">
]>
<svg version="1.1" xmlns:x="&ns_extend;" xmlns:i="&ns_ai;" xmlns:graph="&ns_graphs;"
	 xmlns="http://www.w3.org/2000/svg" xmlns:xlink="http://www.w3.org/1999/xlink" x="0px" y="0px" width="400.667px" height="100px"
	 viewBox="0 0 400.667 100" enable-background="new 0 0 400.667 100" xml:space="preserve">
<g id="Layer_2">
</g>
<g id="Layer_1">
	<g>
		<g>
			<g>
				
					<path fill-rule="evenodd" clip-rule="evenodd" fill="none" stroke="#F4AEAE" stroke-width="0.4799" stroke-miterlimit="22.9256" d="
					M50.896,26.479c-19.829-1.191-35.427,29.322-24.521,36.993c10.907,7.671,34.992,8.486,46.472,0.142
					C84.327,55.268,70.726,27.668,50.896,26.479z"/>
				<path fill-rule="evenodd" clip-rule="evenodd" fill="#FFD5D6" d="M50.896,26.479c-19.829-1.191-35.427,29.322-24.521,36.993
					c10.907,7.671,34.992,8.486,46.472,0.142C84.327,55.268,70.726,27.668,50.896,26.479z"/>
			</g>
			<path fill-rule="evenodd" clip-rule="evenodd" fill="#FFADAF" d="M47.82,47.881c13.755,0,24.905,4.329,24.905,9.667
				c0,5.339-11.149,9.667-24.905,9.667c-13.754,0-19.337-4.468-19.337-9.807C28.483,52.069,34.066,47.881,47.82,47.881z"/>
			<path fill-rule="evenodd" clip-rule="evenodd" fill="#FFE3E3" d="M23.914,60.265c2.769-10.645,14.01-24.959,28.007-24.119
				c13.998,0.84,23.259,11.578,25.022,21.134c2.21-10.346-9.254-29.794-26.046-30.801C34.102,25.471,18.4,49.06,23.914,60.265z"/>
			
				<ellipse transform="matrix(0.2552 -0.9669 0.9669 0.2552 9.8687 81.3643)" fill-rule="evenodd" clip-rule="evenodd" fill="#FFF1F1" cx="57.746" cy="34.277" rx="4.769" ry="8.13"/>
			
				<ellipse transform="matrix(-0.1968 -0.9804 0.9804 -0.1968 20.237 81.2447)" fill-rule="evenodd" clip-rule="evenodd" fill="#FFF1F1" cx="43.397" cy="32.333" rx="3.057" ry="5.21"/>
		</g>
		<g>
			<path fill-rule="evenodd" clip-rule="evenodd" stroke="#F4AEAE" stroke-width="0.216" stroke-miterlimit="22.9256" d="
				M36.123,59.927c2.151,0,3.905-1.752,3.905-3.904s-1.754-3.906-3.905-3.906c-2.15,0-3.905,1.755-3.905,3.906
				S33.973,59.927,36.123,59.927z"/>
			<path fill-rule="evenodd" clip-rule="evenodd" fill="#FFFFFF" d="M35.243,56.695c0.96,0,1.745-0.784,1.745-1.744
				c0-0.962-0.784-1.746-1.745-1.746c-0.962,0-1.746,0.784-1.746,1.746C33.497,55.911,34.281,56.695,35.243,56.695z"/>
			<circle fill-rule="evenodd" clip-rule="evenodd" fill="#FFFFFF" cx="37.308" cy="58.089" r="0.752"/>
		</g>
		<g>
			<path fill-rule="evenodd" clip-rule="evenodd" fill="#FF6B6D" d="M32.048,64.847c2.302,0,4.178-0.979,4.178-2.177
				c0-1.2-1.876-2.178-4.178-2.178c-2.301,0-4.177,0.978-4.177,2.178C27.871,63.867,29.748,64.847,32.048,64.847z"/>
			
				<ellipse transform="matrix(-0.2051 -0.9787 0.9787 -0.2051 -24.0528 104.2398)" fill-rule="evenodd" clip-rule="evenodd" fill="#FFFFFF" cx="30.305" cy="61.888" rx="0.702" ry="1.348"/>
		</g>
		<g>
			<path fill-rule="evenodd" clip-rule="evenodd" stroke="#F4AEAE" stroke-width="0.216" stroke-miterlimit="22.9256" d="
				M65.061,59.927c2.151,0,3.905-1.752,3.905-3.904s-1.754-3.906-3.905-3.906s-3.906,1.755-3.906,3.906S62.91,59.927,65.061,59.927z
				"/>
			<path fill-rule="evenodd" clip-rule="evenodd" fill="#FFFFFF" d="M64.179,56.695c0.962,0,1.745-0.784,1.745-1.744
				c0-0.962-0.783-1.746-1.745-1.746c-0.96,0-1.745,0.784-1.745,1.746C62.435,55.911,63.219,56.695,64.179,56.695z"/>
			<circle fill-rule="evenodd" clip-rule="evenodd" fill="#FFFFFF" cx="66.245" cy="58.089" r="0.752"/>
		</g>
		<g>
			<path fill-rule="evenodd" clip-rule="evenodd" fill="#FF6B6D" d="M68.471,64.847c2.301,0,4.177-0.979,4.177-2.177
				c0-1.2-1.876-2.178-4.177-2.178c-2.302,0-4.179,0.978-4.179,2.178C64.292,63.867,66.169,64.847,68.471,64.847z"/>
			
				<ellipse transform="matrix(-0.2051 -0.9787 0.9787 -0.2051 19.8373 139.8872)" fill-rule="evenodd" clip-rule="evenodd" fill="#FFFFFF" cx="66.727" cy="61.888" rx="0.702" ry="1.35"/>
		</g>
	</g>
	
		<rect display="none" fill-rule="evenodd" clip-rule="evenodd" fill="none" stroke="#102228" stroke-miterlimit="10" width="100" height="100"/>
	<g>
		<g>
			<g>
				
					<path fill-rule="evenodd" clip-rule="evenodd" fill="none" stroke="#F4AEAE" stroke-width="0.5445" stroke-miterlimit="22.9256" d="
					M151.35,29.099c-22.497-1.117-40.193,27.537-27.819,34.741c12.375,7.205,39.7,7.971,52.725,0.134
					C189.281,56.136,173.848,30.217,151.35,29.099z"/>
				<path fill-rule="evenodd" clip-rule="evenodd" fill="#FFD5D6" d="M151.35,29.099c-22.497-1.117-40.193,27.537-27.819,34.741
					c12.375,7.205,39.7,7.971,52.725,0.134C189.281,56.136,173.848,30.217,151.35,29.099z"/>
			</g>
			<path fill-rule="evenodd" clip-rule="evenodd" fill="#FFADAF" d="M147.861,49.201c15.605,0,28.256,4.064,28.256,9.078
				c0,5.015-12.651,9.079-28.256,9.079c-15.604,0-21.94-4.197-21.94-9.211S132.257,49.201,147.861,49.201z"/>
			<path fill-rule="evenodd" clip-rule="evenodd" fill="#FFE3E3" d="M120.737,60.831c3.143-9.997,15.895-23.44,31.776-22.652
				c15.882,0.79,26.388,10.873,28.389,19.849c2.507-9.716-10.499-27.98-29.552-28.928C132.298,28.154,114.483,50.307,120.737,60.831
				z"/>
			<path fill-rule="evenodd" clip-rule="evenodd" fill="#FFF1F1" d="M160.503,32.094c4.927,1.074,8.301,3.886,7.539,6.279
				c-0.763,2.393-5.374,3.458-10.301,2.382c-4.926-1.076-8.302-3.89-7.538-6.28C150.965,32.083,155.576,31.016,160.503,32.094z"/>
			<path fill-rule="evenodd" clip-rule="evenodd" fill="#FFF1F1" d="M142.161,31.785c3.201-0.534,6.102,0.296,6.478,1.85
				c0.377,1.554-1.91,3.245-5.112,3.778c-3.201,0.531-6.101-0.297-6.478-1.852C136.67,34.008,138.959,32.315,142.161,31.785z"/>
		</g>
		<g>
			<path fill-rule="evenodd" clip-rule="evenodd" stroke="#F4AEAE" stroke-width="0.216" stroke-miterlimit="22.9256" d="
				M136.458,59.927c2.151,0,3.905-1.753,3.905-3.904s-1.754-3.906-3.905-3.906c-2.15,0-3.906,1.755-3.906,3.906
				S134.307,59.927,136.458,59.927z"/>
			<path fill-rule="evenodd" clip-rule="evenodd" fill="#FFFFFF" d="M135.577,56.695c0.96,0,1.745-0.784,1.745-1.744
				c0-0.962-0.785-1.746-1.745-1.746c-0.962,0-1.746,0.784-1.746,1.746C133.831,55.911,134.615,56.695,135.577,56.695z"/>
			<circle fill-rule="evenodd" clip-rule="evenodd" fill="#FFFFFF" cx="137.642" cy="58.089" r="0.751"/>
		</g>
		<g>
			<path fill-rule="evenodd" clip-rule="evenodd" fill="#FF6B6D" d="M132.384,64.846c2.301,0,4.177-0.979,4.177-2.177
				c0-1.2-1.876-2.178-4.177-2.178c-2.302,0-4.179,0.978-4.179,2.178C128.205,63.867,130.082,64.846,132.384,64.846z"/>
			
				<ellipse transform="matrix(-0.2051 -0.9787 0.9787 -0.2051 96.8566 202.4409)" fill-rule="evenodd" clip-rule="evenodd" fill="#FFFFFF" cx="130.639" cy="61.887" rx="0.702" ry="1.348"/>
		</g>
		<g>
			<path fill-rule="evenodd" clip-rule="evenodd" stroke="#F4AEAE" stroke-width="0.216" stroke-miterlimit="22.9256" d="
				M165.395,59.927c2.151,0,3.905-1.753,3.905-3.904s-1.754-3.906-3.905-3.906s-3.905,1.755-3.905,3.906
				S163.244,59.927,165.395,59.927z"/>
			<path fill-rule="evenodd" clip-rule="evenodd" fill="#FFFFFF" d="M164.514,56.695c0.961,0,1.746-0.784,1.746-1.744
				c0-0.962-0.784-1.746-1.746-1.746c-0.96,0-1.745,0.784-1.745,1.746C162.769,55.911,163.553,56.695,164.514,56.695z"/>
			<circle fill-rule="evenodd" clip-rule="evenodd" fill="#FFFFFF" cx="166.58" cy="58.089" r="0.751"/>
		</g>
		<g>
			<path fill-rule="evenodd" clip-rule="evenodd" fill="#FF6B6D" d="M168.805,64.846c2.301,0,4.178-0.979,4.178-2.177
				c0-1.2-1.876-2.178-4.178-2.178c-2.302,0-4.178,0.978-4.178,2.178C164.627,63.867,166.503,64.846,168.805,64.846z"/>
			
				<ellipse transform="matrix(-0.2051 -0.9787 0.9787 -0.2051 140.7473 238.0888)" fill-rule="evenodd" clip-rule="evenodd" fill="#FFFFFF" cx="167.061" cy="61.887" rx="0.702" ry="1.349"/>
		</g>
	</g>
	
		<rect x="100.333" display="none" fill-rule="evenodd" clip-rule="evenodd" fill="none" stroke="#102228" stroke-miterlimit="10" width="100" height="100"/>
	<g>
		<g>
			<g>
				
					<path fill-rule="evenodd" clip-rule="evenodd" fill="none" stroke="#F4AEAE" stroke-width="0.5919" stroke-miterlimit="22.9256" d="
					M251.772,31.664c-24.455-1.047-43.693,25.793-30.241,32.54c13.451,6.748,43.156,7.464,57.315,0.123
					C293.005,56.988,276.229,32.71,251.772,31.664z"/>
				<path fill-rule="evenodd" clip-rule="evenodd" fill="#FFD5D6" d="M251.772,31.664c-24.455-1.047-43.693,25.793-30.241,32.54
					c13.451,6.748,43.156,7.464,57.315,0.123C293.005,56.988,276.229,32.71,251.772,31.664z"/>
			</g>
			<path fill-rule="evenodd" clip-rule="evenodd" fill="#FFADAF" d="M247.98,50.49c16.963,0,30.716,3.808,30.716,8.504
				s-13.752,8.503-30.716,8.503c-16.963,0-23.851-3.93-23.851-8.627C224.129,54.174,231.017,50.49,247.98,50.49z"/>
			<path fill-rule="evenodd" clip-rule="evenodd" fill="#FFE3E3" d="M218.494,61.383c3.415-9.363,17.279-21.956,34.542-21.217
				c17.264,0.739,28.686,10.184,30.859,18.59c2.727-9.099-11.412-26.207-32.124-27.093
				C231.061,30.775,211.696,51.528,218.494,61.383z"/>
			<path fill-rule="evenodd" clip-rule="evenodd" fill="#FFF1F1" d="M261.722,34.465c5.355,1.009,9.024,3.643,8.195,5.883
				c-0.829,2.24-5.842,3.239-11.197,2.232c-5.356-1.009-9.026-3.643-8.195-5.884C251.354,34.457,256.366,33.458,261.722,34.465z"/>
			<path fill-rule="evenodd" clip-rule="evenodd" fill="#FFF1F1" d="M241.783,34.176c3.479-0.497,6.632,0.277,7.041,1.734
				c0.411,1.455-2.077,3.039-5.557,3.538c-3.479,0.499-6.633-0.277-7.042-1.734C235.815,36.26,238.303,34.675,241.783,34.176z"/>
		</g>
		<g>
			<path fill-rule="evenodd" clip-rule="evenodd" stroke="#F4AEAE" stroke-width="0.216" stroke-miterlimit="22.9256" d="
				M236.791,59.927c2.151,0,3.905-1.752,3.905-3.903s-1.754-3.906-3.905-3.906c-2.15,0-3.905,1.755-3.905,3.906
				S234.641,59.927,236.791,59.927z"/>
			<path fill-rule="evenodd" clip-rule="evenodd" fill="#FFFFFF" d="M235.911,56.696c0.96,0,1.745-0.784,1.745-1.744
				c0-0.962-0.784-1.746-1.745-1.746c-0.961,0-1.746,0.784-1.746,1.746C234.165,55.912,234.949,56.696,235.911,56.696z"/>
			<circle fill-rule="evenodd" clip-rule="evenodd" fill="#FFFFFF" cx="237.975" cy="58.089" r="0.752"/>
		</g>
		<g>
			<path fill-rule="evenodd" clip-rule="evenodd" fill="#FF6B6D" d="M232.718,64.847c2.301,0,4.177-0.979,4.177-2.178
				c0-1.199-1.876-2.178-4.177-2.178c-2.302,0-4.179,0.979-4.179,2.178C228.539,63.868,230.416,64.847,232.718,64.847z"/>
			
				<ellipse transform="matrix(-0.2041 -0.979 0.979 -0.2041 217.52 300.6295)" fill-rule="evenodd" clip-rule="evenodd" fill="#FFFFFF" cx="230.972" cy="61.888" rx="0.702" ry="1.348"/>
		</g>
		<g>
			<path fill-rule="evenodd" clip-rule="evenodd" stroke="#F4AEAE" stroke-width="0.216" stroke-miterlimit="22.9256" d="
				M265.729,59.927c2.151,0,3.905-1.752,3.905-3.903s-1.754-3.906-3.905-3.906c-2.151,0-3.905,1.755-3.905,3.906
				S263.578,59.927,265.729,59.927z"/>
			<path fill-rule="evenodd" clip-rule="evenodd" fill="#FFFFFF" d="M264.847,56.696c0.961,0,1.745-0.784,1.745-1.744
				c0-0.962-0.783-1.746-1.745-1.746c-0.96,0-1.745,0.784-1.745,1.746C263.103,55.912,263.887,56.696,264.847,56.696z"/>
			<circle fill-rule="evenodd" clip-rule="evenodd" fill="#FFFFFF" cx="266.913" cy="58.089" r="0.752"/>
		</g>
		<g>
			<path fill-rule="evenodd" clip-rule="evenodd" fill="#FF6B6D" d="M269.139,64.847c2.301,0,4.178-0.979,4.178-2.178
				c0-1.199-1.877-2.178-4.178-2.178c-2.302,0-4.179,0.979-4.179,2.178C264.96,63.868,266.837,64.847,269.139,64.847z"/>
			
				<ellipse transform="matrix(-0.2051 -0.9787 0.9787 -0.2051 261.6547 336.2913)" fill-rule="evenodd" clip-rule="evenodd" fill="#FFFFFF" cx="267.395" cy="61.888" rx="0.702" ry="1.35"/>
		</g>
	</g>
	
		<rect x="200.667" display="none" fill-rule="evenodd" clip-rule="evenodd" fill="none" stroke="#102228" stroke-miterlimit="10" width="100" height="100"/>
	<g>
		<g>
			<g>
				
					<path fill-rule="evenodd" clip-rule="evenodd" fill="none" stroke="#F4AEAE" stroke-width="0.5445" stroke-miterlimit="22.9256" d="
					M352.019,29.099c-22.499-1.117-40.195,27.537-27.82,34.741c12.375,7.205,39.7,7.971,52.725,0.134
					C389.947,56.136,374.515,30.217,352.019,29.099z"/>
				<path fill-rule="evenodd" clip-rule="evenodd" fill="#FFD5D6" d="M352.019,29.099c-22.499-1.117-40.195,27.537-27.82,34.741
					c12.375,7.205,39.7,7.971,52.725,0.134C389.947,56.136,374.515,30.217,352.019,29.099z"/>
			</g>
			<path fill-rule="evenodd" clip-rule="evenodd" fill="#FFADAF" d="M348.529,49.201c15.604,0,28.255,4.064,28.255,9.078
				c0,5.015-12.651,9.079-28.255,9.079c-15.605,0-21.941-4.197-21.941-9.211S332.924,49.201,348.529,49.201z"/>
			<path fill-rule="evenodd" clip-rule="evenodd" fill="#FFE3E3" d="M321.405,60.831c3.141-9.997,15.894-23.44,31.776-22.652
				c15.881,0.79,26.386,10.873,28.387,19.849c2.508-9.716-10.498-27.98-29.55-28.928C332.965,28.154,315.149,50.307,321.405,60.831z
				"/>
			<path fill-rule="evenodd" clip-rule="evenodd" fill="#FFF1F1" d="M361.169,32.094c4.928,1.074,8.303,3.886,7.539,6.279
				c-0.763,2.393-5.374,3.458-10.301,2.382c-4.926-1.076-8.302-3.89-7.537-6.28C351.633,32.083,356.243,31.016,361.169,32.094z"/>
			<path fill-rule="evenodd" clip-rule="evenodd" fill="#FFF1F1" d="M342.827,31.785c3.201-0.534,6.102,0.296,6.479,1.85
				s-1.91,3.245-5.113,3.778c-3.199,0.531-6.101-0.297-6.477-1.852C337.337,34.008,339.627,32.315,342.827,31.785z"/>
		</g>
		<g>
			<path fill-rule="evenodd" clip-rule="evenodd" stroke="#F4AEAE" stroke-width="0.216" stroke-miterlimit="22.9256" d="
				M337.125,59.927c2.151,0,3.904-1.753,3.904-3.904s-1.753-3.906-3.904-3.906s-3.905,1.755-3.905,3.906
				S334.974,59.927,337.125,59.927z"/>
			<path fill-rule="evenodd" clip-rule="evenodd" fill="#FFFFFF" d="M336.243,56.695c0.962,0,1.745-0.784,1.745-1.744
				c0-0.962-0.783-1.746-1.745-1.746c-0.96,0-1.744,0.784-1.744,1.746C334.499,55.911,335.283,56.695,336.243,56.695z"/>
			<circle fill-rule="evenodd" clip-rule="evenodd" fill="#FFFFFF" cx="338.309" cy="58.089" r="0.751"/>
		</g>
		<g>
			<path fill-rule="evenodd" clip-rule="evenodd" fill="#FF6B6D" d="M333.051,64.846c2.301,0,4.177-0.979,4.177-2.177
				c0-1.2-1.876-2.178-4.177-2.178s-4.18,0.978-4.18,2.178C328.871,63.867,330.75,64.846,333.051,64.846z"/>
			
				<ellipse transform="matrix(-0.2051 -0.9787 0.9787 -0.2051 338.6732 398.8435)" fill-rule="evenodd" clip-rule="evenodd" fill="#FFFFFF" cx="331.306" cy="61.887" rx="0.702" ry="1.349"/>
		</g>
		<g>
			<path fill-rule="evenodd" clip-rule="evenodd" stroke="#F4AEAE" stroke-width="0.216" stroke-miterlimit="22.9256" d="
				M366.062,59.927c2.151,0,3.905-1.753,3.905-3.904s-1.754-3.906-3.905-3.906c-2.149,0-3.905,1.755-3.905,3.906
				S363.912,59.927,366.062,59.927z"/>
			<path fill-rule="evenodd" clip-rule="evenodd" fill="#FFFFFF" d="M365.182,56.695c0.96,0,1.744-0.784,1.744-1.744
				c0-0.962-0.784-1.746-1.744-1.746c-0.962,0-1.746,0.784-1.746,1.746C363.436,55.911,364.22,56.695,365.182,56.695z"/>
			<circle fill-rule="evenodd" clip-rule="evenodd" fill="#FFFFFF" cx="367.246" cy="58.089" r="0.751"/>
		</g>
		<g>
			<path fill-rule="evenodd" clip-rule="evenodd" fill="#FF6B6D" d="M369.472,64.846c2.303,0,4.178-0.979,4.178-2.177
				c0-1.2-1.875-2.178-4.178-2.178c-2.301,0-4.177,0.978-4.177,2.178C365.295,63.867,367.171,64.846,369.472,64.846z"/>
			
				<ellipse transform="matrix(-0.2057 -0.9786 0.9786 -0.2057 382.8169 434.4807)" fill-rule="evenodd" clip-rule="evenodd" fill="#FFFFFF" cx="367.728" cy="61.887" rx="0.703" ry="1.349"/>
		</g>
	</g>
	
		<rect x="301" display="none" fill-rule="evenodd" clip-rule="evenodd" fill="none" stroke="#102228" stroke-miterlimit="10" width="100" height="100"/>
	<line display="none" fill="none" stroke="#102228" stroke-miterlimit="10" x1="0" y1="66.415" x2="401" y2="66.415"/>
</g>
</svg>
